<?xml version="1.0" encoding="utf-8"?>
<!-- Generator: Adobe Illustrator 24.1.1, SVG Export Plug-In . SVG Version: 6.00 Build 0)  -->
<svg version="1.1" id="aaafdec0-95c8-49a3-a8f8-64216c6da511"
	 xmlns="http://www.w3.org/2000/svg" xmlns:xlink="http://www.w3.org/1999/xlink" x="0px" y="0px" viewBox="0 0 869 579"
	 style="enable-background:new 0 0 869 579;" xml:space="preserve">
<style type="text/css">
	.st0{opacity:0.18;fill:url(#SVGID_1_);enable-background:new    ;}
	.st1{opacity:0.1;fill:#42A5F5;enable-background:new    ;}
	.st2{fill:#C8CAD7;}
	.st3{opacity:0.1;enable-background:new    ;}
	.st4{fill:#474157;}
	.st5{fill:#4C4C78;}
	.st6{fill:#FFFFFF;}
	.st7{fill:#EDEDF4;}
	.st8{fill:#42A5F5;}
	.st9{opacity:0.5;fill:#42A5F5;enable-background:new    ;}
	.st10{opacity:0.5;fill:#DCE0ED;enable-background:new    ;}
	.st11{fill:url(#SVGID_2_);}
	.st12{fill:#65617D;}
	.st13{fill:#A27772;}
	.st14{fill:#FBBEBE;}
	.st15{fill:#FF748E;}
	.st16{opacity:5.000000e-02;enable-background:new    ;}
	.st17{fill:#7C5C5C;}
	.st18{opacity:0.1;}
	.st19{opacity:0.5;}
	.st20{fill:#DCE0ED;}
	.st21{fill:#FFD037;}
	.st22{fill:#A8A8A8;}
	.st23{opacity:0.2;enable-background:new    ;}
</style>
<linearGradient id="SVGID_1_" gradientUnits="userSpaceOnUse" x1="9.9539" y1="290.4655" x2="858.9742" y2="290.4655" gradientTransform="matrix(1 0 0 -1 0 580)">
	<stop  offset="0" style="stop-color:#FF8A65"/>
	<stop  offset="1" style="stop-color:#55ABE5"/>
</linearGradient>
<path class="st0" d="M841.7,532.8c-4.7,6.2-10.6,11.9-17.4,16.7c-32.4,22.8-81.7,23.5-124.8,15.1s-83.9-24.3-127.3-31.3
	c-69-11-138.9,1.5-206.3,14c-67.4,12.4-137.3,25.2-206.4,14.5c-65-10-129.4-46.7-145.6-97.2c-1-3.1-1.8-6.3-2.4-9.5
	c-14.6-75.8,79-138,79.2-214.3c0.1-21.3-7.3-42.4-9.3-63.7C74.6,105.8,135,36,219.9,16.7c149-33.8,299.1,63.6,452.2,53.5
	c152.7-10,167.7,48.2,143.8,163.6c-8.1,39.4-6,79.9,6,119.3c10.4,33.9,28.3,66.6,34.8,101.1C861.9,481.1,858.7,510.5,841.7,532.8z"
	/>
<path class="st1" d="M707,153.5c-5.8-11.3-13.4-21.6-22.6-30.4l-313.2-2.6l257.9-30.6c-16.9-5.6-34.5-8.6-52.3-8.8
	c-24.8-16.9-56.7-27.1-91.5-27.1c-31.2,0-60.1,8.2-83.6,22.1c-20-8.7-42.8-13.7-67-13.7C265,62.4,207,103.1,194,157.2L707,153.5z"/>
<path class="st1" d="M718,198.8c0-14.8-3.4-29.4-9.8-42.8l-542.8,48.2c-5.5,8.4-9.8,17.5-12.7,27.2l168.1,21.2L148.9,268
	c5.2,61.2,67.2,109.5,143,109.5c38.1,0,72.8-12.2,98.5-32.2c25.8,20.3,60.7,32.8,99.3,32.8c57.2,0,106.6-27.5,129.6-67.3
	c46.1-12.4,82-43.5,94.2-82.3l-212.6-27.9H718C718,199.9,718,199.4,718,198.8z"/>
<ellipse class="st1" cx="400.7" cy="484.6" rx="146" ry="6.5"/>
<path class="st2" d="M487.4,473.1v3.9H370.9v-3.2c19.8-7.3,29.9-29.4,22.6-49.2c-3.5-9.5-10.7-17.3-20-21.5h113
	c-19.2,8.8-27.7,31.5-18.9,50.7C471.7,462.5,478.7,469.4,487.4,473.1L487.4,473.1z"/>
<path class="st3" d="M486.6,403.2c-10.5,4.8-18.3,14.2-21.2,25.4h-70.7c-2.9-11.2-10.6-20.5-21.2-25.4H486.6z"/>
<path class="st2" d="M237.6,383.1v22.1c0,12.2,8.9,22.1,20,22.1h342.7c11,0,20-9.9,20-22.1v-22.1H237.6z"/>
<path class="st3" d="M487.4,473.1v3.9H370.9v-3.2c3.2-1.2,6.2-2.8,9-4.8h100.3C482.5,470.7,484.9,472,487.4,473.1z"/>
<path class="st2" d="M337.2,470.3h183.9c2.6,0,4.8,2.1,4.8,4.8v2.1c0,2.6-2.1,4.8-4.8,4.8H337.2c-2.6,0-4.8-2.1-4.8-4.8v-2.1
	C332.5,472.5,334.6,470.3,337.2,470.3z"/>
<path class="st4" d="M620.2,140.8c0-11-8.9-19.9-20-19.9H257.5c-11,0-20,8.9-20,19.9v246.6h382.6V140.8z"/>
<path class="st5" d="M609.8,149.8v211.9c0,5.4-4.4,9.8-9.8,9.8c0,0,0,0,0,0H257.8c-5.4,0-9.8-4.4-9.8-9.8c0,0,0,0,0,0V149.8
	c0-5.4,4.4-9.8,9.8-9.8h342.1C605.3,139.9,609.7,144.3,609.8,149.8C609.8,149.7,609.8,149.7,609.8,149.8z"/>
<circle class="st6" cx="428.9" cy="130.4" r="4.6"/>
<circle class="st6" cx="428.9" cy="406.1" r="11.4"/>
<path class="st6" d="M324.5,144.8v226.6h-66.6c-5.4,0-9.8-4.4-9.8-9.8c0,0,0,0,0,0V149.8l0.4-1.3l1-3.6H324.5z"/>
<polygon class="st5" points="333,148.4 333,168.8 248,168.8 248,149.8 248.4,148.4 "/>
<path class="st2" d="M609.8,149.8H248c0-5.4,4.4-9.8,9.8-9.8c0,0,0,0,0,0h342.1C605.3,139.9,609.7,144.3,609.8,149.8
	C609.8,149.7,609.8,149.7,609.8,149.8z"/>
<circle class="st7" cx="257.8" cy="144.8" r="2.5"/>
<circle class="st7" cx="265.2" cy="144.8" r="2.5"/>
<circle class="st7" cx="272.6" cy="144.8" r="2.5"/>
<rect x="260.7" y="157.4" class="st8" width="51" height="4.7"/>
<rect x="260.7" y="180.3" class="st9" width="51" height="4.7"/>
<rect x="260.7" y="196.5" class="st9" width="51" height="4.7"/>
<rect x="260.7" y="212.7" class="st9" width="51" height="4.7"/>
<rect x="260.7" y="228.9" class="st9" width="51" height="4.7"/>
<rect x="260.7" y="245.1" class="st9" width="51" height="4.7"/>
<rect x="260.7" y="261.3" class="st9" width="51" height="4.7"/>
<rect x="260.7" y="277.5" class="st9" width="51" height="4.7"/>
<rect x="366.2" y="174.7" class="st10" width="226.1" height="0.8"/>
<rect x="366.2" y="192.2" class="st10" width="226.1" height="0.8"/>
<rect x="366.2" y="209.8" class="st10" width="226.1" height="0.8"/>
<rect x="366.2" y="227.3" class="st10" width="226.1" height="0.8"/>
<rect x="366.2" y="244.8" class="st10" width="226.1" height="0.8"/>
<polygon class="st9" points="592.4,245.6 366,245.6 366,211.1 386.7,221.3 408.2,224.2 427.1,218.6 449.8,200.9 461.3,194.3 
	469.6,192.7 477.6,193.1 490.8,199.6 508.7,211 522.7,212.8 533.9,209 557.5,189.7 569.5,185.4 582.1,187.3 592.4,193.2 "/>
<path class="st8" d="M405.4,224.3c-20.4,0-39.2-12.5-39.5-12.6l0.6-0.8c0.3,0.2,29.3,19.4,53.9,9.8c9-3.5,15.4-9,21.6-14.2
	c6.5-5.5,12.6-10.7,20.9-13c9.6-2.6,20-0.2,27.9,6.3c6.8,5.6,20.3,14.5,34.5,11.8c7.3-1.4,13.4-6.7,19.9-12.3
	c12.4-10.8,25.3-21.9,47.5-5.9l-0.6,0.8c-21.6-15.5-34.1-4.6-46.3,5.9c-6.6,5.7-12.8,11.1-20.3,12.5c-14.7,2.7-28.4-6.4-35.3-12
	c-7.7-6.3-17.8-8.6-27-6.1c-8.1,2.2-14.1,7.3-20.5,12.8c-6.3,5.3-12.7,10.8-21.9,14.4C415.9,223.4,410.7,224.3,405.4,224.3z"/>
<circle class="st8" cx="475.1" cy="192.6" r="5.6"/>
<linearGradient id="SVGID_2_" gradientUnits="userSpaceOnUse" x1="337.7925" y1="77.6557" x2="337.7925" y2="290.326" gradientTransform="matrix(1 0 0 -1 -35 564.05)">
	<stop  offset="0" style="stop-color:#808080;stop-opacity:0.25"/>
	<stop  offset="0.54" style="stop-color:#808080;stop-opacity:0.12"/>
	<stop  offset="1" style="stop-color:#808080;stop-opacity:0.1"/>
</linearGradient>
<path class="st11" d="M334.6,314.4c-7.7-4.4-10.6-5.5-10.6-5.5l-0.2-0.1c-0.8-0.6-1.5-1.5-1.9-2.4c0-0.2,0-0.4,0-0.5v0.1
	c0.1-2.3,1.8-4.5,3.4-6.3c1.3-1.6,2.7-3.2,4-4.7c0.5-0.5,0.8-1.1,1-1.7c0.1-0.3,0.1-0.7,0.1-1c0-0.1,0-0.3,0-0.4
	c0-1.2-0.1-2.4-0.1-3.5c0-1-0.3-2.3-1.3-2.5c-0.5-0.1-1.2,0.1-1.5-0.4c-0.1-0.2-0.1-0.4-0.1-0.6c0,0,0,0,0,0c0,0,0,0,0-0.1
	c0.2-0.8,0.3-1.6,0.4-2.4c0-0.4,0-0.8-0.2-1.2c-0.6-1.7-2.6-2.4-4.5-2.7c-1.8-0.3-3.8-0.6-5-2c-0.3-0.5-0.6-0.9-1-1.4
	c-0.5-0.5-1.2-0.8-1.9-0.9c-2.2-0.6-4.6-0.3-6.7,0.6c-0.9,0.4-1.8,0.9-2.7,0.9c-1-0.1-1.9-0.8-2.8-0.9c-1.6-0.3-3.1,0.9-3.9,2.3
	c-0.5,0.8-0.7,1.7-0.7,2.7c0,0.1,0,0.1,0,0.2l0,0c0,1,0.4,2,1,2.7c0.7,0.7,1.7,1.2,2,2.1c0.1,0.4,0.1,0.8,0.2,1.2c0,0.1,0,0.1,0,0.1
	l-0.1,0.1c-1.6,2.1-2.5,4.7-2.5,7.4c0,5.3,3.5,10,8.6,11.6c0,0.1,0,0.2,0,0.4c0.1,1.5-0.5,3-1.7,4.1l-10.9,4.4c0,0-6.5-0.8-8.9,8.8
	c-0.4,1.6-0.5,3.2-0.4,4.9c0.1,1.4-0.1,4-1.8,7.3c-2.7,5.3-2.1,17.3,3.4,18.5c5.2,1.1,7.2,0.7,7.4,0.6v0.2
	c-0.1,2.3-0.9,21.8-3.9,24.2c-0.8,0.6-0.7,1.1,0,1.4c0,0,0,0.1,0,0.4c-0.1,1.4-0.6,6.9-2.6,10c-2.3,3.6-2,24.2-2,24.2l-1.6,12.2
	c0,0,1,7.5,0,8.8c-0.9,1.2-2,29-2.3,35h-0.1c-1,0.1-1.8,0.6-2.3,1.4c-1.3,2.1-5.8,5.9-5.8,5.9c-1,1.4-4.6,2.7-6.5,3.3
	c-0.3,0.1-0.5,0.2-0.7,0.3c-0.7,0.4-1.3,1-1.6,1.7c-0.3,0.4-0.3,1-0.2,1.4c0.5,1.2,10.6,2,13.2,0.8c2-0.9,10-2.2,13.3-2.7
	c1.2-0.2,2.2-1.1,2.4-2.4c0.1-0.4,0-0.8-0.3-1.2l0,0c-0.6-0.8-1-2.9-1.1-4.3c0.3-0.1,0.5-0.3,0.7-0.4c-0.3-4.3,0.4-8.7,1.8-12.8
	c2.4-6.4,3.2-18.4,2.6-26.2c0,0,7.4-32,13.3-35l0,0c0.1,0.1,2.9,3.8,3.3,15c0.4,11.5,4.5,19,4.5,19s-1.8,19.5,0,26.8l-2.4,11.5
	c-0.1-0.1-0.2-0.2-0.3-0.3c0,0,0.1,0.3,0.2,0.8l-0.1,0.2l0.1,0c0.3,1.4,0.7,3.9,0.5,5.4c-0.1,0.8-0.3,2-0.5,3.1
	c-0.3,1.8-0.3,3.5,0.6,3.9c1.5,0.6,10.5,1.5,12-0.5c0.7-0.8,0.9-2,0.4-3c-0.1-0.3-0.3-0.5-0.4-0.8c0,0-2.4-3.9-1.7-6.6
	c0.1-0.5,0-1.1-0.3-1.6c0.3-4.3,1-8.7,2.1-12.9c1.5-5.7,4.7-18.3,2.4-26.6l0,0c-0.1-0.3-0.2-0.6-0.3-1c-1.4-4.5-1.8-9.3-1.3-14
	c-0.9-4-0.9-8.2,0-12.2c1.5-6.7,2.5-13.2,2.5-13.2s0.8-8.8,0.1-14.3l0-0.3l0.4-0.1c0,0-2.1-9.2-2.8-15c-0.2-1.4-0.4-3.1-0.6-5
	c0.7-0.1,1.3-0.3,2-0.5c6.6-2.3,8.7-22.8,8.7-22.8v-6.5C340.1,328.8,342.3,318.8,334.6,314.4z M285.5,473.1l-0.3-0.2l0,0
	L285.5,473.1z"/>
<path class="st12" d="M330.6,433c2.9,8.2-0.5,21.5-2,27.5c-1,4.3-1.7,8.7-2,13.1c-3.5,0.6-7,0.5-10.5-0.2l2.5-12.3
	c-1.8-7.3,0-26.7,0-26.7s-4-7.5-4.4-18.9c-0.4-11.2-3.1-14.9-3.2-15l0,0c-5.8,3-13,34.9-13,34.9c0.6,7.7-0.1,19.6-2.5,26.1
	c-1.4,4.1-2.1,8.4-1.8,12.7c-0.8,0.7-2,0.8-3.2,0.6c-3.4-0.5-7.5-3.5-7.5-3.5s1.3-34.8,2.3-36.1s0-8.8,0-8.8l1.5-12.1
	c0,0-0.2-20.6,2-24.2c2-3.1,2.4-8.5,2.5-9.9c0-0.2,0-0.4,0-0.4l3.4-4.1c0,0,33.3-2.5,35.8,0c0.6,0.6,1,2,1.2,3.8
	c0.7,5.4-0.1,14.2-0.1,14.2s-1,6.5-2.4,13.2c-0.9,4-0.9,8.1,0,12.1C328.8,423.7,329.3,428.5,330.6,433z"/>
<path class="st13" d="M328.5,485.2c-1.5,2-10.2,1.1-11.7,0.5c-0.9-0.4-0.8-2.1-0.6-3.8c0.2-1.1,0.4-2.3,0.5-3.1
	c0.2-2.1-0.7-6.5-0.7-6.5s2,2.1,2.4,0c0.2-0.8,0.9-1.4,1.7-1.6c1-0.3,2.1-0.2,3.1,0.2c1.5,0.7,4.1,2.1,3.7,4
	c-0.7,2.7,1.7,6.6,1.7,6.6c0.2,0.2,0.3,0.5,0.4,0.8C329.4,483.2,329.2,484.4,328.5,485.2z"/>
<path class="st3" d="M328.5,485.2c-1.5,2-10.2,1.1-11.7,0.5c-0.9-0.4-0.8-2.1-0.6-3.8c0.9,0.4,2.5,0.8,5.2,0.6
	c0.6-0.1,1.2-0.1,1.9-0.1c1.9,0.1,3.8,0.1,5.7-0.1C329.4,483.2,329.2,484.4,328.5,485.2z"/>
<path class="st3" d="M298,435.4c0.6,7.7-0.1,19.6-2.5,26.1c-1.4,4.1-2.1,8.4-1.8,12.7c-0.8,0.7-2,0.8-3.2,0.6
	c0.7-5,3.8-26.7,5.7-43.7c2.2-19.5,12.7-32.9,12.7-32.9l2.1,2.3C305.2,403.5,298,435.4,298,435.4z"/>
<path class="st14" d="M324.9,310.2l-1.5,7.1l-7.1,12l-8.8-3.8c0,0-11.9-12.5-4.4-14.3c0.9-0.2,1.7-0.6,2.5-1.1
	c1.5-1.1,1.9-2.7,1.9-4.3c-0.1-1.8-0.5-3.5-1.2-5.1l15.4-4.8c-0.6,2-1,4.1-1.1,6.2c-0.1,4.2,1.4,6.2,2.7,7.2
	C323.8,309.8,324.4,310.1,324.9,310.2z"/>
<path class="st3" d="M321.7,296c-0.6,2-1,4.1-1.1,6.2c-3.2,3.8-8.3,5.2-13,3.7c-0.1-1.8-0.5-3.5-1.2-5.1L321.7,296z"/>
<path class="st14" d="M323.5,294c0,6.7-5.4,12.1-12.1,12.1c-6.7,0-12.1-5.4-12.1-12.1s5.4-12.1,12.1-12.1h0
	C318,281.8,323.5,287.2,323.5,294C323.5,293.9,323.5,294,323.5,294z"/>
<path class="st3" d="M324.9,310.2l-1.5,7.1l-7.1,12l-8.8-3.8c0,0-11.9-12.5-4.4-14.3c0.9-0.2,1.7-0.6,2.5-1.1
	c-1.4,3.7,4.2,11.5,4.2,11.5c0.6,1,2.1,0.4,2.1,0.4c3.6-0.5,10.2-10.9,11.3-12.6C323.8,309.8,324.4,310.1,324.9,310.2z"/>
<path class="st3" d="M331.8,379.5c-2.1,0.5-13.8,3.1-18.2,2.4c-4.9-0.7-14.4-1.2-14.4-1.2s-6,0.3-7.9-0.5c0-0.2,0-0.4,0-0.4l3.4-4.1
	c0,0,33.3-2.5,35.8,0C331.2,376.3,331.6,377.7,331.8,379.5z"/>
<path class="st15" d="M309.9,322c0,0-6.3-8.7-3.9-12.1l-10.6,4.4c0,0-6.4-0.8-8.7,8.8c-0.4,1.6-0.5,3.2-0.4,4.8
	c0.1,1.4-0.1,4-1.7,7.2c-2.6,5.2-2,17.3,3.3,18.5c5.3,1.2,7.3,0.6,7.3,0.6s-0.7,21.8-3.8,24.3c-3.1,2.5,7.9,1.9,7.9,1.9
	s9.5,0.5,14.4,1.2c4.9,0.7,18.6-2.5,18.6-2.5s-2-9.2-2.7-15c-0.7-5.8-2.4-18.3-2.4-18.3l12.1-16.4c0,0,2.1-9.9-5.4-14.3
	c-7.5-4.4-10.3-5.5-10.3-5.5s-7.6,12.3-11.5,12.9C312,322.4,310.5,323,309.9,322z"/>
<path class="st3" d="M296,325.5c0,0-0.1,3.9,0.6,5.5c0.7,1.5,3.3,10.1,3.3,10.1h-5.9c0,0,3.2-3.4,3-5.1
	C296.7,334.3,296,325.5,296,325.5z"/>
<path class="st14" d="M313.6,355.1c0,0-13.1-3.2-14.4-5.9c-1.2-2.7-4.6-8.9-4.6-8.9l1.4-1.9l6.4,5c0,0,7.6,6,11.2,6.7
	S313.6,355.1,313.6,355.1z"/>
<path class="st16" d="M313.6,355.1c0,0-13.1-3.2-14.4-5.9c-1.2-2.7-4.6-8.9-4.6-8.9l1.4-1.9l6.4,5c0,0,7.6,6,11.2,6.7
	S313.6,355.1,313.6,355.1z"/>
<path class="st14" d="M324.9,339.6v7.1h-1.1c-5.7,0-11.2,1.4-16.2,4.2l-2.1,1.2l-0.6,0.3l-3.7-8.3l3.5-3.1h0.2
	c0.8,0.1,4.5,0.4,6-0.1s3.3-2.1,7.6-1c2.1,0.5,4,2.9,6,2.2L324.9,339.6z"/>
<path class="st3" d="M336.4,326.7l2.4,2.7v6.5c0,0-2,20.5-8.5,22.7s-17.9-1.3-17.9-1.3s-3-7.9-1.6-8.3c1.4-0.5,12.3-3.3,12.3-3.3
	s-0.2-12,2.2-15.6c0,0-1.5-11.2,3.8-11.4S336.4,326.7,336.4,326.7z"/>
<path class="st15" d="M336.8,326.7l2.4,2.7v6.5c0,0-2,20.5-8.5,22.7s-17.9-1.3-17.9-1.3s-3-7.9-1.6-8.3c1.4-0.5,12.3-3.3,12.3-3.3
	s-0.2-12,2.2-15.6c0,0-1.6-11.2,3.8-11.4C334.9,318.3,336.8,326.7,336.8,326.7z"/>
<path class="st3" d="M320.2,299.1c0.1-0.8,0-1.6-0.3-2.3c-0.3-0.7-1.1-1.2-1.9-1.1c-1,0.2-1.5,1.6-2.5,1.9c-0.8,0.3-1.8-0.3-2.2-1.1
	c-0.3-0.8-0.5-1.7-0.4-2.6c0-1,0-2,0-3c0-1.1,0-2.3-0.7-3.1c-0.8-1.1-2.8-1.5-4.1-1.5c-0.9,0-1.7,0.3-2.3,0.9
	c-0.6,0.6-1.5,1-2.5,0.9c-0.8-0.1-1.5-0.7-1.7-1.5c0,0,0,0,0,0c4-5.3,11.7-6.4,17-2.4c5.3,4,6.4,11.7,2.4,17c-0.4,0.5-0.8,1-1.3,1.5
	C320,301.6,320.1,300.4,320.2,299.1z"/>
<path class="st17" d="M303.4,287.8c-0.8-0.1-1.5-0.7-1.7-1.5c-0.1-0.4-0.1-0.8-0.2-1.2c-0.3-0.9-1.3-1.4-1.9-2.1
	c-1.3-1.4-1.3-3.8-0.3-5.5c0.8-1.4,2.3-2.5,3.8-2.3c1,0.2,1.8,0.9,2.8,0.9c1,0.1,1.8-0.5,2.7-0.9c2.1-0.9,4.4-1.1,6.6-0.6
	c0.7,0.1,1.3,0.4,1.8,0.9c0.3,0.4,0.7,0.9,1,1.4c1.1,1.4,3.1,1.7,4.9,2c1.8,0.3,3.8,1,4.4,2.7c0.4,1.1,0,2.4-0.2,3.5
	c-0.1,0.2-0.1,0.5,0,0.7c0.3,0.5,1,0.3,1.5,0.4c1,0.2,1.3,1.5,1.3,2.5c0,1.2,0.1,2.3,0.1,3.5c0,0.4,0,0.9-0.1,1.3
	c-0.2,0.6-0.6,1.2-1,1.6l-3.9,4.7c-1.7,2.1-3.6,4.5-3.2,7.2c-0.8,0.4-1.8-0.3-2.1-1.2c-0.3-0.9-0.1-1.8,0.1-2.7
	c0.3-1.5,0.5-3.1,0.6-4.6c0.1-0.8,0-1.6-0.3-2.3c-0.3-0.8-1.1-1.2-1.9-1.1c-1,0.2-1.5,1.6-2.5,1.9c-0.8,0.3-1.8-0.3-2.2-1.1
	c-0.3-0.8-0.5-1.7-0.4-2.6v-3c0-1.1,0-2.3-0.7-3.1c-0.8-1.1-2.8-1.5-4.1-1.5c-0.9,0-1.7,0.3-2.3,0.9
	C305.2,287.6,304.3,287.9,303.4,287.8z"/>
<path class="st3" d="M306.1,325.2l3.7,15.3C309.9,340.5,312.8,340.5,306.1,325.2z"/>
<path class="st3" d="M318.9,322.6c0,0-4.9,8-3,16.3l0.9,0.1C316.8,338.9,315.2,335.1,318.9,322.6z"/>
<path class="st3" d="M322,367.9c0,0,6-2,6.4,2.6C328.4,370.5,327.3,367.3,322,367.9z"/>
<path class="st3" d="M304.6,341.4c0,0-1.2,8.3,1,11.7c-3.4,1.2-6.9,1.7-10.5,1.4l-0.7-13.1H304.6z"/>
<path class="st3" d="M305.5,352.2l-0.6,0.3l-3.7-8.3l3.5-3.1h0.2l0,0C304.8,341.5,303.8,348.6,305.5,352.2z"/>
<path class="st15" d="M304.6,341.1c0,0-1.2,8.3,1,11.7c-3.4,1.2-6.9,1.7-10.5,1.4l-4.2-13.1H304.6z"/>
<path class="st13" d="M294.3,480.1c-0.1,1.2-1.1,2.2-2.3,2.4c-3.2,0.5-11,1.7-13,2.6c-2.5,1.2-12.4,0.4-12.9-0.8
	c-0.1-0.5-0.1-1,0.2-1.4c0.5-1,1.3-1.7,2.3-2c1.9-0.6,5.4-1.9,6.3-3.3c0,0,4.4-3.8,5.6-5.9c0.5-0.8,1.3-1.4,2.3-1.4
	c1-0.1,2.2,0.5,2.7,2.8c0,0,5.7,3.3,7.3,0.4c0,0,0.2,4.4,1.2,5.6l0,0C294.3,479.3,294.4,479.7,294.3,480.1z"/>
<path class="st3" d="M294.3,480.1c-0.1,1.2-1.1,2.2-2.3,2.4c-3.2,0.5-11,1.7-13,2.6c-2.5,1.2-12.4,0.4-12.9-0.8
	c-0.1-0.5-0.1-1,0.2-1.4c0.3-0.7,0.9-1.3,1.6-1.7c1.6,1.1,5.2,2.1,13.1,0.9c7.5-1.2,11.2-2.3,13-3.1l0,0
	C294.3,479.3,294.4,479.7,294.3,480.1z"/>
<g class="st18">
	<path d="M326.8,285.4C326.8,285.4,326.8,285.4,326.8,285.4c0.2-0.9,0.4-1.8,0.4-2.8c-0.1,0.7-0.2,1.5-0.4,2.2
		C326.8,285,326.8,285.2,326.8,285.4z"/>
	<path d="M319.9,296.6c0.2,0.4,0.3,0.9,0.3,1.4c0.1-0.6,0-1.3-0.3-1.9c-0.3-0.8-1.1-1.2-1.9-1.1c-1,0.2-1.5,1.6-2.5,1.9
		c-0.8,0.3-1.8-0.3-2.2-1.1c-0.3-0.8-0.5-1.7-0.4-2.6c0-1,0-2,0-3c0-1.1,0-2.3-0.7-3.1c-0.8-1.1-2.8-1.5-4.1-1.5
		c-0.9,0-1.7,0.3-2.3,0.9c-0.6,0.6-1.5,1-2.5,0.9c-0.8-0.1-1.5-0.7-1.7-1.5c-0.1-0.4-0.1-0.8-0.2-1.2c-0.3-0.9-1.3-1.4-1.9-2.1
		c-0.6-0.7-1-1.6-1-2.5c-0.1,1.1,0.3,2.2,1,3.1c0.7,0.7,1.7,1.2,1.9,2.1c0.1,0.4,0.1,0.8,0.2,1.2c0.2,0.8,0.9,1.4,1.7,1.5
		c0.9,0.1,1.8-0.2,2.5-0.9c0.6-0.6,1.5-0.9,2.3-0.9c1.3,0,3.3,0.4,4.1,1.5c0.7,0.9,0.7,2,0.7,3.1c0,1,0,2,0,3
		c-0.1,0.9,0.1,1.8,0.4,2.6c0.4,0.8,1.3,1.4,2.2,1.1c1-0.3,1.4-1.6,2.5-1.9C318.8,295.4,319.6,295.8,319.9,296.6z"/>
	<path d="M329.7,293.3c-0.2,0.6-0.6,1.2-1,1.6c-1.3,1.6-2.6,3.1-3.9,4.7c-1.7,2-3.4,4.3-3.3,6.8c0.1-2.3,1.7-4.4,3.3-6.3l3.9-4.7
		c0.4-0.5,0.8-1,1-1.6c0.1-0.4,0.1-0.9,0.1-1.3C329.8,292.8,329.7,293.1,329.7,293.3z"/>
	<path d="M319.4,305.7c-0.1-0.2-0.1-0.4-0.1-0.6c0,0.4,0,0.8,0.1,1.2c0.3,0.9,1.2,1.6,2.1,1.2c0-0.2,0-0.4,0-0.5
		C320.6,307.3,319.7,306.5,319.4,305.7z"/>
</g>
<path class="st3" d="M279.9,472.7c0,0,1.2,2.2,5.8,0.3"/>
<path class="st3" d="M318,473.2c0,0,3.9,4.6,8.8,1.5"/>
<path class="st3" d="M329.3,419c0,0-2.7,1.7-2.8,2.7c-0.1,1,1.4-0.7,1.4-0.7L329.3,419z"/>
<path class="st3" d="M330.4,432.2c-1,0.8-2.1,1.3-3.4,1.3c-2.1,0.1-1.9,2.8-0.5,2S330.4,432.2,330.4,432.2z"/>
<path class="st3" d="M330.9,433.9c0,0-1.3,6.5-2.4,5.2"/>
<g class="st19">
	<rect x="386.2" y="284.9" class="st20" width="33.2" height="7.1"/>
	<rect x="462.6" y="284.9" class="st20" width="33.2" height="7.1"/>
	<rect x="538.9" y="284.9" class="st20" width="33.2" height="7.1"/>
</g>
<ellipse class="st1" cx="628.8" cy="457.5" rx="13.6" ry="2.3"/>
<ellipse class="st1" cx="207" cy="486.4" rx="13.6" ry="2.3"/>
<ellipse class="st8" cx="599.1" cy="482" rx="20.3" ry="3.4"/>
<path class="st8" d="M607.4,476.4c0.9-0.8,1.6-1.8,1.9-2.9c0.3-1.2-0.2-2.5-1.3-3c-1.2-0.5-2.6,0.4-3.6,1.3s-2.2,1.9-3.5,1.7
	c1.4-1.2,2-3.1,1.6-4.9c-0.1-0.4-0.2-0.7-0.5-1c-0.7-0.7-1.9-0.4-2.8,0.2c-2.6,1.8-3.3,5.4-3.4,8.6c-0.3-1.2,0-2.4,0-3.5
	c0-1.2-0.3-2.5-1.3-3.1c-0.6-0.3-1.3-0.5-2-0.5c-1.2,0-2.5,0.1-3.3,0.9c-1,1.1-0.7,2.9,0.1,4c0.9,1.2,2.2,1.9,3.4,2.7
	c1,0.6,1.8,1.4,2.4,2.3c0.1,0.1,0.1,0.3,0.2,0.4h7.4C604.5,478.7,606.1,477.7,607.4,476.4z"/>
<path class="st8" d="M207.6,452.4c0,0,2.8,3.6-1.3,9.1s-7.4,10.1-6,13.5c0,0,6.1-10.1,11.1-10.3C216.3,464.5,213,458.5,207.6,452.4z
	"/>
<path class="st3" d="M207.6,452.4c0.2,0.4,0.4,0.7,0.6,1.1c4.8,5.7,7.4,11,2.8,11.1c-4.3,0.1-9.5,7.9-10.8,9.8
	c0,0.2,0.1,0.3,0.1,0.4c0,0,6.1-10.1,11.1-10.3C216.3,464.5,213,458.5,207.6,452.4z"/>
<path class="st21" d="M212.7,457c0,1.3-0.1,2.3-0.3,2.3c-0.2,0-0.3-1-0.3-2.3c0-1.3,0.2-0.7,0.4-0.7
	C212.6,456.3,212.7,455.8,212.7,457z"/>
<path class="st21" d="M214.5,458.5c-1.1,0.6-2.1,1-2.2,0.8s0.8-0.8,1.9-1.4c1.1-0.6,0.7-0.2,0.8,0
	C215,458.1,215.6,457.9,214.5,458.5z"/>
<path class="st8" d="M193,452.4c0,0-2.8,3.6,1.3,9.1s7.4,10.1,6,13.5c0,0-6.1-10.1-11.1-10.3C184.2,464.5,187.5,458.5,193,452.4z"/>
<path class="st3" d="M193,452.4c-0.2,0.4-0.4,0.7-0.6,1.1c-4.8,5.7-7.4,11-2.8,11.1c4.3,0.1,9.5,7.9,10.8,9.8c0,0.2-0.1,0.3-0.2,0.4
	c0,0-6.1-10.1-11.1-10.3C184.2,464.5,187.5,458.5,193,452.4z"/>
<path class="st21" d="M187.8,457c0,1.3,0.1,2.3,0.3,2.3c0.2,0,0.3-1,0.3-2.3c0-1.3-0.2-0.7-0.4-0.7
	C187.9,456.3,187.8,455.8,187.8,457z"/>
<path class="st21" d="M186.1,458.5c1.1,0.6,2.1,1,2.2,0.8s-0.8-0.8-1.9-1.4c-1.1-0.6-0.7-0.2-0.8,0
	C185.5,458.1,184.9,457.9,186.1,458.5z"/>
<path class="st22" d="M188.7,474.5c0,0,7.7-0.2,10.1-1.9s11.9-3.6,12.5-1c0.6,2.7,11.6,13.2,2.9,13.3c-8.7,0.1-20.3-1.4-22.6-2.8
	C189.2,480.7,188.7,474.5,188.7,474.5z"/>
<path class="st23" d="M214.3,484c-8.7,0.1-20.3-1.4-22.6-2.8c-1.8-1.1-2.5-5-2.7-6.7h-0.3c0,0,0.5,6.2,2.8,7.7
	c2.3,1.4,13.9,2.8,22.6,2.8c2.5,0,3.4-0.9,3.3-2.2C217.1,483.5,216.2,484,214.3,484z"/>
<path class="st8" d="M383.9,334.1c0-10.3,8.4-18.2,18.7-18.2h0.1v-4.7h-0.1c-12.9,0-23.4,10-23.4,22.9c0,6.7,2.9,13.2,8,17.6
	l3.3-3.3C386.3,344.9,383.9,339.6,383.9,334.1z"/>
<path class="st9" d="M403.2,311.3v4.7c10.3,0.1,18.6,8.5,18.5,18.8c-0.1,10.3-8.5,18.6-18.8,18.5c-4.4,0-8.6-1.6-11.9-4.4l-3.3,3.3
	c9.7,8.5,24.5,7.5,32.9-2.2c8.5-9.7,7.5-24.5-2.2-32.9C414.2,313.3,408.8,311.3,403.2,311.3L403.2,311.3z"/>
<path class="st9" d="M556.3,315.7c10.3,0,18.2,8.4,18.2,18.7c0,0,0,0.1,0,0.1h4.7c0-0.1,0-0.1,0-0.1c0-12.9-10-23.4-22.9-23.4
	c-6.7,0-13.2,2.9-17.6,8l3.3,3.3C545.6,318.1,550.8,315.7,556.3,315.7z"/>
<path class="st8" d="M579.2,335h-4.7c-0.1,10.3-8.5,18.6-18.8,18.5c-10.3-0.1-18.6-8.5-18.5-18.8c0-4.4,1.6-8.6,4.4-11.9l-3.3-3.3
	c-8.5,9.7-7.5,24.5,2.2,32.9c9.7,8.5,24.5,7.5,32.9-2.2C577.1,346,579.1,340.6,579.2,335L579.2,335z"/>
<path class="st9" d="M488.4,312.6l-0.9,4.7c6.9,2.8,11.2,9.5,11.2,17.3c0,10.3-8.4,18.7-18.7,18.7c-10.3,0-18.7-8.4-18.7-18.7
	c0-7.4,4.4-14.1,11.2-17.1l-2.1-4.2c-11.8,5.3-17,19.1-11.7,30.9c5.3,11.8,19.1,17,30.9,11.7c8.4-3.8,13.8-12.1,13.8-21.3
	C503.4,324.5,497.4,315.9,488.4,312.6z"/>
<path class="st8" d="M480.6,315.7c2.2,0,4.5,0.5,6.5,1.3l0.9-4.7c-2.4-0.9-4.9-1.4-7.4-1.4c-3.3,0-6.6,0.7-9.6,2.1l2.1,4.2
	C475.5,316.2,478,315.7,480.6,315.7z"/>
</svg>
