<svg id="aaafdec0-95c8-49a3-a8f8-64216c6da511" xmlns="http://www.w3.org/2000/svg" xmlns:xlink="http://www.w3.org/1999/xlink" viewBox="0 0 818 730"><defs><style>.cls-1{opacity:0.18;fill:url(#linear-gradient);}.cls-1,.cls-10,.cls-11,.cls-17,.cls-2,.cls-24,.cls-4{isolation:isolate;}.cls-10,.cls-2,.cls-9{fill:#42a5f5;}.cls-19,.cls-2,.cls-4{opacity:0.1;}.cls-3{fill:#c8cad7;}.cls-5{fill:#474157;}.cls-6{fill:#4c4c78;}.cls-7{fill:#fff;}.cls-8{fill:#ededf4;}.cls-10,.cls-11,.cls-20{opacity:0.5;}.cls-11,.cls-21{fill:#dce0ed;}.cls-12{fill:url(#linear-gradient-2);}.cls-13{fill:#65617d;}.cls-14{fill:#a27772;}.cls-15{fill:#fbbebe;}.cls-16{fill:#ff748e;}.cls-17{opacity:0.05;}.cls-18{fill:#7c5c5c;}.cls-22{fill:#ffd037;}.cls-23{fill:#a8a8a8;}.cls-24{opacity:0.2;}</style><linearGradient id="linear-gradient" x1="152.63" y1="-40" x2="970.63" y2="-40" gradientTransform="matrix(1, 0, 0, -1, -132.63, 337)" gradientUnits="userSpaceOnUse"><stop offset="0" stop-color="#ff8a65"/><stop offset="1" stop-color="#55abe5"/></linearGradient><linearGradient id="linear-gradient-2" x1="261.78" y1="202.21" x2="261.78" y2="549.73" gradientTransform="matrix(1, 0, 0, -1, -35, 890.05)" gradientUnits="userSpaceOnUse"><stop offset="0" stop-color="gray" stop-opacity="0.25"/><stop offset="0.54" stop-color="gray" stop-opacity="0.12"/><stop offset="1" stop-color="gray" stop-opacity="0.1"/></linearGradient></defs><path class="cls-1" d="M821.36,694.05a94.92,94.92,0,0,1-16.75,21.83c-31.17,29.63-78.69,30.67-120.29,19.75s-80.89-31.71-122.63-40.72c-66.46-14.38-133.89,1.91-198.7,18.2S230.75,746,164.15,732C101.53,719,39.47,671.17,23.81,605.33A120.83,120.83,0,0,1,21.48,593c-14-99.12,76.21-180.21,76.35-279.5.13-27.73-7-55.28-8.93-83C82.31,137.65,140.53,46.68,222.37,21.38,365.87-22.81,510.47,104.21,658,91,805,78,819.44,153.94,796.5,304.34a422.47,422.47,0,0,0,5.77,155.43c10,44.19,27.33,86.82,33.51,131.87C840.86,626.64,837.7,664.94,821.36,694.05Z" transform="translate(-20 -12)"/><ellipse class="cls-2" cx="366.82" cy="672.9" rx="238.65" ry="10.65"/><path class="cls-3" d="M528.46,666.17v6.44H338.15v-5.23a62.54,62.54,0,0,0,4.3-115.52H527.17a62.55,62.55,0,0,0,1.29,114.31Z" transform="translate(-20 -12)"/><path class="cls-4" d="M527.17,551.86a62.63,62.63,0,0,0-34.57,41.47H377a62.67,62.67,0,0,0-34.56-41.47Z" transform="translate(-20 -12)"/><path class="cls-3" d="M120.19,519.07V555.2c0,19.95,14.6,36.12,32.61,36.12h560c18,0,32.62-16.17,32.62-36.12V519.07Z" transform="translate(-20 -12)"/><path class="cls-4" d="M528.46,666.17v6.44H338.15v-5.23a62.5,62.5,0,0,0,14.67-7.82h164A62.16,62.16,0,0,0,528.46,666.17Z" transform="translate(-20 -12)"/><rect class="cls-3" x="255.25" y="649.57" width="316.1" height="19.07" rx="7.82"/><path class="cls-5" d="M745.39,123.2a32.61,32.61,0,0,0-32.62-32.57H152.83a32.6,32.6,0,0,0-32.64,32.57V526.1h625.2Z" transform="translate(-20 -12)"/><path class="cls-6" d="M728.37,137.75V484a16,16,0,0,1-16,16.05h-559a16,16,0,0,1-16.06-16h0V137.75a16.06,16.06,0,0,1,16.06-16.06H712.27a16.06,16.06,0,0,1,16.1,16Z" transform="translate(-20 -12)"/><circle class="cls-7" cx="412.8" cy="94.14" r="7.53"/><circle class="cls-7" cx="412.8" cy="544.71" r="18.57"/><path class="cls-7" d="M262.18,129.72V500H153.33a16,16,0,0,1-16.06-16h0V137.75l.59-2.19,1.56-5.84Z" transform="translate(-20 -12)"/><polygon class="cls-6" points="256.14 123.56 256.14 156.9 117.27 156.9 117.27 125.75 117.86 123.56 256.14 123.56"/><path class="cls-3" d="M728.37,137.75H137.27a16,16,0,0,1,16-16H712.27a16,16,0,0,1,16.1,16Z" transform="translate(-20 -12)"/><circle class="cls-8" cx="133.33" cy="117.72" r="4.02"/><circle class="cls-8" cx="145.37" cy="117.72" r="4.02"/><circle class="cls-8" cx="157.41" cy="117.72" r="4.02"/><rect class="cls-9" x="138.03" y="138.24" width="83.39" height="7.68"/><rect class="cls-10" x="138.03" y="175.68" width="83.39" height="7.68"/><rect class="cls-10" x="138.03" y="202.16" width="83.39" height="7.68"/><rect class="cls-10" x="138.03" y="228.63" width="83.39" height="7.68"/><rect class="cls-10" x="138.03" y="255.1" width="83.39" height="7.68"/><rect class="cls-10" x="138.03" y="281.58" width="83.39" height="7.68"/><rect class="cls-10" x="138.03" y="308.05" width="83.39" height="7.68"/><rect class="cls-10" x="138.03" y="334.52" width="83.39" height="7.68"/><rect class="cls-11" x="310.45" y="166.47" width="369.53" height="1.23"/><rect class="cls-11" x="310.45" y="195.14" width="369.53" height="1.23"/><rect class="cls-11" x="310.45" y="223.81" width="369.53" height="1.23"/><rect class="cls-11" x="310.45" y="252.48" width="369.53" height="1.23"/><rect class="cls-11" x="310.45" y="281.14" width="369.53" height="1.23"/><polygon class="cls-10" points="679.98 282.37 310 282.37 310 225.99 343.93 242.72 379.05 247.47 409.86 238.18 447.03 209.35 465.73 198.56 479.4 195.92 492.48 196.62 513.99 207.25 543.22 225.87 566.17 228.82 584.36 222.55 622.92 190.97 642.61 183.95 663.2 187.13 679.98 196.82 679.98 282.37"/><path class="cls-9" d="M394.49,259.49c-33.32,0-64.11-20.38-64.49-20.64l.91-1.37c.48.32,47.87,31.68,88.13,16,14.7-5.72,25.14-14.63,35.28-23.24,10.56-9,20.53-17.5,34.12-21.19A51,51,0,0,1,534,219.26c11.07,9.1,33.1,23.7,56.39,19.33,11.86-2.22,21.87-10.89,32.46-20.07,20.28-17.61,41.32-35.79,77.6-9.69l-1,1.34c-35.27-25.34-55.77-7.58-75.58,9.59-10.77,9.34-20.94,18.11-33.24,20.45-23.95,4.49-46.45-10.4-57.74-19.67a49.39,49.39,0,0,0-44.09-9.92c-13.24,3.59-23,12-33.49,20.84-10.21,8.7-20.78,17.7-35.71,23.53A69.12,69.12,0,0,1,394.49,259.49Z" transform="translate(-20 -12)"/><circle class="cls-9" cx="488.26" cy="195.76" r="9.16"/><path class="cls-12" d="M278.71,406.81c-12.52-7.21-17.28-9-17.28-9l-.26-.18a10.49,10.49,0,0,1-3.16-4v-.74c.21-3.82,2.92-7.28,5.49-10.31l6.59-7.74a7.67,7.67,0,0,0,1.69-2.75,5.73,5.73,0,0,0,.18-1.65v-.67c0-1.93-.09-3.85-.15-5.76-.07-1.69-.5-3.81-2.19-4.12-.87-.18-2,.13-2.46-.62a1.32,1.32,0,0,1-.12-1v0a23,23,0,0,0,.63-4,5.7,5.7,0,0,0-.28-2c-1-2.79-4.32-3.93-7.29-4.46s-6.28-1-8.14-3.29a27.29,27.29,0,0,0-1.65-2.23,6.55,6.55,0,0,0-3-1.5,17,17,0,0,0-11,1c-1.43.64-2.87,1.49-4.44,1.4s-3-1.23-4.64-1.5c-2.61-.45-5.1,1.47-6.38,3.73a9.1,9.1,0,0,0-1.18,4.41v.25h0a6.51,6.51,0,0,0,1.7,4.5c1.12,1.16,2.79,2,3.29,3.49.19.63.15,1.3.31,1.93a1.09,1.09,0,0,0,.07.24l-.09.1a19.59,19.59,0,0,0-4.11,12,20,20,0,0,0,14,18.93v.59a8.5,8.5,0,0,1-2.72,6.62l-17.76,7.13s-10.69-1.27-14.55,14.36a26.43,26.43,0,0,0-.65,7.93c.14,2.36-.19,6.51-2.93,11.87-4.39,8.59-3.39,28.3,5.58,30.25,8.46,1.85,11.78,1.08,12.13,1v.35c-.14,3.7-1.49,35.6-6.37,39.5-1.35,1.06-1.1,1.79,0,2.27v.58c-.14,2.34-.9,11.21-4.17,16.28-3.75,5.83-3.32,39.57-3.32,39.57l-2.59,19.91s1.59,12.3,0,14.44c-1.42,1.92-3.29,47.42-3.72,57.28h-.16a4.81,4.81,0,0,0-3.84,2.33c-2.12,3.41-9.44,9.69-9.44,9.69-1.59,2.26-7.49,4.43-10.6,5.45A6.52,6.52,0,0,0,165.8,682a3,3,0,0,0-.28,2.35c.82,2,17.34,3.29,21.52,1.36,3.29-1.53,16.33-3.55,21.74-4.34a4.47,4.47,0,0,0,3.87-3.87,2.59,2.59,0,0,0-.49-1.94h0c-1-1.28-1.58-4.79-1.81-7.07a4.65,4.65,0,0,0,1.21-.73,52,52,0,0,1,3-20.88c4-10.54,5.19-30.06,4.19-42.75,0,0,12.16-52.32,21.73-57.2h0c.14.18,4.79,6.14,5.38,24.59.59,18.74,7.36,31,7.36,31s-3,31.81,0,43.72l-3.92,18.76c-.16-.14-.32-.28-.47-.43,0,0,.12.53.28,1.36l-.08.39.16,0c.45,2.35,1.1,6.44.82,8.84-.15,1.38-.53,3.25-.82,5.09-.41,2.89-.52,5.69,1,6.3,2.47,1,17.14,2.38,19.63-.82a4.63,4.63,0,0,0,.73-4.82,4.93,4.93,0,0,0-.73-1.23s-3.89-6.36-2.79-10.85a3.22,3.22,0,0,0-.47-2.56A133.79,133.79,0,0,1,270,645.32c2.47-9.39,7.75-30,3.88-43.53h0c-.14-.53-.31-1-.49-1.56a58.62,58.62,0,0,1-2.2-22.84,46.42,46.42,0,0,1,0-19.91c2.37-10.92,4-21.62,4-21.62s1.32-14.44.17-23.3l-.07-.57.62-.14s-3.38-15-4.58-24.59c-.28-2.26-.65-5.11-1.06-8.17a21.18,21.18,0,0,0,3.25-.82C284.3,474.56,287.68,441,287.68,441V430.33S291.27,414.06,278.71,406.81ZM198.53,666.05l-.53-.28h0Z" transform="translate(-20 -12)"/><path class="cls-13" d="M272.22,600.55c4.66,13.42-.83,35.2-3.29,44.93a135.81,135.81,0,0,0-3.3,21.4,45.18,45.18,0,0,1-17.11-.4l4.11-20c-2.91-11.86,0-43.57,0-43.57s-6.58-12.27-7.19-30.94c-.58-18.38-5.11-24.32-5.25-24.51h0c-9.41,4.89-21.24,57-21.24,57,1,12.64-.2,32.1-4.12,42.61a52.78,52.78,0,0,0-2.92,20.81,6.43,6.43,0,0,1-5.29,1c-5.56-.9-12.22-5.69-12.22-5.69s2.14-56.78,3.7-58.94,0-14.39,0-14.39L200.63,570s-.39-33.66,3.29-39.51c3.19-5,3.92-13.9,4.07-16.22v-.57l5.63-6.74s54.47-4.12,58.56,0c1,1,1.64,3.29,2,6.15,1.12,8.82-.17,23.22-.17,23.22s-1.64,10.7-4,21.59a47.06,47.06,0,0,0,0,19.84A59.27,59.27,0,0,0,272.22,600.55Z" transform="translate(-20 -12)"/><path class="cls-14" d="M268.81,685.85c-2.43,3.21-16.72,1.85-19.16.82-1.49-.62-1.37-3.41-1-6.29.26-1.83.63-3.7.77-5.06.4-3.5-1.16-10.61-1.16-10.61s3.21,3.41,4,0a3.7,3.7,0,0,1,2.77-2.63,7.32,7.32,0,0,1,5.05.31c2.53,1.1,6.74,3.44,6,6.59-1.07,4.47,2.72,10.8,2.72,10.8a5.39,5.39,0,0,1,.71,1.23A4.68,4.68,0,0,1,268.81,685.85Z" transform="translate(-20 -12)"/><path class="cls-4" d="M268.81,685.85c-2.43,3.21-16.72,1.85-19.16.82-1.49-.62-1.37-3.41-1-6.29,1.53.72,4.11,1.32,8.49.92a24.07,24.07,0,0,1,3.06-.1,72,72,0,0,0,9.29-.18A4.67,4.67,0,0,1,268.81,685.85Z" transform="translate(-20 -12)"/><path class="cls-4" d="M219,604.44c1,12.64-.2,32.1-4.12,42.61a52.78,52.78,0,0,0-2.92,20.81,6.43,6.43,0,0,1-5.29,1c1.17-8.23,6.17-43.56,9.38-71.48,3.65-31.81,20.71-53.69,20.71-53.69l3.41,3.74C230.78,552.32,219,604.44,219,604.44Z" transform="translate(-20 -12)"/><path class="cls-15" d="M263,400l-2.38,11.67L249,431.21l-14.35-6.13s-19.5-20.43-7.25-23.34a10.79,10.79,0,0,0,4.08-1.81,8.43,8.43,0,0,0,3.17-7,21.5,21.5,0,0,0-2-8.37l25.09-7.87a40.29,40.29,0,0,0-1.8,10.16c-.19,6.83,2.35,10.21,4.43,11.81A7.44,7.44,0,0,0,263,400Z" transform="translate(-20 -12)"/><path class="cls-4" d="M257.72,376.65a40.29,40.29,0,0,0-1.8,10.16,19.83,19.83,0,0,1-21.3,6.08,21.5,21.5,0,0,0-2-8.37Z" transform="translate(-20 -12)"/><path class="cls-15" d="M260.6,373.44a19.85,19.85,0,1,1-19.85-19.84h0a19.79,19.79,0,0,1,19.85,19.74Z" transform="translate(-20 -12)"/><path class="cls-4" d="M263,400l-2.38,11.67L249,431.21l-14.35-6.13s-19.5-20.43-7.25-23.34a10.79,10.79,0,0,0,4.08-1.81c-2.22,6.08,6.92,18.73,6.92,18.73,1.06,1.56,3.5.59,3.5.59,5.88-.89,16.72-17.81,18.48-20.63A7.44,7.44,0,0,0,263,400Z" transform="translate(-20 -12)"/><path class="cls-4" d="M274.21,513.14c-3.46.82-22.57,5-29.81,4-8-1.17-23.49-1.94-23.49-1.94s-9.87.52-12.9-.83v-.57l5.63-6.74s54.47-4.12,58.55,0C273.26,508,273.84,510.27,274.21,513.14Z" transform="translate(-20 -12)"/><path class="cls-16" d="M238.37,419.25S228.11,405,232,399.49l-17.34,7.11s-10.43-1.26-14.19,14.31a27,27,0,0,0-.65,7.91c.14,2.34-.18,6.47-2.86,11.82-4.28,8.56-3.29,28.21,5.45,30.16s11.87,1,11.87,1-1.17,35.6-6.23,39.68,12.9,3.11,12.9,3.11,15.51.83,23.48,2,30.34-4.11,30.34-4.11-3.29-15-4.47-24.51-3.89-29.82-3.89-29.82l19.84-26.88s3.5-16.25-8.75-23.44-16.87-9-16.87-9-12.35,20.05-18.73,21C241.87,419.82,239.43,420.81,238.37,419.25Z" transform="translate(-20 -12)"/><path class="cls-4" d="M215.6,424.89s-.18,6.42,1,8.95S222,450.37,222,450.37H212.3s5.25-5.64,4.87-8.36S215.6,424.89,215.6,424.89Z" transform="translate(-20 -12)"/><path class="cls-15" d="M244.4,473.31s-21.48-5.25-23.48-9.71-7.52-14.5-7.52-14.5l2.26-3.05,10.45,8.23s12.46,9.88,18.29,10.9S244.4,473.31,244.4,473.31Z" transform="translate(-20 -12)"/><path class="cls-17" d="M244.4,473.31s-21.48-5.25-23.48-9.71-7.52-14.5-7.52-14.5l2.26-3.05,10.45,8.23s12.46,9.88,18.29,10.9S244.4,473.31,244.4,473.31Z" transform="translate(-20 -12)"/><path class="cls-15" d="M263,448v11.65H261.1a54.5,54.5,0,0,0-26.45,6.85l-3.51,1.94-.94.53-6-13.58,5.65-5.06h.29c1.38.13,7.35.63,9.87-.22s5.39-3.41,12.46-1.6c3.49.89,6.46,4.8,9.88,3.58Z" transform="translate(-20 -12)"/><path class="cls-4" d="M281.75,426.83l3.89,4.38v10.6s-3.29,33.46-13.81,37.16-29.26-2.14-29.26-2.14S237.73,464,240,463.21s20-5.47,20-5.47-.25-19.62,3.64-25.46c0,0-2.53-18.29,6.22-18.67S281.75,426.83,281.75,426.83Z" transform="translate(-20 -12)"/><path class="cls-16" d="M282.32,426.83l3.89,4.38v10.6s-3.29,33.46-13.82,37.16-29.25-2.14-29.25-2.14-4.85-12.84-2.58-13.62,20-5.47,20-5.47-.25-19.62,3.65-25.46c0,0-2.54-18.29,6.22-18.67S282.32,426.83,282.32,426.83Z" transform="translate(-20 -12)"/><path class="cls-4" d="M255.16,381.87a7.65,7.65,0,0,0-.45-3.79,2.9,2.9,0,0,0-3.08-1.78c-1.64.39-2.38,2.55-4,3.07a3.18,3.18,0,0,1-3.54-1.82,9.4,9.4,0,0,1-.68-4.23v-4.88c0-1.77-.05-3.68-1.15-5.07-1.36-1.72-4.54-2.47-6.66-2.41a5.66,5.66,0,0,0-3.81,1.53,4.92,4.92,0,0,1-4,1.43,3.45,3.45,0,0,1-2.79-2.41.08.08,0,0,1,0-.07,19.84,19.84,0,1,1,31.65,23.94,20.18,20.18,0,0,1-2.14,2.39A55.47,55.47,0,0,0,255.16,381.87Z" transform="translate(-20 -12)"/><path class="cls-18" d="M227.76,363.34a3.48,3.48,0,0,1-2.8-2.42c-.15-.62-.11-1.3-.3-1.92-.46-1.53-2.08-2.33-3.18-3.49-2.19-2.32-2-6.14-.5-8.94,1.26-2.26,3.69-4.16,6.23-3.72,1.57.28,2.93,1.4,4.52,1.5s2.94-.76,4.34-1.4a16.31,16.31,0,0,1,10.75-1,6.27,6.27,0,0,1,3,1.49,24.21,24.21,0,0,1,1.58,2.22c1.81,2.32,5.06,2.77,7.95,3.3s6.17,1.64,7.11,4.45c.64,1.84,0,3.84-.33,5.76a1.63,1.63,0,0,0,.07,1.19c.45.75,1.58.44,2.47.61,1.64.35,2.06,2.47,2.11,4.12.08,1.91.13,3.83.16,5.76a7.63,7.63,0,0,1-.16,2.13,7.53,7.53,0,0,1-1.65,2.67l-6.43,7.72c-2.85,3.43-5.87,7.41-5.3,11.83-1.35.6-2.94-.56-3.39-2a8.68,8.68,0,0,1,.22-4.37,55.69,55.69,0,0,0,1-7.6,7.65,7.65,0,0,0-.45-3.79,2.9,2.9,0,0,0-3.08-1.78c-1.65.38-2.38,2.55-4,3.07a3.19,3.19,0,0,1-3.54-1.82,9.28,9.28,0,0,1-.67-4.23v-4.88c0-1.77-.06-3.68-1.16-5.07-1.35-1.73-4.54-2.47-6.66-2.41a5.62,5.62,0,0,0-3.81,1.53A5,5,0,0,1,227.76,363.34Z" transform="translate(-20 -12)"/><path class="cls-4" d="M232.24,424.41l6.1,25S243.13,449.4,232.24,424.41Z" transform="translate(-20 -12)"/><path class="cls-4" d="M253.06,420.22s-8,13.07-4.87,26.57l1.49.11S247,440.64,253.06,420.22Z" transform="translate(-20 -12)"/><path class="cls-4" d="M258.11,494.14s9.79-3.24,10.51,4.28C268.62,498.42,266.77,493.26,258.11,494.14Z" transform="translate(-20 -12)"/><path class="cls-4" d="M229.81,451s-1.94,13.62,1.55,19.07a42.53,42.53,0,0,1-17.11,2.33L213.08,451Z" transform="translate(-20 -12)"/><path class="cls-4" d="M231.14,468.48l-.94.53-6-13.58,5.65-5.06h.29C230,451,228.43,462.72,231.14,468.48Z" transform="translate(-20 -12)"/><path class="cls-16" d="M229.81,450.37s-1.94,13.62,1.55,19.07a42.88,42.88,0,0,1-17.11,2.33l-6.81-21.4Z" transform="translate(-20 -12)"/><path class="cls-14" d="M213,677.57a4.39,4.39,0,0,1-3.78,3.85c-5.27.82-18,2.8-21.21,4.33-4.12,2-20.23.58-21-1.36a3.08,3.08,0,0,1,.28-2.34,6.42,6.42,0,0,1,3.78-3.3c3.05-1,8.79-3.16,10.34-5.42,0,0,7.16-6.27,9.2-9.65a4.65,4.65,0,0,1,3.74-2.33c1.71-.08,3.6.78,4.38,4.51,0,0,9.33,5.32,11.86.66,0,0,.39,7.17,1.94,9.13h0A2.59,2.59,0,0,1,213,677.57Z" transform="translate(-20 -12)"/><path class="cls-4" d="M213,677.57a4.39,4.39,0,0,1-3.78,3.85c-5.27.82-18,2.8-21.21,4.33-4.12,2-20.23.58-21-1.36a3.08,3.08,0,0,1,.28-2.34,6.21,6.21,0,0,1,2.61-2.8c2.64,1.74,8.48,3.46,21.33,1.45,12.27-1.92,18.33-3.8,21.3-5.07h0A2.58,2.58,0,0,1,213,677.57Z" transform="translate(-20 -12)"/><g class="cls-19"><path d="M266.06,359.47a.17.17,0,0,0,0-.1,17.3,17.3,0,0,0,.6-4.41,26.43,26.43,0,0,1-.6,3.54A2.27,2.27,0,0,0,266.06,359.47Z" transform="translate(-20 -12)"/><path d="M254.71,377.68a5.64,5.64,0,0,1,.48,2.22,6.7,6.7,0,0,0-.48-3.1,2.91,2.91,0,0,0-3.08-1.78c-1.65.39-2.38,2.56-4,3.08a3.21,3.21,0,0,1-3.54-1.83,9.16,9.16,0,0,1-.68-4.23v-4.87c0-1.77-.05-3.68-1.15-5.07-1.36-1.74-4.54-2.47-6.67-2.42a5.54,5.54,0,0,0-3.8,1.54,5,5,0,0,1-4,1.42,3.44,3.44,0,0,1-2.8-2.42c-.16-.62-.12-1.29-.3-1.92-.46-1.53-2.09-2.32-3.18-3.48a6.4,6.4,0,0,1-1.65-4.11,6.62,6.62,0,0,0,1.65,5c1.09,1.17,2.72,2,3.18,3.49.18.62.14,1.3.3,1.92a3.47,3.47,0,0,0,2.8,2.42,5,5,0,0,0,4-1.43,5.67,5.67,0,0,1,3.79-1.52c2.13-.07,5.32.69,6.67,2.42,1.1,1.39,1.15,3.29,1.16,5.07v4.87a9.19,9.19,0,0,0,.67,4.24,3.21,3.21,0,0,0,3.54,1.82c1.65-.52,2.35-2.69,4-3.08A2.92,2.92,0,0,1,254.71,377.68Z" transform="translate(-20 -12)"/><path d="M270.7,372.32a7.49,7.49,0,0,1-1.64,2.68q-3.22,3.86-6.43,7.71c-2.7,3.25-5.56,7-5.36,11.16.2-3.8,2.85-7.26,5.36-10.28l6.43-7.72a5.66,5.66,0,0,0,1.81-4.81A5.38,5.38,0,0,1,270.7,372.32Z" transform="translate(-20 -12)"/><path d="M253.93,392.57a4.66,4.66,0,0,1-.2-1,5.37,5.37,0,0,0,.2,1.91c.44,1.42,2,2.58,3.39,2,0-.29-.06-.58-.06-.82C255.92,395.13,254.33,394,253.93,392.57Z" transform="translate(-20 -12)"/></g><path class="cls-4" d="M189.32,665.41s2,3.58,9.41.42" transform="translate(-20 -12)"/><path class="cls-4" d="M251.58,666.27s6.36,7.48,14.37,2.47" transform="translate(-20 -12)"/><path class="cls-4" d="M270.08,577.78s-4.5,2.81-4.64,4.41,2.32-1.16,2.32-1.16Z" transform="translate(-20 -12)"/><path class="cls-4" d="M271.85,599.3a9.28,9.28,0,0,1-5.53,2.15c-3.36.15-3.08,4.53-.88,3.21A55.3,55.3,0,0,0,271.85,599.3Z" transform="translate(-20 -12)"/><path class="cls-4" d="M272.7,602.1s-2.15,10.59-3.91,8.55" transform="translate(-20 -12)"/><g class="cls-20"><rect class="cls-21" x="343.11" y="346.59" width="54.32" height="11.52"/><rect class="cls-21" x="467.83" y="346.59" width="54.32" height="11.52"/><rect class="cls-21" x="592.55" y="346.59" width="54.32" height="11.52"/></g><ellipse class="cls-2" cx="739.42" cy="628.58" rx="22.16" ry="3.74"/><ellipse class="cls-2" cx="50.17" cy="675.86" rx="22.16" ry="3.74"/><ellipse class="cls-9" cx="690.91" cy="668.71" rx="33.09" ry="5.6"/><path class="cls-9" d="M724.59,671.56a9.56,9.56,0,0,0,3.15-4.76c.41-1.9-.39-4.16-2.19-4.85-2-.77-4.19.63-5.84,2s-3.51,3-5.66,2.73a8.67,8.67,0,0,0,2.67-8.07A3.37,3.37,0,0,0,716,657c-1.12-1.2-3.16-.69-4.51.26-4.27,3-5.47,8.82-5.49,14.05-.43-1.88-.07-3.85-.08-5.76s-.54-4.11-2.17-5.12a6.63,6.63,0,0,0-3.29-.78c-1.93-.07-4.08.12-5.38,1.52-1.65,1.76-1.21,4.69.2,6.59s3.59,3.13,5.57,4.46a12.46,12.46,0,0,1,4,3.79,4.15,4.15,0,0,1,.28.69h12.07A33.78,33.78,0,0,0,724.59,671.56Z" transform="translate(-20 -12)"/><path class="cls-9" d="M71.18,632.31s4.53,5.91-2.08,14.81-12.06,16.46-9.88,22c0,0,10-16.58,18.11-16.81S80.11,642.28,71.18,632.31Z" transform="translate(-20 -12)"/><path class="cls-4" d="M71.18,632.31a7.2,7.2,0,0,1,.93,1.86c7.92,9.3,12.13,18,4.52,18.19C69.54,652.57,61,665.24,59,668.44c.07.25.15.5.24.74,0,0,10-16.59,18.1-16.82S80.11,642.28,71.18,632.31Z" transform="translate(-20 -12)"/><path class="cls-22" d="M79.58,639.84c0,2.09-.23,3.77-.52,3.77s-.51-1.64-.51-3.77.28-1.1.57-1.1S79.58,637.76,79.58,639.84Z" transform="translate(-20 -12)"/><path class="cls-22" d="M82.47,642.33c-1.83,1-3.42,1.6-3.55,1.34s1.22-1.27,3-2.26,1.11-.27,1.24,0S84.3,641.33,82.47,642.33Z" transform="translate(-20 -12)"/><path class="cls-9" d="M47.31,632.31s-4.53,5.91,2.08,14.81,12,16.46,9.87,22c0,0-10-16.58-18.1-16.81S38.38,642.28,47.31,632.31Z" transform="translate(-20 -12)"/><path class="cls-4" d="M47.31,632.31a7.2,7.2,0,0,0-.93,1.86c-7.92,9.3-12.14,18-4.52,18.19,7.08.21,15.58,12.88,17.63,16.08a6.44,6.44,0,0,1-.25.74s-10-16.59-18.11-16.82S38.38,642.28,47.31,632.31Z" transform="translate(-20 -12)"/><path class="cls-22" d="M38.89,639.84c0,2.09.24,3.77.53,3.77s.52-1.64.52-3.77-.29-1.1-.58-1.1S38.89,637.76,38.89,639.84Z" transform="translate(-20 -12)"/><path class="cls-22" d="M36,642.33c1.83,1,3.42,1.6,3.56,1.34s-1.23-1.27-3-2.26-1.11-.27-1.25,0S34.19,641.33,36,642.33Z" transform="translate(-20 -12)"/><path class="cls-23" d="M40.36,668.4S53,668,56.82,665.3s19.45-6,20.39-1.61,19,21.64,4.73,21.76-33.16-2.23-37-4.54S40.36,668.4,40.36,668.4Z" transform="translate(-20 -12)"/><path class="cls-24" d="M82.16,683.93c-14.27.12-33.17-2.22-37-4.53-2.89-1.77-4-8.1-4.43-11h-.43s.83,10.18,4.61,12.5,22.69,4.65,37,4.54c4.12,0,5.54-1.5,5.47-3.67C86.79,683.09,85.22,683.91,82.16,683.93Z" transform="translate(-20 -12)"/><path class="cls-9" d="M359.26,439.05c0-16.82,13.69-29.74,30.52-29.74H390v-7.65h-.24c-21,0-38.17,16.35-38.17,37.39a38.1,38.1,0,0,0,13.08,28.73l5.42-5.43A30.43,30.43,0,0,1,359.26,439.05Z" transform="translate(-20 -12)"/><path class="cls-10" d="M390.78,401.67v7.65a30.51,30.51,0,1,1-19.9,53.8l-5.44,5.42a38.15,38.15,0,1,0,25.33-66.87Z" transform="translate(-20 -12)"/><path class="cls-10" d="M641,408.93c16.82,0,29.74,13.68,29.74,30.51v.24h7.65v-.24c0-21-16.35-38.17-37.39-38.17a38.06,38.06,0,0,0-28.72,13.08l5.42,5.42A30.47,30.47,0,0,1,641,408.93Z" transform="translate(-20 -12)"/><path class="cls-9" d="M678.36,440.45H670.7a30.51,30.51,0,1,1-53.8-19.91l-5.39-5.43a38.15,38.15,0,1,0,66.87,25.34Z" transform="translate(-20 -12)"/><path class="cls-10" d="M530,403.9l-1.52,7.63c11.2,4.51,18.36,15.49,18.36,28.29a30.51,30.51,0,1,1-42.74-27.94L500.74,405a38.15,38.15,0,1,0,53.82,34.81C554.56,423.3,544.78,409.21,530,403.9Z" transform="translate(-20 -12)"/><path class="cls-9" d="M517.35,408.87a26.76,26.76,0,0,1,10.62,2.2l1.53-7.61a33.89,33.89,0,0,0-12.15-2.25,38,38,0,0,0-15.64,3.37l3.43,6.86A30,30,0,0,1,517.35,408.87Z" transform="translate(-20 -12)"/></svg>