<?xml version="1.0" standalone="no"?><svg xmlns="http://www.w3.org/2000/svg" viewBox="0 0 1440 320"><path fill="#64b5f6" fill-opacity="1" d="M0,160L18.5,165.3C36.9,171,74,181,111,170.7C147.7,160,185,128,222,133.3C258.5,139,295,181,332,192C369.2,203,406,181,443,144C480,107,517,53,554,58.7C590.8,64,628,128,665,149.3C701.5,171,738,149,775,128C812.3,107,849,85,886,80C923.1,75,960,85,997,122.7C1033.8,160,1071,224,1108,213.3C1144.6,203,1182,117,1218,101.3C1255.4,85,1292,139,1329,154.7C1366.2,171,1403,149,1422,138.7L1440,128L1440,320L1421.5,320C1403.1,320,1366,320,1329,320C1292.3,320,1255,320,1218,320C1181.5,320,1145,320,1108,320C1070.8,320,1034,320,997,320C960,320,923,320,886,320C849.2,320,812,320,775,320C738.5,320,702,320,665,320C627.7,320,591,320,554,320C516.9,320,480,320,443,320C406.2,320,369,320,332,320C295.4,320,258,320,222,320C184.6,320,148,320,111,320C73.8,320,37,320,18,320L0,320Z"></path></svg>