<svg id="aaafdec0-95c8-49a3-a8f8-64216c6da511" xmlns="http://www.w3.org/2000/svg" xmlns:xlink="http://www.w3.org/1999/xlink" viewBox="0 0 849.04 559.93"><defs><style>.cls-1{opacity:0.18;fill:url(#linear-gradient);}.cls-1,.cls-4,.cls-9{isolation:isolate;}.cls-2{fill:#42a5f5;}.cls-3{fill:#3f3d56;}.cls-4{opacity:0.1;}.cls-5{fill:none;stroke:#3f3d56;stroke-miterlimit:10;}.cls-6{fill:#f2f2f2;}.cls-7{fill:#46455b;}.cls-8{fill:#a8a8a8;}.cls-9{opacity:0.2;}.cls-10{fill:#a0616a;}.cls-11{fill:#605d82;}.cls-12{fill:#535070;}.cls-13{fill:#fff;}.cls-14{fill:#57b894;}</style><linearGradient id="linear-gradient" x1="9.98" y1="289.5" x2="859.02" y2="289.5" gradientUnits="userSpaceOnUse"><stop offset="0" stop-color="#ff8a65"/><stop offset="1" stop-color="#55abe5"/></linearGradient></defs><path class="cls-1" d="M841.72,532.78a79,79,0,0,1-17.4,16.67c-32.37,22.8-81.67,23.47-124.81,15.11s-83.86-24.35-127.26-31.3c-69-11-138.92,1.55-206.33,14s-137.3,25.23-206.37,14.55c-65-10-129.44-46.71-145.61-97.24a77.36,77.36,0,0,1-2.42-9.47c-14.57-75.84,79-138,79.23-214.3.07-21.31-7.28-42.42-9.32-63.74C74.61,105.8,135,36,219.9,16.7,368.87-17.11,519,80.29,672.1,70.17c152.65-10,167.72,48.18,143.83,163.58A240,240,0,0,0,822,353c10.45,33.93,28.32,66.63,34.83,101.07C861.92,481.07,858.68,510.48,841.72,532.78Z" transform="translate(-9.98 -9.53)"/><path class="cls-2" d="M535.31,327.53l5.87-1,1.69-.32a48.18,48.18,0,0,1,30.76-88.82l-7.69,18.31,18.22-15.92.13,0a48.19,48.19,0,0,1,29.44,61.46h0c-.31.87-.67,1.69-1,2.53a57.3,57.3,0,0,0,14.11-9.45c8.14-7.8,12.61-18.58,17.6-31.85,9.88-26.31,19.4-53,28.54-79.75a48.15,48.15,0,0,1-22.52-58.32c.49-1.39,1.06-2.73,1.66-4.05.15-.32.3-.65.46-1,.61-1.26,1.25-2.49,2-3.68.12-.19.25-.37.37-.57q.92-1.5,2-2.91c.25-.35.5-.7.77-1,.77-1,1.57-2,2.42-2.94.28-.31.58-.61.87-.91.65-.69,1.32-1.35,2-2,.37-.34.72-.68,1.09-1l.28-.25h0a48.14,48.14,0,0,1,61.6-1.38l-10,23.82,18-15.72a47.91,47.91,0,0,1,1.78,56.74l.05,0c-.2.29-.42.55-.62.84-.38.53-.77,1.05-1.17,1.57s-1,1.29-1.59,1.92c-.41.48-.81.95-1.24,1.41-.62.67-1.27,1.3-1.93,1.93-.39.36-.75.75-1.15,1.1-1,.93-2.11,1.81-3.21,2.64-.39.29-.8.54-1.2.82-.77.55-1.56,1.09-2.36,1.59-.5.31-1,.59-1.53.88-.74.42-1.49.83-2.25,1.21-.54.27-1.08.53-1.63.78-.78.36-1.57.69-2.37,1l-1.61.62c-.9.31-1.81.59-2.73.85-.46.13-.92.28-1.38.4-1.38.35-2.77.65-4.17.88l-.8.1c-1.17.17-2.34.3-3.52.39-.5,0-1,0-1.52.06-1,0-1.91.06-2.87,0-.56,0-1.12,0-1.69-.07-.93-.05-1.87-.13-2.8-.24l-1.67-.21c-1-.16-2-.36-3-.57l-.2,0q-5.79,16.92-11.79,33.78a48.15,48.15,0,0,1,68,3.61c.63.69,1.24,1.41,1.82,2.14l-16.66,18.43,22.56-9a48,48,0,0,1,1.92,36.68,47.18,47.18,0,0,1-6.12,11.84,48.15,48.15,0,0,1-87-21.13c-.42,1.13-.83,2.28-1.26,3.41-4.4,11.71-9.88,26.29-20.88,36.83-7.46,7.14-16.63,11.67-25.43,15.5q-8.6,3.75-17.43,6.92a48.22,48.22,0,0,1-21.56,6.87q-13.92,3.87-28.17,6.4l-5.92,1c-5.32.91-10.77,1.85-16.18,2.93.78.23,1.56.45,2.33.72a48.19,48.19,0,0,1,32.18,46.89l-37.1,11.39L552.38,408a48.2,48.2,0,0,1-80.32,14.25l1,3.42q1,3.39,2,6.74c8.83,30.35,5,54.22-10.7,67.22l-8.54-10.34c15.31-12.65,10.56-38.72,6.37-53.14-.64-2.18-1.31-4.39-2-6.61-5.75-19.12-12.27-40.78-3.82-60.69C469.15,338.86,505.84,332.58,535.31,327.53Z" transform="translate(-9.98 -9.53)"/><path class="cls-3" d="M524.44,503.53H264.53A32.13,32.13,0,0,1,232.4,471.4h0V352.32a12.72,12.72,0,0,1,4-9.24L374.1,212.53a29.63,29.63,0,0,1,40.78,0L546.19,337a33.3,33.3,0,0,1,10.39,24.15V471.4a32.13,32.13,0,0,1-32.14,32.13Z" transform="translate(-9.98 -9.53)"/><path class="cls-4" d="M232.4,354.28H553.88V484.13a19.4,19.4,0,0,1-19.41,19.4H251.8a19.4,19.4,0,0,1-19.4-19.4h0V354.28Z" transform="translate(-9.98 -9.53)"/><path class="cls-5" d="M232.06,346.51" transform="translate(-9.98 -9.53)"/><rect class="cls-2" x="264.63" y="242.42" width="239.08" height="239.08" rx="17.68"/><polygon class="cls-4" points="503.71 350.11 503.71 481.51 264.63 481.51 264.63 350.11 384.17 407.89 503.71 350.11"/><path class="cls-3" d="M394.15,424.85,241,350.82a6.22,6.22,0,0,0-8.92,5.59V483.79a19.41,19.41,0,0,0,19.41,19.41H536.84a19.41,19.41,0,0,0,19.4-19.41h0V358.6a7.57,7.57,0,0,0-10.88-6.83Z" transform="translate(-9.98 -9.53)"/><rect class="cls-6" x="285.23" y="264.37" width="66.86" height="9.46"/><rect class="cls-6" x="279.82" y="298.82" width="198.56" height="5.4"/><rect class="cls-6" x="279.82" y="317.05" width="198.56" height="5.4"/><rect class="cls-6" x="279.82" y="335.29" width="198.56" height="5.4"/><path class="cls-7" d="M69.66,420c0,39.82,25,72,55.86,72" transform="translate(-9.98 -9.53)"/><path class="cls-2" d="M125.52,492.07c0-40.26,27.87-72.85,62.32-72.85" transform="translate(-9.98 -9.53)"/><path class="cls-2" d="M89.9,423.64c0,37.83,15.93,68.43,35.62,68.43" transform="translate(-9.98 -9.53)"/><path class="cls-7" d="M125.52,492.07c0-51.45,32.22-93.09,72-93.09" transform="translate(-9.98 -9.53)"/><path class="cls-8" d="M113.77,492.58s7.92-.24,10.3-1.94,12.19-3.73,12.78-1,11.9,13.56,3,13.64-20.78-1.4-23.16-2.85S113.77,492.58,113.77,492.58Z" transform="translate(-9.98 -9.53)"/><path class="cls-9" d="M140,502.32c-8.94.07-20.78-1.4-23.16-2.85-1.81-1.1-2.54-5.07-2.78-6.9h-.26s.5,6.39,2.88,7.84,14.22,2.92,23.16,2.85c2.58,0,3.47-.94,3.43-2.3C142.88,501.79,141.89,502.3,140,502.32Z" transform="translate(-9.98 -9.53)"/><path class="cls-10" d="M555.74,202.17c-.41,3.61-3.16,6.53-4.19,10-1.53,5.25,1.13,10.9,4.76,15a33.21,33.21,0,0,0,23.13,11,9.91,9.91,0,0,0,3.82-.42,8.17,8.17,0,0,0,2.91-2,18.53,18.53,0,0,0,4.79-10.4,55,55,0,0,0,.13-11.62,6.48,6.48,0,0,0-.43-2.35,5.86,5.86,0,0,0-1.51-1.85,35.23,35.23,0,0,0-6.47-4.71,7.31,7.31,0,0,1-2.72-2.08,6.82,6.82,0,0,1-.84-2.48l-.71-3.65a7.21,7.21,0,0,0-1-3c-1.27-1.71-3.68-1.94-5.8-2l-7.78-.3c-2.41-.09-5.6-.79-8-.31-2.2.44-1.47,2.47-1.07,4.32A31.45,31.45,0,0,1,555.74,202.17Z" transform="translate(-9.98 -9.53)"/><path class="cls-4" d="M555.74,202.17c-.41,3.61-3.16,6.53-4.19,10-1.53,5.25,1.13,10.9,4.76,15a33.21,33.21,0,0,0,23.13,11,9.91,9.91,0,0,0,3.82-.42,8.17,8.17,0,0,0,2.91-2,18.53,18.53,0,0,0,4.79-10.4,55,55,0,0,0,.13-11.62,6.48,6.48,0,0,0-.43-2.35,5.86,5.86,0,0,0-1.51-1.85,35.23,35.23,0,0,0-6.47-4.71,7.31,7.31,0,0,1-2.72-2.08,6.82,6.82,0,0,1-.84-2.48l-.71-3.65a7.21,7.21,0,0,0-1-3c-1.27-1.71-3.68-1.94-5.8-2l-7.78-.3c-2.41-.09-5.6-.79-8-.31-2.2.44-1.47,2.47-1.07,4.32A31.45,31.45,0,0,1,555.74,202.17Z" transform="translate(-9.98 -9.53)"/><path class="cls-11" d="M605.17,364.94l-3.3,36.21c-.86,9.49-1.74,19-3.43,28.4-.59,3.23-1.27,6.44-2.08,9.63-2.26,8.85-5.53,17.49-6.59,26.56l-.09.79a23.24,23.24,0,0,1-1.13,5.9c-.53,1.38-1.34,2.64-1.91,4-1.14,2.74-1.29,5.76-1.43,8.73a37.5,37.5,0,0,0-13-4.43c-2.19-.33-4.64-.56-6.14-2.2-1.65-1.81-1.47-4.59-1.19-7l2.61-22.68a59.29,59.29,0,0,1,1.65-9.63c.3-1,.66-2.08,1-3.12.51-1.42,1-2.84,1.4-4.3a53.15,53.15,0,0,0,1.16-7.18c.89-7.61,2-15.2,2.92-22.8l0-.4a232.94,232.94,0,0,0,2.18-34.7c0-1.72-.11-3.43-.23-5.16-.15-2.49-.38-3.82,1.69-5.38a38.87,38.87,0,0,1,7.91-4.06c1.4-.61,16.89-6.11,17.25-4.9a30.17,30.17,0,0,1,1.14,7.9A87.11,87.11,0,0,1,605.17,364.94Z" transform="translate(-9.98 -9.53)"/><path class="cls-4" d="M598.44,429.55c-.59,3.23-1.27,6.44-2.08,9.63-2.26,8.85-5.53,17.49-6.59,26.56l-.09.79c-6.9-9.86-12.72-20.47-19.46-30.44.51-1.42,1-2.84,1.4-4.3a53.15,53.15,0,0,0,1.16-7.18c.89-7.61,2-15.2,2.92-22.8l0-.4a23.54,23.54,0,0,0,1.68,4.68c4.53,9.19,15.28,13.84,20.54,22.64Z" transform="translate(-9.98 -9.53)"/><path class="cls-11" d="M542.4,348.69a171.38,171.38,0,0,0,2.59,22l2.43,15c1.33,8.22,2.72,16.62,6.61,24,2.91,5.51,7.11,10.22,10.9,15.16,9.33,12.16,16.34,25.93,25.19,38.44,2.57,3.64,6.25,7.57,10.64,6.81,2.88-.5,5-2.9,7.23-4.75,2.67-2.18,5.89-3.77,8-6.5s2.51-7.28-.33-9.22a14.69,14.69,0,0,0-3.26-1.33c-4.41-1.68-7.27-6-9.08-10.35s-2.92-9-5.34-13.09c-5.26-8.8-16-13.45-20.54-22.65-2.54-5.15-2.78-11.09-3-16.83l-.5-14.63a10.72,10.72,0,0,1,.56-4.72c1.73-3.9,7-4.26,11.19-4.75a38.35,38.35,0,0,0,13.72-4.33c2.44-1.32,4.82-3,6.12-5.44,1.19-2.23,1.36-4.85,1.5-7.37l1.46-26.52a16.55,16.55,0,0,0-.56-6.77c-2-5.37-8.8-7.13-14.53-6.87-10.66.48-20.51,5.06-30.56,8.16a76,76,0,0,1-7.58,2c-2.26.45-5,.26-7.14,1-3.83,1.29-3.73,9.66-4.27,13.13A111.31,111.31,0,0,0,542.4,348.69Z" transform="translate(-9.98 -9.53)"/><path class="cls-12" d="M599.31,471.19a6.75,6.75,0,0,1,1.49,3.65,123.89,123.89,0,0,1,2.11,22.08,3.64,3.64,0,0,0,.4,2,2.51,2.51,0,0,0,1,.84c2.72,1.29,5.87-.51,8.14-2.5,4.2-3.67,7.75-8.61,8-14.19a30.91,30.91,0,0,1,.15-4.3c.37-2.1,1.59-3.93,2.67-5.77a48.35,48.35,0,0,0,4.42-9.91c.42-1.29.69-2.93-.33-3.84a3.88,3.88,0,0,0-1.21-.63l-12.28-4.55c-1.06-.4-3.71,6.4-4.13,7.14a5.61,5.61,0,0,1-4.11,3.28c-2.1.42-4.61-.19-6.57.86C595.76,467.13,597.43,469.29,599.31,471.19Z" transform="translate(-9.98 -9.53)"/><path class="cls-12" d="M580.37,475.39a3.76,3.76,0,0,0-.94-1.19,4.22,4.22,0,0,0-1.88-.64c-2.34-.39-5.11-.66-6.72,1.08s-1.26,4.28-2.52,6.11c-.4.58-.94,1.06-1.29,1.67a6.29,6.29,0,0,0-.57,3c-.06,2.83-.13,5.67.07,8.5.16,2.37.56,4.85,2,6.71,2.38,3,6.67,3.41,10.48,3.6l3.08.16a6,6,0,0,0,2.53-.24,4.17,4.17,0,0,0,2.18-2.39c1.6-4-.94-8.29-2.51-12.3C582.52,484.85,582.85,479.74,580.37,475.39Z" transform="translate(-9.98 -9.53)"/><path class="cls-3" d="M554.85,181.79a2.54,2.54,0,0,1,.17-1.19c.45-.8,1.63-.58,2.52-.36,3.58.91,7.35.09,11,.3s7.83,2.05,8.57,5.67a26.9,26.9,0,0,0,6.8-7,8.34,8.34,0,0,0,1.78-5.12c-.2-2.64-2.42-4.62-4.48-6.3l-6.13-5a9.28,9.28,0,0,0-2.74-1.75,13.79,13.79,0,0,0-4.45-.25c-4.46,0-9.22-2-13.19,0a14.17,14.17,0,0,0-4.1,3.74L545.16,171a3.35,3.35,0,0,0-.88,1.48,6.81,6.81,0,0,0,.39,2.37c.26,1.44-.36,3,.12,4.38.79,2.3,3.59,2.63,5.3,3.95.64.49,1.64,2.16,2.4,2.14C553.86,185.31,554.81,182.85,554.85,181.79Z" transform="translate(-9.98 -9.53)"/><circle class="cls-10" cx="554.15" cy="173.83" r="17.51"/><path class="cls-3" d="M568.23,221.69A8.5,8.5,0,0,0,560,216a2.48,2.48,0,0,1-1.52-.19,2,2,0,0,1-.63-.78,30.82,30.82,0,0,1-2.55-6c-.28-.92-.66-2-1.6-2.26a2.17,2.17,0,0,0-2,.89,18.3,18.3,0,0,1-1.46,1.83c-2.2,2-6.11.17-8.44,2-.39.3-.7.67-1.1.94a5.07,5.07,0,0,1-1.29.55,123.38,123.38,0,0,0-13.25,5.2c1.55,9.36,3.15,18.89,6.79,27.65,1.74,4.18,3.7,8.26,5.09,12.56,3.08,9.53,3.22,19.72,3.25,29.73,0,6.85,0,13.85-2.23,20.33a19.65,19.65,0,0,0-1.25,4.47,4.65,4.65,0,0,0,1.57,4.16,5.45,5.45,0,0,0,2.42.85c3.84.56,7.71-.46,11.49-1.34,10.14-2.34,20.48-3.69,30.79-5l17.29-2.24a10.09,10.09,0,0,0,3.58-.93c3.16-1.73,3.46-6.49,1.5-9.51-.94-1.45-2.27-2.64-3.06-4.18s-.86-3.69.5-4.75c2.77-2.17,1.95-6.19,2.08-9.7q.55-14.74-.15-29.5a59.51,59.51,0,0,1-.1-6.12,54.43,54.43,0,0,1,1.91-10.2l5.25-20.69c-1.37-2.17-4-3.54-6.49-4.17s-5.08-.81-7.53-1.57c-5-1.55-9.5-5.5-14.74-5.14a2.78,2.78,0,0,0-1.14.28c-1.19.67-1,2.38-1.07,3.74-.17,3-2.38,5.51-4.82,7.27s-5.23,3-7.47,5A3.33,3.33,0,0,0,568.23,221.69Z" transform="translate(-9.98 -9.53)"/><path class="cls-10" d="M498.83,241.31a20.3,20.3,0,0,1-3.68,1.89,12.3,12.3,0,0,0-3.53,1.72,5.78,5.78,0,0,0-1.23,1.51,6.75,6.75,0,0,0,6.22,10.05,13.51,13.51,0,0,0,4.6-1.37l12.35-5.35c2.09-.91,4.35-2,5.34-4a.92.92,0,0,0,.12-.63,1,1,0,0,0-.51-.54,27.61,27.61,0,0,1-7.19-6.78c-.51-.69-1.13-2.31-1.84-2.73C506.86,233.55,500.93,240,498.83,241.31Z" transform="translate(-9.98 -9.53)"/><path class="cls-10" d="M630.89,236.92l4.55,5.2c1,1.12,2,2.23,2.85,3.42a39.81,39.81,0,0,1,5.22,9.83,17.07,17.07,0,0,1,1.46,8.12,19.77,19.77,0,0,1-1.14,4.13,51.52,51.52,0,0,1-3.09,7.45,42.67,42.67,0,0,1-3.48,5.22,121.93,121.93,0,0,1-11.55,13.21c-1.55,1.54-2.21,4-2.89,6.11-1.25,3.85-4.22,6.84-7.1,9.68a19.61,19.61,0,0,1-3.05,2.62,9.82,9.82,0,0,1-5.54,1.58,6.11,6.11,0,0,1-2.5-.51c-2-.94-3-3.22-3.18-5.39a11.48,11.48,0,0,1,1-5.75c2.61-5.79,9.32-8.3,14.07-12.52a45.47,45.47,0,0,0,7-8.67,29.62,29.62,0,0,0,3.55-6.21c1.06-2.82.64-6.17,1.57-9,.39-1.22,1.09-2.32,1.51-3.52a4.13,4.13,0,0,0-.21-3.68,5.41,5.41,0,0,0-2.06-1.51c-3-1.53-6.43-3.51-7-6.86a7.4,7.4,0,0,1,1.36-5.25,21.93,21.93,0,0,1,3.82-4C627.34,239.41,629.56,238.09,630.89,236.92Z" transform="translate(-9.98 -9.53)"/><path class="cls-10" d="M495.91,248.57a8.48,8.48,0,0,0-3.43-4.09,6.32,6.32,0,0,0-5,0,18.81,18.81,0,0,0-4.38,2.65L479.19,250a9.73,9.73,0,0,0-2.33,2.15,9,9,0,0,0-1.22,3.33,24.07,24.07,0,0,0-.62,8.24c.63,4.43,3.3,8.29,6.23,11.66,1.84,2.11,4.11,4.23,6.9,4.32a3.14,3.14,0,0,0,3-1.53,3.81,3.81,0,0,0,.28-1.37c.3-4.93-1.47-9.76-3.53-14.25a9.24,9.24,0,0,1-1.13-3.84,1,1,0,0,1,.16-.64,1.15,1.15,0,0,1,.67-.33c2.82-.55,7.68,1.64,9.66-1.49C498.58,254.22,496.82,250.41,495.91,248.57Z" transform="translate(-9.98 -9.53)"/><path class="cls-3" d="M553.93,176.28a2.54,2.54,0,0,1,.17-1.19c.45-.8,1.63-.58,2.52-.36,3.58.9,7.35.09,11,.3s7.83,2.05,8.58,5.67a27.22,27.22,0,0,0,6.8-7,8.39,8.39,0,0,0,1.77-5.12c-.2-2.64-2.42-4.62-4.48-6.3l-6.13-5a9.28,9.28,0,0,0-2.74-1.75,13.78,13.78,0,0,0-4.45-.25c-4.46,0-9.22-2-13.19,0a14.17,14.17,0,0,0-4.1,3.74l-5.47,6.47a3.55,3.55,0,0,0-.88,1.48,6.6,6.6,0,0,0,.4,2.37c.25,1.44-.37,3,.11,4.37.79,2.31,3.59,2.64,5.31,4,.63.49,1.63,2.16,2.39,2.14C552.94,179.79,553.89,177.34,553.93,176.28Z" transform="translate(-9.98 -9.53)"/><path class="cls-3" d="M516.73,224.27A7.1,7.1,0,0,0,514.9,226c-.64,1-.77,2.2-1.33,3.22-1.18,2.2-3.94,3-5.66,4.77a1.83,1.83,0,0,0-.54.94,2,2,0,0,0,.46,1.34l8.3,13.06c2.77.24,5.42-1.49,8.19-1.26a8.24,8.24,0,0,0,3.08.14,9.14,9.14,0,0,0,2-1.21c1.65-1,3.84-1.17,5.23-2.54s1.5-3.39,1.48-5.27a21.32,21.32,0,0,0-.49-4.84c-1.23-5-5.06-8.85-7.46-13.29-1.17-2.17-1.81-3.43-4.28-1.95S519.07,222.56,516.73,224.27Z" transform="translate(-9.98 -9.53)"/><path class="cls-3" d="M617.59,217.67a19.46,19.46,0,0,1,4.18,3.66c1.27,1.63,2,3.63,3.2,5.3a58.38,58.38,0,0,0,4.12,4.36,33.57,33.57,0,0,1,4.74,7.73,115.64,115.64,0,0,1-10.74,12.14,3.43,3.43,0,0,1-1.63,1.07,2.6,2.6,0,0,1-2.31-.94c-.59-.62-1-1.4-1.59-2.05a8.21,8.21,0,0,0-5.08-2.45,34.5,34.5,0,0,0-5.75-.08,2.36,2.36,0,0,1-1.23-.21,2.16,2.16,0,0,1-.67-.77c-2.25-3.82-1.53-8.63-.73-13l1.82-10a22.3,22.3,0,0,1,1.51-5.57c.69-1.48,2.23-4,4.13-3.53S616,216.51,617.59,217.67Z" transform="translate(-9.98 -9.53)"/><ellipse class="cls-13" cx="274.42" cy="246.19" rx="27.69" ry="27.74"/><path class="cls-14" d="M284.4,223.25a33.1,33.1,0,1,0,33.1,33.1A33.09,33.09,0,0,0,284.4,223.25ZM277.61,274l-17-17,4.75-4.76,12.22,12.22,25.79-25.79,4.76,4.76L277.61,274Z" transform="translate(-9.98 -9.53)"/></svg>