<svg id="aaafdec0-95c8-49a3-a8f8-64216c6da511" xmlns="http://www.w3.org/2000/svg" xmlns:xlink="http://www.w3.org/1999/xlink" viewBox="0 0 849.04 559.93"><defs><style>.cls-1{opacity:0.18;fill:url(#linear-gradient);}.cls-1,.cls-12,.cls-6,.cls-7,.cls-8,.cls-9{isolation:isolate;}.cls-2{fill:#42a5f5;}.cls-3{fill:#444053;}.cls-4{fill:#3f3d56;}.cls-5{fill:#fff;}.cls-6{fill:#fa5959;}.cls-6,.cls-7,.cls-8{opacity:0.8;}.cls-7{fill:#fed253;}.cls-8{fill:#8ccf4d;}.cls-9{opacity:0.05;}.cls-10{fill:url(#linear-gradient-2);}.cls-11{fill:#fbbebe;}.cls-12,.cls-14{opacity:0.1;}.cls-13{fill:#33313f;}</style><linearGradient id="linear-gradient" x1="9.98" y1="289.5" x2="859.02" y2="289.5" gradientUnits="userSpaceOnUse"><stop offset="0" stop-color="#ff8a65"/><stop offset="1" stop-color="#55abe5"/></linearGradient><linearGradient id="linear-gradient-2" x1="574.61" y1="135.16" x2="663.32" y2="135.16" gradientTransform="matrix(1, 0, 0, -1, -16.91, 550.54)" gradientUnits="userSpaceOnUse"><stop offset="0" stop-color="gray" stop-opacity="0.25"/><stop offset="0.54" stop-color="gray" stop-opacity="0.12"/><stop offset="1" stop-color="gray" stop-opacity="0.1"/></linearGradient></defs><path class="cls-1" d="M841.72,532.78a79,79,0,0,1-17.4,16.67c-32.37,22.8-81.67,23.47-124.81,15.11s-83.86-24.35-127.26-31.3c-69-11-138.92,1.55-206.33,14s-137.3,25.23-206.37,14.55c-65-10-129.44-46.71-145.61-97.24a77.36,77.36,0,0,1-2.42-9.47c-14.57-75.84,79-138,79.23-214.3.07-21.31-7.28-42.42-9.32-63.74C74.61,105.8,135,36,219.9,16.7,368.87-17.11,519,80.29,672.1,70.17c152.65-10,167.72,48.18,143.83,163.58A240,240,0,0,0,822,353c10.45,33.93,28.32,66.63,34.83,101.07C861.92,481.07,858.68,510.48,841.72,532.78Z" transform="translate(-9.98 -9.53)"/><path class="cls-2" d="M687.51,434.46s-7.12-4.7-14.18-1.35c0,0,2.17,4.18,11.11,3.79Z" transform="translate(-9.98 -9.53)"/><path class="cls-2" d="M688.41,434.71s2.17,8.25-3.27,13.87c0,0-3.26-3.4,0-11.74Z" transform="translate(-9.98 -9.53)"/><path class="cls-2" d="M697.27,426.79s-.53-7-16.38-4.69c0,0-.07,4.53,5.49,6.67S694.49,429.11,697.27,426.79Z" transform="translate(-9.98 -9.53)"/><path class="cls-2" d="M698.27,426.74s6.69,2.15.72,17c0,0-4.42-1-5.22-6.91S695.33,428.9,698.27,426.74Z" transform="translate(-9.98 -9.53)"/><path class="cls-2" d="M707.21,416.79s.91-11.55-15.28-10.37c0,0-1.16,10.43,12.43,13.14Z" transform="translate(-9.98 -9.53)"/><path class="cls-2" d="M717.92,403.75s-2.22-13.1-18.41-9.2c0,0-.06,11.32,15.76,12.31Z" transform="translate(-9.98 -9.53)"/><path class="cls-2" d="M725.74,390.27S722,377.52,706,381.33c0,0,3.82,11.47,18.7,11.29Z" transform="translate(-9.98 -9.53)"/><path class="cls-2" d="M733.17,377.1s-3.63-13.23-19.12-9.27c0,0,5.17,12.57,18.1,11.51Z" transform="translate(-9.98 -9.53)"/><path class="cls-2" d="M738,364.59s-2.8-16.18-17.24-12.6c0,0,4.2,14.72,16.18,15Z" transform="translate(-9.98 -9.53)"/><path class="cls-2" d="M742.45,349.48s-3.36-16.3-18-11.59c0,0,5.73,15.42,16.93,13.83Z" transform="translate(-9.98 -9.53)"/><path class="cls-2" d="M745.21,335.42s-5.33-16.31-16.62-15.87c0,0,5.44,17.23,15.67,19.13Z" transform="translate(-9.98 -9.53)"/><path class="cls-2" d="M747,321.7s-5.79-19.63-15-18.12c0,0,4,15,14.66,21.18Z" transform="translate(-9.98 -9.53)"/><path class="cls-2" d="M748,305.33s-5.43-16.36-14.49-17c0,0,3.7,16.1,14.31,21.27Z" transform="translate(-9.98 -9.53)"/><path class="cls-2" d="M749.1,290.05s-6.78-16.38-12.75-16.75c0,0,2.94,16.13,12.17,19.44Z" transform="translate(-9.98 -9.53)"/><path class="cls-2" d="M749.84,275.84s-4.16-17.78-10.15-19.26c0,0,.82,14.55,9.55,20.59Z" transform="translate(-9.98 -9.53)"/><path class="cls-2" d="M752.1,257.23s-4.38-14.18-9.23-16.35c0,0,1,16.72,8.12,19.81Z" transform="translate(-9.98 -9.53)"/><path class="cls-2" d="M754,245.06l.88-25s-9.07,18.84-1.54,29.38Z" transform="translate(-9.98 -9.53)"/><path class="cls-2" d="M761,220.19s6.53-18.26,8.11-19.28c0,0-12.81,11.85-11.56,27.09Z" transform="translate(-9.98 -9.53)"/><path class="cls-2" d="M707.65,416.7s11.49-1.5,11.15,14.73c0,0-10.38,1.69-13.77-11.74Z" transform="translate(-9.98 -9.53)"/><path class="cls-2" d="M718.46,403.31s13.27-.05,12.17,16.57c0,0-11.14,2-14.82-13.43Z" transform="translate(-9.98 -9.53)"/><path class="cls-2" d="M725.87,391.34s12-5.65,19.76,8.93c0,0-11.13,4.71-20.83-6.57Z" transform="translate(-9.98 -9.53)"/><path class="cls-2" d="M733.44,377.22s12.34-6,19.58,8.24c0,0-12.85,4.42-20.6-6Z" transform="translate(-9.98 -9.53)"/><path class="cls-2" d="M737.8,365s11.88-11.35,21.35.12c0,0-12.13,9.34-21.89,2.4Z" transform="translate(-9.98 -9.53)"/><path class="cls-2" d="M741.78,349.1s11.94-11.6,21.34.53c0,0-13.4,9.52-21.77,1.9Z" transform="translate(-9.98 -9.53)"/><path class="cls-2" d="M744,335s9.2-14.49,20-11.25c0,0-9.55,15.34-19.94,14.65Z" transform="translate(-9.98 -9.53)"/><path class="cls-2" d="M746.72,321.61s9.27-18.25,18-15.07c0,0-6.69,14-18.29,18.15Z" transform="translate(-9.98 -9.53)"/><path class="cls-2" d="M747.36,304.38s9.54-14.36,18.47-12.61c0,0-7.8,14.57-19.39,16.76Z" transform="translate(-9.98 -9.53)"/><path class="cls-2" d="M748.11,289.73s7.38-16.11,13.39-16.22c0,0-3.55,16-12.9,19Z" transform="translate(-9.98 -9.53)"/><path class="cls-2" d="M749.55,275.49s8.22-16.32,14.39-16.35c0,0-4.2,13.95-14.11,17.79Z" transform="translate(-9.98 -9.53)"/><path class="cls-2" d="M750.79,258.25s6.14-13.51,11.23-15c0,0-3.07,16.46-10.55,18.62Z" transform="translate(-9.98 -9.53)"/><path class="cls-2" d="M754.71,244.56l13.73-20.91s-3.52,20.63-15.74,24.92Z" transform="translate(-9.98 -9.53)"/><path class="cls-2" d="M764.13,221.88s16-11,16.53-12.8c0,0-8.11,15.43-23.18,18.15Z" transform="translate(-9.98 -9.53)"/><path class="cls-2" d="M765.09,216.92s18.32-17.61,23-17.59c0,0-15.11.69-23.43,16.65Z" transform="translate(-9.98 -9.53)"/><path class="cls-3" d="M751,260.86l.67.09c3.44-26.94,8.46-42.89,14.12-44.84l-.22-.64C759.53,217.56,754.48,233.26,751,260.86Z" transform="translate(-9.98 -9.53)"/><path class="cls-3" d="M745.9,325.29l1,.09c.22-2.52.38-5.09.49-7.66,1-22.3,2.45-42.78,4.41-58.13l-.58-.73c-2,15.39-3.88,36.48-4.84,58.82C746.28,320.23,746.12,322.79,745.9,325.29Z" transform="translate(-9.98 -9.53)"/><path class="cls-3" d="M668.71,447.32c.17-.08,17.92-8,36.35-26.91a146.3,146.3,0,0,0,26.57-37.67c8.52-17.35,13.71-38.66,15.45-59.37l-1.05.49c-3.91,46.48-25.07,78.24-41.89,95.54-18.25,18.74-35.8,26.58-36,26.66Z" transform="translate(-9.98 -9.53)"/><path class="cls-4" d="M714.67,109.84H157.81a5,5,0,0,0-5,5v14.45H719.63V114.81A5,5,0,0,0,714.67,109.84Z" transform="translate(-9.98 -9.53)"/><path class="cls-5" d="M152.84,129.26V454.52a10,10,0,0,0,10,10H709.63a10,10,0,0,0,10-10h0V129.26Z" transform="translate(-9.98 -9.53)"/><circle class="cls-6" cx="151.84" cy="109.87" r="2.32"/><circle class="cls-7" cx="158.21" cy="109.87" r="2.32"/><circle class="cls-8" cx="164.59" cy="109.87" r="2.32"/><rect class="cls-9" x="195.55" y="173.96" width="455.52" height="200.3"/><rect class="cls-4" x="199.03" y="175.48" width="448.56" height="195.88"/><path class="cls-2" d="M331.29,235.42a44.63,44.63,0,1,0,44.62,44.63,44.63,44.63,0,0,0-44.62-44.63Zm8,45.7v21.13H323.52V281.12a13.1,13.1,0,1,1,15.77,0Z" transform="translate(-9.98 -9.53)"/><path class="cls-9" d="M331.29,235.42a44.63,44.63,0,1,0,44.62,44.63,44.63,44.63,0,0,0-44.62-44.63Zm8,45.7v21.13H323.52V281.12a13.1,13.1,0,1,1,15.77,0Z" transform="translate(-9.98 -9.53)"/><path class="cls-2" d="M331.29,222.68a57.37,57.37,0,1,0,57.37,57.37h0A57.36,57.36,0,0,0,331.29,222.68Zm10.29,58.75v27.16H321.29V281.43a16.81,16.81,0,1,1,20.29,0Z" transform="translate(-9.98 -9.53)"/><rect class="cls-5" x="402.44" y="262.99" width="185.45" height="19.7"/><rect class="cls-2" x="547.91" y="298.92" width="39.99" height="19.7"/><path class="cls-2" d="M430.68,282.08h-3.35l3-3a.3.3,0,0,0,0-.41.28.28,0,0,0-.41,0h0l-3,3v-3.36a.29.29,0,0,0-.29-.29.3.3,0,0,0-.29.29v3.36l-3-3a.3.3,0,0,0-.41,0h0a.3.3,0,0,0,0,.41l3,3h-3.36a.29.29,0,1,0,0,.58h3.36l-3,3a.31.31,0,0,0,0,.42.33.33,0,0,0,.42,0l3-3v3.36a.29.29,0,0,0,.58,0v-3.36l3,3a.32.32,0,0,0,.41,0,.31.31,0,0,0,0-.42l-3-3h3.35a.29.29,0,0,0,.29-.29A.29.29,0,0,0,430.68,282.08Z" transform="translate(-9.98 -9.53)"/><path class="cls-2" d="M442.85,282.08H439.5l3-3a.3.3,0,0,0,0-.41.28.28,0,0,0-.41,0h0l-3,3v-3.36a.29.29,0,1,0-.57,0v3.36l-3-3a.3.3,0,0,0-.41,0h0a.3.3,0,0,0,0,.41l3,3h-3.36a.29.29,0,1,0,0,.58h3.36l-3,3a.31.31,0,0,0,0,.42.33.33,0,0,0,.42,0l3-3v3.36a.28.28,0,0,0,.28.29.29.29,0,0,0,.29-.29v-3.36l3,3a.32.32,0,0,0,.41,0,.31.31,0,0,0,0-.42l-3-3h3.35a.29.29,0,0,0,.29-.29A.29.29,0,0,0,442.85,282.08Z" transform="translate(-9.98 -9.53)"/><path class="cls-2" d="M455,282.08h-3.35l3-3a.3.3,0,0,0,0-.41.28.28,0,0,0-.41,0h0l-3,3v-3.36A.28.28,0,0,0,451,278a.29.29,0,0,0-.29.29v3.36l-3-3a.3.3,0,0,0-.41,0h0a.3.3,0,0,0,0,.41l3,3h-3.36a.29.29,0,1,0,0,.58h3.36l-3,3a.31.31,0,0,0,0,.42.33.33,0,0,0,.42,0l3-3v3.36a.29.29,0,0,0,.29.29.28.28,0,0,0,.28-.29v-3.36l3,3a.32.32,0,0,0,.41,0,.31.31,0,0,0,0-.42l-3-3H455a.29.29,0,0,0,.29-.29A.29.29,0,0,0,455,282.08Z" transform="translate(-9.98 -9.53)"/><path class="cls-2" d="M467.19,282.08h-3.35l3-3a.3.3,0,0,0,0-.41.28.28,0,0,0-.41,0h0l-3,3v-3.36a.29.29,0,1,0-.58,0v3.36l-3-3a.3.3,0,0,0-.41,0h0a.28.28,0,0,0,0,.41l3,3h-3.36a.29.29,0,0,0,0,.58h3.36l-3,3a.29.29,0,0,0,0,.42.32.32,0,0,0,.41,0l3-3v3.36a.29.29,0,1,0,.58,0v-3.36l3,3a.32.32,0,0,0,.41,0,.31.31,0,0,0,0-.42l-3-3h3.35a.29.29,0,0,0,.29-.29A.29.29,0,0,0,467.19,282.08Z" transform="translate(-9.98 -9.53)"/><path class="cls-2" d="M479.36,282.08H476l3-3a.3.3,0,0,0,0-.41.28.28,0,0,0-.41,0h0l-3,3v-3.36a.29.29,0,0,0-.58,0v3.36l-3-3a.3.3,0,0,0-.41,0h0a.28.28,0,0,0,0,.41l3,3h-3.36a.29.29,0,1,0,0,.58h3.36l-3,3a.29.29,0,0,0,0,.42.32.32,0,0,0,.41,0l3-3v3.36a.29.29,0,0,0,.58,0v-3.36l3,3a.32.32,0,0,0,.41,0,.31.31,0,0,0,0-.42l-3-3h3.35a.29.29,0,0,0,.29-.29A.29.29,0,0,0,479.36,282.08Z" transform="translate(-9.98 -9.53)"/><path class="cls-2" d="M491.53,282.08h-3.35l3-3a.3.3,0,0,0,0-.41.28.28,0,0,0-.41,0h0l-3,3v-3.36a.29.29,0,0,0-.58,0v3.36l-3-3a.3.3,0,0,0-.41,0h0a.28.28,0,0,0,0,.41l3,3h-3.36a.29.29,0,1,0,0,.58h3.36l-3,3a.29.29,0,0,0,0,.42.32.32,0,0,0,.41,0l3-3v3.36a.29.29,0,0,0,.58,0v-3.36l3,3a.32.32,0,0,0,.41,0,.31.31,0,0,0,0-.42l-3-3h3.35a.29.29,0,0,0,.29-.29A.29.29,0,0,0,491.53,282.08Z" transform="translate(-9.98 -9.53)"/><path class="cls-2" d="M503.7,282.08h-3.35l3-3a.3.3,0,0,0,0-.41.28.28,0,0,0-.41,0h0l-3,3v-3.36a.29.29,0,1,0-.58,0v3.36l-3-3a.3.3,0,0,0-.41,0h0a.3.3,0,0,0,0,.41l3,3h-3.36a.29.29,0,0,0,0,.58H499l-3,3a.31.31,0,0,0,0,.42.32.32,0,0,0,.41,0l3-3v3.36a.29.29,0,1,0,.58,0v-3.36l3,3a.32.32,0,0,0,.41,0,.31.31,0,0,0,0-.42l-3-3h3.35a.29.29,0,0,0,.29-.29A.29.29,0,0,0,503.7,282.08Z" transform="translate(-9.98 -9.53)"/><path class="cls-2" d="M515.87,282.08h-3.35l3-3a.3.3,0,0,0,0-.41.28.28,0,0,0-.41,0h0l-3,3v-3.36a.29.29,0,0,0-.58,0v3.36l-3-3a.3.3,0,0,0-.41,0h0a.3.3,0,0,0,0,.41l3,3h-3.36a.29.29,0,0,0,0,.58h3.36l-3,3a.31.31,0,0,0,0,.42.32.32,0,0,0,.41,0l3-3v3.36a.29.29,0,0,0,.58,0v-3.36l3,3a.32.32,0,0,0,.41,0,.31.31,0,0,0,0-.42l-3-3h3.35a.29.29,0,0,0,.29-.29A.29.29,0,0,0,515.87,282.08Z" transform="translate(-9.98 -9.53)"/><path class="cls-2" d="M528,282.08h-3.35l3-3a.3.3,0,0,0,0-.41.28.28,0,0,0-.41,0h0l-3,3v-3.36a.29.29,0,0,0-.58,0v3.36l-3-3a.3.3,0,0,0-.41,0h0a.3.3,0,0,0,0,.41l3,3h-3.36a.29.29,0,0,0,0,.58h3.36l-3,3a.31.31,0,0,0,0,.42.32.32,0,0,0,.41,0l3-3v3.36a.29.29,0,1,0,.58,0v-3.36l3,3a.32.32,0,0,0,.41,0,.31.31,0,0,0,0-.42l-3-3H528a.29.29,0,0,0,.29-.29A.29.29,0,0,0,528,282.08Z" transform="translate(-9.98 -9.53)"/><path class="cls-2" d="M540.21,282.08h-3.35l3-3a.3.3,0,0,0,0-.41.28.28,0,0,0-.41,0h0l-3,3v-3.36a.29.29,0,1,0-.58,0v3.36l-3-3a.3.3,0,0,0-.41,0h0a.3.3,0,0,0,0,.41l3,3H532.1a.29.29,0,0,0,0,.58h3.36l-3,3a.31.31,0,0,0,0,.42.32.32,0,0,0,.41,0l3-3v3.36a.29.29,0,1,0,.58,0v-3.36l3,3a.32.32,0,0,0,.41,0,.31.31,0,0,0,0-.42l-3-3h3.35a.29.29,0,0,0,.29-.29A.29.29,0,0,0,540.21,282.08Z" transform="translate(-9.98 -9.53)"/><path class="cls-2" d="M552.38,282.08H549l3-3a.3.3,0,0,0,0-.41.28.28,0,0,0-.41,0h0l-3,3v-3.36a.29.29,0,0,0-.58,0v3.36l-3-3a.3.3,0,0,0-.41,0h0a.3.3,0,0,0,0,.41l3,3h-3.36a.29.29,0,1,0,0,.58h3.36l-3,3a.31.31,0,0,0,0,.42.32.32,0,0,0,.41,0l3-3v3.36a.29.29,0,1,0,.58,0v-3.36l3,3a.32.32,0,0,0,.41,0,.31.31,0,0,0,0-.42l-3-3h3.35a.29.29,0,0,0,.29-.29A.29.29,0,0,0,552.38,282.08Z" transform="translate(-9.98 -9.53)"/><path class="cls-10" d="M645.68,352.58a9.71,9.71,0,0,0-.26-2.08c-.52-2-1.69-4.33-3.63-4.92a30.09,30.09,0,0,1-5.76-2.44c-.35-6.21,1.08-12.57-.48-18.59-.58-2.2-1.53-4.31-1.79-6.56-.32-2.81.45-5.8-.67-8.38a8.26,8.26,0,0,0-4.9-4.23,25.65,25.65,0,0,0-6.53-1.16c-2.78-.23-11.79-1.3-14.93,1.19h0a3.54,3.54,0,0,0-.58.58h0a2.38,2.38,0,0,0-.18.3l0,0a2.43,2.43,0,0,0-.16.37h0c0,.15-.07.29-.1.44v1c0,.52.12,1,.12,1.56a3.35,3.35,0,0,1-.07.77,5.28,5.28,0,0,1-1,1.87h0l-.11.15-.18.28a2.29,2.29,0,0,0-.15.24l-.14.21-.15.29c0,.06-.06.11-.08.17a2.88,2.88,0,0,0-.18.49,3.34,3.34,0,0,0,0,1.54,5.62,5.62,0,0,0,.79,1.83c.15.23.3.47.47.7l.4.55a14.71,14.71,0,0,0-.12,1.62,12,12,0,0,0,4.58,9.42,35.5,35.5,0,0,1-.08,7.36q-.07.76-.18,1.53c-.07.51-.12.85-.19,1.27a5.9,5.9,0,0,1-2.54-.19,9,9,0,0,0-1.16-.44c-1.68-.43-3.4,1.25-5.07.74a.75.75,0,0,1-.08.24,2.28,2.28,0,0,0-1.16-.35,4.18,4.18,0,0,1-2.51-1.44l-2.21-2.08a2.6,2.6,0,0,1-.38-.43,2.89,2.89,0,0,1-.27-.71,8.21,8.21,0,0,0-2.14-3.07,1.46,1.46,0,0,0-.63-.46,1.4,1.4,0,0,0-.29,0l-.19-.23a5.44,5.44,0,0,0-.48-.48c-1.06-1-1.16-1.81-2.08-2.9a28.55,28.55,0,0,1-2.16-3.28c-.08-.6-.18-1.23-.31-1.86a24,24,0,0,0-1.27-4.23l-1.16-2.57-.13.13c-.84-1.25-1.74-1.93-2.55-1.77-1.35.28-2,2.9-1.8,6.32l.47,3.48a1.22,1.22,0,0,0,.06.26,6.55,6.55,0,0,0-.13,1.25c0,.49.45.85.69,1.28a3.66,3.66,0,0,1,.58,2c0,.25-.1.49-.12.73a3,3,0,0,0,.55,1.51l2.9,4.86.58,1,0,0a2.39,2.39,0,0,0,.78.89,10.76,10.76,0,0,0,1,3.52c.1.22.21.43.33.64a20.94,20.94,0,0,0,2.73,3.55l1.38,1.55c1.37,1.52,2.73,3,4.21,4.44a5.48,5.48,0,0,0,1.87,1.32,2.14,2.14,0,0,0,2.11-.31v2.16a1.21,1.21,0,0,1,1.14,1.28,1.25,1.25,0,0,1-.22.62,48,48,0,0,1-4.29,9.08,19.16,19.16,0,0,1,3.59,2.74,15.9,15.9,0,0,1,1.87,2.53c.06.43.1.86.12,1.28.43,6.91-2.24,13.76-4.64,20.35A15.77,15.77,0,0,0,595,398.8a11,11,0,0,0-1.3.93,8.54,8.54,0,0,1,.24,3.67,6.54,6.54,0,0,1-.48,2.32,14.57,14.57,0,0,1-.84,1.49c-1.5,2.65-1.83,5.8-2.13,8.82-.18,1.83.53,4.06-.3,5.69a23.41,23.41,0,0,0-2.9,8.92,9.12,9.12,0,0,1-.27,2.08c-.18.58-.49,1.07-.66,1.64a7.22,7.22,0,0,0-.11,2.32,22,22,0,0,1-1.22,8.17c-.72,2.07-1.52,4.29-1,6.41a9.1,9.1,0,0,0-2.45,5.39,7.89,7.89,0,0,1-.18,1.53,7.42,7.42,0,0,1-.7,1.48,12.93,12.93,0,0,0-1.57,6.95,19.41,19.41,0,0,0-3.13,8.16c-.51,2.9-.74,5.84-1.4,8.7-.88,3.78-2.47,7.59-2.79,11.47-1.88,1.2-2.69,3.52-3.05,5.72s-.41,4.5-1.33,6.53c-.48,1.05-1.16,2-1.62,3.07a14.35,14.35,0,0,0-.69,2.65,10.35,10.35,0,0,0-.18,4.35,6.48,6.48,0,0,1-1.7,1.29c.09-.36.17-.72.23-1.08-1.49,1.35-4.2.88-5.4,2.51a2.44,2.44,0,0,0,.58,3.35,4.74,4.74,0,0,0,1.2.52c2.9.93,5.88,1.86,8.86,1.37a2.73,2.73,0,0,0,1-.32,3.32,3.32,0,0,0,.93-1.08L572,521.7a28,28,0,0,0,3.26.76c.11.93.19,1.85.23,2.78.58.12,1.35.15,1.63-.39a1.39,1.39,0,0,0,.09-.64c0-.41.06-1,.1-1.51h.11a11.06,11.06,0,0,0,5.13-1c-.62-5.14,1.43-10.15,3.2-15,1.87-5.11,3.48-10.32,5.1-15.52,1.15-3.66,2.44-7.21,3.57-10.88q2.14-7,4.31-13.91c.62-2,1.25-4,2-6.08a95,95,0,0,1,5.38-12c.58-1.09,1.15-2.18,1.63-3.31.58-1.39,1-2.84,1.45-4.27a66.57,66.57,0,0,1,3.64-8.57l.11-.21c.47,1.92.94,3.87,1.26,5.8a22.05,22.05,0,0,1,.09,7.16,24.53,24.53,0,0,0-.74,4.86c.09,2.26,1.3,4.32,1.9,6.5a25.46,25.46,0,0,1,.65,5c.16,2.61,1.57,5.53.58,7.95-3.1,7.65-1.6,16.3-3.37,24.34-.91,4.13-3.7,8-3.48,12.22.16,3,.42,6,.79,9a8.56,8.56,0,0,0,.72,2.72,10.79,10.79,0,0,0,.8,1.3c-.26.1-.47.36-.66.91a3.57,3.57,0,0,0,1.29,4.05,5.49,5.49,0,0,0,1.68.58,8.58,8.58,0,0,0,2.42.34,4.92,4.92,0,0,0,.76-.09,28.76,28.76,0,0,0,2.74,1,5.85,5.85,0,0,0,.07.72.94.94,0,0,0,.3.65.86.86,0,0,0,.47.08h3.15v-.79a2.56,2.56,0,0,0,2-.65,3,3,0,0,0,.58-1.2q1.29-4.37,2.56-8.73a28.06,28.06,0,0,0,1.25-10c-1.12-10.68,1.33-21.4.54-32.11a76.25,76.25,0,0,1,1-19.26c.26-1.44.58-2.9.7-4.33.25-2.7-.06-5.43.13-8.12.06-.93.19-1.87.31-2.8a134.39,134.39,0,0,0,1.24-17.47,56.08,56.08,0,0,0-.36-5.8,3.22,3.22,0,0,0,1.59-.93,3.93,3.93,0,0,0,.37-2.47c0-2.05.87-4,1.56-5.92a71.48,71.48,0,0,0,2.19-8.15,28.49,28.49,0,0,0,1-6.81c0-.23,0-.47,0-.7a1.73,1.73,0,0,0,.53-.58,3.32,3.32,0,0,0,.28-1.07l.63-4.44c.16-1.07.31-2.13.46-3.19l1.84-12.86.48-3.34.48-3.33c0-.39.11-.78.15-1.16C647.19,358.42,645.83,355.27,645.68,352.58Zm-15.37,48.15a10.7,10.7,0,0,1-1.16-5h-.06a2.6,2.6,0,0,0-.08-1.63c-.18-.43-.49-.79-.68-1.21a4.54,4.54,0,0,1-.32-1.62,44.6,44.6,0,0,1,.83-10.51c.08-.41.16-.82.23-1.23a3,3,0,0,0,.67-.51,4.86,4.86,0,0,0,.74-1.16c.66-1.32,1.25-2.66,1.81-4,.17-.44.44-.95.88-1.06-.09,3.39.26,6.85-1.12,9.91a6.17,6.17,0,0,0-.58,1.57c-.13.86.23,1.73.1,2.59-.06.45-.25.86-.33,1.3a1.28,1.28,0,0,0,.34,1.23,1,1,0,0,0,.25.13c0,.23-.07.47-.09.69,0,.48-.07.92-.1,1.2a38,38,0,0,0-.15,4.27c0,1.53,0,3.07,0,4.63a3.14,3.14,0,0,1-.22,1.32,2.47,2.47,0,0,1-.44.58,14.73,14.73,0,0,0-.55-1.43Z" transform="translate(-9.98 -9.53)"/><ellipse class="cls-11" cx="582.7" cy="324.42" rx="3.27" ry="9.26" transform="translate(-63.24 114.04) rotate(-11.58)"/><path class="cls-4" d="M611.57,519.76a3.5,3.5,0,0,0,1.28,4,5.53,5.53,0,0,0,1.67.58,8.2,8.2,0,0,0,2.41.33c1,0,2-.44,3-.58a.49.49,0,0,1,.34,0,.51.51,0,0,1,.13.41,13.75,13.75,0,0,0,.13,1.7.89.89,0,0,0,.3.66,1,1,0,0,0,.46.08h3.14a31,31,0,0,0-.89-8.2,2.09,2.09,0,0,0-.24-.58,1.91,1.91,0,0,0-1-.58,5.62,5.62,0,0,0-2.43-.42,7.12,7.12,0,0,0-2.72,1.33,4.12,4.12,0,0,1-3.09.75C613,519,612.11,518.15,611.57,519.76Z" transform="translate(-9.98 -9.53)"/><path class="cls-11" d="M565.45,517.21a8.69,8.69,0,0,1-3.17,2.16l-.54.25a.43.43,0,0,0-.18.15.3.3,0,0,0,.06.26,3.76,3.76,0,0,0,4.26,1.55,2.38,2.38,0,0,0,.93-.49,3.1,3.1,0,0,0,.72-1.87,3.86,3.86,0,0,0-.09-2.13C566.64,515.27,566.34,516.1,565.45,517.21Z" transform="translate(-9.98 -9.53)"/><path class="cls-4" d="M577.49,524.35a1.46,1.46,0,0,1-.1.65c-.27.53-1,.5-1.62.39a39.73,39.73,0,0,0-.71-5.86c-1.13,0-1.94,1-2.54,2L571,524A3.16,3.16,0,0,1,570,525a2.72,2.72,0,0,1-1,.32c-3,.49-6-.44-8.82-1.37a4.38,4.38,0,0,1-1.2-.51,2.45,2.45,0,0,1-.58-3.35c1.2-1.62,3.89-1.15,5.39-2.5a13.41,13.41,0,0,1-.77,2.77c2-.31,3.35-2.14,5-3.36a3,3,0,0,1,1.41-.67,3,3,0,0,1,1.16.12,13.53,13.53,0,0,1,5.1,2.51,5.53,5.53,0,0,1,1.83,1.9A14.24,14.24,0,0,1,577.49,524.35Z" transform="translate(-9.98 -9.53)"/><circle class="cls-11" cx="607.37" cy="311.63" r="11.97"/><path class="cls-4" d="M640.94,391.86a28.15,28.15,0,0,1-1,6.77,69,69,0,0,1-2.2,8.12c-.68,1.93-1.55,3.86-1.54,5.91a3.94,3.94,0,0,1-.38,2.47,3.72,3.72,0,0,1-1.7,1,2.08,2.08,0,0,0-1.42,1.27,9,9,0,0,1-1.21-2.66q-1.56-4.77-2.9-9.6a1.26,1.26,0,0,1,.09-1.16,1.32,1.32,0,0,1,.5-.29,5.1,5.1,0,0,0,1.6-1,2.43,2.43,0,0,0,.54-.69,3.07,3.07,0,0,0,.22-1.31c0-1.53,0-3.06,0-4.6a37.75,37.75,0,0,1,.17-4.25c0-.27,0-.72.09-1.2.09-.91.26-2,.76-2.31.73-.5,2.94.16,3.77.28,1.44.2,2.9.43,4.3.7A11.5,11.5,0,0,1,640.94,391.86Z" transform="translate(-9.98 -9.53)"/><path class="cls-4" d="M592.6,334.57c-.47.93-1.58,1.38-2.44,2l-2.93,2a2,2,0,0,1-1.46.5,1.93,1.93,0,0,1-1.08-1v0l-.61-1-2.9-4.86a2.82,2.82,0,0,1-.54-1.5c0-.25.09-.48.11-.73a3.47,3.47,0,0,0-.58-2c-.23-.43-.69-.79-.68-1.28a4.79,4.79,0,0,1,.32-1.87,3.85,3.85,0,0,1,1.27-1.36l.84-.57a1.7,1.7,0,0,1,.51-.24c.48-.1,1,.3,1.44.32,2.09,1.4,2.9,4.06,4.54,6,.93,1.09,1,1.93,2.07,2.9.17.15.33.31.49.48a3.47,3.47,0,0,1,.52.75C591.68,333.51,592.84,334.1,592.6,334.57Z" transform="translate(-9.98 -9.53)"/><path class="cls-11" d="M613.15,333.15a10.89,10.89,0,0,1,1.29,5.83,3.79,3.79,0,0,1-.51,1.54c-.83,1.28-2.58,1.51-4.11,1.59a2.36,2.36,0,0,0-1.78.58,1.61,1.61,0,0,0,.11,2,4.55,4.55,0,0,0,1.77,1.16,15.73,15.73,0,0,0,7.63,1.69c1.22-.12,2.4-.47,3.61-.65a37.77,37.77,0,0,1,4-.22c1.58-.06,3.15-.21,4.72-.37l4.16-.41a.93.93,0,0,0,.62-.23c.31-.36-.09-.89-.47-1.16-2.21-1.63-5-2.76-6.28-5.21a31,31,0,0,1-1.19-3.79,35.47,35.47,0,0,1-1.38-3.66,25.39,25.39,0,0,1-.19-3.37,4.52,4.52,0,0,0-1.16-3.09,4.82,4.82,0,0,0-3.15-1c-2.77-.12-5.72.54-7.68,2.49-.53.53-1,1.16-1.53,1.64s-1.28.61-.92,1.24,1.06,1,1.44,1.56A13,13,0,0,1,613.15,333.15Z" transform="translate(-9.98 -9.53)"/><path class="cls-4" d="M636.75,350a66.29,66.29,0,0,1-3.54,13.05,48.61,48.61,0,0,0-2.09,5.86c-.45,1.79-.36,3.72-.77,5.52-.51,2.24-1,4.49-1.43,6.75a43.94,43.94,0,0,0-.82,10.49,4.32,4.32,0,0,0,.31,1.62c.19.41.5.77.68,1.2a2.89,2.89,0,0,1-.17,2.32,6.76,6.76,0,0,1-1.19,1.81c-5.4,1.61-11.18,1.08-16.81,1.42-5.18.32-10.43,1.38-15.54.5-.58-2.32.39-4.75,1.22-7,2.4-6.57,5.06-13.4,4.63-20.28a19.15,19.15,0,0,0-.27-2.4c-.84-4.87.08-9.92,1.54-14.64a25.13,25.13,0,0,0,.66-9.15,17.57,17.57,0,0,1,0-3,5.39,5.39,0,0,1,1.09-2.8s0-.08.08-.12a.77.77,0,0,1,.44,0h0a.37.37,0,0,0,.29,0l.06,0a.14.14,0,0,1,.17,0c.13.08.21.35.5.41s.86.1,1.29.12a6.66,6.66,0,0,1,1.54.22h.07a4.52,4.52,0,0,0,2.25-.19,5.82,5.82,0,0,0,1.38-.54c.13-.13.93-.26,1.09-.36.53-.32.41-1.81.52-2.43a6.59,6.59,0,0,1,.44-1.8,3,3,0,0,1,2.48-1.44,13.52,13.52,0,0,1,3,.27c2.16.31,4.37.25,6.5.75,1.06.25,2.23.63,3.21.14.26.06.3.3.3.58a3.46,3.46,0,0,1-.16.79c-.37,1.6.89,3.08,2,4.23a6.49,6.49,0,0,0,1.71,1.37c.58.26,1.16.37,1.73.66a3.19,3.19,0,0,1,1.16,1.06,4.33,4.33,0,0,1,.66,1.69A10,10,0,0,1,636.75,350Z" transform="translate(-9.98 -9.53)"/><path class="cls-12" d="M636.75,350a66.29,66.29,0,0,1-3.54,13.05,48.61,48.61,0,0,0-2.09,5.86c-.45,1.79-.36,3.72-.77,5.52-.51,2.24-1,4.49-1.43,6.75l-.38.19a8.6,8.6,0,0,1-2.27.73A13.71,13.71,0,0,1,622,382l-8.27-1.1c-3.31-.45-6.82-1-9.28-3.23a19.72,19.72,0,0,1-3.23-4.41,21.76,21.76,0,0,0-.27-2.4c-.84-4.87.07-9.92,1.54-14.64a25.11,25.11,0,0,0,.66-9.15,16.58,16.58,0,0,1,0-3,5.22,5.22,0,0,1,1.09-2.8,4.37,4.37,0,0,1,.52-.12h0a2,2,0,0,1,.35,0h.17a2.3,2.3,0,0,1,.58.07,10.21,10.21,0,0,1,1.16.44h.07a4.2,4.2,0,0,0,1.54.22c.76,0,1.55-.12,2.31-.17a4.24,4.24,0,0,1,2.75.49,15.58,15.58,0,0,1,1.53,1.4,6.7,6.7,0,0,0,1.93,1,20.55,20.55,0,0,0,15.43-.33,2.21,2.21,0,0,1,2.66.08c.35.21.69.4,1,.58a4.33,4.33,0,0,1,.66,1.69A9.74,9.74,0,0,1,636.75,350Z" transform="translate(-9.98 -9.53)"/><path class="cls-2" d="M641.8,346.17a31.37,31.37,0,0,1-6.61-2.9,3,3,0,0,0-1.11-.47,3.11,3.11,0,0,0-1.55.39,20.47,20.47,0,0,1-15.42.32,6.67,6.67,0,0,1-1.93-1,16.8,16.8,0,0,0-1.53-1.4c-1.91-1.24-4.55.21-6.68-.58a11.6,11.6,0,0,0-1.16-.45c-1.68-.42-3.4,1.26-5.06.75a28.94,28.94,0,0,0-1.36,5.17,56.43,56.43,0,0,0-.38,6.1c0,1.22,0,2.44,0,3.67a1.45,1.45,0,0,1,1,.65,1.48,1.48,0,0,1-.09,1.25,47.06,47.06,0,0,1-4.28,9,19.09,19.09,0,0,1,3.58,2.74c2,2.14,3,5.15,5.22,7.13,2.47,2.23,6,2.78,9.27,3.22l8.27,1.11a14.09,14.09,0,0,0,4.25.14,8.63,8.63,0,0,0,2.27-.74,3.89,3.89,0,0,0,1.26-.83,4.61,4.61,0,0,0,.75-1.16c.65-1.31,1.25-2.65,1.8-4,.19-.48.48-1,1-1.09,3.07-2.77,6-5.61,9-8.38a20.08,20.08,0,0,0,3.3-3.47c1.52-2.26.14-5.45,0-8.18a10.38,10.38,0,0,0-.26-2.07C644.9,349.12,643.73,346.75,641.8,346.17Z" transform="translate(-9.98 -9.53)"/><path class="cls-12" d="M592.6,334.57c-.47.93-1.58,1.38-2.44,2l-2.93,2a2,2,0,0,1-1.46.5,1.93,1.93,0,0,1-1.08-1v-.42a4.07,4.07,0,0,1,.18-1.38,4.35,4.35,0,0,1,1.3-1.67,10.74,10.74,0,0,1,3.81-2.32,1.35,1.35,0,0,1,.69-.07,1.19,1.19,0,0,1,.26.11,3.3,3.3,0,0,1,.52.76C591.68,333.51,592.84,334.1,592.6,334.57Z" transform="translate(-9.98 -9.53)"/><path class="cls-2" d="M599.52,340.68a4.23,4.23,0,0,1-2.51-1.44l-2.2-2a2.25,2.25,0,0,1-.38-.43,2.89,2.89,0,0,1-.27-.71A8.06,8.06,0,0,0,592,333a1.36,1.36,0,0,0-.63-.45,1.28,1.28,0,0,0-.7.07,10.46,10.46,0,0,0-3.81,2.32,4.35,4.35,0,0,0-1.3,1.67,3.78,3.78,0,0,0-.18,1.38,10.62,10.62,0,0,0,1,4.43c.1.21.21.43.33.64a20.7,20.7,0,0,0,2.72,3.54l1.38,1.54c1.36,1.52,2.71,3,4.19,4.43a5.33,5.33,0,0,0,1.87,1.31,2.08,2.08,0,0,0,2.16-.35,2.91,2.91,0,0,0,.61-1.1,21.66,21.66,0,0,0,1.8-7.22,27.37,27.37,0,0,0-.13-3C601.25,341.16,600.5,340.74,599.52,340.68Z" transform="translate(-9.98 -9.53)"/><path class="cls-13" d="M634.64,421.82a135.27,135.27,0,0,1-1.24,17.42c-.12.94-.25,1.87-.31,2.8-.19,2.71.12,5.43-.13,8.12-.14,1.45-.44,2.89-.69,4.31a76.81,76.81,0,0,0-1,19.21c.8,10.69-1.65,21.37-.54,32a25.72,25.72,0,0,1-.34,6.2,26.45,26.45,0,0,1-.9,3.74q-1.26,4.35-2.55,8.7a3,3,0,0,1-.58,1.2,2.76,2.76,0,0,1-2.17.65c-3.34-.11-6.49-1.55-9.53-3a3.19,3.19,0,0,1-.95-.58c-.64-.66-.58-1.69-.86-2.55a24.06,24.06,0,0,0-1.46-2.56,8.29,8.29,0,0,1-.63-2.64c-.39-3-.65-5.94-.79-8.94-.22-4.2,2.56-8.07,3.48-12.17,1.73-8,.26-16.66,3.35-24.3,1-2.41-.44-5.33-.58-7.92a25.36,25.36,0,0,0-.65-5c-.58-2.17-1.8-4.23-1.89-6.49a24.44,24.44,0,0,1,.74-4.84,21.66,21.66,0,0,0-.1-7.14c-.31-1.95-.78-3.9-1.25-5.8l-.1.22a64.32,64.32,0,0,0-3.63,8.55c-.47,1.42-.87,2.86-1.45,4.24-.48,1.16-1.06,2.22-1.64,3.31a96.33,96.33,0,0,0-5.36,11.91c-.72,2-1.35,4.06-2,6.07l-4.3,13.91c-1.16,3.66-2.43,7.19-3.56,10.84-1.61,5.22-3.21,10.39-5.08,15.49-1.74,4.84-3.81,9.85-3.19,15a11,11,0,0,1-5.11,1,30.34,30.34,0,0,1-8.7-2.11,6.8,6.8,0,0,1-3-1.79c-1.28-1.57-1-3.87-.58-5.87a14.28,14.28,0,0,1,.7-2.64c.44-1.07,1.16-2,1.61-3.07.91-2,1-4.31,1.33-6.5s1.16-4.52,3-5.71c.32-3.86,1.91-7.67,2.78-11.44.67-2.86.89-5.8,1.41-8.7a19.12,19.12,0,0,1,3.11-8.14,12.85,12.85,0,0,1,1.58-6.95,8,8,0,0,0,.69-1.48,8.75,8.75,0,0,0,.18-1.53,9,9,0,0,1,2.45-5.37c-.58-2.12.22-4.33,1-6.38a22.11,22.11,0,0,0,1.21-8.15,7.23,7.23,0,0,1,.11-2.32c.17-.58.48-1.07.67-1.63a9.11,9.11,0,0,0,.26-2.08,24.22,24.22,0,0,1,2.9-8.89c.83-1.63.13-3.85.3-5.67.3-3,.63-6.16,2.13-8.79.28-.5.58-1,.83-1.49a6.42,6.42,0,0,0,.48-2.32,8.47,8.47,0,0,0-.24-3.66c3.11-2.58,7.34-3.31,11.37-3.48s8.11.19,12.06-.67c1.16-.26,2.32-.62,3.54-.79,2.78-.41,5.59.22,8.33.85a9.93,9.93,0,0,0,1.16,5A53.81,53.81,0,0,1,634.64,421.82Z" transform="translate(-9.98 -9.53)"/><path class="cls-12" d="M621,423.14l-6.66,15c-.31-1.95-.78-3.9-1.25-5.8l-.1.22v-.32l3.63-8Z" transform="translate(-9.98 -9.53)"/><path class="cls-12" d="M640.94,391.86a2.42,2.42,0,0,1-1.32.49,6.39,6.39,0,0,1-2.17-.29l-5.21-1.31a2.3,2.3,0,0,1-.48-.17c.09-.91.26-2,.76-2.31.73-.5,2.94.16,3.77.28,1.44.2,2.9.43,4.3.7A10.94,10.94,0,0,1,640.94,391.86Z" transform="translate(-9.98 -9.53)"/><path class="cls-2" d="M645.35,357.38c.11.48.27.95.36,1.44a10.82,10.82,0,0,1-.12,3.59l-.47,3.31-.48,3.33-1.84,12.83-.45,3.18-.64,4.43a3.3,3.3,0,0,1-.27,1.07,2.23,2.23,0,0,1-1.82,1.07,6.7,6.7,0,0,1-2.17-.3L632.24,390a1.63,1.63,0,0,1-.64-.26,1.25,1.25,0,0,1-.33-1.22c.07-.44.26-.85.33-1.29.12-.86-.24-1.74-.11-2.59a6.49,6.49,0,0,1,.58-1.56c1.74-3.85.73-8.33,1.32-12.5a19,19,0,0,1,4-9,25.8,25.8,0,0,1,4.44-4.36,9.07,9.07,0,0,1,2.5-1.74C645.4,355.33,645.18,356.65,645.35,357.38Z" transform="translate(-9.98 -9.53)"/><path class="cls-13" d="M605.88,307.46c-.38,1.21.22,2.55-.06,3.79s-1.58,2.32-1.94,3.69c-.58,2.1,1.19,4,2.49,5.74,4.81,6.46,4.18,15.39,2.53,23.27a119.53,119.53,0,0,1-5.48,18.54,14,14,0,0,1-2.95,5.18c2.67-.77,5.5-1.54,8.18-.79,3.38.93,6.3,4.22,9.73,3.47,2.07-.45,3.51-2.29,5.37-3.3,3.48-1.87,7.67-.7,11.54-.09a4.6,4.6,0,0,0,2.52-.13,4.14,4.14,0,0,0,1.53-1.41,14.27,14.27,0,0,0,3-7.71,9.91,9.91,0,0,0-2.84-7.61,15.78,15.78,0,0,1-2.44-2.31,7.13,7.13,0,0,1-1-3.52c-.46-6.37,1.1-12.88-.5-19-.58-2.19-1.53-4.3-1.78-6.54-.32-2.8.44-5.8-.67-8.36a8.2,8.2,0,0,0-4.89-4.22,27,27,0,0,0-6.51-1.16C618.55,304.67,607.21,303.31,605.88,307.46Z" transform="translate(-9.98 -9.53)"/><g class="cls-14"><path d="M608.9,344a120,120,0,0,1-5.45,18.47c.4-.79.74-1.63,1.06-2.46A119.5,119.5,0,0,0,610,341.42c1.66-7.89,2.29-16.81-2.52-23.27-1.16-1.54-2.65-3.21-2.6-5a6.05,6.05,0,0,0-1,1.82c-.58,2.09,1.19,4,2.49,5.74C611.18,327.14,610.55,336.07,608.9,344Z" transform="translate(-9.98 -9.53)"/><path d="M605.89,310.67a5.57,5.57,0,0,0,1-2,9.69,9.69,0,0,0-.07-2.58,2.8,2.8,0,0,0-1,1.33C605.54,308.48,605.93,309.59,605.89,310.67Z" transform="translate(-9.98 -9.53)"/><path d="M640.43,362.87a4.12,4.12,0,0,1-1.53,1.4,4.42,4.42,0,0,1-2.52.13c-3.87-.58-8.11-1.77-11.54.1-1.86,1-3.31,2.84-5.37,3.3-3.43.77-6.35-2.52-9.73-3.47-2.4-.67-4.93-.12-7.35.58a10.18,10.18,0,0,1-1.92,2.77c2.67-.77,5.5-1.54,8.18-.8,3.38.94,6.3,4.23,9.73,3.48,2.07-.46,3.51-2.29,5.37-3.3,3.48-1.88,7.67-.7,11.54-.1a4.5,4.5,0,0,0,2.52-.12,4.23,4.23,0,0,0,1.53-1.41,15.49,15.49,0,0,0,2.4-4.59A15,15,0,0,1,640.43,362.87Z" transform="translate(-9.98 -9.53)"/></g></svg>