<svg id="aaafdec0-95c8-49a3-a8f8-64216c6da511" xmlns="http://www.w3.org/2000/svg" xmlns:xlink="http://www.w3.org/1999/xlink" viewBox="0 0 849.04 559.93"><defs><style>.cls-1{opacity:0.18;fill:url(#linear-gradient);}.cls-1,.cls-12,.cls-7,.cls-9{isolation:isolate;}.cls-2{fill:#42a5f5;}.cls-3{fill:#3f3d56;}.cls-15,.cls-4{fill:none;stroke-miterlimit:10;}.cls-4{stroke:#3f3d56;}.cls-5{fill:#46455b;}.cls-6{fill:#a8a8a8;}.cls-7{opacity:0.2;}.cls-8{fill:#a0616a;}.cls-9{opacity:0.1;}.cls-10{fill:#605d82;}.cls-11{fill:#535070;}.cls-12{fill:#34343f;opacity:0.52;}.cls-13{fill:#2a2a3a;}.cls-14{fill:#57b894;}.cls-15{stroke:#fff;stroke-width:15px;}</style><linearGradient id="linear-gradient" x1="9.75" y1="291.38" x2="858.79" y2="291.38" gradientUnits="userSpaceOnUse"><stop offset="0" stop-color="#ff8a65"/><stop offset="1" stop-color="#55abe5"/></linearGradient></defs><path class="cls-1" d="M841.48,534.66a79.21,79.21,0,0,1-17.39,16.68c-32.37,22.79-81.67,23.46-124.81,15.1S615.41,542.09,572,535.14c-69-11-138.92,1.55-206.32,14s-137.3,25.23-206.37,14.55c-65-10-129.45-46.72-145.61-97.24A77.51,77.51,0,0,1,11.29,457c-14.57-75.83,79-138,79.23-214.29.07-21.32-7.28-42.43-9.33-63.75C74.38,107.69,134.78,37.86,219.67,18.58c149-33.81,299.07,63.6,452.2,53.48,152.65-10,167.72,48.18,143.83,163.58a239.89,239.89,0,0,0,6,119.25c10.44,33.93,28.31,66.63,34.83,101.07C861.69,483,858.45,512.36,841.48,534.66Z" transform="translate(-9.75 -11.42)"/><path class="cls-2" d="M540.48,321.25l5.85-1A16.61,16.61,0,0,0,548,320c-22.51-13.22-29.36-41.28-15.45-62.58,9.74-14.91,27.67-23.11,46-21.16l-7.66,17.26,18.14-15,.14.06c25,8.34,38.09,34.26,29.29,58h0c-.34.85-.68,1.63-1,2.41a57.51,57.51,0,0,0,14-8.92c8.06-7.36,12.56-17.52,17.46-30,9.81-24.81,19.28-50,28.42-75.21-20.69-10.62-30.23-33.93-22.37-55,.47-1.3,1.08-2.54,1.68-3.84.13-.33.34-.65.47-.91.61-1.18,1.28-2.35,2-3.45a2.19,2.19,0,0,0,.33-.53c.61-.91,1.28-1.88,1.95-2.73a9,9,0,0,0,.74-1c.81-1,1.55-1.89,2.42-2.8a11.29,11.29,0,0,1,.87-.84c.68-.66,1.35-1.31,2-1.89.33-.33.74-.65,1.07-1l.27-.26h0a50,50,0,0,1,61.27-1.3l-9.94,22.46,17.93-14.84a43.29,43.29,0,0,1,1.75,53.52h.07c-.21.26-.41.53-.61.79l-1.14,1.49c-.54.65-1,1.24-1.55,1.83s-.8.91-1.2,1.3a25.76,25.76,0,0,1-2,1.82c-.41.33-.74.72-1.14,1-1,.85-2.09,1.7-3.23,2.48l-1.21.78c-.8.52-1.54,1-2.35,1.5-.47.26-1,.58-1.54.84l-2.22,1.18a17.2,17.2,0,0,1-1.61.71c-.81.33-1.55.65-2.36.91l-1.61.59a19.34,19.34,0,0,1-2.68.78c-.47.13-1,.26-1.35.39-1.34.33-2.75.65-4.16.85a3.69,3.69,0,0,1-.81.06l-3.49.4c-.54,0-1,.06-1.55.06-.94,0-1.88.07-2.89,0-.53,0-1.14-.06-1.68-.06-.94-.07-1.88-.13-2.82-.27l-1.68-.19c-1-.13-2-.33-3-.52l-.2-.07q-5.75,15.93-11.76,31.85c19.69-16.8,50-15.24,67.65,3.38h0c.61.65,1.21,1.3,1.81,2L730.93,243.7l22.44-8.47a43.1,43.1,0,0,1,1.88,34.58A42.33,42.33,0,0,1,749.14,281c-15.25,20.51-45.15,25.39-66.78,10.94A45.44,45.44,0,0,1,662.48,261c-.41,1-.81,2.15-1.28,3.19-4.37,11.07-9.81,24.81-20.76,34.77-7.39,6.71-16.52,11-25.32,14.66-5.71,2.34-11.49,4.55-17.33,6.51a50.26,50.26,0,0,1-21.43,6.44q-13.9,3.62-28,6.06l-5.91,1c-5.31.84-10.75,1.75-16.12,2.73.8.2,1.54.46,2.35.65,19.68,6.58,32.65,24.42,32,44.22L523.76,392l33.38,5c-10,23.24-37.95,34.44-62.47,25a47.44,47.44,0,0,1-17.4-11.52l1,3.19c.67,2.15,1.34,4.23,2,6.38,8.8,28.65,5,51.12-10.61,63.36l-8.47-9.77c15.25-11.92,10.48-36.53,6.32-50.14-.61-2.08-1.28-4.17-1.95-6.25-5.71-18-12.23-38.42-3.83-57.24C474.65,331.93,511.13,326,540.48,321.25Z" transform="translate(-9.75 -11.42)"/><path class="cls-3" d="M252.29,266.75H541.15a14.21,14.21,0,0,1,14.45,14V342a14.21,14.21,0,0,1-14.45,14H252.29a14.2,14.2,0,0,1-14.44-14V280.75A14.2,14.2,0,0,1,252.29,266.75Z" transform="translate(-9.75 -11.42)"/><path class="cls-3" d="M529,484.9H270.43c-17.67,0-31.91-13.87-31.91-31h0V339.1a12,12,0,0,1,4-8.92l308.42-.27C557.48,336,561,338.77,561,347.63V453.9c0,17.13-14.31,31-32,31Z" transform="translate(-9.75 -11.42)"/><path class="cls-4" d="M238.12,333.5" transform="translate(-9.75 -11.42)"/><path class="cls-3" d="M399.41,409,247.05,337.66a6.27,6.27,0,0,0-8.26,2.8,6,6,0,0,0-.61,2.61V465.88c0,10.36,8.67,18.69,19.28,18.69H541.29c10.68,0,19.28-8.4,19.28-18.69h0V345.15a7.4,7.4,0,0,0-7.52-7.29,8,8,0,0,0-3.3.72Z" transform="translate(-9.75 -11.42)"/><line class="cls-4" x1="108.52" y1="484.22" x2="662.07" y2="484.22"/><path class="cls-5" d="M77.29,415.42c0,38.42,24.86,69.48,55.56,69.48" transform="translate(-9.75 -11.42)"/><path class="cls-2" d="M132.85,484.9c0-38.81,27.74-70.2,62-70.2" transform="translate(-9.75 -11.42)"/><path class="cls-2" d="M97.45,418.93c0,36.47,15.78,66,35.4,66" transform="translate(-9.75 -11.42)"/><path class="cls-5" d="M132.85,484.9c0-49.62,32-89.74,71.68-89.74" transform="translate(-9.75 -11.42)"/><path class="cls-6" d="M121.16,485.42s7.86-.26,10.28-1.89,12.09-3.58,12.7-1,11.82,13.09,3,13.16-20.69-1.37-23-2.74S121.16,485.42,121.16,485.42Z" transform="translate(-9.75 -11.42)"/><path class="cls-7" d="M147.23,494.79c-8.87.07-20.69-1.36-23-2.73-1.81-1-2.55-4.88-2.75-6.64h-.27s.47,6.18,2.89,7.55,14.17,2.8,23,2.74c2.55,0,3.43-.92,3.43-2.22C150.11,494.27,149.11,494.73,147.23,494.79Z" transform="translate(-9.75 -11.42)"/><path class="cls-8" d="M560.77,205.41c-.4,3.51-3.16,6.31-4.16,9.64-1.55,5.07,1.14,10.48,4.7,14.45a33.65,33.65,0,0,0,23,10.62,7.72,7.72,0,0,0,6.72-2.28,17.66,17.66,0,0,0,4.77-10,51.78,51.78,0,0,0,.13-11.2,6.52,6.52,0,0,0-.4-2.28,6.4,6.4,0,0,0-1.48-1.82,33.77,33.77,0,0,0-6.45-4.56,7.46,7.46,0,0,1-2.68-2,5.2,5.2,0,0,1-.81-2.41l-.74-3.52a6.19,6.19,0,0,0-1.07-2.86c-1.28-1.63-3.7-1.89-5.78-2l-7.73-.26c-2.41-.06-5.57-.78-7.92-.32s-1.48,2.41-1.08,4.17A27.2,27.2,0,0,1,560.77,205.41Z" transform="translate(-9.75 -11.42)"/><path class="cls-9" d="M560.77,205.41c-.4,3.51-3.16,6.31-4.16,9.64-1.55,5.07,1.14,10.48,4.7,14.45a33.65,33.65,0,0,0,23,10.62,7.72,7.72,0,0,0,6.72-2.28,17.66,17.66,0,0,0,4.77-10,51.78,51.78,0,0,0,.13-11.2,6.52,6.52,0,0,0-.4-2.28,6.4,6.4,0,0,0-1.48-1.82,33.77,33.77,0,0,0-6.45-4.56,7.46,7.46,0,0,1-2.68-2,5.2,5.2,0,0,1-.81-2.41l-.74-3.52a6.19,6.19,0,0,0-1.07-2.86c-1.28-1.63-3.7-1.89-5.78-2l-7.73-.26c-2.41-.06-5.57-.78-7.92-.32s-1.48,2.41-1.08,4.17A27.2,27.2,0,0,1,560.77,205.41Z" transform="translate(-9.75 -11.42)"/><path class="cls-10" d="M609.94,362.34l-3.29,34.91c-.87,9.18-1.74,18.36-3.42,27.41-.61,3.13-1.28,6.19-2.09,9.31-2.21,8.53-5.5,16.87-6.58,25.6,0,.26-.07.52-.07.78a20.12,20.12,0,0,1-1.14,5.66c-.54,1.3-1.34,2.54-1.88,3.84-1.14,2.61-1.28,5.54-1.41,8.4a37.25,37.25,0,0,0-12.9-4.23c-2.21-.32-4.63-.52-6.11-2.15-1.68-1.75-1.48-4.42-1.21-6.77q1.3-10.94,2.62-21.88a56,56,0,0,1,1.61-9.31c.27-1,.67-2,1-3a41.5,41.5,0,0,0,1.41-4.16,48.8,48.8,0,0,0,1.14-6.91c.88-7.35,2-14.65,2.89-22l.07-.39c1.41-11.13,2.48-22.27,2.15-33.47-.07-1.63-.14-3.32-.2-5-.14-2.41-.41-3.71,1.68-5.21a41.71,41.71,0,0,1,7.86-3.9c1.41-.59,16.79-5.86,17.13-4.76a29.64,29.64,0,0,1,1.14,7.62A64.81,64.81,0,0,1,609.94,362.34Z" transform="translate(-9.75 -11.42)"/><path class="cls-9" d="M603.23,424.6c-.61,3.12-1.28,6.18-2.09,9.31-2.21,8.53-5.5,16.86-6.58,25.59,0,.26-.07.52-.07.78-6.85-9.51-12.63-19.73-19.34-29.37.53-1.36,1-2.73,1.41-4.16a50.27,50.27,0,0,0,1.14-6.91c.87-7.35,1.95-14.65,2.89-22l.07-.39a21.72,21.72,0,0,0,1.67,4.5c4.51,8.85,15.19,13.35,20.43,21.81C603,424.08,603.09,424.34,603.23,424.6Z" transform="translate(-9.75 -11.42)"/><path class="cls-10" d="M547.54,346.65c.2,7.1,1.41,14.13,2.55,21.16l2.42,14.53c1.34,7.94,2.69,16,6.58,23.11,2.89,5.34,7,9.84,10.82,14.59,9.27,11.72,16.25,25,25.05,37,2.56,3.52,6.25,7.29,10.62,6.58,2.89-.46,5-2.8,7.19-4.56,2.68-2.08,5.84-3.65,7.92-6.25s2.49-7-.33-8.92a14,14,0,0,0-3.23-1.31c-4.36-1.62-7.25-5.79-9.07-10s-2.88-8.72-5.3-12.63c-5.24-8.47-15.92-13-20.43-21.82-2.55-4.94-2.75-10.68-3-16.21l-.47-14.13a10.31,10.31,0,0,1,.54-4.56c1.74-3.78,6.92-4.1,11.15-4.56a38.3,38.3,0,0,0,13.63-4.17c2.42-1.3,4.77-2.86,6.12-5.2,1.21-2.15,1.34-4.69,1.48-7.1l1.47-25.59a15.14,15.14,0,0,0-.53-6.52c-2-5.21-8.74-6.83-14.45-6.64-10.61.46-20.42,4.89-30.43,7.88-2.48.72-5,1.37-7.59,1.89-2.22.46-5,.26-7.12,1-3.83,1.23-3.7,9.31-4.23,12.69A106,106,0,0,0,547.54,346.65Z" transform="translate(-9.75 -11.42)"/><path class="cls-11" d="M604.1,464.78a6.63,6.63,0,0,1,1.48,3.51,113.57,113.57,0,0,1,2.08,21.3,3.35,3.35,0,0,0,.4,2,2.4,2.4,0,0,0,1,.78c2.69,1.24,5.85-.52,8.06-2.41,4.17-3.58,7.73-8.33,7.93-13.67a29.06,29.06,0,0,1,.13-4.17c.34-2,1.62-3.78,2.69-5.54a46.2,46.2,0,0,0,4.37-9.57c.4-1.24.67-2.8-.34-3.71a3.42,3.42,0,0,0-1.21-.59l-12.22-4.42c-1.08-.4-3.7,6.18-4.1,6.9a5.42,5.42,0,0,1-4.1,3.12c-2.08.39-4.57-.19-6.52.85C600.61,460.87,602.22,463,604.1,464.78Z" transform="translate(-9.75 -11.42)"/><path class="cls-12" d="M393,423,236.5,290.58c0-7.36,6.52-13.41,14.45-13.41H539.81c7.93,0,14.44,6.05,14.44,13.41Z" transform="translate(-9.75 -11.42)"/><path class="cls-13" d="M393.7,413.27,237.18,280.82c0-7.36,6.51-13.42,14.44-13.42H540.48c7.93,0,14.45,6.06,14.45,13.42Z" transform="translate(-9.75 -11.42)"/><path class="cls-11" d="M585.29,468.81a3.29,3.29,0,0,0-.94-1.17,4.49,4.49,0,0,0-1.88-.65c-2.35-.39-5.11-.65-6.72,1s-1.21,4.1-2.48,5.86c-.41.59-.94,1-1.28,1.63a6.08,6.08,0,0,0-.54,2.87c-.07,2.73-.13,5.47.07,8.2.13,2.28.54,4.69,2,6.45,2.36,2.86,6.66,3.25,10.42,3.45l3.09.13a6.23,6.23,0,0,0,2.48-.2,4,4,0,0,0,2.15-2.28c1.61-3.84-.94-8-2.48-11.85C587.44,477.93,587.71,473,585.29,468.81Z" transform="translate(-9.75 -11.42)"/><path class="cls-3" d="M559.9,185.74a1.81,1.81,0,0,1,.2-1.17c.47-.78,1.61-.59,2.48-.33,3.57.85,7.33.07,10.95.27s7.8,2,8.54,5.47a25.57,25.57,0,0,0,6.78-6.78,8.1,8.1,0,0,0,1.75-4.95c-.2-2.54-2.42-4.42-4.44-6.05l-6.11-4.82a9.2,9.2,0,0,0-2.75-1.69,14.32,14.32,0,0,0-4.44-.26c-4.43,0-9.2-2-13.1,0a13.91,13.91,0,0,0-4.09,3.58l-5.45,6.25a3.28,3.28,0,0,0-.87,1.43,7,7,0,0,0,.4,2.28c.27,1.37-.33,2.87.14,4.23.8,2.22,3.56,2.54,5.31,3.84.6.46,1.61,2.09,2.35,2.09C558.89,189.13,559.83,186.78,559.9,185.74Z" transform="translate(-9.75 -11.42)"/><ellipse class="cls-8" cx="559.35" cy="175.82" rx="17.4" ry="16.87"/><path class="cls-3" d="M573.2,224.23a8.32,8.32,0,0,0-8.2-5.47,3.08,3.08,0,0,1-1.54-.2,1.77,1.77,0,0,1-.61-.78A30.22,30.22,0,0,1,560.3,212c-.27-.92-.67-2-1.61-2.22a2.33,2.33,0,0,0-2,.85,22.46,22.46,0,0,1-1.47,1.76c-2.22,1.88-6.05.19-8.4,1.88-.41.26-.67.66-1.08.92a4.3,4.3,0,0,1-1.27.52,132.18,132.18,0,0,0-13.17,5c1.54,9,3.16,18.23,6.78,26.7,1.75,4,3.7,7.94,5,12.11,3.09,9.18,3.23,19,3.23,28.65,0,6.58,0,13.35-2.22,19.6a15.91,15.91,0,0,0-1.21,4.3,4.54,4.54,0,0,0,1.55,4,6.21,6.21,0,0,0,2.41.85c3.83.52,7.66-.46,11.43-1.31,10.07-2.28,20.35-3.58,30.63-4.88l17.2-2.15a9.91,9.91,0,0,0,3.56-.91c3.15-1.69,3.42-6.25,1.47-9.18-.94-1.37-2.28-2.54-3-4s-.87-3.58.54-4.56c2.75-2.08,2-6,2.08-9.38.34-9.5.34-18.94-.13-28.45a41.82,41.82,0,0,1-.07-5.93,54.52,54.52,0,0,1,1.88-9.83l5.24-19.93a10.6,10.6,0,0,0-6.45-4c-2.48-.59-5-.79-7.52-1.5-5-1.5-9.47-5.28-14.65-4.95a3.28,3.28,0,0,0-1.14.26c-1.21.65-1,2.28-1.07,3.58-.21,2.87-2.36,5.34-4.77,7s-5.18,2.93-7.39,4.89A3.31,3.31,0,0,0,573.2,224.23Z" transform="translate(-9.75 -11.42)"/><path class="cls-8" d="M504.21,243.11a17.47,17.47,0,0,1-3.7,1.83,13.25,13.25,0,0,0-3.49,1.62,4.89,4.89,0,0,0-1.21,1.44,6.4,6.4,0,0,0,2.55,8.85,7,7,0,0,0,3.63.85,13.9,13.9,0,0,0,4.57-1.3l12.29-5.15c2.08-.84,4.3-1.89,5.31-3.91a1,1,0,0,0,.13-.58,1,1,0,0,0-.53-.52,29.2,29.2,0,0,1-7.19-6.51c-.54-.66-1.14-2.22-1.82-2.61C512.13,235.62,506.22,241.81,504.21,243.11Z" transform="translate(-9.75 -11.42)"/><path class="cls-8" d="M635.54,238.88l4.5,5a34.34,34.34,0,0,1,2.82,3.32,39.71,39.71,0,0,1,5.17,9.51,15.88,15.88,0,0,1,1.48,7.82,16.63,16.63,0,0,1-1.14,4,45.89,45.89,0,0,1-3.09,7.16,38.76,38.76,0,0,1-3.49,5,117.38,117.38,0,0,1-11.49,12.76c-1.55,1.5-2.22,3.91-2.89,5.92-1.21,3.72-4.23,6.58-7,9.32a22.17,22.17,0,0,1-3,2.54,9.57,9.57,0,0,1-5.5,1.49,6.46,6.46,0,0,1-2.49-.52c-2-.91-3-3.12-3.16-5.21a10.6,10.6,0,0,1,.94-5.53c2.62-5.6,9.27-8,14-12a46.61,46.61,0,0,0,7-8.33,28.7,28.7,0,0,0,3.56-6c1.08-2.73.67-5.92,1.55-8.72.4-1.17,1.07-2.21,1.48-3.39a3.8,3.8,0,0,0-.21-3.51,4.72,4.72,0,0,0-2-1.44c-3-1.49-6.38-3.38-7-6.64a7.31,7.31,0,0,1,1.35-5.08,19.09,19.09,0,0,1,3.83-3.84C632,241.29,634.2,240.05,635.54,238.88Z" transform="translate(-9.75 -11.42)"/><path class="cls-8" d="M501.25,250.14a8.36,8.36,0,0,0-3.42-4,6.6,6.6,0,0,0-5,0,19.47,19.47,0,0,0-4.36,2.54l-3.9,2.8a10.14,10.14,0,0,0-2.35,2.09,9.24,9.24,0,0,0-1.21,3.19,22.6,22.6,0,0,0-.6,7.94c.6,4.3,3.29,8,6.18,11.27,1.81,2,4.09,4.1,6.85,4.16a3,3,0,0,0,3-1.49,2.88,2.88,0,0,0,.27-1.31c.34-4.75-1.48-9.44-3.49-13.74a8.84,8.84,0,0,1-1.14-3.71,1,1,0,0,1,.2-.65,1.27,1.27,0,0,1,.67-.32c2.82-.53,7.66,1.56,9.61-1.44C503.94,255.55,502.19,251.9,501.25,250.14Z" transform="translate(-9.75 -11.42)"/><path class="cls-3" d="M559,180.4a1.81,1.81,0,0,1,.2-1.17c.47-.78,1.61-.59,2.48-.33,3.56.85,7.33.07,11,.27s7.8,2,8.54,5.47a26.38,26.38,0,0,0,6.78-6.71,8.13,8.13,0,0,0,1.75-5c-.2-2.54-2.42-4.43-4.44-6.06l-6.11-4.82a9,9,0,0,0-2.69-1.69,14.56,14.56,0,0,0-4.43-.26c-4.43,0-9.2-2-13.1,0a14.22,14.22,0,0,0-4.1,3.58L549.35,170a3.22,3.22,0,0,0-.87,1.44,6.81,6.81,0,0,0,.4,2.28c.27,1.36-.34,2.86.13,4.23.81,2.21,3.57,2.54,5.31,3.77.61.46,1.61,2.09,2.35,2.09C558,183.79,559,181.44,559,180.4Z" transform="translate(-9.75 -11.42)"/><path class="cls-3" d="M522,226.7a7.24,7.24,0,0,0-1.81,1.63c-.68.91-.74,2.15-1.35,3.13-1.21,2.14-3.89,2.86-5.64,4.62a1.61,1.61,0,0,0-.54.91,2,2,0,0,0,.47,1.3l8.26,12.57c2.76.26,5.38-1.43,8.13-1.24,1,.07,2.09.46,3.09.13a9,9,0,0,0,2-1.17c1.61-1,3.83-1.11,5.24-2.47s1.48-3.26,1.48-5.08a22.61,22.61,0,0,0-.47-4.69c-1.21-4.82-5-8.53-7.39-12.83-1.14-2.08-1.81-3.32-4.23-1.89S524.29,225.07,522,226.7Z" transform="translate(-9.75 -11.42)"/><path class="cls-3" d="M622.31,220.32a19.47,19.47,0,0,1,4.16,3.52c1.28,1.56,1.95,3.51,3.16,5.08s2.75,2.8,4.1,4.23a32.36,32.36,0,0,1,4.7,7.42,111,111,0,0,1-10.68,11.72,3.36,3.36,0,0,1-1.62,1.05,2.72,2.72,0,0,1-2.28-.92c-.6-.58-1-1.36-1.61-1.95a7.89,7.89,0,0,0-5-2.34,33,33,0,0,0-5.71-.07,1.93,1.93,0,0,1-1.21-.19,2.27,2.27,0,0,1-.67-.72c-2.22-3.71-1.55-8.34-.74-12.5l1.81-9.64a22.44,22.44,0,0,1,1.48-5.41c.67-1.43,2.22-3.84,4.1-3.38S620.69,219.21,622.31,220.32Z" transform="translate(-9.75 -11.42)"/><ellipse class="cls-14" cx="240.87" cy="253.36" rx="36.28" ry="35.16"/><path class="cls-15" d="M274.12,285.7l-45.74-42.59Z" transform="translate(-9.75 -11.42)"/><path class="cls-15" d="M273.72,242.66l-44.94,43.63Z" transform="translate(-9.75 -11.42)"/></svg>