<?xml version="1.0" encoding="utf-8"?>
<!-- Generator: Adobe Illustrator 21.0.2, SVG Export Plug-In . SVG Version: 6.00 Build 0)  -->
<svg version="1.1" id="aaafdec0-95c8-49a3-a8f8-64216c6da511"
	 xmlns="http://www.w3.org/2000/svg" xmlns:xlink="http://www.w3.org/1999/xlink" x="0px" y="0px" viewBox="0 0 1013.5 610.3"
	 style="enable-background:new 0 0 1013.5 610.3;" xml:space="preserve">
<style type="text/css">
	.st0{fill:#A0A0F9;}
	.st1{fill:#3F3D56;}
	.st2{fill:none;stroke:#3F3D56;stroke-miterlimit:10;}
	.st3{fill:#46455B;}
	.st4{fill:#6C63FF;}
	.st5{fill:#A8A8A8;}
	.st6{opacity:0.2;enable-background:new    ;}
	.st7{fill:#A0616A;}
	.st8{opacity:0.1;enable-background:new    ;}
	.st9{fill:#605D82;}
	.st10{fill:#535070;}
	.st11{opacity:0.52;fill:#34343F;}
	.st12{fill:#2A2A3A;}
	.st13{fill:#57B894;}
	.st14{fill:none;stroke:#FFFFFF;stroke-width:15;stroke-miterlimit:10;}
</style>
<title>No-Post</title>
<path class="st0" d="M689.5,340.7l8.7-1.5c0.8-0.1,1.7-0.3,2.5-0.5c-33.5-20.3-43.7-63.4-23-96.1c14.5-22.9,41.2-35.5,68.5-32.5
	l-11.4,26.5l27-23l0.2,0.1c37.2,12.8,56.7,52.6,43.6,89c0,0,0,0,0,0l0,0c-0.5,1.3-1,2.5-1.5,3.7c7.6-3.7,14.9-8.1,20.9-13.7
	c12-11.3,18.7-26.9,26-46.1c14.6-38.1,28.7-76.7,42.3-115.5c-30.8-16.3-45-52.1-33.3-84.5c0.7-2,1.6-3.9,2.5-5.9
	c0.2-0.5,0.5-1,0.7-1.4c0.9-1.8,1.9-3.6,2.9-5.3c0.2-0.3,0.4-0.5,0.5-0.8c0.9-1.4,1.9-2.9,2.9-4.2c0.4-0.5,0.8-1,1.1-1.5
	c1.2-1.5,2.3-2.9,3.6-4.3c0.4-0.5,0.9-0.9,1.3-1.3c1-1,2-2,3-2.9c0.5-0.5,1.1-1,1.6-1.5l0.4-0.4l0,0c25.9-22.1,64.3-22.9,91.2-2
	l-14.8,34.5l26.7-22.8c19.2,23.9,20.2,57.2,2.6,82.2h0.1c-0.3,0.4-0.6,0.8-0.9,1.2c-0.6,0.8-1.1,1.5-1.7,2.3c-0.8,1-1.5,1.9-2.3,2.8
	c-0.6,0.7-1.2,1.4-1.8,2c-0.9,1-1.9,1.9-2.9,2.8c-0.6,0.5-1.1,1.1-1.7,1.6c-1.5,1.3-3.1,2.6-4.8,3.8c-0.6,0.4-1.2,0.8-1.8,1.2
	c-1.2,0.8-2.3,1.6-3.5,2.3c-0.7,0.4-1.5,0.9-2.3,1.3c-1.1,0.6-2.2,1.2-3.3,1.8c-0.8,0.4-1.6,0.8-2.4,1.1c-1.2,0.5-2.3,1-3.5,1.4
	c-0.8,0.3-1.6,0.6-2.4,0.9c-1.3,0.5-2.7,0.9-4,1.2c-0.7,0.2-1.4,0.4-2,0.6c-2,0.5-4.1,1-6.2,1.3c-0.4,0.1-0.8,0.1-1.2,0.1
	c-1.7,0.2-3.5,0.4-5.2,0.6c-0.8,0-1.5,0.1-2.3,0.1c-1.4,0-2.8,0.1-4.3,0c-0.8,0-1.7-0.1-2.5-0.1c-1.4-0.1-2.8-0.2-4.2-0.4
	c-0.8-0.1-1.6-0.2-2.5-0.3c-1.5-0.2-3-0.5-4.5-0.8l-0.3-0.1c-5.7,16.3-11.5,32.6-17.5,48.9c29.3-25.8,74.4-23.4,100.7,5.2
	c0,0,0,0,0,0c0.9,1,1.8,2,2.7,3.1l-24.7,26.7l33.4-13c8.1,16.6,9.1,35.7,2.8,53.1c-2.2,6.1-5.2,11.9-9.1,17.1
	c-22.7,31.5-67.2,39-99.4,16.8c-16.1-11.1-26.8-28.3-29.6-47.4c-0.6,1.6-1.2,3.3-1.9,4.9c-6.5,17-14.6,38.1-30.9,53.4
	c-11,10.3-24.6,16.9-37.7,22.5c-8.5,3.6-17.1,7-25.8,10c-9.7,5.7-20.6,9.1-31.9,9.9c-13.8,3.7-27.7,6.8-41.7,9.3l-8.8,1.5
	c-7.9,1.3-16,2.7-24,4.2c1.2,0.3,2.3,0.7,3.5,1c29.3,10.1,48.6,37.5,47.7,67.9l-55,16.5l49.7,7.7c-14.9,35.7-56.5,52.9-93,38.4
	c-9.9-3.9-18.8-10-25.9-17.7l1.5,4.9c1,3.3,2,6.5,3,9.8c13.1,44,7.5,78.5-15.8,97.3l-12.6-15c22.7-18.3,15.6-56.1,9.4-77
	c-0.9-3.2-1.9-6.4-2.9-9.6c-8.5-27.7-18.2-59-5.7-87.9C591.5,357.1,645.8,348,689.5,340.7z"/>
<path class="st1" d="M260.5,257h430c11.9,0,21.5,9.6,21.5,21.5v94c0,11.9-9.6,21.5-21.5,21.5h-430c-11.9,0-21.5-9.6-21.5-21.5v-94
	C239,266.6,248.6,257,260.5,257z"/>
<path class="st1" d="M672.4,592H287.5c-26.3,0-47.5-21.3-47.5-47.6l0,0V368.1c0-5.2,2.1-10.1,5.9-13.7L705,354
	c9.8,9.3,15,13.6,15,27.2v163.2C720,570.7,698.7,592,672.4,592C672.4,592,672.4,592,672.4,592z"/>
<path class="st2" d="M239.4,359.5"/>
<path class="st1" d="M479.5,475.5L252.7,365.9c-4.6-2.2-10.1-0.3-12.3,4.3c-0.6,1.3-0.9,2.6-0.9,4v188.6c0,15.9,12.9,28.7,28.7,28.7
	h422.5c15.9,0,28.7-12.9,28.7-28.7l0,0V377.4c0-6.2-5-11.2-11.2-11.2c-1.7,0-3.4,0.4-4.9,1.1L479.5,475.5z"/>
<line class="st2" x1="61" y1="608.5" x2="885" y2="608.5"/>
<path class="st3" d="M0,485.3C0,544.3,37,592,82.7,592"/>
<path class="st4" d="M82.7,592c0-59.6,41.3-107.8,92.3-107.8"/>
<path class="st4" d="M30,490.7c0,56,23.5,101.3,52.7,101.3"/>
<path class="st3" d="M82.7,592c0-76.2,47.7-137.8,106.7-137.8"/>
<path class="st5" d="M65.3,592.8c0,0,11.7-0.4,15.3-2.9s18-5.5,18.9-1.5s17.6,20.1,4.4,20.2s-30.8-2.1-34.3-4.2
	S65.3,592.8,65.3,592.8z"/>
<path class="st6" d="M104.1,607.2c-13.2,0.1-30.8-2.1-34.3-4.2c-2.7-1.6-3.8-7.5-4.1-10.2h-0.4c0,0,0.7,9.5,4.3,11.6
	s21.1,4.3,34.3,4.2c3.8,0,5.1-1.4,5.1-3.4C108.4,606.4,106.9,607.1,104.1,607.2z"/>
<path class="st7" d="M719.7,162.8c-0.6,5.4-4.7,9.7-6.2,14.8c-2.3,7.8,1.7,16.1,7,22.2c8.8,9.8,21.1,15.6,34.2,16.3
	c1.9,0.2,3.8,0,5.7-0.6c1.6-0.7,3.1-1.7,4.3-2.9c4.1-4.1,6.2-9.7,7.1-15.4s0.5-11.5,0.2-17.2c0-1.2-0.2-2.4-0.6-3.5
	c-0.6-1.1-1.3-2-2.2-2.8c-2.9-2.7-6.1-5-9.6-7c-1.6-0.7-2.9-1.8-4-3.1c-0.7-1.1-1.1-2.4-1.2-3.7l-1.1-5.4c-0.2-1.6-0.7-3.1-1.6-4.4
	c-1.9-2.5-5.5-2.9-8.6-3l-11.5-0.4c-3.6-0.1-8.3-1.2-11.8-0.5c-3.3,0.7-2.2,3.7-1.6,6.4C719.1,155.9,719.6,159.3,719.7,162.8z"/>
<path class="st8" d="M719.7,162.8c-0.6,5.4-4.7,9.7-6.2,14.8c-2.3,7.8,1.7,16.1,7,22.2c8.8,9.8,21.1,15.6,34.2,16.3
	c1.9,0.2,3.8,0,5.7-0.6c1.6-0.7,3.1-1.7,4.3-2.9c4.1-4.1,6.2-9.7,7.1-15.4s0.5-11.5,0.2-17.2c0-1.2-0.2-2.4-0.6-3.5
	c-0.6-1.1-1.3-2-2.2-2.8c-2.9-2.7-6.1-5-9.6-7c-1.6-0.7-2.9-1.8-4-3.1c-0.7-1.1-1.1-2.4-1.2-3.7l-1.1-5.4c-0.2-1.6-0.7-3.1-1.6-4.4
	c-1.9-2.5-5.5-2.9-8.6-3l-11.5-0.4c-3.6-0.1-8.3-1.2-11.8-0.5c-3.3,0.7-2.2,3.7-1.6,6.4C719.1,155.9,719.6,159.3,719.7,162.8z"/>
<path class="st9" d="M792.9,403.8l-4.9,53.6c-1.3,14.1-2.6,28.2-5.1,42.1c-0.9,4.8-1.9,9.5-3.1,14.3c-3.3,13.1-8.2,25.9-9.8,39.3
	c0,0.4-0.1,0.8-0.1,1.2c-0.2,3-0.7,5.9-1.7,8.7c-0.8,2-2,3.9-2.8,5.9c-1.7,4-1.9,8.5-2.1,12.9c-5.9-3.3-12.4-5.6-19.2-6.5
	c-3.3-0.5-6.9-0.8-9.1-3.3c-2.5-2.7-2.2-6.8-1.8-10.4c1.3-11.2,2.6-22.4,3.9-33.6c0.4-4.8,1.2-9.6,2.4-14.3c0.4-1.6,1-3.1,1.5-4.6
	c0.8-2.1,1.5-4.2,2.1-6.4c0.8-3.5,1.4-7.1,1.7-10.6c1.3-11.3,2.9-22.5,4.3-33.8l0.1-0.6c2.1-17.1,3.7-34.2,3.2-51.4
	c-0.1-2.5-0.2-5.1-0.3-7.6c-0.2-3.7-0.6-5.7,2.5-8c3.4-2.5,7.8-4.3,11.7-6c2.1-0.9,25-9,25.5-7.3c1.1,3.8,1.6,7.7,1.7,11.7
	C793.7,394.1,793.4,398.9,792.9,403.8z"/>
<path class="st8" d="M782.9,499.4c-0.9,4.8-1.9,9.5-3.1,14.3c-3.3,13.1-8.2,25.9-9.8,39.3c0,0.4-0.1,0.8-0.1,1.2
	c-10.2-14.6-18.8-30.3-28.8-45.1c0.8-2.1,1.5-4.2,2.1-6.4c0.8-3.5,1.4-7.1,1.7-10.6c1.3-11.3,2.9-22.5,4.3-33.8l0.1-0.6
	c0.6,2.4,1.4,4.7,2.5,6.9c6.7,13.6,22.6,20.5,30.4,33.5C782.5,498.6,782.7,499,782.9,499.4z"/>
<path class="st9" d="M700,379.7c0.3,10.9,2.1,21.7,3.8,32.5l3.6,22.3c2,12.2,4,24.6,9.8,35.5c4.3,8.2,10.5,15.1,16.1,22.4
	c13.8,18,24.2,38.4,37.3,56.9c3.8,5.4,9.3,11.2,15.8,10.1c4.3-0.7,7.4-4.3,10.7-7c4-3.2,8.7-5.6,11.8-9.6s3.7-10.8-0.5-13.7
	c-1.5-0.9-3.1-1.5-4.8-2c-6.5-2.5-10.8-8.9-13.5-15.3c-2.7-6.5-4.3-13.4-7.9-19.4c-7.8-13-23.7-19.9-30.4-33.5
	c-3.8-7.6-4.1-16.4-4.4-24.9l-0.7-21.7c-0.1-2.4-0.1-4.8,0.8-7c2.6-5.8,10.3-6.3,16.6-7c7.1-0.8,14-3,20.3-6.4c3.6-2,7.1-4.4,9.1-8
	c1.8-3.3,2-7.2,2.2-10.9l2.2-39.3c0.2-3.4,0.4-6.9-0.8-10c-3-8-13-10.5-21.5-10.2c-15.8,0.7-30.4,7.5-45.3,12.1
	c-3.7,1.1-7.5,2.1-11.3,2.9c-3.3,0.7-7.4,0.4-10.6,1.5c-5.7,1.9-5.5,14.3-6.3,19.5C700.5,359.4,699.8,369.6,700,379.7z"/>
<path class="st10" d="M784.2,561.1c1.4,1.4,1.8,3.5,2.2,5.4c2,10.8,3.1,21.7,3.1,32.7c-0.1,1,0.1,2.1,0.6,3c0.4,0.5,0.9,1,1.5,1.2
	c4,1.9,8.7-0.8,12-3.7c6.2-5.5,11.5-12.8,11.8-21c-0.1-2.1,0-4.3,0.2-6.4c0.5-3.1,2.4-5.8,4-8.5c2.7-4.6,4.9-9.6,6.5-14.7
	c0.6-1.9,1-4.3-0.5-5.7c-0.5-0.4-1.1-0.7-1.8-0.9l-18.2-6.8c-1.6-0.6-5.5,9.5-6.1,10.6c-1.5,2.7-3,4.2-6.1,4.8s-6.8-0.3-9.7,1.3
	C779,555.1,781.4,558.3,784.2,561.1z"/>
<image style="overflow:visible;opacity:0.5;enable-background:new    ;" width="521" height="273" xlink:href="1C0A07C2.png"  transform="matrix(1 0 0 1 215 235.26)">
</image>
<path class="st11" d="M470,497L237,293.6c0-11.3,9.7-20.6,21.5-20.6h430c11.8,0,21.5,9.3,21.5,20.6L470,497z"/>
<path class="st12" d="M471,482L238,278.6c0-11.3,9.7-20.6,21.5-20.6h430c11.8,0,21.5,9.3,21.5,20.6L471,482z"/>
<path class="st10" d="M756.2,567.3c-0.3-0.7-0.8-1.3-1.4-1.8c-0.8-0.5-1.8-0.9-2.8-1c-3.5-0.6-7.6-1-10,1.6c-2.2,2.4-1.8,6.3-3.7,9
	c-0.6,0.9-1.4,1.6-1.9,2.5c-0.6,1.4-0.9,2.9-0.8,4.4c-0.1,4.2-0.2,8.4,0.1,12.6c0.2,3.5,0.8,7.2,3,9.9c3.5,4.4,9.9,5,15.5,5.3
	l4.6,0.2c1.3,0.2,2.5,0,3.7-0.3c1.5-0.7,2.7-2,3.2-3.5c2.4-5.9-1.4-12.3-3.7-18.2C759.4,581.3,759.8,573.7,756.2,567.3z"/>
<path class="st1" d="M718.4,132.6c-0.1-0.6,0-1.2,0.3-1.8c0.7-1.2,2.4-0.9,3.7-0.5c5.3,1.3,10.9,0.1,16.3,0.4s11.6,3,12.7,8.4
	c4-2.8,7.4-6.3,10.1-10.4c1.5-2.3,2.8-4.9,2.6-7.6c-0.3-3.9-3.6-6.8-6.6-9.3l-9.1-7.4c-1.2-1.1-2.6-2-4.1-2.6
	c-2.1-0.7-4.4-0.4-6.6-0.4c-6.6,0-13.7-3-19.5,0c-2.5,1.3-4.3,3.4-6.1,5.5l-8.1,9.6c-0.6,0.6-1.1,1.4-1.3,2.2
	c-0.2,1.2,0.4,2.3,0.6,3.5c0.4,2.1-0.5,4.4,0.2,6.5c1.2,3.4,5.3,3.9,7.9,5.9c0.9,0.7,2.4,3.2,3.5,3.2
	C716.9,137.8,718.3,134.2,718.4,132.6z"/>
<circle class="st7" cx="732.1" cy="134.9" r="25.9"/>
<path class="st1" d="M738.2,191.7c-1.8-5.2-6.7-8.6-12.2-8.4c-0.8,0.1-1.6,0-2.3-0.3c-0.4-0.3-0.7-0.7-0.9-1.2
	c-1.6-2.8-2.8-5.8-3.8-8.9c-0.4-1.4-1-3-2.4-3.4c-1.2-0.1-2.3,0.4-3,1.3c-0.7,0.9-1.4,1.9-2.2,2.7c-3.3,2.9-9,0.3-12.5,2.9
	c-0.6,0.4-1,1-1.6,1.4c-0.6,0.4-1.2,0.6-1.9,0.8c-6.7,2.2-13.2,4.8-19.6,7.7c2.3,13.9,4.7,28,10.1,41c2.6,6.2,5.5,12.2,7.5,18.6
	c4.6,14.1,4.8,29.2,4.8,44c0,10.1,0,20.5-3.3,30.1c-0.9,2.1-1.5,4.3-1.8,6.6c-0.2,2.3,0.5,4.8,2.3,6.2c1.1,0.7,2.3,1.1,3.6,1.3
	c5.7,0.8,11.4-0.7,17-2c15-3.5,30.3-5.5,45.6-7.5l25.6-3.3c1.8-0.1,3.6-0.6,5.3-1.4c4.7-2.6,5.1-9.6,2.2-14.1
	c-1.4-2.1-3.4-3.9-4.5-6.2s-1.3-5.5,0.8-7c4.1-3.2,2.9-9.2,3.1-14.4c0.5-14.6,0.5-29.1-0.2-43.7c-0.2-3-0.3-6-0.1-9.1
	c0.5-5.1,1.4-10.2,2.8-15.1l7.8-30.6c-2-3.2-5.9-5.3-9.6-6.2s-7.5-1.2-11.2-2.3c-7.4-2.3-14.1-8.1-21.8-7.6c-0.6,0-1.2,0.2-1.7,0.4
	c-1.8,1-1.5,3.5-1.6,5.5c-0.3,4.4-3.5,8.2-7.1,10.8s-7.7,4.5-11,7.5C739,188.8,738.3,190.2,738.2,191.7z"/>
<path class="st7" d="M635.5,220.7c-1.7,1.1-3.5,2.1-5.5,2.8c-1.9,0.6-3.6,1.4-5.2,2.5c-0.7,0.6-1.4,1.4-1.8,2.2
	c-2.7,4.8-1,10.9,3.8,13.6c1.6,0.9,3.5,1.4,5.4,1.3c2.4-0.3,4.7-0.9,6.8-2l18.3-7.9c3.1-1.3,6.4-2.9,7.9-6c0.2-0.3,0.2-0.6,0.2-0.9
	c-0.1-0.3-0.4-0.6-0.8-0.8c-4.1-2.7-7.7-6.1-10.7-10c-0.8-1-1.7-3.4-2.7-4C647.3,209.2,638.5,218.7,635.5,220.7z"/>
<path class="st7" d="M831,214.2l6.7,7.7c1.5,1.6,2.9,3.3,4.2,5.1c3.2,4.5,5.8,9.4,7.7,14.6c1.5,3.9,2.7,7.9,2.2,12
	c-0.3,2.1-0.9,4.1-1.7,6.1c-1.2,3.8-2.8,7.5-4.6,11c-1.5,2.7-3.3,5.3-5.2,7.7c-5.2,6.9-10.9,13.5-17.1,19.6c-2.3,2.3-3.3,6-4.3,9.1
	c-1.8,5.7-6.3,10.1-10.5,14.3c-1.4,1.4-2.9,2.8-4.5,3.9c-2.4,1.6-5.3,2.4-8.2,2.3c-1.3,0-2.5-0.3-3.7-0.8c-2.9-1.4-4.4-4.8-4.7-8
	c-0.3-2.9,0.2-5.8,1.4-8.5c3.9-8.6,13.8-12.3,20.8-18.5c4.1-3.7,7.3-8.3,10.4-12.8c2.1-2.8,3.9-5.9,5.3-9.2c1.6-4.2,1-9.1,2.3-13.4
	c0.6-1.8,1.6-3.4,2.2-5.2s0.8-3.9-0.3-5.4c-0.8-1-1.9-1.8-3-2.2c-4.5-2.3-9.5-5.2-10.4-10.2c-0.3-2.7,0.4-5.5,2-7.8
	c1.6-2.2,3.5-4.2,5.7-5.9C825.7,217.9,829,216,831,214.2z"/>
<path class="st7" d="M631.1,231.5c-1.2-2.4-2.7-4.9-5.1-6.1c-2.4-1-5-1-7.4,0c-2.3,1-4.5,2.3-6.5,3.9l-5.8,4.3
	c-1.3,0.9-2.5,1.9-3.5,3.2c-0.9,1.5-1.5,3.2-1.8,4.9c-1,4-1.3,8.1-0.9,12.2c0.9,6.6,4.9,12.3,9.2,17.3c2.7,3.1,6.1,6.3,10.2,6.4
	c1.8,0.1,3.8-0.6,4.5-2.3c0.3-0.6,0.4-1.3,0.4-2c0.5-7.3-2.2-14.5-5.2-21.1c-1-1.7-1.5-3.7-1.7-5.7c0-0.4,0.1-0.7,0.3-1
	c0.3-0.3,0.6-0.4,1-0.5c4.2-0.8,11.4,2.4,14.3-2.2C635.1,239.8,632.5,234.2,631.1,231.5z"/>
<path class="st1" d="M717,124.4c-0.1-0.6,0-1.2,0.3-1.8c0.7-1.2,2.4-0.9,3.7-0.5c5.3,1.3,10.9,0.1,16.3,0.4s11.6,3,12.7,8.4
	c4-2.8,7.4-6.3,10.1-10.3c1.5-2.3,2.8-4.9,2.6-7.6c-0.3-3.9-3.6-6.8-6.6-9.3l-9.1-7.4c-1.2-1.1-2.5-2-4-2.6
	c-2.1-0.7-4.4-0.4-6.6-0.4c-6.6,0-13.7-3-19.5,0c-2.5,1.3-4.3,3.4-6.1,5.5l-8.1,9.6c-0.6,0.6-1.1,1.4-1.3,2.2
	c-0.2,1.2,0.4,2.3,0.6,3.5c0.4,2.1-0.5,4.4,0.2,6.5c1.2,3.4,5.3,3.9,7.9,5.8c0.9,0.7,2.4,3.2,3.5,3.2C715.6,129.6,717,126,717,124.4
	z"/>
<path class="st1" d="M662,195.5c-1,0.7-2,1.5-2.7,2.5c-1,1.4-1.1,3.3-2,4.8c-1.8,3.3-5.8,4.4-8.4,7.1c-0.4,0.4-0.7,0.8-0.8,1.4
	c0,0.7,0.2,1.4,0.7,2l12.3,19.3c4.1,0.4,8-2.2,12.1-1.9c1.5,0.1,3.1,0.7,4.6,0.2c1.1-0.5,2-1.1,2.9-1.8c2.4-1.6,5.7-1.7,7.8-3.8
	s2.2-5,2.2-7.8c0-2.4-0.2-4.8-0.7-7.2c-1.8-7.4-7.5-13.1-11-19.7c-1.7-3.2-2.7-5.1-6.3-2.9S665.4,193,662,195.5z"/>
<path class="st1" d="M811.3,185.7c2.3,1.5,4.4,3.3,6.2,5.4c1.9,2.4,2.9,5.4,4.7,7.8s4.1,4.3,6.1,6.5c3,3.3,5,7.4,7,11.4
	c-4.9,6.4-10.2,12.4-15.9,18c-0.6,0.8-1.5,1.3-2.4,1.6c-1.3,0.1-2.6-0.4-3.4-1.4c-0.9-0.9-1.5-2.1-2.4-3c-2-2.1-4.7-3.4-7.5-3.6
	c-2.8-0.3-5.7-0.3-8.5-0.1c-0.6,0.1-1.3,0-1.8-0.3c-0.4-0.3-0.8-0.7-1-1.1c-3.3-5.7-2.3-12.8-1.1-19.2l2.7-14.8
	c0.4-2.8,1.1-5.6,2.2-8.3c1-2.2,3.3-5.9,6.1-5.2S808.9,184,811.3,185.7z"/>
<ellipse transform="matrix(0.3807 -0.9247 0.9247 0.3807 -75.0825 395.8469)" class="st13" cx="258" cy="254" rx="54" ry="54"/>
<path class="st14" d="M293,286.1l-68.1-65.4L293,286.1z"/>
<path class="st14" d="M292.4,220l-66.9,67L292.4,220z"/>
</svg>
