<svg id="aaafdec0-95c8-49a3-a8f8-64216c6da511" xmlns="http://www.w3.org/2000/svg" xmlns:xlink="http://www.w3.org/1999/xlink" viewBox="0 0 607.58 399.4"><defs><style>.cls-1,.cls-6{opacity:0.1;}.cls-1,.cls-10,.cls-6{isolation:isolate;}.cls-1{fill:url(#linear-gradient);}.cls-2{fill:#c5c7c9;}.cls-3{fill:#2f2e41;}.cls-10,.cls-4{fill:#42a5f5;}.cls-5{fill:none;stroke:#3f3d56;stroke-miterlimit:10;}.cls-7{fill:#3f3d56;}.cls-8{fill:#fbbebe;}.cls-9{fill:#fff;}.cls-10{opacity:0.3;}</style><linearGradient id="linear-gradient" x1="31.82" y1="192.49" x2="639.4" y2="192.49" gradientTransform="matrix(1, 0, 0, -1, -9.4, 406.95)" gradientUnits="userSpaceOnUse"><stop offset="0" stop-color="#ff8a65"/><stop offset="1" stop-color="#55abe5"/></linearGradient></defs><path class="cls-1" d="M585.85,342.5Q583,345,580,347.36c-.33.27-.68.53-1,.8a204.17,204.17,0,0,1-22.2,15l-1.45.84c-.34.22-.69.41-1,.61-8.07,4.66-16.44,8.94-24.91,13l-.09.05-.64.3q-10.25,4.92-20.8,9.4l-.17.07q-4.75,2-9.52,3.9c-1.29.53-2.59,1-3.89,1.52-2.45.94-4.9,1.86-7.38,2.74l-.31.12-.52.18-.67.24q-9.68,3.47-19.62,6.39h-.11q-6.93,2-14,3.74l-.64.16c-6.87,1.66-13.85,3.09-20.88,4.23l-1.62.26q-7.71,1.2-15.52,2c-29.29,2.83-58.92.53-88-3.42-58.77-8-116.77-22.92-169.66-46.35q-15.23-6.75-29.86-14.43a1,1,0,0,0-.23-.12Q116.53,344,108,339c-1.67-1-3.33-1.94-5-2.93-2-1.22-4-2.46-6-3.7q-4-2.48-7.93-5.08l-1.24-.82-.48-.32-2-1.36c-24.85-16.92-47-37.42-57.47-63.08-12.1-29.61-4.36-67.15,25.6-84.65,10.3-6,22.27-9.3,34.37-12l1.24-.27c2-.45,4.09-.89,6.13-1.32,7.13-1.51,14.3-3,21.4-4.69h0q5.55-1.31,11-2.78l1.49-.41a179.71,179.71,0,0,0,25.7-9.05h.05c.89-.4,1.78-.81,2.64-1.23.57-.27,1.13-.53,1.69-.82,9-4.47,18.5-10.68,25.82-18.07.59-.59,1.16-1.19,1.72-1.8s.85-.94,1.26-1.42c5.13-6,8.68-12.63,9.36-19.68h0a25.23,25.23,0,0,0-.32-7.1c-.83-4.44-1.63-8.78-2.22-13-1.11-8-1.48-15.56.05-22.89h0c1.56-7.48,5.1-14.68,11.85-21.66,1-1,2.11-2.11,3.29-3.17a69.33,69.33,0,0,1,18.31-11.57l2.49-1.05c18.55-7.51,40.84-9.08,61.66-8a334.71,334.71,0,0,1,57.76,8c1.51.33,3,.69,4.51,1.05a399.43,399.43,0,0,1,47.58,14.71C442.7,54,480.82,75.11,516.43,98.38l1.06.69c1.48,1,3,1.94,4.43,2.92q4.27,2.82,8.46,5.69l1.89,1.29,2.78,1.91,2.83,2h0a3.28,3.28,0,0,1,.38.27l2.41,1.67c1.4,1,2.78,2,4.17,2.93h0l3,2.12,1.86,1.33,3.17,2.32.71.53.44.32.09.06c8.59,6.31,17,12.85,24.85,19.78l1,.9.11.1c.85.76,1.71,1.53,2.55,2.31a171.4,171.4,0,0,1,27,30.49C644.14,229.23,633.89,300.23,585.85,342.5Z" transform="translate(-22.42 -14.76)"/><ellipse class="cls-2" cx="310.68" cy="338.63" rx="272.78" ry="18.06"/><path class="cls-3" d="M322.65,155.69c-44.45,0-76.36,28.51-76.36,95,0,75.41,31.91,95.37,76.36,95.37s78.25-21.86,78.25-95.37C400.9,172.16,367.09,155.69,322.65,155.69Zm.29,165.38c-30.78,0-46.86-18.06-46.86-70.29,0-46.08,16.74-70.38,47.52-70.38s47.52,16,47.52,70.38C371.12,301.69,353.72,321.07,322.94,321.07Z" transform="translate(-22.42 -14.76)"/><path class="cls-4" d="M219.68,293.51H201.31V239.39a10.84,10.84,0,0,0-10.84-10.83h-4.31a10.83,10.83,0,0,0-10.83,10.83h0v54.12H123.49a6.2,6.2,0,0,1-5.47-9.08L172.88,180.6A10.82,10.82,0,0,0,168.36,166l-.43-.22-3.24-1.53a10.83,10.83,0,0,0-14.18,4.69L83.6,294.06A14.69,14.69,0,0,0,81.86,301h0a14.7,14.7,0,0,0,14.7,14.69h78.77V349.9a13,13,0,0,0,13,13h0a13,13,0,0,0,13-13h0V315.68h18.37a11.08,11.08,0,0,0,11.09-11.09h0a11.08,11.08,0,0,0-11.09-11.08Z" transform="translate(-22.42 -14.76)"/><path class="cls-4" d="M560,293.51H541.57V239.39a10.83,10.83,0,0,0-10.83-10.83h-4.31a10.84,10.84,0,0,0-10.84,10.83h0v54.12H463.76a6.2,6.2,0,0,1-5.47-9.08L513.15,180.6A10.83,10.83,0,0,0,508.63,166l-.43-.22L505,164.21a10.85,10.85,0,0,0-14.19,4.69l-66.9,125.16a14.69,14.69,0,0,0-1.74,6.93h0a14.7,14.7,0,0,0,14.7,14.69h78.76V349.9a13,13,0,0,0,13,13h0a13,13,0,0,0,13-13h0V315.68H560A11.09,11.09,0,0,0,571,304.59h0A11.09,11.09,0,0,0,560,293.51Z" transform="translate(-22.42 -14.76)"/><path class="cls-5" d="M224.75,287.17H206.37V233.06a10.83,10.83,0,0,0-10.83-10.84h-4.31a10.83,10.83,0,0,0-10.83,10.84h0v54.11H128.56a6.2,6.2,0,0,1-5.47-9.08L178,174.26a10.83,10.83,0,0,0-4.52-14.64l-.43-.22-3.24-1.53a10.86,10.86,0,0,0-14.19,4.69L88.67,287.72a14.75,14.75,0,0,0-1.74,6.93h0a14.7,14.7,0,0,0,14.7,14.7H180.4v34.21a13,13,0,0,0,13,13h0a13,13,0,0,0,13-13h0V309.35h18.38a11.1,11.1,0,0,0,11.09-11.09h0A11.09,11.09,0,0,0,224.75,287.17Z" transform="translate(-22.42 -14.76)"/><path class="cls-5" d="M569.45,287.17H551.08V233.06a10.84,10.84,0,0,0-10.84-10.84h-4.3a10.84,10.84,0,0,0-10.84,10.84h0v54.11H473.27a6.18,6.18,0,0,1-5.47-9.08l54.85-103.83a10.83,10.83,0,0,0-4.51-14.64l-.44-.22-3.24-1.53a10.84,10.84,0,0,0-14.18,4.69L433.37,287.72a14.74,14.74,0,0,0-1.73,6.93h0a14.69,14.69,0,0,0,14.69,14.7H525.1v34.21a13,13,0,0,0,13,13h0a13,13,0,0,0,13-13h0V309.35h18.37a11.09,11.09,0,0,0,11.09-11.09h0a11.08,11.08,0,0,0-11.09-11.09Z" transform="translate(-22.42 -14.76)"/><path class="cls-5" d="M332.79,150c-44.45,0-76.36,28.51-76.36,95,0,75.41,31.91,95.37,76.36,95.37S411,318.53,411,245C411,166.46,377.23,150,332.79,150Zm.29,165.38c-30.78,0-46.87-18.06-46.87-70.29,0-46.08,16.74-70.38,47.53-70.38s47.52,16,47.52,70.38c0,50.91-17.4,70.29-48.18,70.29Z" transform="translate(-22.42 -14.76)"/><circle class="cls-3" cx="274.74" cy="64" r="6.67"/><ellipse class="cls-3" cx="291.01" cy="78.81" rx="18.71" ry="24.25"/><path class="cls-6" d="M313.43,110.49c-9.37,0-17.13-8.93-18.5-20.58a31.82,31.82,0,0,0-.21,3.66c0,13.39,8.38,24.24,18.71,24.24S332.15,107,332.15,93.57a31.82,31.82,0,0,0-.21-3.66C330.57,101.56,322.81,110.49,313.43,110.49Z" transform="translate(-22.42 -14.76)"/><path class="cls-7" d="M351.51,164.57c-.4,1.65-2.13,3-4.05,3.9-4,1.94-9,2.52-13.84,2.72a23.91,23.91,0,0,1-3.69-.07,10.68,10.68,0,0,1-6.34-2.91.88.88,0,0,1-.25-1.21.75.75,0,0,1,.27-.26c2.57-2.83,6.86-4.56,11.18-5.8,3.28-.95,9-3.4,12.56-3.07S352,162.49,351.51,164.57Z" transform="translate(-22.42 -14.76)"/><path class="cls-6" d="M351.51,164.57c-.4,1.65-2.13,3-4.05,3.9-4,1.94-9,2.52-13.84,2.72a23.91,23.91,0,0,1-3.69-.07,10.68,10.68,0,0,1-6.34-2.91.88.88,0,0,1-.25-1.21.75.75,0,0,1,.27-.26c2.57-2.83,6.86-4.56,11.18-5.8,3.28-.95,9-3.4,12.56-3.07S352,162.49,351.51,164.57Z" transform="translate(-22.42 -14.76)"/><path class="cls-7" d="M300.21,152.23a10.19,10.19,0,0,0-.61,7.79,13.57,13.57,0,0,0,4.56,6.47c5.22,4.18,12.41,4.76,19.1,4.7a146.92,146.92,0,0,0,17.53-1.2,21.41,21.41,0,0,0,5.69-1.32,8.76,8.76,0,0,0,4.88-4.93,6,6,0,0,0-1.62-6.5c-1.62-1.32-3.86-1.5-5.95-1.63l-11.94-.71a20,20,0,0,1,4.19-2.74c1.9-1.15,3.17-3.09,4.56-4.83a65.08,65.08,0,0,1,6.95-7.14,10.15,10.15,0,0,0,3.45,5.59c1.66,1.54,3.58,2.78,5.3,4.24,4.18,3.55,7.19,8.36,11.58,11.64a22.74,22.74,0,0,0,8.3-4.14l-1.71-3.1a2,2,0,0,0-.64-.8c-.48-.3-1.11-.14-1.67-.23-1.5-.22-2.15-1.95-2.74-3.35-1.62-3.84-4.71-6.82-7.36-10a49.67,49.67,0,0,1-5.16-7.61,26.36,26.36,0,0,0-2.91-4.66,6.56,6.56,0,0,0-4.72-2.47,9.11,9.11,0,0,0-4.51,1.65,120.6,120.6,0,0,0-12.22,8.32,28.11,28.11,0,0,1-6.46,4.23c-1,.41-2.07.69-3,1.18a20.29,20.29,0,0,0-4.36,3.66A29,29,0,0,1,300.21,152.23Z" transform="translate(-22.42 -14.76)"/><path class="cls-8" d="M325.18,119a12.35,12.35,0,0,1-.9,4.15,5.18,5.18,0,0,1-3,2.88,6.36,6.36,0,0,1-2.91.1,5.72,5.72,0,0,1-2.37-.81,5.07,5.07,0,0,1-1.88-3.49c-.2-1.34-.11-2.71-.24-4.06a22.31,22.31,0,0,0-.62-3.24l-.27-1c-.08-.36-.17-.71-.25-1.06s-.13-.66-.19-1-.09-.57-.12-.85a9.55,9.55,0,0,0-.42-2.49,7.87,7.87,0,0,0-.87-1.48c-.15-.21-.29-.42-.42-.64a3,3,0,0,1-.51-1.94,1.77,1.77,0,0,1,.08-.31s0-.08,0-.11a.94.94,0,0,0,.64-.6,1.8,1.8,0,0,0-.08-.92,6.12,6.12,0,0,0-.49-1.18c-.14-.25-.6-.69-.61-1,0-.57,1.11-1,1.56-1.25a8.68,8.68,0,0,1,4.45-.9A3.29,3.29,0,0,1,318.41,99a7.88,7.88,0,0,1,.63,2.57.75.75,0,0,0,.16.35.66.66,0,0,0,.38.17,2.24,2.24,0,0,0,.73,0h0a.58.58,0,0,0,.19,0,2.56,2.56,0,0,0,1.06-.45,6,6,0,0,1,.61-.13h0c.82,2.58.92,5.33,1.59,8a20.89,20.89,0,0,1,.87,3.94c0,.05,0,.11,0,.17,0,.44,0,.87,0,1.3a3.83,3.83,0,0,0,.07.58,7.69,7.69,0,0,0,.27.9h0l.09.29a1.55,1.55,0,0,1,0,.21h0A8,8,0,0,1,325.18,119Z" transform="translate(-22.42 -14.76)"/><circle class="cls-8" cx="291.34" cy="77.83" r="9.6"/><path class="cls-8" d="M374.71,144.9a15.71,15.71,0,0,0-2.71-7.29l.75,4.44a1.67,1.67,0,0,1-1.74-.54,5.42,5.42,0,0,1-.91-1.69,34.7,34.7,0,0,0-4.25-7.62c-6.11-.51-12.15-3-17.52-6s-10.41-6.49-15.72-9.57a23.31,23.31,0,0,0-2.86-1.46c-1.66-.67-3.53-1-5.1-1.79l-.32-.17a6.71,6.71,0,0,1-1-.67,5.11,5.11,0,0,1-.48-.45A10.32,10.32,0,0,1,321,109c-.85-1.87-1.15-4.13-2-6a5.61,5.61,0,0,1,1.29-.92h0l.21-.1a6.14,6.14,0,0,1,1-.38,6,6,0,0,1,.61-.13h0a6.07,6.07,0,0,1,2.84.23,12.84,12.84,0,0,1,3.59,2.21,60.28,60.28,0,0,1,5.25,4.16c.92.89,1.77,1.87,2.77,2.67a22.77,22.77,0,0,0,2.61,1.74l16.2,9.64c1.82,1.09,3.65,2.18,5.44,3.33,2.71,1.75,5.33,3.65,7.95,5.54l4.62,3.35a5.4,5.4,0,0,1,1.31,1.21,4.5,4.5,0,0,1,.58,1.78A16.25,16.25,0,0,1,374.71,144.9Z" transform="translate(-22.42 -14.76)"/><path class="cls-4" d="M327.56,126.24c-.65,2.9-3.58,4.66-5.12,7.21-1.9,3.17-1.13,6.85-.41,10.47l-3.93,3.39c-.72.62-1.44,1.24-2.22,1.79a29.67,29.67,0,0,1-3.55,2l-3.47,1.78a16.81,16.81,0,0,1-3.41,1.45,13.14,13.14,0,0,1-7-.51,3,3,0,0,1-.76-.31,1,1,0,0,1-.36-.33,1.93,1.93,0,0,1-.23-1.31,62.17,62.17,0,0,1,2.08-11.21,44.49,44.49,0,0,1,2-6.51,44,44,0,0,1,2.8-5.25,35.74,35.74,0,0,1,4.1-6,9.6,9.6,0,0,0,1.9-2.45c.58-1.32.36-2.83.47-4.27a8.78,8.78,0,0,1,.85-3.1h0a9.08,9.08,0,0,1,.9-1.49c.16.37.32.74.47,1.11s.21.48.31.72.27.61.4.92l1.14,2.64a11.11,11.11,0,0,0,1.72,3.08,3.37,3.37,0,0,0,4.69.8A3.33,3.33,0,0,0,322,119.7a10.86,10.86,0,0,0,1.18-3.11,10.05,10.05,0,0,0,.13-4,47.94,47.94,0,0,0-2.3-7.65,7.74,7.74,0,0,1-.55-2.52c0-.09,0-.19,0-.29l0-.07a6.14,6.14,0,0,1,1-.38,6,6,0,0,1,.61-.13q1.05,5.72,2.11,11.44a2.56,2.56,0,0,1,.05.27c.1.55.21,1.1.32,1.64s.21,1,.34,1.48h0c0,.17.09.33.13.5h0c.12.45.26.9.42,1.34C326.51,120.82,328.17,123.49,327.56,126.24Z" transform="translate(-22.42 -14.76)"/><path class="cls-7" d="M366.52,167.06a3.36,3.36,0,0,0,.32,1.62c.6,1.1,2,1.35,3.29,1.45a97.48,97.48,0,0,0,21.86-.66,2.58,2.58,0,0,0,1.11-.35c1-.72.39-2.48-.73-3s-2.46-.43-3.69-.67a11.66,11.66,0,0,1-3.45-1.5c-2.5-1.44-5-2.93-7.4-4.49-1.44-.93-3.15-1.92-4.77-1.37C368.65,159.54,366.49,162.3,366.52,167.06Z" transform="translate(-22.42 -14.76)"/><path class="cls-8" d="M312.8,112.24h0a1.18,1.18,0,0,1,0,.2,2.21,2.21,0,0,1-.06.34c-.2,1-.45,2.06-.73,3.08-.78,2.82-1.83,5.6-2.87,8.34q-4.17,11-8.35,22c-.71,1.85-1.41,3.7-2.21,5.51-.26.61-.54,1.22-.81,1.83a25.73,25.73,0,0,0-2.24,6.82,14.08,14.08,0,0,0-.09,4.67,4.79,4.79,0,0,0,2.7,3.61c.71.28,1.73.65,1.54,1.39a1.11,1.11,0,0,1-1,.67,3.76,3.76,0,0,1-3.08-.88c-.78-.7-1.38-1.77-2.42-1.89a4,4,0,0,0-2,.66c-2.68,1.22-5.81.36-8.62-.51A3,3,0,0,1,285,166a21.12,21.12,0,0,1,3.47-.1,1.77,1.77,0,0,0,1.06-.27,2,2,0,0,0,.57-1,40.64,40.64,0,0,0,1.66-6.8c.38-2.41.53-4.86,1.07-7.25.41-1.86,1.05-3.66,1.6-5.48a114.4,114.4,0,0,0,2.62-11.42,41.91,41.91,0,0,0,.74-4.84c.09-1.35,0-2.71.17-4.06a31.5,31.5,0,0,1,1.1-5.17q.74-2.76,1.49-5.52c.74-2.73,1.53-5.56,3.39-7.68a7.26,7.26,0,0,1,5.19-2.48,5.08,5.08,0,0,1,1.1.12l.18,0a4.47,4.47,0,0,1,1.13.46c.57-.36.87-.23,1.25.33a3.63,3.63,0,0,1,.45,2A26.33,26.33,0,0,1,312.8,112.24Z" transform="translate(-22.42 -14.76)"/><path class="cls-4" d="M313.43,114.4l0,0-.13.13L312,115.86l-.64-2.69-2.2-9.24a5.08,5.08,0,0,1,1.1.12,1.77,1.77,0,0,1,.08-.31l.1.36.75,2.53,1.41,4.82.23.79h0Z" transform="translate(-22.42 -14.76)"/><path class="cls-3" d="M321.74,84.94a6.51,6.51,0,0,1-1.92,4.6,6.8,6.8,0,0,1-.7.61,6.52,6.52,0,0,1-3.9,1.31h-7.8a6.52,6.52,0,0,1,0-13h7.8A6.54,6.54,0,0,1,321.74,84.94Z" transform="translate(-22.42 -14.76)"/><circle class="cls-3" cx="306.63" cy="64" r="6.67"/><path class="cls-6" d="M328.89,72.09h-.24a6.67,6.67,0,0,1,0,13.33h.24a6.67,6.67,0,1,0,0-13.34Z" transform="translate(-22.42 -14.76)"/><path class="cls-6" d="M297.16,72.09h.25a6.67,6.67,0,0,0,0,13.33h-.25a6.67,6.67,0,0,1,0-13.34Z" transform="translate(-22.42 -14.76)"/><path class="cls-6" d="M319.12,90.15a6.52,6.52,0,0,1-3.9,1.31h-7.8a6.52,6.52,0,0,1-3.9-1.31Z" transform="translate(-22.42 -14.76)"/><path class="cls-8" d="M369.53,138.49s1.68,4.85,3.22,3.56l-1.22-6.34Z" transform="translate(-22.42 -14.76)"/><path class="cls-4" d="M574.2,286.28a10.76,10.76,0,1,0,1.43-20.64l.27,5.54-2.62-4.75a10.7,10.7,0,0,0-5.52,6.07,10,10,0,0,0-.62,2.91A10.76,10.76,0,0,0,574.2,286.28Z" transform="translate(-22.42 -14.76)"/><path class="cls-5" d="M587.17,350.53c-.93-4.71,3.08-8.89,7-11.6s8.59-5.38,9.94-10c1.94-6.62-3.84-12.68-8.35-17.91a65.09,65.09,0,0,1-8.54-12.7,17.29,17.29,0,0,1-2-5.78c-.36-2.93.58-5.85,1.53-8.65q4.75-14,10.15-27.75" transform="translate(-22.42 -14.76)"/><path class="cls-5" d="M574.64,284.86a10.76,10.76,0,1,0,1.44-20.64l.26,5.54L573.72,265a10.76,10.76,0,0,0,.92,19.85Z" transform="translate(-22.42 -14.76)"/><path class="cls-4" d="M585.85,254.24a10.73,10.73,0,0,1,7.75-6.82l.88,5.26,1.65-5.53a10.75,10.75,0,1,1-10.28,7.09Z" transform="translate(-22.42 -14.76)"/><path class="cls-5" d="M586.44,252.34a10.76,10.76,0,0,1,7.75-6.83l.89,5.27,1.64-5.53a10.75,10.75,0,1,1-10.28,7.09Z" transform="translate(-22.42 -14.76)"/><path class="cls-4" d="M593.92,311.13A10.76,10.76,0,0,0,603.44,292l-1.26,4.25-.9-5.33h0a10.76,10.76,0,0,0-7.35,20.23Z" transform="translate(-22.42 -14.76)"/><path class="cls-5" d="M594.43,309.21A10.76,10.76,0,0,0,604,290.06l-1.26,4.25-.9-5.33h0a10.76,10.76,0,0,0-7.35,20.23Z" transform="translate(-22.42 -14.76)"/><path class="cls-4" d="M582.71,329a10.75,10.75,0,1,0,2.07-8.43l4.8,7.22L583,324A10.63,10.63,0,0,0,582.71,329Z" transform="translate(-22.42 -14.76)"/><path class="cls-5" d="M583.15,327.58a10.77,10.77,0,1,0,2.08-8.43l4.79,7.22-6.55-3.83A10.63,10.63,0,0,0,583.15,327.58Z" transform="translate(-22.42 -14.76)"/><path class="cls-4" d="M58.18,312.5a7.07,7.07,0,1,0,.94-13.56l.18,3.64-1.72-3.12a7.07,7.07,0,0,0,.6,13Z" transform="translate(-22.42 -14.76)"/><path class="cls-5" d="M66.7,354.71c-.61-3.09,2-5.84,4.63-7.62s5.64-3.54,6.53-6.56c1.27-4.35-2.53-8.34-5.48-11.77a42.42,42.42,0,0,1-5.62-8.35,11.37,11.37,0,0,1-1.34-3.79,13.21,13.21,0,0,1,1-5.69q3.12-9.18,6.67-18.22" transform="translate(-22.42 -14.76)"/><path class="cls-5" d="M58.47,311.56a7.07,7.07,0,1,0,4.83-13.29,7.15,7.15,0,0,0-3.89-.27l.18,3.64-1.72-3.12a7.05,7.05,0,0,0-3.63,4,6.86,6.86,0,0,0-.41,1.91A7.06,7.06,0,0,0,58.47,311.56Z" transform="translate(-22.42 -14.76)"/><path class="cls-4" d="M65.84,291.45A7.06,7.06,0,0,1,70.93,287l.58,3.46,1.08-3.63a7.07,7.07,0,1,1-7.18,7A7.27,7.27,0,0,1,65.84,291.45Z" transform="translate(-22.42 -14.76)"/><path class="cls-5" d="M66.23,290.2a7,7,0,0,1,5.08-4.48l.59,3.46L73,285.54a7.1,7.1,0,1,1-6.75,4.66Z" transform="translate(-22.42 -14.76)"/><path class="cls-4" d="M71.13,328.83a7.07,7.07,0,0,0,6.26-12.58L76.56,319l-.58-3.5h0a7.07,7.07,0,1,0-4.84,13.29Z" transform="translate(-22.42 -14.76)"/><path class="cls-5" d="M71.47,327.56A7.07,7.07,0,0,0,77.73,315l-.83,2.8-.59-3.5h0a7.07,7.07,0,0,0-4.82,13.29Z" transform="translate(-22.42 -14.76)"/><path class="cls-4" d="M63.77,340.57A7.07,7.07,0,1,0,65.14,335l3.15,4.75L64,337.26A7.14,7.14,0,0,0,63.77,340.57Z" transform="translate(-22.42 -14.76)"/><path class="cls-5" d="M64.06,339.63a7.08,7.08,0,1,0,1.37-5.53l3.15,4.74-4.31-2.52A7.14,7.14,0,0,0,64.06,339.63Z" transform="translate(-22.42 -14.76)"/><ellipse class="cls-3" cx="279.81" cy="219.59" rx="8.79" ry="11.38"/><ellipse class="cls-3" cx="327.65" cy="219.85" rx="8.79" ry="11.38"/><path class="cls-3" d="M343.34,268.22c0,5.14-7.17,9.31-16,9.31s-16-4.17-16-9.31c0-4.45,5.39-8.18,12.58-9.09a26.53,26.53,0,0,1,3.45-.22,25.93,25.93,0,0,1,5.76.62C339.08,260.87,343.34,264.26,343.34,268.22Z" transform="translate(-22.42 -14.76)"/><ellipse class="cls-5" cx="281.88" cy="217" rx="8.79" ry="11.38"/><ellipse class="cls-5" cx="329.71" cy="217.26" rx="8.79" ry="11.38"/><ellipse class="cls-5" cx="306.96" cy="250.87" rx="16.03" ry="9.31"/><path class="cls-9" d="M333.26,260.31a2.58,2.58,0,0,1-.68,1.75,2.28,2.28,0,0,1-1.65.73h-5.17a2.41,2.41,0,0,1-2.32-2.48,2.46,2.46,0,0,1,.42-1.42,25.26,25.26,0,0,1,9.21.42A2.65,2.65,0,0,1,333.26,260.31Z" transform="translate(-22.42 -14.76)"/><circle class="cls-9" cx="281.88" cy="213.9" r="2.59"/><circle class="cls-9" cx="329.97" cy="213.9" r="2.59"/><circle class="cls-10" cx="332.56" cy="238.2" r="2.59"/><circle class="cls-10" cx="269.47" cy="238.2" r="2.59"/></svg>