<svg id="aaafdec0-95c8-49a3-a8f8-64216c6da511" xmlns="http://www.w3.org/2000/svg" xmlns:xlink="http://www.w3.org/1999/xlink" viewBox="0 0 626.37 443"><defs><style>.cls-1{opacity:0.18;isolation:isolate;fill:url(#linear-gradient);}.cls-2{fill:#3f3d56;}.cls-3{fill:#ffb8b8;}.cls-4{fill:#cfcce0;}.cls-5{fill:#2f2e41;}.cls-6{fill:#575a89;}.cls-7{fill:#42a5f5;}</style><linearGradient id="linear-gradient" x1="132.63" y1="442.5" x2="759" y2="442.5" gradientTransform="translate(0 -212)" gradientUnits="userSpaceOnUse"><stop offset="0" stop-color="#ff8a65"/><stop offset="1" stop-color="#55abe5"/></linearGradient></defs><path class="cls-1" d="M746.26,422.94a60.4,60.4,0,0,1-12.84,13.22c-23.9,18-60.28,18.59-92.07,11.94s-61.9-19.22-93.92-24.76c-50.91-8.7-102.48,1.19-152.2,11.08S293.94,454.35,243,445.89C195,438,147.49,408.94,135.54,369a64,64,0,0,1-1.77-7.51C123,301.51,192.05,252.31,192.2,192c.07-16.85-5.39-33.55-6.86-50.4-5-56.4,39.54-111.62,102.18-126.89C397.44-12.07,508.18,65,621.13,57c112.66-7.91,123.72,38.13,106.09,129.42a203.78,203.78,0,0,0,4.43,94.38c7.67,26.81,20.88,52.68,25.67,80C761.16,382.05,758.8,405.3,746.26,422.94Z" transform="translate(-132.63 -9)"/><rect class="cls-2" x="69.51" y="370.68" width="464.72" height="1.08"/><path class="cls-3" d="M493.71,194.61s-20.84,16.38-10.42,20.1,17.12-13.4,17.12-13.4Z" transform="translate(-132.63 -9)"/><path class="cls-4" d="M494.46,188.66,490,196.1s7.45,0,8.94,11.17l5.95-7.45Z" transform="translate(-132.63 -9)"/><polygon class="cls-3" points="460.84 349.39 461.59 371.72 452.65 376.93 448.93 374.7 449.68 349.39 460.84 349.39"/><path class="cls-3" d="M540.61,352.43l1.49,23.83-20.84,8.93,1.49-12.66s6-9.67,4.46-20.1Z" transform="translate(-132.63 -9)"/><path class="cls-5" d="M572.63,173s11.91,31.27,14.14,50.62,6,70.73,6,70.73l7.44,66.25-20.84,3-8.94-67-20.1-66.26-4.46,66.26-3.73,60.3-19.35.75-1.49-62.54-8.19-79.65,4.47-38Z" transform="translate(-132.63 -9)"/><path class="cls-5" d="M583.79,382.21s1.22-12.5,10.29-5.51l1.62-1.19,7.45,16.38s8.93,12.66-6.7,14.14-14.15-14.14-14.15-14.14l-1.49-6.7.75-4.39Z" transform="translate(-132.63 -9)"/><path class="cls-5" d="M540.61,367.32a11.82,11.82,0,0,1,6,10.43c0,7.44-.74,8.18-.74,8.18l-11.17,3s-7.45-.74-11.91,3.72-26.8,7.45-26.8,1.49,18.61-15.63,18.61-15.63,5.53-9.33,9.46-8.39,5.43,2.43,5.43,3.18-2.24,6-2.24,6S539.87,376.26,540.61,367.32Z" transform="translate(-132.63 -9)"/><circle class="cls-3" cx="406.5" cy="53.84" r="18.61"/><path class="cls-3" d="M552.9,67.68l8.19,18.61-22.34,32s-1.49-35-6-40.94S552.9,67.68,552.9,67.68Z" transform="translate(-132.63 -9)"/><polygon class="cls-4" points="409.85 97.39 413.57 87.72 416.55 88.46 420.27 85.48 425.48 69.11 432.93 74.32 442.6 171.84 382.3 173.33 390.49 105.58 397.94 86.23 403.31 79.12 406.87 89.95 409.85 97.39"/><path class="cls-6" d="M559.6,148.08l2.28-67.34s4.42.34,5.91,2.58S593.84,90,593.84,90l-4.46,69.23s18.61,55.09,11.91,58.07-18.61,2.23-18.61,2.23Z" transform="translate(-132.63 -9)"/><path class="cls-6" d="M523.49,139.52l7.9-45.38L513.81,106l4.47,32.76-3.72,22.33s-14.15,61.79-9.68,64,9.68,0,9.68,0l8.93-62.53Z" transform="translate(-132.63 -9)"/><path class="cls-6" d="M519,104.53,513.81,106l-2.23,29.78-3.72,26.06-17.87,32s8.94-6,12.66,11.16l19.67-34.25Z" transform="translate(-132.63 -9)"/><path class="cls-3" d="M577.09,188.66s-20.84,16.37-10.42,20.1,17.12-13.4,17.12-13.4Z" transform="translate(-132.63 -9)"/><polygon class="cls-4" points="457.12 187.84 450.42 196.03 441.49 180.4 445.21 173.7 457.12 187.84"/><path class="cls-6" d="M588.26,92.62l6-3s4.47,6,5.22,11.17,4.46,11.91,4.46,15.63,10.43,38.72,10.43,38.72l-23.83,48.38s-5.21-17.86-16.38-19.35l18.62-26.06L582.3,139.52Z" transform="translate(-132.63 -9)"/><path class="cls-5" d="M554.71,45.11l3.51-1.4s-7.34-8.08-17.55-7.38l2.87-3.16s-7-2.81-13.4,4.56c-3.36,3.88-7.24,8.44-9.66,13.57h-3.75l1.56,3.46-5.49,3.45,5.64-.62a19,19,0,0,0-.15,5.73A7.39,7.39,0,0,0,521,68.17h0s4.35-9,4.35-10.41v3.51s3.51-3.16,3.51-5.27l1.92,2.46,1-3.87,11.81,3.87-1.91-3.16L549,56.35l-2.87-3.86s8.3,4.56,8.62,8.43a18.6,18.6,0,0,0,2.74,7.52S564,50.38,554.71,45.11Z" transform="translate(-132.63 -9)"/><ellipse class="cls-3" cx="421.76" cy="50.87" rx="2.08" ry="2.61"/><polygon class="cls-7" points="155.66 177.08 91.39 177.08 91.39 159.07 124.94 159.07 155.66 177.08"/><path class="cls-2" d="M223.84,183.61v52.61H432.52V183.61Zm81.39,43.78H237.44V220h67.79Zm113.7-13.77H237.44V206.2H418.93Zm0-13.77H237.44v-7.42H418.93Z" transform="translate(-132.63 -9)"/><polygon class="cls-7" points="155.66 91.98 91.39 91.98 91.39 73.97 124.94 73.97 155.66 91.98"/><path class="cls-2" d="M223.84,99.57v52.61H432.52V99.57Zm81.39,43.78H237.44v-7.41h67.79Zm39.2-13.77h-107v-7.41h107Zm74.5-13.77H237.44V108.4H418.93Z" transform="translate(-132.63 -9)"/><polygon class="cls-7" points="155.66 260.41 91.39 260.41 91.39 242.4 124.94 242.4 155.66 260.41"/><path class="cls-2" d="M223.84,265.88v52.61H432.52V265.88Zm120.59,43.78h-107v-7.41h107Zm0-13.77h-107v-7.41h107Zm74.5-13.77H237.44v-7.41H418.93Z" transform="translate(-132.63 -9)"/><polygon class="cls-2" points="359.04 131.53 329.38 131.53 329.38 101.87 349.51 101.87 349.51 102.57 330.09 102.57 330.09 130.82 358.34 130.82 358.34 116.7 359.04 116.7 359.04 131.53"/><path class="cls-7" d="M476.69,132.79c-.69-2-9.28-8.9-4-10.06l4.32,5.76,19.86-19.86,2,2Z" transform="translate(-132.63 -9)"/><polygon class="cls-2" points="359.04 215.57 329.38 215.57 329.38 185.91 349.51 185.91 349.51 186.61 330.09 186.61 330.09 214.86 358.34 214.86 358.34 200.74 359.04 200.74 359.04 215.57"/><path class="cls-7" d="M476.69,216.83c-.69-2-9.28-8.9-4-10.06l4.32,5.76,19.86-19.86,2,2Z" transform="translate(-132.63 -9)"/><polygon class="cls-2" points="359.04 299.25 329.38 299.25 329.38 269.59 349.51 269.59 349.51 270.3 330.09 270.3 330.09 298.54 358.34 298.54 358.34 284.42 359.04 284.42 359.04 299.25"/><path class="cls-7" d="M476.69,300.51c-.69-2-9.28-8.9-4-10.06l4.32,5.76,19.86-19.85,2,2Z" transform="translate(-132.63 -9)"/></svg>