<svg id="aaafdec0-95c8-49a3-a8f8-64216c6da511" xmlns="http://www.w3.org/2000/svg" xmlns:xlink="http://www.w3.org/1999/xlink" viewBox="0 0 68.97 61.79"><defs><style>.cls-1{opacity:0.18;isolation:isolate;fill:url(#linear-gradient);}</style><linearGradient id="linear-gradient" x1="25.24" y1="422.09" x2="94.21" y2="422.09" gradientTransform="translate(-23.04 -385.2)" gradientUnits="userSpaceOnUse"><stop offset="0" stop-color="#ff8a65"/><stop offset="1" stop-color="#55abe5"/></linearGradient></defs><path class="cls-1" d="M69.77,63.74a7.73,7.73,0,0,1-1.41,1.84c-2.63,2.52-6.64,2.59-10.14,1.67s-6.81-2.68-10.34-3.46c-5.61-1.21-11.29.17-16.76,1.55S20,68.12,14.35,66.93C9.07,65.83,3.84,61.78,2.52,56.21c-.08-.34-.14-.69-.19-1.05C1.14,46.8,8.75,39.93,8.76,31.51c0-2.35-.59-4.67-.75-7-.55-7.87,4.35-15.57,11.25-17.7,12.1-3.73,24.3,7,36.73,5.9s13.63,5.33,11.68,18a35.85,35.85,0,0,0,.49,13.17c.85,3.74,2.3,7.35,2.83,11.16A14.14,14.14,0,0,1,69.77,63.74Z" transform="translate(-2.2 -6)"/></svg>