<svg id="aaafdec0-95c8-49a3-a8f8-64216c6da511" xmlns="http://www.w3.org/2000/svg" xmlns:xlink="http://www.w3.org/1999/xlink" viewBox="0 0 626.37 443"><defs><style>.cls-1{opacity:0.18;isolation:isolate;fill:url(#linear-gradient);}.cls-2{fill:none;stroke:#3ad29f;stroke-miterlimit:10;stroke-width:2px;stroke-dasharray:12;}.cls-3{fill:url(#linear-gradient-2);}.cls-4{fill:#be7c5e;}.cls-5{fill:url(#linear-gradient-3);}.cls-6{fill:url(#linear-gradient-4);}.cls-7{fill:#fff;}.cls-8{fill:#42a5f5;}.cls-9{fill:#dbdbdb;}.cls-10{fill:url(#linear-gradient-5);}.cls-11{fill:url(#linear-gradient-6);}.cls-12{fill:#4d8af0;}.cls-13{fill:url(#linear-gradient-7);}.cls-14{fill:url(#linear-gradient-8);}.cls-15{opacity:0.5;}.cls-16{fill:url(#linear-gradient-9);}.cls-17{fill:#69f0ae;}.cls-18{fill:url(#linear-gradient-10);}</style><linearGradient id="linear-gradient" x1="132.63" y1="442.5" x2="759" y2="442.5" gradientTransform="translate(0 -212)" gradientUnits="userSpaceOnUse"><stop offset="0" stop-color="#ff8a65"/><stop offset="1" stop-color="#55abe5"/></linearGradient><linearGradient id="linear-gradient-2" x1="692.34" y1="112.2" x2="692.34" y2="254.88" gradientTransform="matrix(1, 0, 0, -1, -238.99, 507.78)" gradientUnits="userSpaceOnUse"><stop offset="0" stop-color="gray" stop-opacity="0.25"/><stop offset="0.54" stop-color="gray" stop-opacity="0.12"/><stop offset="1" stop-color="gray" stop-opacity="0.1"/></linearGradient><linearGradient id="linear-gradient-3" x1="604.38" y1="356.71" x2="604.38" y2="430.38" xlink:href="#linear-gradient-2"/><linearGradient id="linear-gradient-4" x1="670.58" y1="179.42" x2="670.58" y2="466.53" gradientTransform="matrix(1, 0, 0, -1, -371.62, 498.77)" xlink:href="#linear-gradient-2"/><linearGradient id="linear-gradient-5" x1="759.55" y1="206.19" x2="759.55" y2="342.98" xlink:href="#linear-gradient-2"/><linearGradient id="linear-gradient-6" x1="716.16" y1="93.98" x2="716.16" y2="128.02" gradientTransform="matrix(1, 0, 0, -1, -371.62, 498.77)" xlink:href="#linear-gradient-2"/><linearGradient id="linear-gradient-7" x1="592.31" y1="254.9" x2="592.31" y2="315.78" xlink:href="#linear-gradient-2"/><linearGradient id="linear-gradient-8" x1="589.93" y1="204.44" x2="589.93" y2="258.47" xlink:href="#linear-gradient-2"/><linearGradient id="linear-gradient-9" x1="431.58" y1="350.83" x2="431.58" y2="439.57" gradientTransform="matrix(1, 0, 0, -1, -132.63, 571)" xlink:href="#linear-gradient-2"/><linearGradient id="linear-gradient-10" x1="596.83" y1="305.01" x2="596.83" y2="372.62" xlink:href="#linear-gradient-2"/></defs><path class="cls-1" d="M746.26,422.94a60.4,60.4,0,0,1-12.84,13.22c-23.9,18-60.28,18.59-92.07,11.94s-61.9-19.22-93.92-24.76c-50.91-8.7-102.48,1.19-152.2,11.08S293.94,454.35,243,445.89C195,438,147.49,408.94,135.54,369a64,64,0,0,1-1.77-7.51C123,301.51,192.05,252.31,192.2,192c.07-16.85-5.39-33.55-6.86-50.4-5-56.4,39.54-111.62,102.18-126.89C397.44-12.07,508.18,65,621.13,57c112.66-7.91,123.72,38.13,106.09,129.42a203.78,203.78,0,0,0,4.43,94.38c7.67,26.81,20.88,52.68,25.67,80C761.16,382.05,758.8,405.3,746.26,422.94Z" transform="translate(-132.63 -9)"/><circle class="cls-2" cx="303.14" cy="227.4" r="146.52"/><circle class="cls-2" cx="303.14" cy="227.4" r="177.6"/><path class="cls-3" d="M554.63,293a40.06,40.06,0,0,0-79.43-7.47l-123.13-3.34,1.35,21.15s-17.56,40.52,74.72,51.31v40.95H534.82V327.5A40,40,0,0,0,554.63,293Z" transform="translate(-132.63 -9)"/><path class="cls-4" d="M357.65,304.21s-16.82,38.8,71.56,49.15v39.23H531.37V288.7l-175-4.75Z" transform="translate(-132.63 -9)"/><path class="cls-5" d="M408.71,142.31h0a18.83,18.83,0,0,1-25.9,5.88L328,112.05a18.83,18.83,0,0,1-5.88-25.9h0A18.84,18.84,0,0,1,348,80.26l54.85,36.15A18.84,18.84,0,0,1,408.71,142.31Z" transform="translate(-132.63 -9)"/><path class="cls-4" d="M405.67,140.34h0a17.52,17.52,0,0,1-24.08,5.47l-51-33.63a17.49,17.49,0,0,1-5.47-24.07h0a17.51,17.51,0,0,1,24.07-5.48l51,33.61A17.51,17.51,0,0,1,405.67,140.34Z" transform="translate(-132.63 -9)"/><circle class="cls-4" cx="379.35" cy="285.3" r="38.37"/><rect class="cls-6" x="219.43" y="32.24" width="159.06" height="287.11" rx="6.04"/><rect class="cls-7" x="221.57" y="36.13" width="154.76" height="279.35" rx="6.73"/><path class="cls-8" d="M470.46,52.13A12.55,12.55,0,0,1,458.09,62.8H404.64a12.54,12.54,0,0,1-12.36-10.67H364A5.88,5.88,0,0,0,358.08,58h0V311.59a5.89,5.89,0,0,0,5.87,5.88H499.2a5.87,5.87,0,0,0,5.88-5.87h0V58a5.87,5.87,0,0,0-5.87-5.88H470.46Z" transform="translate(-132.63 -9)"/><rect class="cls-9" x="281.93" y="46.47" width="34.49" height="2.16" rx="0.99"/><circle class="cls-9" cx="323.74" cy="47.33" r="1.29"/><path class="cls-10" d="M536.78,301.07h0c-11.13,2.57-18.78-4.69-21.35-15.82l-25.59-95a20.84,20.84,0,0,1,15.57-24.92h0a20.84,20.84,0,0,1,24.92,15.56l20.88,97.46C553.78,289.48,547.91,298.49,536.78,301.07Z" transform="translate(-132.63 -9)"/><path class="cls-4" d="M506.52,170.14h0a17.46,17.46,0,0,1,20.94,13.08L551,285A17.45,17.45,0,0,1,537.9,306h0A17.45,17.45,0,0,1,517,292.9L493.43,191.08A17.46,17.46,0,0,1,506.52,170.14Z" transform="translate(-132.63 -9)"/><rect class="cls-11" x="271.53" y="370.75" width="146.03" height="34.04"/><rect class="cls-12" x="275.47" y="374.7" width="138.14" height="26.64"/><path class="cls-13" d="M387.42,244.22h0A18.61,18.61,0,0,1,361.83,250L325,226.24a18.61,18.61,0,0,1-5.82-25.59h0a18.61,18.61,0,0,1,25.59-5.82l36.79,23.8A18.61,18.61,0,0,1,387.42,244.22Z" transform="translate(-132.63 -9)"/><path class="cls-14" d="M378.18,294.61h0a18.77,18.77,0,0,1-25.82,5.87l-22.79-16.61A18.78,18.78,0,0,1,323.7,258h0a18.78,18.78,0,0,1,25.82-5.87l22.79,16.62A18.78,18.78,0,0,1,378.18,294.61Z" transform="translate(-132.63 -9)"/><g class="cls-15"><circle class="cls-16" cx="298.95" cy="175.8" r="44.37"/></g><circle class="cls-17" cx="298.95" cy="175.8" r="41.76"/><polygon class="cls-7" points="280.83 170.23 296.49 184.58 318.67 151.96 326.51 158.49 296.49 197.64 274.3 172.84 280.83 170.23"/><path class="cls-4" d="M376.34,293.37h0a17.5,17.5,0,0,1-24.08,5.47L331,283.37a17.5,17.5,0,0,1-5.47-24.07h0a17.51,17.51,0,0,1,24.08-5.47l21.24,15.5A17.5,17.5,0,0,1,376.34,293.37Z" transform="translate(-132.63 -9)"/><path class="cls-4" d="M385.39,242.92h0a17.5,17.5,0,0,1-24.07,5.47L326.7,226a17.51,17.51,0,0,1-5.47-24.07h0a17.52,17.52,0,0,1,24.08-5.48l34.61,22.4A17.51,17.51,0,0,1,385.39,242.92Z" transform="translate(-132.63 -9)"/><path class="cls-18" d="M396.93,194.08h0a18.71,18.71,0,0,1-25.71,5.84L324.6,169.56a18.69,18.69,0,0,1-5.84-25.71h0A18.71,18.71,0,0,1,344.47,138l46.62,30.36A18.71,18.71,0,0,1,396.93,194.08Z" transform="translate(-132.63 -9)"/><path class="cls-4" d="M394.45,192.5h0A17.5,17.5,0,0,1,370.38,198l-43.67-28.43a17.52,17.52,0,0,1-5.47-24.08h0A17.5,17.5,0,0,1,345.31,140L389,168.42A17.51,17.51,0,0,1,394.45,192.5Z" transform="translate(-132.63 -9)"/></svg>