<svg id="aaafdec0-95c8-49a3-a8f8-64216c6da511" xmlns="http://www.w3.org/2000/svg" xmlns:xlink="http://www.w3.org/1999/xlink" viewBox="0 0 724.67 705.9"><defs><style>.cls-1,.cls-5{fill:#42a5f5;}.cls-1,.cls-10,.cls-3{opacity:0.1;}.cls-1,.cls-10,.cls-12,.cls-19{isolation:isolate;}.cls-2{fill:none;}.cls-4{fill:#3a3768;}.cls-6{fill:#e6e8ec;}.cls-7{fill:url(#linear-gradient);}.cls-8{fill:url(#linear-gradient-2);}.cls-9{fill:#fec2be;}.cls-11{fill:#4c4981;}.cls-12{opacity:0.05;}.cls-13{fill:#ca8496;}.cls-14{fill:#ceddf9;}.cls-15{fill:#fff;}.cls-16{fill:#ff718d;}.cls-17{fill:#9a5e7f;}.cls-18{fill:#a8a8a8;}.cls-19{opacity:0.2;}</style><linearGradient id="linear-gradient" x1="678.52" y1="382.65" x2="678.52" y2="414.6" gradientTransform="matrix(1, 0, 0, -1, -135.16, 581.34)" gradientUnits="userSpaceOnUse"><stop offset="0" stop-color="gray" stop-opacity="0.25"/><stop offset="0.54" stop-color="gray" stop-opacity="0.12"/><stop offset="1" stop-color="gray" stop-opacity="0.1"/></linearGradient><linearGradient id="linear-gradient-2" x1="669.06" y1="-114.99" x2="669.06" y2="520.48" xlink:href="#linear-gradient"/></defs><ellipse class="cls-1" cx="597.15" cy="641.54" rx="118.88" ry="20.45"/><ellipse class="cls-1" cx="237.21" cy="621.54" rx="176" ry="12.45"/><line class="cls-2" x1="7.53" y1="64.13" y2="64.13"/><g class="cls-3"><path d="M236.66,575.89c3.84,6.53,9.86,10.74,16.64,10.74,11.58,0,21-12.27,21-27.42s-9.45-27.32-21-27.32c-5.45,0-10.42,2.72-14.15,7.19a27.49,27.49,0,0,0-3.57,5.59l-.2,1.19s-4.47,3.82-10.56.31V457.35H138.1a7,7,0,0,1-1-6.54A8.37,8.37,0,0,1,141,446c6.53-3.84,10.75-9.86,10.75-16.64,0-11.58-12.28-21-27.42-21s-27.42,9.39-27.42,21c0,5.45,2.73,10.43,7.2,14.16a27.65,27.65,0,0,0,5.58,3.56l.12.2a8.53,8.53,0,0,1,1.67,10H72.33V621.8a39,39,0,0,0,39,39H224.85V573.52a6.92,6.92,0,0,1,7.07-1.5A8.28,8.28,0,0,1,236.66,575.89Z" transform="translate(13.52 -42.33)"/><path d="M90.71,453.89h13.58a27.41,27.41,0,0,1-10.71-21.51c0-15.59,13.6-28.22,30.37-28.22s30.38,12.63,30.38,28.22a27.41,27.41,0,0,1-10.71,21.51H225V366.26a7,7,0,0,1,7.07-1.5,8.29,8.29,0,0,1,4.78,3.91c3.83,6.53,9.85,10.74,16.64,10.74,11.58,0,21-12.27,21-27.41s-9.38-27.42-21-27.42c-5.46,0-10.43,2.73-14.16,7.19a27.49,27.49,0,0,0-3.57,5.59l-.19.12A8.54,8.54,0,0,1,225,338.89v-88.8H141.53a7,7,0,0,1-1.05-6.54,8.37,8.37,0,0,1,3.91-4.77c6.53-3.83,10.74-9.86,10.74-16.64,0-11.58-12.27-21-27.41-21s-27.42,9.39-27.42,21c0,5.46,2.73,10.43,7.19,14.16a27.77,27.77,0,0,0,5.59,3.57l.12.19a8.53,8.53,0,0,1,1.67,10H90.71v-4.5h17.84a27.42,27.42,0,0,1-10.7-21.47c0-15.59,13.6-28.23,30.38-28.23s30.37,12.64,30.37,28.23a27.38,27.38,0,0,1-10.75,21.5H225v-88.7a6.93,6.93,0,0,1,7.08-1.5,8.33,8.33,0,0,1,4.77,3.91c3.83,6.53,9.86,10.74,16.64,10.74,11.58,0,21-12.27,21-27.42s-9.38-27.41-21-27.41c-5.46,0-10.43,2.72-14.16,7.19a27.49,27.49,0,0,0-3.57,5.59l-.19,1.19s-4.47,3.82-10.57.31V46.76H111.48a39,39,0,0,0-39,39V128h-.59a2.29,2.29,0,0,0-2.29,2.29h0v20a2.31,2.31,0,0,0,2.29,2.29h.59V173h-.77a2.3,2.3,0,0,0-2.3,2.29v38.19a2.3,2.3,0,0,0,2.3,2.29h.77v15h-.63A2.29,2.29,0,0,0,69.56,233h0v12.3h-.5v25.92a2.29,2.29,0,0,0,2.27,2.29H72V453.89Z" transform="translate(13.52 -42.33)"/><path d="M387.44,188.39a2.29,2.29,0,0,0-2.29-2.3h-1.38v-2.51H383V83.83a37.48,37.48,0,0,0-37.48-37.5H233v76a27.77,27.77,0,0,1,22-11c15.71,0,28.45,13.61,28.45,30.39S270.73,172.06,255,172.06A27.77,27.77,0,0,1,233,161v84.33h91a27.47,27.47,0,0,1-10.69-21.53c0-15.61,13.57-28.26,30.32-28.26A31.44,31.44,0,0,1,364,202.89a26.72,26.72,0,0,1,0,41.75v.67h19.75v-.07h3.67Z" transform="translate(13.52 -42.33)"/><path d="M357.23,449.4v-10h0a17.86,17.86,0,0,0,1.13-1.87,16.63,16.63,0,0,0,2.06-7.95,16.3,16.3,0,0,0-.94-5.44,17.63,17.63,0,0,0-2.25-4.38h0c-4.61-6.63-13.72-11.15-24.22-11.15-15.15,0-27.42,9.39-27.42,21,0,5.46,2.73,10.43,7.19,14.16a27.77,27.77,0,0,0,5.59,3.57l.12.19a8.53,8.53,0,0,1,1.67,10H231.94v82a27.42,27.42,0,0,1,21.77-11c15.59,0,28.22,13.6,28.22,30.37s-12.63,30.38-28.22,30.38a27.42,27.42,0,0,1-21.77-11v66.19H333.17a24.06,24.06,0,0,0,24.06-24V457.56h0v162.8a24.06,24.06,0,0,1-24.06,24.06H231.94v16h105a39,39,0,0,0,39-39h0V457.56h0v-4.3H357.23Z" transform="translate(13.52 -42.33)"/></g><path class="cls-4" d="M116.1,640.75A24.06,24.06,0,0,1,92,616.69V453.35H73.33V617.8a39,39,0,0,0,39,39H225.85v-16Z" transform="translate(13.52 -42.33)"/><path class="cls-5" d="M232.85,568a8.24,8.24,0,0,1,4.77,3.91c3.84,6.53,9.86,10.74,16.64,10.74,11.58,0,21-12.27,21-27.42s-9.41-27.36-21-27.36c-5.45,0-10.42,2.72-14.15,7.19a27.49,27.49,0,0,0-3.57,5.59l-.2,1.19s-4.47,3.82-10.56.31V453.35H139.1a7,7,0,0,1-1-6.54A8.37,8.37,0,0,1,142,442c6.53-3.84,10.75-9.86,10.75-16.64,0-11.58-12.28-21-27.42-21s-27.42,9.39-27.42,21c0,5.45,2.73,10.43,7.2,14.16a27.65,27.65,0,0,0,5.58,3.56l.12.2a8.53,8.53,0,0,1,1.67,10H92V616.69a24.06,24.06,0,0,0,24.06,24.06H225.85V569.52A6.93,6.93,0,0,1,232.85,568Z" transform="translate(13.52 -42.33)"/><rect class="cls-4" x="83.55" y="198.93" width="2.97" height="4.84"/><rect class="cls-4" x="89" y="198.93" width="16.23" height="4.84"/><rect class="cls-4" x="86.52" y="198.93" width="2.48" height="4.84"/><path class="cls-5" d="M231.94,455.22" transform="translate(13.52 -42.33)"/><path class="cls-4" d="M72.32,269.47H73V246.09H70v21.09a2.29,2.29,0,0,0,2.27,2.29Z" transform="translate(13.52 -42.33)"/><path class="cls-4" d="M91.71,246.09H75.48v21.09a2.29,2.29,0,0,1-2.29,2.29H73V449.89H91.71Z" transform="translate(13.52 -42.33)"/><path class="cls-4" d="M73,269.47h.18a2.29,2.29,0,0,0,2.3-2.28h0V246.09H73Z" transform="translate(13.52 -42.33)"/><path class="cls-5" d="M94.58,428.34c0-15.59,13.6-28.22,30.37-28.22s30.38,12.63,30.38,28.22a27.39,27.39,0,0,1-10.71,21.55H226V362.26a7,7,0,0,1,7.07-1.5,8.29,8.29,0,0,1,4.78,3.91c3.83,6.53,9.85,10.74,16.64,10.74,11.58,0,21-12.27,21-27.41s-9.38-27.42-21-27.42c-5.46,0-10.43,2.73-14.16,7.19a27.49,27.49,0,0,0-3.57,5.59l-.19.12A8.54,8.54,0,0,1,226,334.89v-88.8H142.53a7,7,0,0,1-1.05-6.54,8.37,8.37,0,0,1,3.91-4.77c6.53-3.83,10.74-9.86,10.74-16.64,0-11.58-12.27-21-27.41-21s-27.42,9.39-27.42,21c0,5.46,2.73,10.43,7.19,14.16a27.77,27.77,0,0,0,5.59,3.57l.12.19a8.53,8.53,0,0,1,1.67,10H91.71V449.89h13.58A27.42,27.42,0,0,1,94.58,428.34Z" transform="translate(13.52 -42.33)"/><path class="cls-4" d="M76,228.63a2.28,2.28,0,0,0-2.29-2.29H73.5v14.92H76Z" transform="translate(13.52 -42.33)"/><path class="cls-4" d="M73.41,124h-.5a2.29,2.29,0,0,0-2.29,2.29h0v20a2.31,2.31,0,0,0,2.29,2.29h.59V124Z" transform="translate(13.52 -42.33)"/><path class="cls-4" d="M72.73,168.94a2.3,2.3,0,0,0-2.3,2.29v38.19a2.3,2.3,0,0,0,2.3,2.29h.77V168.94Z" transform="translate(13.52 -42.33)"/><path class="cls-4" d="M73.5,226.67h-.65A2.29,2.29,0,0,0,70.56,229h0v12.63h3Z" transform="translate(13.52 -42.33)"/><path class="cls-4" d="M73.5,81.75V124a2.28,2.28,0,0,1,2.2,2.28v20a2.28,2.28,0,0,1-2.2,2.28V169h.35a2.28,2.28,0,0,1,2.29,2.29h0v38.19a2.29,2.29,0,0,1-2.29,2.29h-.37v15h.18A2.29,2.29,0,0,1,76,229v12.58H92.19V82.89a24.06,24.06,0,0,1,24-24.06h32.61V63a19.81,19.81,0,0,0,19.81,19.81H226V69.74H199.62a3.89,3.89,0,0,1-3.87-3.85v-.84a3.88,3.88,0,0,1,3.87-3.87H226V42.76H112.48A39,39,0,0,0,73.5,81.75Z" transform="translate(13.52 -42.33)"/><path class="cls-4" d="M75.7,146.24v-20A2.28,2.28,0,0,0,73.5,124v24.55A2.29,2.29,0,0,0,75.7,146.24Z" transform="translate(13.52 -42.33)"/><path class="cls-4" d="M76.16,209.42V171.23a2.28,2.28,0,0,0-2.29-2.29H73.5v42.77h.35a2.29,2.29,0,0,0,2.31-2.27Z" transform="translate(13.52 -42.33)"/><path class="cls-5" d="M98.85,220.09c0-15.59,13.6-28.23,30.38-28.23s30.37,12.64,30.37,28.23a27.38,27.38,0,0,1-10.75,21.5H226v-88.7a6.93,6.93,0,0,1,7.08-1.5,8.33,8.33,0,0,1,4.77,3.91c3.83,6.53,9.86,10.74,16.64,10.74,11.58,0,21-12.27,21-27.42s-9.38-27.41-21-27.41c-5.46,0-10.43,2.72-14.16,7.19a27.49,27.49,0,0,0-3.57,5.59l-.19,1.19s-4.47,3.82-10.57.31V82.79H168.61A19.81,19.81,0,0,1,148.85,63V58.8H116.26A24.06,24.06,0,0,0,92.21,82.87V241.59h17.34A27.42,27.42,0,0,1,98.85,220.09Z" transform="translate(13.52 -42.33)"/><path class="cls-6" d="M199.62,61.15A3.88,3.88,0,0,0,195.75,65v.87a3.89,3.89,0,0,0,3.87,3.88H226V61.18Z" transform="translate(13.52 -42.33)"/><path class="cls-4" d="M378,182v59.36h6.75V179.58h-3.65C379.41,179.58,378,180.65,378,182Z" transform="translate(13.52 -42.33)"/><rect class="cls-4" x="247.54" width="8" height="18"/><rect class="cls-4" x="247.54" y="27" width="8" height="13"/><rect class="cls-6" x="247.54" y="18" width="8" height="9"/><path class="cls-4" d="M386.15,182.09h-1.88v59.17h4.17V184.39A2.29,2.29,0,0,0,386.15,182.09Z" transform="translate(13.52 -42.33)"/><path class="cls-4" d="M242,60.33c2.13.48,4,4.36,4,4.36v.84s-1.88,3.87-4,3.8h0v13H287.2A19.82,19.82,0,0,0,307,62.51V58.33h34a24,24,0,0,1,24,24V198.89a26.72,26.72,0,0,1,0,41.75v.67h14V182.62a.29.29,0,0,1,.29-.29H384V79.83a37.48,37.48,0,0,0-37.48-37.5H241v18Zm15.14-.09a4.87,4.87,0,1,1-4.87,4.87h0A4.87,4.87,0,0,1,257.15,60.24Z" transform="translate(13.52 -42.33)"/><path class="cls-5" d="M256,107.27c15.71,0,28.45,13.61,28.45,30.39S271.68,168.05,256,168.05A27.77,27.77,0,0,1,234,157v84.33h91a27.47,27.47,0,0,1-10.69-21.53c0-15.61,13.57-28.26,30.32-28.26A31.42,31.42,0,0,1,365,198.89V82.38a24,24,0,0,0-24-24H307v4.18a19.82,19.82,0,0,1-19.81,19.82H234v36A27.77,27.77,0,0,1,256,107.27Z" transform="translate(13.52 -42.33)"/><path class="cls-6" d="M242,69.33a4,4,0,0,0,4-3.8v-.84a5,5,0,0,0-4-4.36h-1v9Z" transform="translate(13.52 -42.33)"/><circle class="cls-6" cx="270.67" cy="22.76" r="4.87"/><path class="cls-4" d="M358.23,445.4v-10a16.69,16.69,0,0,0,0-19.64Z" transform="translate(13.52 -42.33)"/><rect class="cls-4" x="371.75" y="406.93" width="18.71" height="4.3"/><path class="cls-5" d="M350.68,442.24a8.37,8.37,0,0,0-3.91,4.77,7,7,0,0,0,1.05,6.55h10.41v-4.3h-4a29.79,29.79,0,0,0,4-3.86v-10A23.67,23.67,0,0,1,350.68,442.24Z" transform="translate(13.52 -42.33)"/><path class="cls-5" d="M354.21,449.26h4V445.4A29.79,29.79,0,0,1,354.21,449.26Z" transform="translate(13.52 -42.33)"/><path class="cls-4" d="M361.42,425.6a17,17,0,0,0-3.19-9.82v19.63A17.09,17.09,0,0,0,361.42,425.6Z" transform="translate(13.52 -42.33)"/><path class="cls-4" d="M376.94,453.56V617.47a39,39,0,0,1-39,39h-105v-16H334.17a24.06,24.06,0,0,0,24.06-24.06V453.56Z" transform="translate(13.52 -42.33)"/><path class="cls-5" d="M346.77,447a8.37,8.37,0,0,1,3.91-4.77,23.62,23.62,0,0,0,7.55-6.83V415.78c-4.61-6.63-13.72-11.15-24.22-11.15-15.15,0-27.42,9.39-27.42,21,0,5.46,2.73,10.43,7.19,14.16a27.77,27.77,0,0,0,5.59,3.57l.12.19a8.53,8.53,0,0,1,1.67,10H232.94v82a27.42,27.42,0,0,1,21.77-11c15.59,0,28.22,13.6,28.22,30.37S270.3,585.3,254.71,585.3a27.42,27.42,0,0,1-21.77-11v66.19H334.17a24.06,24.06,0,0,0,24.06-24V453.56H347.85A7,7,0,0,1,346.77,447Z" transform="translate(13.52 -42.33)"/><path class="cls-7" d="M537,198.69c5.58-2.51,9.71-6.74,11.12-12.16a15.32,15.32,0,0,0,.38-2,15.86,15.86,0,0,0,.64-1.91c1.41-5.44-.14-11.07-3.82-15.88l-7.31,28h0Z" transform="translate(13.52 -42.33)"/><path class="cls-8" d="M705.77,188.18c-1.14-6.69-22.26-21.18-22.26-21.18s-9.33-5-14.27-10.78c-3.16-3.68-4.15-3.64-4.45-3.14a1.49,1.49,0,0,0-.68-.23c-.2-.14-.39-.27-.57-.42h0a1.35,1.35,0,0,0-.79-1.37c-.24-.14-.48-.32-.72-.49-1.6-2.69-2.17-6.5-2.36-9.82-.24-4.19-5-3.14-6.63-2.67-1.12-2.1-2.21-4.28-3.24-6.46a11.29,11.29,0,0,0,1.13-2.25c2.94-6.39,2.3-13.72,3.58-20.48.92-4.89,2.84-10,2.46-14.76v-.28a12.33,12.33,0,0,0-.81-3.48c-.85-2.14-2.33-4-3-6.21-1.07-3.23-.39-6.79-1.28-10.06-1.11-4.14-4.61-7.34-8.57-9.17s-8.37-2.46-12.71-3c-10.85-1.36-22.38-2.17-32.28,2.39a5.73,5.73,0,0,1-3,.81,9.36,9.36,0,0,1-2.74-1.27c-2.66-1.32-6-.48-8.38,1.28s-4,4.3-5.57,6.76-3.29,5-5.75,6.61c-2.89,1.93-6.71,2.58-9,5.18A8.4,8.4,0,0,0,562,88v-.07a5.42,5.42,0,0,0,0,.57v2.1a27.37,27.37,0,0,0,1.93,7.1,9.93,9.93,0,0,0,2.62,4.46c3.48,2.83,9,.16,13.2,1.74.37.13.72.3,1.07.46a2,2,0,0,1-.16.49,33.3,33.3,0,0,0-1.35,9.41c0,18.78,15.59,34,34.82,34a19,19,0,0,0,2.14-.08c.1.37.21.75.3,1.11a36.82,36.82,0,0,1,1,12.72l-.21-1.86a9,9,0,0,0-1.45-.55,12.92,12.92,0,0,0-4.32-.66c-4.73-.06-11.85,1.84-19.45,11.06,0,0-9.7,5.39-12.55,6.69a1.34,1.34,0,0,0-.53.6h0s-13,19.59-14.31,27-3,16-3,16-3.24,9.66-5.33,13.94-4,8.36-4.18,10.22S553,250.44,549,253s-5,9.66-5,9.66-2,1.88-4.83,4.26h-.1l10.45-40.07,1.87.47a2.38,2.38,0,0,0,2.46-.84,2.09,2.09,0,0,0,.41-.83l2.11-8.12.85-3.23.17-.66,1.23-4.71-4.16-1-4.87-1.21-13.76-3.47,1.2-4.6h0l1-3.9h0l6.29-24.14h0l1-3.89a33,33,0,0,0-18.2-11.34c-15.1-3.75-29.72,2.35-32.66,13.62a16.82,16.82,0,0,0-.39,2,15.66,15.66,0,0,0-.63,1.9,16.18,16.18,0,0,0-.4,6c0,.33.09.66.15,1a20.59,20.59,0,0,0,3.83,8.57,27.49,27.49,0,0,0,4.67,4.85l.07.22a9,9,0,0,1,1.31,4v.62a9,9,0,0,1-1.2,1.68L409.63,177l-1,3.89h0l-20.78,79.85h0a30.25,30.25,0,0,1,9-4.75,29.35,29.35,0,0,1,3.9-1l.47-.08a27.89,27.89,0,0,1,11.18.46c11.66,2.9,19.72,12.83,21.22,24.51a28.74,28.74,0,0,1,.25,4.45,31.5,31.5,0,0,1-.6,5.65c-5,15.18-20.36,24.35-35.28,20.64a28,28,0,0,1-18.9-16.15l-1,3.9h0l-21.44,81.95,81.71,20.32h0l.88-3.93h.13A27.17,27.17,0,0,1,433.73,375a1.14,1.14,0,0,1,.13-.38c.1-.29.21-.57.32-.85a27.61,27.61,0,0,1,2-3.95c.4-.65.82-1.28,1.27-1.89q.42-.57.87-1.11a28.39,28.39,0,0,1,4.89-4.66l.58-.42c.66-.47,1.34-.92,2-1.34.41-.24.83-.48,1.25-.7A32.36,32.36,0,0,1,462.76,356a34.17,34.17,0,0,1,7.8,1,32.3,32.3,0,0,1,19.29,13.41,28,28,0,0,1,1.64,2.8,27.23,27.23,0,0,1,2.83,9.14,25.49,25.49,0,0,1-.2,7.65,27.21,27.21,0,0,1-10.58,13.69l-1,3.76h.11l-.15.11-1,3.75,18.66,4.64,26.43-101.05c7.13-.83,10.78-4,10.78-4.46s8.57-5.21,13.32-6.51c2.36-.64,5.09-1.1,7.26-1.56-2.56,12.71-5,25-4.78,25.72.07.28.53-.16,1.23-1.12a5.24,5.24,0,0,0-.09,1.12c0,.19.27.05.62-.34l0,.24s-14.84,28.71-16,32,.28,11.71,4.85,14.5a9.64,9.64,0,0,1,2.34,2.07l-.54,1.07c-1.7,3.45-3.21,7.29-2.94,9.68a13.1,13.1,0,0,1-2,8.64S527.74,435.65,528,447.08s-4.57,36.51-4.57,36.51-5.28,16.16-2.14,20.76S528,529,528,529s2.43,4.6,2.28,8.5,2.29,11,2.29,11l8,28.84s-.86,7.67,2.14,13.1,2.71,3.76,1.28,13.24,1.72,18.25,6.85,21c2,1.08,2.1,2.73,1.48,4.34h0c-1.31-.51-2.4,2.2-3.05,4.39l-.66.63.44.11c-.28,1-.44,1.84-.44,1.84s-13.41,11.15-14.27,15.19-10.28,6.13-10.28,6.13-14.27,3.9-18,5.85a6.82,6.82,0,0,0-3.94,5.41,15,15,0,0,0,.52,5.46c1.42,5.71,21.4,6.27,31,4.74s29.39-7.11,29.39-7.11,20.84-2,27-4.46,1.28-8.92,1.28-8.92v-.6c.15-2.33.58-10.78-.9-13-1.11-1.72-1.08-6-.92-8.72,4.17-7.5-4.78-30-4.78-30s1.71-22,.57-25.22-6-30.52-6-30.52-3-12.4-1.85-14.49-.72-8.09-.72-8.09-4.89-6.67-4.45-8.77-1.43-5.85-1.43-5.85,14.56-21.74,13.27-25.78.58-10.59.58-10.59,1.83-3.08,4-6.77c2.7-4.52,6-9.93,7.08-11.62,1.4-2.15,4.77-11.3,6.65-16.57.8-2.24,1.34-3.78,1.34-3.78s2.28,41,4.28,45.15,5,37.21,5,37.21a22.55,22.55,0,0,1,1.43,9.2c-.28,5.15,4.57,27.59,4.57,27.59s2.14,15.88.71,20.06-.28,35-.28,35-7.85,6-9.85,10.59.28,17.14.28,17.14l.92.43a26.87,26.87,0,0,0-1.63,5.42c-.28,2.65-4.57,14.64-4.14,16.31s-1.85,6.83-2.14,9.47-3.85,6.55-4.14,8a32.92,32.92,0,0,1-1.57,3.67,36,36,0,0,0-1.85,5.66c-1.43,5.86,15.55,6.83,15.55,6.83,25.12,4.6,29.69-14.21,29.69-14.21s3.14-16.72,4.28-18a2,2,0,0,0,.19-1.59h0a21.08,21.08,0,0,0-3.62-7.87c-.8-.93-.85-3.32-.72-5.46a12.94,12.94,0,0,0,2.15-.4c10.13-2.92,6-19.79,6-19.79s6.85-11.14,6.85-15.46,2.43-17.56,2.43-17.56c8.71-15.61,5.28-53.51,6.71-56.58s-3-14.49-6.57-19.65-2.14-19.09,0-23.13-2.14-18-2.14-18,4.14-27,4-31.22,3.57-16.58,3.57-16.58,3.71-6.41,2.85-8.36,2.85-7,1.86-9.2.85-9.06,2.71-13.1c1-2.07,2.13-7.77,3-12.84.1-.56.2-1.12.29-1.67,4.16,2.63,8,4.59,9.36,4.06,2.55-1-1.51-14-4.29-22.1.48-.36.68-.63.48-.75-1.71-1.12.19-6.14.19-6.14,10.09-5.94,6.66-10.4,3.43-13s-1.14-10-2.1-13,1.15-16.53,2.86-26.38a18.69,18.69,0,0,0,0-6.46c1.83-2.79,3.72-5.71,5.38-8.41,5.7-9.29,17.88-53.51,17.88-53.51l-.08-.23c1.19-2.35,2.08-4.26,2.56-5.53C713.76,223.89,706.91,194.89,705.77,188.18Zm-88.68-25.46.26-.12v.21Zm-181.84,233ZM561.72,637.07a4.71,4.71,0,0,1-1.81-.36Z" transform="translate(13.52 -42.33)"/><path class="cls-9" d="M456,314.78c8.23,3.12,27.36,3.46,35.86,3.46H496l5.45-11.1L496,297.89s-5-1.38-11.64-2.58c-9.8-1.76-23.21-3.14-29.6.82C444.08,302.76,445.28,310.71,456,314.78Z" transform="translate(13.52 -42.33)"/><path class="cls-10" d="M491.85,318.24H496l5.45-11.1L496,297.89s-5-1.38-11.64-2.58C489.79,299.27,502.75,307.89,491.85,318.24Z" transform="translate(13.52 -42.33)"/><path class="cls-11" d="M582.12,182l-2.4-2.78s-12.39,19.6-13.69,27-3,15.9-3,15.9-3.14,9.62-5.18,13.87-3.88,8.32-4.06,10.17.74,5.92-3.15,8.51-4.8,9.62-4.8,9.62-14.06,13.68-21.46,14-28.66,4.07-27.92,7.77-8.87,5.91-12.76,6.84,25,12,8.14,26.26c0,0,10.72,2.22,11.83,4.8s12.39-1.47,12.39-1.47,2.41-5.74,10.73-6.11,12.57-4.07,12.57-4.62,8.32-5.18,13-6.47,10.72-1.85,10.91-3.15S591,182,591,182Z" transform="translate(13.52 -42.33)"/><path class="cls-12" d="M582.12,182l-2.4-2.78s-12.39,19.6-13.69,27-3,15.9-3,15.9-3.14,9.62-5.18,13.87-3.88,8.32-4.06,10.17.74,5.92-3.15,8.51-4.8,9.62-4.8,9.62-14.06,13.68-21.46,14-28.66,4.07-27.92,7.77-8.87,5.91-12.76,6.84,25,12,8.14,26.26c0,0,10.72,2.22,11.83,4.8s12.39-1.47,12.39-1.47,2.41-5.74,10.73-6.11,12.57-4.07,12.57-4.62,8.32-5.18,13-6.47,10.72-1.85,10.91-3.15S591,182,591,182Z" transform="translate(13.52 -42.33)"/><path class="cls-13" d="M610.92,695.16c24.41,4.58,28.85-14.15,28.85-14.15s3.05-16.64,4.16-17.89a2,2,0,0,0,.19-1.58h0a21.62,21.62,0,0,0-3.52-7.84c-1.52-1.8-.28-9.29-.28-9.29L612,637.2s-2.5,5.68-2.77,8.32-4.44,14.56-4,16.23-1.8,6.79-2.08,9.43-3.74,6.52-4,7.9a30.75,30.75,0,0,1-1.53,3.66,36.89,36.89,0,0,0-1.8,5.63C594.42,694.19,610.92,695.16,610.92,695.16Z" transform="translate(13.52 -42.33)"/><path class="cls-10" d="M610.92,695.16c24.41,4.58,28.85-14.15,28.85-14.15s3.05-16.64,4.16-17.89a2,2,0,0,0,.19-1.58l-5.88,16.84s-4.85,10.12-22.88,8.6c-10.26-.87-15.31-2.77-17.76-4.25a36.89,36.89,0,0,0-1.8,5.63C594.42,694.19,610.92,695.16,610.92,695.16Z" transform="translate(13.52 -42.33)"/><path class="cls-10" d="M629.92,668.81s-6.1.14-6.52-4.85Z" transform="translate(13.52 -42.33)"/><polygon class="cls-5" points="453.68 354.29 457.55 355.28 456.7 359.21 453.11 358.3 453.68 354.29"/><polygon class="cls-10" points="453.68 354.29 457.55 355.28 456.7 359.21 453.11 358.3 453.68 354.29"/><rect class="cls-4" x="554.02" y="214.41" width="4.84" height="4.17" transform="translate(222.9 660.02) rotate(-75.72)"/><rect class="cls-4" x="540.56" y="206.15" width="4.84" height="13.83" transform="translate(216.08 644.39) rotate(-75.72)"/><rect class="cls-4" x="549.62" y="212.94" width="4.84" height="4.89" transform="translate(220.66 654.92) rotate(-75.72)"/><path class="cls-5" d="M537.08,208.41c-.32.15-.63.31-.94.44l.78.2-1.2,4.69-5.93-1.51a7,7,0,0,1,.61-6.59,8.29,8.29,0,0,1,5-3.66,27.08,27.08,0,0,0,3.71-1.38Z" transform="translate(13.52 -42.33)"/><path class="cls-4" d="M551.23,228.66l1.81.47a2.29,2.29,0,0,0,2.79-1.65h0l2-8.08-4-1Z" transform="translate(13.52 -42.33)"/><path class="cls-4" d="M549.85,188.5c-1.38,5.4-5.39,9.61-10.81,12.1l7.1-27.9C549.74,177.49,551.25,183.1,549.85,188.5Z" transform="translate(13.52 -42.33)"/><path class="cls-4" d="M548.71,228a2.29,2.29,0,0,1-1.65-2.78l2.06-8.09-13.4-3.41L494.85,374.28a26.65,26.65,0,0,1-8.71,34.22l-.95,3.74,18.13,4.65L551.23,228.7Z" transform="translate(13.52 -42.33)"/><path class="cls-4" d="M547.06,225.24a2.29,2.29,0,0,0,1.65,2.78l2.52.64,2.62-10.3-4.73-1.21Z" transform="translate(13.52 -42.33)"/><path class="cls-5" d="M530.39,205.64a8.35,8.35,0,0,1,5-3.66,26.48,26.48,0,0,0,3.7-1.38l7.11-27.9a31.79,31.79,0,0,0-17.69-11.28c-14.67-3.74-28.89,2.33-31.74,13.55-1.35,5.29.07,10.78,3.48,15.5a27.29,27.29,0,0,0,4.53,4.83l.07.22a8.54,8.54,0,0,1-.86,10.14l-89.66-22.83L394.1,262.31A27.44,27.44,0,0,1,417.85,257c15.11,3.85,24,20.15,19.86,36.4S418,319.69,402.9,315.89a27.42,27.42,0,0,1-18.37-16.07l-20.77,81.56,79.42,20.21a27.4,27.4,0,0,1-5.08-23.48c3.85-15.1,20.14-24,36.4-19.86a31.27,31.27,0,0,1,20.35,16l40.87-160.54-5.87-1.51A7,7,0,0,1,530.39,205.64Z" transform="translate(13.52 -42.33)"/><path class="cls-5" d="M536.91,209.05l.17-.64c-.31.15-.62.31-.94.45Z" transform="translate(13.52 -42.33)"/><g class="cls-3"><path d="M555,213.67l-4.73-1.21-13.39-3.41h0l.17-.64h0l2-7.81a27.08,27.08,0,0,1-3.71,1.38,8.29,8.29,0,0,0-5,3.66,9.9,9.9,0,0,0-.74,1.58,9.85,9.85,0,0,1,.73-1.58,8.35,8.35,0,0,1,5-3.66,26.48,26.48,0,0,0,3.7-1.38l7.11-27.9a31.79,31.79,0,0,0-17.69-11.28c-14.67-3.74-28.89,2.33-31.74,13.55-1.35,5.29.07,10.78,3.48,15.5a27.29,27.29,0,0,0,4.53,4.83l.07.22a8.54,8.54,0,0,1-.86,10.14l-89.66-22.83-20.23,79.48A27.45,27.45,0,0,1,417.85,257c15.11,3.85,24,20.15,19.86,36.4S418,319.69,402.9,315.89a27.42,27.42,0,0,1-18.37-16.07l-20.77,81.56,79.42,20.21a27.4,27.4,0,0,1-5.08-23.48c3.85-15.1,20.14-24,36.4-19.86a31.27,31.27,0,0,1,20.35,16,26.65,26.65,0,0,1-8.71,34.22l-.95,3.74,18.13,4.65L551.23,228.7l1.81.47a2.29,2.29,0,0,0,2.79-1.65h0l2-8.12L559,214.7Zm-18.44-5-.45.21h0Zm-6.8,3.59h0l5.93,1.51h0Z" transform="translate(13.52 -42.33)"/><path d="M549.85,188.5c1.37-5.4-.14-11-3.71-15.8L539,200.6C544.49,198.11,548.5,193.89,549.85,188.5Z" transform="translate(13.52 -42.33)"/></g><rect class="cls-4" x="555" y="210.55" width="4.84" height="4.17" transform="translate(227.38 658.06) rotate(-75.72)"/><rect class="cls-4" x="541.54" y="202.29" width="4.84" height="13.83" transform="translate(220.57 642.42) rotate(-75.72)"/><rect class="cls-4" x="550.61" y="209.06" width="4.84" height="4.89" transform="translate(225.17 652.94) rotate(-75.72)"/><path class="cls-5" d="M538.07,204.53l-.94.45.77.19-1.19,4.72-5.93-1.51a7,7,0,0,1,.6-6.59,8.35,8.35,0,0,1,5-3.66,26.48,26.48,0,0,0,3.7-1.38Z" transform="translate(13.52 -42.33)"/><path class="cls-4" d="M552.21,224.79l1.82.46a2.29,2.29,0,0,0,2.81-1.61v0l2.06-8.08-4-1Z" transform="translate(13.52 -42.33)"/><path class="cls-4" d="M550.85,184.63c-1.37,5.39-5.38,9.6-10.81,12.09l7.11-27.9C550.73,173.61,552.24,179.22,550.85,184.63Z" transform="translate(13.52 -42.33)"/><path class="cls-4" d="M549.7,224.15a2.3,2.3,0,0,1-1.65-2.79h0l2-8.08-13.34-3.39L495.85,370.41a26.61,26.61,0,0,1-8.71,34.21l-.95,3.74L504.33,413l47.9-188.19Z" transform="translate(13.52 -42.33)"/><path class="cls-4" d="M548.05,221.36a2.3,2.3,0,0,0,1.65,2.79h0l2.51.64,2.64-10.31-4.74-1.2Z" transform="translate(13.52 -42.33)"/><path class="cls-5" d="M531.38,201.76a8.35,8.35,0,0,1,5-3.66,26.48,26.48,0,0,0,3.7-1.38l7.1-27.9a31.76,31.76,0,0,0-17.68-11.28c-14.68-3.73-28.89,2.33-31.75,13.56-1.34,5.28.07,10.77,3.49,15.49a27.35,27.35,0,0,0,4.53,4.84l.07.21a8.55,8.55,0,0,1-.86,10.14L415.31,179l-20.26,79.47a27.44,27.44,0,0,1,23.8-5.33c15.1,3.84,24,20.14,19.86,36.4S419,315.81,403.85,312a27.46,27.46,0,0,1-18.34-16.08l-20.76,81.56,79.41,20.22a27.42,27.42,0,0,1-5.07-23.48c3.84-15.11,20.14-24,36.4-19.86a31.2,31.2,0,0,1,20.36,16.08l40.86-160.52-5.93-1.51A7,7,0,0,1,531.38,201.76Z" transform="translate(13.52 -42.33)"/><path class="cls-5" d="M537.9,205.18l.16-.65c-.31.15-.62.31-.93.45Z" transform="translate(13.52 -42.33)"/><path class="cls-14" d="M523.85,504.89c3,4.57,6.52,24.55,6.52,24.55s2.36,4.57,2.22,8.46,2.22,11,2.22,11l7.77,28.71s-.84,7.63,2.08,13,2.63,3.74,1.25,13.17,1.66,18.17,6.65,21-2.22,9.29-2.22,9.29,31.9,8.6,38.56,3.33-3.47-31.35-3.47-31.35,1.67-21.91.56-25.1-5.83-30.37-5.83-30.37-2.91-12.35-1.8-14.43-.69-8-.69-8-4.72-6.66-4.3-8.74-1.39-5.82-1.39-5.82,14.12-21.7,12.87-25.77.55-10.54.55-10.54l3.94-6.74c2.63-4.5,5.81-9.89,6.88-11.57,1.36-2.14,4.64-11.24,6.47-16.49l1.3-3.76s2.22,40.78,4.16,44.94,4.85,37,4.85,37a23,23,0,0,1,1.39,9.15c-.28,5.13,4.44,27.46,4.44,27.46s2.08,15.81.69,20-.28,34.82-.28,34.82-7.63,6-9.57,10.54.28,17,.28,17,22.19,11.1,32,8.19,5.82-19.7,5.82-19.7,6.66-11.09,6.66-15.39,2.42-17.43,2.42-17.43c8.46-15.53,5.13-53.25,6.52-56.3s-2.92-14.43-6.38-19.56-2.08-19,0-23-2.14-17.91-2.14-17.91,4-26.91,3.88-31.07S662.2,431,662.2,431s3.6-6.38,2.77-8.33,2.77-6.93,1.8-9.15.84-9,2.64-13c.92-2.06,2.07-7.74,3-12.77.85-4.79,1.48-9,1.48-9L651,360.26l-57.14-15-21.49-6.93-21,33q-2.22,3.62-4.07,7.43c-1.65,3.43-3.12,7.25-2.86,9.63a13.27,13.27,0,0,1-1.94,8.6s-12.49,39.52-12.21,50.9-4.44,36.33-4.44,36.33S520.77,500.3,523.85,504.89Z" transform="translate(13.52 -42.33)"/><path class="cls-9" d="M608.31,183.39c.88-.36,61.21-25.28,52.9-30.23-4.93-2.94-11-15.4-15.16-25.15-2.9-6.81-4.87-12.3-4.87-12.3s-48.42-8.6-31.09,21.08a55,55,0,0,1,6.11,14.62C621.14,171.63,608.71,183,608.31,183.39Z" transform="translate(13.52 -42.33)"/><path class="cls-10" d="M610.09,136.79a55,55,0,0,1,6.11,14.62,33.81,33.81,0,0,0,28.59-20.09,32.2,32.2,0,0,0,1.26-3.31c-2.9-6.81-4.87-12.3-4.87-12.3S592.76,107.11,610.09,136.79Z" transform="translate(13.52 -42.33)"/><path class="cls-9" d="M580,116.54a33.83,33.83,0,1,0,1.32-9.37A33.84,33.84,0,0,0,580,116.54Z" transform="translate(13.52 -42.33)"/><path class="cls-10" d="M547.35,378.75c3.54,3.22,4.9,9.35,4.9,9.35s16.65,11.37,15.54,4.16,8.6-36.34,8.6-36.34l-1.11,39.67s53.25-2.5,57.14-6.38,26.63-11.32,26.63-11.32,7,5.59,13.36,9.83c.85-4.79,1.48-9,1.48-9L651,360.27l-57.14-15-21.49-6.93-21,33A83.2,83.2,0,0,0,547.35,378.75Z" transform="translate(13.52 -42.33)"/><path class="cls-15" d="M545.6,375.62c4.44,2.77,6.1,10.26,6.1,10.26s16.64,11.37,15.53,4.16,8.6-36.34,8.6-36.34l-1.11,39.67S628,390.89,631.85,387s26.63-11.37,26.63-11.37,19.7,15.81,23.3,14.42-6.38-28.29-6.38-28.29L665.15,204.2s2.77-46.88-1.39-48.55a6.12,6.12,0,0,1-1.75-1.09c-2.74-2.46-3.56-7.46-3.8-11.66-.27-5-6.93-2.5-6.93-2.5l3.88,5-34.37,20.9-.3.18a36.5,36.5,0,0,0-4.13-1.87c-3-1.17-7.09-2.27-9.74-1.18a9.42,9.42,0,0,0-3.64,3.28,41.41,41.41,0,0,0-4.68,9.48l-12.45,21.07s-6.38,28-6.38,29.13-1.94,26.63-4.16,29.4-4.44,16.64-3.61,20.8-1.39,19.7-1.39,19.7c-9.15,7.49-13.86,33-13.86,33s-14.46,28.6-15.6,31.9S541.16,372.89,545.6,375.62Z" transform="translate(13.52 -42.33)"/><path class="cls-10" d="M620.79,167.4c3.37,5,13.11,12,13.11,12L662,155.65c-2.74-2.46-3.56-7.46-3.8-11.67-.27-5-6.93-2.49-6.93-2.49l.81,1a4.47,4.47,0,0,1-.79,6.28,3.93,3.93,0,0,1-.42.29Z" transform="translate(13.52 -42.33)"/><path class="cls-15" d="M620.79,166.29c3.37,5,13.11,12,13.11,12L662,154.54c-2.74-2.46-3.56-7.46-3.8-11.66-.27-5-6.93-2.5-6.93-2.5l.81,1a4.46,4.46,0,0,1-.79,6.27,3.13,3.13,0,0,1-.42.29Z" transform="translate(13.52 -42.33)"/><path class="cls-10" d="M607.79,170c3.63,4.34,8.78,9.27,8.54,6.8s3.07-7.92,5.18-10.36a15.29,15.29,0,0,0-10.08.28A9.35,9.35,0,0,0,607.79,170Z" transform="translate(13.52 -42.33)"/><path class="cls-15" d="M607.24,168.36c3.63,4.35,8.77,9.27,8.53,6.81s2.73-6.47,4.84-8.91c-3-1.17-7.08-2.27-9.74-1.17A9.37,9.37,0,0,0,607.24,168.36Z" transform="translate(13.52 -42.33)"/><circle class="cls-16" cx="629.85" cy="146.89" r="2.22"/><circle class="cls-16" cx="613.02" cy="206.8" r="2.22"/><circle class="cls-16" cx="593.98" cy="267.46" r="2.22"/><circle class="cls-16" cx="593.42" cy="333.47" r="2.22"/><circle class="cls-16" cx="620.05" cy="175.18" r="2.22"/><circle class="cls-16" cx="605.07" cy="236.76" r="2.22"/><circle class="cls-16" cx="590.46" cy="297.23" r="2.22"/><circle class="cls-16" cx="593.79" cy="340.87" r="2.22"/><path class="cls-10" d="M662,155.89s-.37-3.33,4.43,2.41S680.31,169,680.31,169,700.84,183.45,702,190.1s7.76,35.51,4.25,45.12-30.35,55.67-30.35,55.67,7,8.33,5.37,18.13-3.7,23.3-2.78,26.26-1.11,10.35,2,12.94,6.47,7-3.33,12.94c0,0-1.85,5-.19,6.11s-24.59,12.57-35,6.47-29-54.92-29.4-65.83,5.73-47,9.06-55.48,13.32-41.61,17.57-49S662,155.89,662,155.89Z" transform="translate(13.52 -42.33)"/><path class="cls-11" d="M663.11,155.89s-.37-3.33,4.44,2.41S681.42,169,681.42,169,702,183.45,703.06,190.1s7.76,35.51,4.25,45.12S677,290.89,677,290.89s7,8.33,5.37,18.13-3.7,23.3-2.78,26.26-1.11,10.35,2,12.94,6.47,7-3.33,12.94c0,0-1.85,5-.19,6.11s-24.59,12.57-35,6.47-29-54.92-29.4-65.83,5.73-47,9.06-55.48,13.32-41.61,17.57-49S663.11,155.89,663.11,155.89Z" transform="translate(13.52 -42.33)"/><path class="cls-10" d="M670.51,187.37s-15.9,17.57-15.35,29.22C655.16,216.59,655,197.72,670.51,187.37Z" transform="translate(13.52 -42.33)"/><path class="cls-10" d="M648.51,216.22c0,.55-10.73,40.49-10.17,45.49s-3.15,19.78-3.15,19.78l-5-1.29s3.88-20.53,4.62-28.11S648.51,216.22,648.51,216.22Z" transform="translate(13.52 -42.33)"/><path class="cls-10" d="M644.25,330.13c.37.55,25.34,28.84,18.31,30.88S644.25,330.13,644.25,330.13Z" transform="translate(13.52 -42.33)"/><path class="cls-10" d="M664.78,322.89c.55.37,10,20.34,11.09,15s-8.13,14.61-9.61-.18Z" transform="translate(13.52 -42.33)"/><path class="cls-10" d="M616.85,162.22s-10.31-6.29-23.26,9.8c0,0-9.43,5.36-12.2,6.66s-5.92,35.69-5.92,35.69-6.1,14.79-4.44,23.3-4.8,37.72-4.8,37.72-10.74,52.5-10.38,54,10.91-16.46,10.73-25.34,8.87-36.61,10.17-38.28,10.17-49.18,10.17-49.18,7.21-20.16,11.83-26.82,10.36-19.23,12.76-21.45a24.42,24.42,0,0,1,5.73-3.7Z" transform="translate(13.52 -42.33)"/><path class="cls-11" d="M617,162.22s-11.56-6.29-24.5,9.8c0,0-9.44,5.36-12.21,6.66s-5.92,35.69-5.92,35.69-6.1,14.79-4.44,23.3-4.8,37.72-4.8,37.72-10.73,52.52-10.36,54,10.91-16.46,10.73-25.34,8.87-36.61,10.17-38.28,10.2-49.18,10.2-49.18,7.21-20.16,11.83-26.82,10.36-19.23,12.76-21.45,6.84-3.7,6.84-3.7Z" transform="translate(13.52 -42.33)"/><path class="cls-9" d="M566.22,277.79s-22-14.42-32.64-7.3-28,17.2-10.91,24.5,40.77,5.9,40.77,5.9Z" transform="translate(13.52 -42.33)"/><path class="cls-10" d="M581.52,417c3.28,7,6,42.38,7.82,53.59,2.63-4.5,5.81-9.89,6.88-11.57,1.36-2.14,4.64-11.24,6.47-16.49-2.09-5.08-7.86-19.64-7.86-25,0-6.52-10.54-14.7-10.54-14.7S577.64,408.63,581.52,417Z" transform="translate(13.52 -42.33)"/><path class="cls-10" d="M652.25,525.54s-24.41-10.4-31.62-3S652.25,525.54,652.25,525.54Z" transform="translate(13.52 -42.33)"/><path class="cls-10" d="M638.52,529.7s24.69,13.87,16.23,16.19S638.52,529.7,638.52,529.7Z" transform="translate(13.52 -42.33)"/><path class="cls-10" d="M564.74,517.64s10.54.69,6.52,2.77S564.74,517.64,564.74,517.64Z" transform="translate(13.52 -42.33)"/><path class="cls-10" d="M551.56,520.83c.14.69,30.65,10.54,24.69,15S551.56,520.83,551.56,520.83Z" transform="translate(13.52 -42.33)"/><path class="cls-10" d="M648.64,605.71c-4.57-.7-30.09-12.49-20.11-4S648.64,605.71,648.64,605.71Z" transform="translate(13.52 -42.33)"/><path class="cls-10" d="M636,615s-2.22,8.6-10.68,7.49S636,615,636,615Z" transform="translate(13.52 -42.33)"/><path class="cls-10" d="M643.1,632.47c-1.53-.41-19.7-8.73-20.11-4.85s17.33,10.68,18.72,8.6A7.4,7.4,0,0,0,643.1,632.47Z" transform="translate(13.52 -42.33)"/><path class="cls-10" d="M584.29,622.49c-2.22-.14-23-6.8-27.18-.84Z" transform="translate(13.52 -42.33)"/><path class="cls-10" d="M565.43,626.37s-3.61-3.19-7.21-1.53S565.43,626.37,565.43,626.37Z" transform="translate(13.52 -42.33)"/><path class="cls-10" d="M611.48,660.77a6.18,6.18,0,0,1-4.72,4.85Z" transform="translate(13.52 -42.33)"/><path class="cls-13" d="M505.65,673.8c1.39,5.69,20.81,6.24,30.1,4.72s28.57-7.08,28.57-7.08,20.25-1.94,26.21-4.43,1.25-8.88,1.25-8.88v-.6c.14-2.32.56-10.73-.87-13-1.66-2.64-.69-11.24-.69-11.24s-28.71,5.55-29.27,2.92-5-6.38-7.07-7.21-3.61,6.93-3.61,6.93-13,11.1-13.87,15.12-10,6.1-10,6.1S512.53,661,508.92,663a6.71,6.71,0,0,0-3.82,5.39A15.14,15.14,0,0,0,505.65,673.8Z" transform="translate(13.52 -42.33)"/><path class="cls-10" d="M505.65,673.8c1.39,5.69,20.81,6.24,30.1,4.72s28.57-7.08,28.57-7.08,20.25-1.94,26.21-4.43,1.25-8.88,1.25-8.88v-.6l-29,6.43s-14.29,6.1-23.44,6.1c-8,0-25.9,3.27-34.2-1.69A15.06,15.06,0,0,0,505.65,673.8Z" transform="translate(13.52 -42.33)"/><path class="cls-10" d="M544.9,651.89s1.39,9.15,6.94,12.2Z" transform="translate(13.52 -42.33)"/><path class="cls-10" d="M581.31,107.17a9.92,9.92,0,0,0,1.65.69c2.6.7,5.14-1.06,7.45-2.46s5.5-2.44,7.5-.62c2.61,2.37.72,7.43,3.41,9.72,1.7,1.45,4.4,1,6.29,2.14s2.46,3.8,2.94,6,1.44,4.82,3.64,5.48,4.25-.79,6.42-.71c.45,0,1,.07,1.28-.25a1.31,1.31,0,0,0,.21-1,21.39,21.39,0,0,1,.71-8c.89-2.56,3-4.87,5.64-5.28,3.89-.6,7.16,2.81,9.45,6a97.3,97.3,0,0,1,6.56,10.56,5.28,5.28,0,0,1,.33.73,33.84,33.84,0,1,0-61.88-27.4,33.06,33.06,0,0,0-1.6,4.4Z" transform="translate(13.52 -42.33)"/><path class="cls-17" d="M637.9,118.37c-2.29-3.22-5.56-6.62-9.46-6-2.67.41-4.73,2.72-5.63,5.27a21.19,21.19,0,0,0-.7,8,1.36,1.36,0,0,1-.22,1c-.31.33-.83.28-1.28.26-2.17-.08-4.33,1.33-6.42.71s-3.16-3.23-3.64-5.48-1-4.82-2.94-6-4.59-.69-6.29-2.15c-2.69-2.28-.79-7.35-3.41-9.72-2-1.81-5.19-.77-7.5.63s-4.85,3.15-7.46,2.45c-.88-.24-1.67-.74-2.53-1.07-4.11-1.57-9.44,1.09-12.82-1.73a10,10,0,0,1-2.56-4.43A28.83,28.83,0,0,1,563.17,93a9.46,9.46,0,0,1,1.88-6.89c2.2-2.59,5.92-3.24,8.73-5.15,2.39-1.64,4-4.13,5.58-6.58s3.11-5,5.42-6.73,5.55-2.59,8.13-1.28a9,9,0,0,0,2.67,1.27,5.55,5.55,0,0,0,2.95-.81c9.62-4.53,20.82-3.73,31.37-2.38,4.22.54,8.5,1.17,12.35,3s7.25,5,8.33,9.12c.86,3.26.2,6.81,1.24,10,.7,2.18,2.14,4,3,6.19,2.25,5.85-.44,12.27-1.58,18.43-1.24,6.73-.62,14-3.48,20.38-.56,1.25-1.19,3.44-2.6,2.62-1-.61-2.06-4.16-2.66-5.27A95.84,95.84,0,0,0,637.9,118.37Z" transform="translate(13.52 -42.33)"/><path class="cls-10" d="M698.85,226.76l5,14.24S692,285,686.46,294.25s-13.68,21.08-13.68,21.08-13.68,6.85-29.59,3.7-62.34-11.46-62.34-11.46-3.89.74-5.92-2.22-12.6-4.46-12.6-4.46-12.2-17.75,2.78-25.15c0,0,1.85,4.07,9.8,1.3s10.35,2.21,10.35,2.21,13,2.59,20.16,1.67,25.15-1.3,27-2.78a2.38,2.38,0,0,1,3.33.19s4.43-1.66,5.91-3.33,3.52,1.85,3.52,1.85,2.59-1.48,1.85-3.33,2.4-8.87,2.4-8.87,1.48-4.63.56-8.33,4.62-17,4.62-17a23,23,0,0,0-.74-6.66c-.93-3.32,7-10,7-10s7.76-37.73,24.22-25.34S698.85,226.76,698.85,226.76Z" transform="translate(13.52 -42.33)"/><path class="cls-11" d="M699.91,226.76l5,14.24s-11.84,44-17.39,53.25-13.67,21.08-13.67,21.08-13.68,6.85-29.59,3.7-62.32-11.46-62.32-11.46-3.88.74-5.91-2.22-12.59-4.46-12.59-4.46-12.2-17.75,2.78-25.15c0,0,1.85,4.07,9.8,1.3s10.35,2.21,10.35,2.21,13,2.59,20.16,1.67,25.15-1.3,27-2.78a2.38,2.38,0,0,1,3.33.19s4.43-1.66,5.91-3.33,3.52,1.85,3.52,1.85,2.59-1.48,1.85-3.33,2.4-8.87,2.4-8.87,1.48-4.63.55-8.33,4.63-17,4.63-17a23,23,0,0,0-.74-6.66c-.93-3.32,7-10,7-10s7.76-37.73,24.22-25.34S699.91,226.76,699.91,226.76Z" transform="translate(13.52 -42.33)"/><path class="cls-10" d="M579.72,286.3c.18,1.3,4.25,6.47,2.77,7.4s-3.88.37-1.66,3.33,2,7.39.55,6.84-3.88-7.21-3.88-9.8S579.72,286.3,579.72,286.3Z" transform="translate(13.52 -42.33)"/><path class="cls-10" d="M634.64,283.34s1.11,13,10.21,16.65S634.64,283.34,634.64,283.34Z" transform="translate(13.52 -42.33)"/><path class="cls-10" d="M653.5,278.89c.55.19,12.94,6.85,7.4,10.73S653.5,278.89,653.5,278.89Z" transform="translate(13.52 -42.33)"/><path class="cls-10" d="M654.24,269.66s18.12,3.7,12,6.84S654.24,269.66,654.24,269.66Z" transform="translate(13.52 -42.33)"/><g class="cls-3"><path d="M622.85,114.47c.9-2.55,3-4.86,5.63-5.27,3.9-.6,7.17,2.81,9.46,6a97.3,97.3,0,0,1,6.56,10.56c.6,1.11,1.62,4.65,2.66,5.26,1.41.83,2-1.36,2.6-2.61,2.86-6.36,2.24-13.65,3.48-20.38.73-3.93,2.08-8,2.38-11.9.43,4.84-1.47,9.93-2.38,14.85-1.24,6.73-.62,14-3.48,20.39-.56,1.25-1.19,3.44-2.6,2.61-1-.61-2.06-4.15-2.66-5.26a97.3,97.3,0,0,0-6.56-10.56c-2.29-3.21-5.56-6.62-9.46-6-2.67.41-4.73,2.72-5.63,5.27a15,15,0,0,0-.74,4.16A19.48,19.48,0,0,1,622.85,114.47Z" transform="translate(13.52 -42.33)"/><path d="M565,96.89a9.89,9.89,0,0,0,2.56,4.44c3.38,2.82,8.71.16,12.82,1.73.86.32,1.65.83,2.53,1.07,2.61.69,5.16-1.06,7.46-2.46s5.51-2.43,7.5-.62c2.62,2.37.72,7.43,3.41,9.72,1.7,1.45,4.4,1,6.29,2.15s2.46,3.79,2.94,6,1.43,4.82,3.64,5.48,4.25-.78,6.42-.7c.45,0,1,.07,1.28-.26a.76.76,0,0,0,.15-.28c0,.75,0,1.49.07,2.23a1.36,1.36,0,0,1-.22,1c-.31.32-.83.27-1.28.25-2.17-.07-4.33,1.33-6.42.71s-3.16-3.22-3.64-5.48-1-4.82-2.94-6-4.59-.7-6.29-2.15c-2.69-2.29-.79-7.36-3.41-9.72-2-1.82-5.19-.78-7.5.62s-4.85,3.15-7.46,2.46c-.88-.24-1.67-.75-2.53-1.07-4.11-1.57-9.44,1.09-12.82-1.73A10,10,0,0,1,565,99.84a28.75,28.75,0,0,1-1.87-7.06,11.42,11.42,0,0,1,.06-2.48A30.08,30.08,0,0,0,565,96.89Z" transform="translate(13.52 -42.33)"/></g><path class="cls-5" d="M121.82,684.09s-42.28-2.55-37.3,27.07c0,0-1,5.24,3.76,7.62,0,0,.07-2.2,4.34-1.46a20.18,20.18,0,0,0,4.59.23,9.6,9.6,0,0,0,5.61-2.32h0s11.89-4.91,16.51-24.34c0,0,3.42-4.23,3.28-5.32l-7.13,3s2.44,5.15.52,9.43c0,0-.23-9.24-1.6-9-.28,0-3.71,1.78-3.71,1.78s4.2,9,1,15.49c0,0,1.2-11-2.34-14.84l-5,2.93s4.9,9.26,1.58,16.82c0,0,.85-11.59-2.64-16.1l-4.55,3.55s4.61,9.12,1.8,15.39c0,0-.37-13.49-2.78-14.51,0,0-4,3.51-4.59,5,0,0,3.15,6.63,1.19,10.13,0,0-1.2-9-2.18-9,0,0-4,6-4.38,10,0,0,.17-6.07,3.42-10.61a11.83,11.83,0,0,0-6.07,3.15s.61-4.21,7-4.58c0,0,3.28-4.52,4.15-4.79,0,0-6.4-.54-10.28,1.18,0,0,3.42-4,11.46-2.16l4.49-3.67s-8.43-1.15-12,.12c0,0,4.11-3.51,13.21-.95l4.89-2.93s-7.18-1.55-11.46-1c0,0,4.51-2.43,12.9.21l3.49-1.57s-5.26-1-6.8-1.2-1.63-.59-1.63-.59a18.17,18.17,0,0,1,9.89,1.1S121.94,684.55,121.82,684.09Z" transform="translate(13.52 -42.33)"/><ellipse class="cls-1" cx="106.22" cy="679.03" rx="29.92" ry="5.06"/><path class="cls-5" d="M39.12,586.73s-23.84-1.44-21,15.27a4.08,4.08,0,0,0,2.12,4.29s0-1.24,2.45-.82a11.23,11.23,0,0,0,2.59.13,5.38,5.38,0,0,0,3.16-1.31h0s6.68-2.73,9.32-13.73c0,0,1.93-2.39,1.85-3l-4,1.71s1.37,2.91.29,5.32c0,0-.13-5.21-.9-5.09-.16,0-2.09,1-2.09,1s2.36,5,.58,8.73c0,0,.67-6.23-1.32-8.37l-2.85,1.7s2.76,5.22.89,9.48c0,0,.48-6.54-1.49-9.08l-2.56,2s2.59,5.15,1,8.68c0,0-.21-7.61-1.57-8.18A16.3,16.3,0,0,0,23,598.25s1.78,3.74.68,5.71c0,0-.68-5.07-1.23-5.09,0,0-2.24,3.35-2.47,5.66a12.23,12.23,0,0,1,1.92-6,6.77,6.77,0,0,0-3.42,1.78s.35-2.38,4-2.58c0,0,1.84-2.55,2.34-2.7,0,0-3.61-.31-5.8.66,0,0,1.93-2.24,6.46-1.22L28,592.4s-4.75-.65-6.76.07c0,0,2.32-2,7.45-.54l2.75-1.64a25,25,0,0,0-6.46-.56s2.55-1.38,7.27.11l2-.88s-3-.59-3.83-.68-.92-.33-.92-.33a10.43,10.43,0,0,1,5.58.62S39.23,587,39.12,586.73Z" transform="translate(13.52 -42.33)"/><ellipse class="cls-1" cx="36.26" cy="565.41" rx="16.87" ry="2.85"/><path class="cls-5" d="M62.23,620.52S33.45,618.78,36.88,639a5,5,0,0,0,2.56,5.18s0-1.5,3-1a13.7,13.7,0,0,0,3.13.15,6.49,6.49,0,0,0,3.82-1.58h0s8.09-3.34,11.24-16.56c0,0,2.32-2.88,2.23-3.62l-4.93,2.08s1.65,3.5.35,6.41c0,0-.16-6.28-1.09-6.13-.19,0-2.52,1.21-2.52,1.21s2.85,6.1.7,10.54c0,0,.81-7.52-1.6-10.1l-3.41,2s3.33,6.3,1.07,11.44c0,0,.58-7.89-1.79-11l-3.1,2.42s3.13,6.21,1.22,10.48c0,0-.25-9.19-1.89-9.88,0,0-2.71,2.39-3.13,3.37,0,0,2.15,4.51.82,6.89,0,0-.82-6.12-1.49-6.15,0,0-2.7,4.06-3,6.84a14.83,14.83,0,0,1,2.33-7.22,8,8,0,0,0-4.14,2.14s.42-2.87,4.81-3.12c0,0,2.23-3.07,2.82-3.26,0,0-4.35-.37-7,.8,0,0,2.33-2.7,7.8-1.47l3.06-2.5s-5.74-.78-8.17.09c0,0,2.8-2.4,9-.65l3.33-2s-4.89-1.06-7.8-.68c0,0,3.07-1.66,8.78.14l2.38-1.07s-3.58-.7-4.63-.81-1.11-.4-1.11-.4a12.29,12.29,0,0,1,6.73.74S62.32,620.85,62.23,620.52Z" transform="translate(13.52 -42.33)"/><ellipse class="cls-1" cx="55.93" cy="603.56" rx="20.37" ry="3.44"/><ellipse class="cls-1" cx="451.25" cy="700.84" rx="29.92" ry="5.06"/><path class="cls-18" d="M417.64,719.67s17.07-.53,22.21-4.19,26.25-8,27.53-2.16,25.65,29.21,6.38,29.37-44.77-3-49.91-6.13S417.64,719.67,417.64,719.67Z" transform="translate(13.52 -42.33)"/><path class="cls-19" d="M474.1,740.64c-19.27.16-44.77-3-49.9-6.12-3.91-2.39-5.47-10.93-6-14.87h-.57s1.08,13.76,6.21,16.89,30.64,6.28,49.91,6.13c5.56,0,7.48-2,7.38-5C480.37,739.5,478.24,740.61,474.1,740.64Z" transform="translate(13.52 -42.33)"/></svg>