<svg id="aaafdec0-95c8-49a3-a8f8-64216c6da511" xmlns="http://www.w3.org/2000/svg" xmlns:xlink="http://www.w3.org/1999/xlink" viewBox="0 0 831.16 548.21"><defs><style>.cls-1{opacity:0.18;fill:url(#linear-gradient);}.cls-1,.cls-10,.cls-11,.cls-5,.cls-7{isolation:isolate;}.cls-2{fill:#2f2e41;}.cls-10,.cls-11,.cls-3{fill:#42a5f5;}.cls-4{fill:#a8a8a8;}.cls-5{opacity:0.2;}.cls-6{fill:#3f3d56;}.cls-7{opacity:0.1;}.cls-8{fill:none;stroke:#2f2e41;stroke-miterlimit:10;stroke-width:2px;}.cls-9{fill:#f2f2f2;}.cls-10{opacity:0.4;}.cls-11{opacity:0.8;}.cls-12{fill:#fff;}</style><linearGradient id="linear-gradient" x1="23.04" y1="132.7" x2="854.2" y2="132.7" gradientTransform="matrix(1, 0, 0, -1, 0, 416.19)" gradientUnits="userSpaceOnUse"><stop offset="0" stop-color="#ff8a65"/><stop offset="1" stop-color="#55abe5"/></linearGradient></defs><path class="cls-1" d="M837.29,521.64a77.58,77.58,0,0,1-17,16.35c-31.72,22.32-80,23-122.18,14.79S616,529,573.46,522.13c-67.55-10.76-136,1.47-202,13.71S237.09,560.51,169.44,550c-63.63-9.79-126.68-45.71-142.54-95.15a76.72,76.72,0,0,1-2.35-9.3c-14.29-74.21,77.34-135.1,77.54-209.79.1-20.86-7.15-41.51-9.11-62.36-6.65-69.8,52.48-138.13,135.59-157C374.44-16.69,521.38,78.66,671.26,68.78,820.74,59,835.43,116,812,228.93c-7.93,38.58-5.87,78.22,5.88,116.79,10.18,33.19,27.7,65.2,34.06,99C857.06,471,853.93,499.81,837.29,521.64Z" transform="translate(-23.04 -9.39)"/><path class="cls-2" d="M77.32,81.66c0,50,31.38,90.49,70.16,90.49" transform="translate(-23.04 -9.39)"/><path class="cls-3" d="M147.48,172.15c0-50.57,35-91.5,78.29-91.5" transform="translate(-23.04 -9.39)"/><path class="cls-3" d="M102.74,86.2c0,47.51,20,86,44.74,86" transform="translate(-23.04 -9.39)"/><path class="cls-2" d="M147.48,172.15C147.48,107.53,188,55.23,238,55.23" transform="translate(-23.04 -9.39)"/><path class="cls-4" d="M132.72,172.79s9.95-.3,12.95-2.44,15.3-4.68,16-1.26,15,17,3.72,17.12-26.1-1.75-29.09-3.57S132.72,172.79,132.72,172.79Z" transform="translate(-23.04 -9.39)"/><path class="cls-5" d="M165.63,185c-11.23.09-26.1-1.75-29.09-3.57-2.28-1.39-3.19-6.37-3.49-8.67h-.33s.63,8,3.62,9.85,17.86,3.66,29.09,3.57c3.25,0,4.37-1.18,4.3-2.89C169.28,184.36,168.05,185,165.63,185Z" transform="translate(-23.04 -9.39)"/><ellipse class="cls-6" cx="182.46" cy="313.24" rx="120.69" ry="16.42"/><ellipse class="cls-7" cx="182.46" cy="313.24" rx="101.33" ry="13.78"/><ellipse class="cls-6" cx="594.23" cy="465.55" rx="182.65" ry="24.85"/><ellipse class="cls-6" cx="254.75" cy="455.87" rx="109.72" ry="14.93"/><path class="cls-8" d="M375.89,452.68c58.09,14.84,169.74-19.36,182-58.09" transform="translate(-23.04 -9.39)"/><path class="cls-8" d="M277.14,215.82s83.91-23.24,89.07,51.63-69.06,96.16-11,111" transform="translate(-23.04 -9.39)"/><path class="cls-8" d="M196.08,395.42s25.22-7,26.77,15.52-20.75,28.9-3.3,33.36" transform="translate(-23.04 -9.39)"/><path class="cls-2" d="M579.9,412.17l-5.09,32.46s-25,13.3-7.43,13.69,100.51,0,100.51,0,16,0-9.38-14.08l-5.09-34Z" transform="translate(-23.04 -9.39)"/><path class="cls-7" d="M563.84,458c4-3.56,11-7.26,11-7.26l5.09-32.46,73.52.07,5.09,32c5.93,3.28,9.6,5.8,11.75,7.73,3.26-.75,6.83-3.52-11.75-13.81l-5.09-34-73.52,1.95-5.09,32.46S553.78,455.81,563.84,458Z" transform="translate(-23.04 -9.39)"/><rect class="cls-2" x="427.6" y="176.53" width="331.25" height="230.74" rx="11.65"/><rect class="cls-6" x="438.75" y="188.85" width="308.96" height="172.86"/><circle class="cls-9" cx="593.23" cy="183.38" r="1.96"/><path class="cls-2" d="M781.9,384.8V405a11.65,11.65,0,0,1-11.65,11.65h-308A11.65,11.65,0,0,1,450.64,405h0V384.8Z" transform="translate(-23.04 -9.39)"/><polygon class="cls-2" points="679.66 470.05 679.66 473.96 469.25 473.96 469.25 470.83 469.54 470.05 474.73 455.97 675.36 455.97 679.66 470.05"/><path class="cls-2" d="M783.67,475.61c-.38,1.64-1.83,3.37-5.1,5-11.73,5.87-35.59-1.56-35.59-1.56s-18.38-3.13-18.38-11.34a14,14,0,0,1,1.61-1c4.94-2.61,21.29-9.05,50.29.27a12,12,0,0,1,5.51,3.61A5.77,5.77,0,0,1,783.67,475.61Z" transform="translate(-23.04 -9.39)"/><path class="cls-7" d="M783.67,475.61c-14.36,5.5-27.16,5.92-40.3-3.21-6.62-4.6-12.64-5.74-17.16-5.65,4.94-2.61,21.29-9.05,50.29.27a12,12,0,0,1,5.51,3.61A5.77,5.77,0,0,1,783.67,475.61Z" transform="translate(-23.04 -9.39)"/><ellipse class="cls-9" cx="742.63" cy="461.44" rx="5.08" ry="1.56"/><circle class="cls-9" cx="593.23" cy="391.44" r="7.43"/><polygon class="cls-7" points="679.66 470.05 679.66 473.96 469.25 473.96 469.25 470.83 469.54 470.05 679.66 470.05"/><rect class="cls-2" x="124.38" y="141.88" width="134.24" height="156.19"/><rect class="cls-6" x="110.82" y="126.39" width="161.35" height="55.5"/><rect class="cls-6" x="110.82" y="192.23" width="161.35" height="55.5"/><rect class="cls-6" x="110.82" y="258.06" width="161.35" height="55.5"/><rect class="cls-10" x="229.58" y="136.08" width="10.33" height="10.33"/><rect class="cls-11" x="244.42" y="136.08" width="10.33" height="10.33"/><rect class="cls-3" x="259.27" y="136.08" width="10.33" height="10.33"/><rect class="cls-10" x="229.58" y="201.26" width="10.33" height="10.33"/><rect class="cls-11" x="244.42" y="201.26" width="10.33" height="10.33"/><rect class="cls-3" x="259.27" y="201.26" width="10.33" height="10.33"/><rect class="cls-10" x="229.58" y="266.45" width="10.33" height="10.33"/><rect class="cls-11" x="244.42" y="266.45" width="10.33" height="10.33"/><rect class="cls-3" x="259.27" y="266.45" width="10.33" height="10.33"/><circle class="cls-2" cx="258.62" cy="386.49" r="50.99"/><rect class="cls-2" x="235.39" y="426.51" width="15.49" height="27.75"/><rect class="cls-2" x="266.37" y="426.51" width="15.49" height="27.75"/><ellipse class="cls-2" cx="248.29" cy="454.58" rx="12.91" ry="4.84"/><ellipse class="cls-2" cx="279.27" cy="453.94" rx="12.91" ry="4.84"/><circle class="cls-12" cx="259.91" cy="373.58" r="17.43"/><circle class="cls-6" cx="259.91" cy="373.58" r="5.81"/><path class="cls-3" d="M232.2,348.47c-4.11-18.44,9.05-37.07,29.4-41.62s40.18,6.72,44.3,25.16-9.37,25.24-29.72,29.78S236.32,366.9,232.2,348.47Z" transform="translate(-23.04 -9.39)"/><ellipse class="cls-2" cx="326.33" cy="378.36" rx="25.49" ry="8" transform="translate(-145.59 149.53) rotate(-23.17)"/><ellipse class="cls-2" cx="230.81" cy="412.56" rx="25.49" ry="8" transform="translate(-166.76 114.71) rotate(-23.17)"/><path class="cls-12" d="M311.35,410.73c0,5-12.85,14.84-27.11,14.84s-27.75-9.21-27.75-14.2,13.5-3.87,27.75-3.87S311.35,405.74,311.35,410.73Z" transform="translate(-23.04 -9.39)"/></svg>