<svg id="aaafdec0-95c8-49a3-a8f8-64216c6da511" xmlns="http://www.w3.org/2000/svg" xmlns:xlink="http://www.w3.org/1999/xlink" viewBox="0 0 849.04 559.93"><defs><style>.cls-1{opacity:0.18;fill:url(#linear-gradient);}.cls-1,.cls-2,.cls-5,.cls-7,.cls-8,.cls-9{isolation:isolate;}.cls-10,.cls-2,.cls-7{fill:#42a5f5;}.cls-2,.cls-8,.cls-9{opacity:0.1;}.cls-3{fill:url(#linear-gradient-2);}.cls-4,.cls-5{fill:#fff;}.cls-5{opacity:0.04;}.cls-6,.cls-8{fill:#5a5773;}.cls-7{opacity:0.2;}.cls-11,.cls-15{fill:none;}.cls-12{fill:#535461;}.cls-13{fill:#3f3d56;}.cls-14{fill:#9d9cb5;}.cls-15{stroke:#535461;stroke-miterlimit:10;stroke-width:2px;}.cls-16{fill:#ffb8b8;}.cls-17{fill:#2f2e41;}.cls-18{fill:#575a89;}</style><linearGradient id="linear-gradient" x1="9.98" y1="289.5" x2="859.02" y2="289.5" gradientUnits="userSpaceOnUse"><stop offset="0" stop-color="#ff8a65"/><stop offset="1" stop-color="#55abe5"/></linearGradient><linearGradient id="linear-gradient-2" x1="465.74" y1="185.57" x2="465.74" y2="501.55" gradientTransform="matrix(1, 0, 0, -1, -9.98, 588.47)" gradientUnits="userSpaceOnUse"><stop offset="0" stop-color="gray" stop-opacity="0.25"/><stop offset="0.54" stop-color="gray" stop-opacity="0.12"/><stop offset="1" stop-color="gray" stop-opacity="0.1"/></linearGradient></defs><path class="cls-1" d="M841.72,532.78a79,79,0,0,1-17.4,16.67c-32.37,22.8-81.67,23.47-124.81,15.11s-83.86-24.35-127.26-31.3c-69-11-138.92,1.55-206.33,14s-137.3,25.23-206.37,14.55c-65-10-129.44-46.71-145.61-97.24a77.36,77.36,0,0,1-2.42-9.47c-14.57-75.84,79-138,79.23-214.3.07-21.31-7.28-42.42-9.32-63.74C74.61,105.8,135,36,219.9,16.7,368.87-17.11,519,80.29,672.1,70.17c152.65-10,167.72,48.18,143.83,163.58A240,240,0,0,0,822,353c10.45,33.93,28.32,66.63,34.83,101.07C861.92,481.07,858.68,510.48,841.72,532.78Z" transform="translate(-9.98 -9.53)"/><ellipse class="cls-2" cx="179.29" cy="451.45" rx="51.82" ry="8.32"/><ellipse class="cls-2" cx="644.14" cy="496" rx="91.88" ry="8.92"/><rect class="cls-3" x="176.85" y="86.92" width="557.8" height="315.98" rx="7.33"/><rect class="cls-4" x="177.74" y="91.36" width="556.1" height="310.48" rx="7.33"/><rect class="cls-4" x="177.74" y="91.36" width="556.1" height="310.48" rx="7.33"/><rect class="cls-5" x="177.74" y="91.36" width="556.1" height="310.48" rx="7.33"/><path class="cls-6" d="M741,97.33H190.54a2.82,2.82,0,0,0-2.82,2.82v11.94H743.79V100.15A2.82,2.82,0,0,0,741,97.33Z" transform="translate(-9.98 -9.53)"/><g id="_6c975d28-8d47-4ade-9154-b3b78f637b65" data-name="6c975d28-8d47-4ade-9154-b3b78f637b65"><circle class="cls-4" cx="188.84" cy="95.17" r="3.82"/><circle class="cls-4" cx="199.12" cy="95.17" r="3.82"/><circle class="cls-4" cx="209.39" cy="95.17" r="3.82"/></g><rect class="cls-7" x="223.54" y="130.3" width="149.23" height="12.67"/><rect class="cls-8" x="223.54" y="181.09" width="464.49" height="194.85"/><path class="cls-9" d="M505.49,203.33h-7.95V187.89a31.77,31.77,0,1,0-63.53-.67v16.11h-7.94a13.28,13.28,0,0,0-13.23,13.24v63.52a13.28,13.28,0,0,0,13.23,13.24h79.42a13.28,13.28,0,0,0,13.23-13.24V216.57A13.28,13.28,0,0,0,505.49,203.33Zm-35.07,41.3v22.75a4.75,4.75,0,0,1-4.4,4.76,4.64,4.64,0,0,1-4.86-4.42v-23.1a10.55,10.55,0,1,1,9.26,0Zm17.86-41.3h-45V187.46a22.5,22.5,0,0,1,45,0Z" transform="translate(-9.98 -9.53)"/><path class="cls-10" d="M505.49,202.16h-7.95V186.71a31.77,31.77,0,1,0-63.53-.66v16.11h-7.94a13.27,13.27,0,0,0-13.23,13.24v63.52a13.26,13.26,0,0,0,13.23,13.23h79.42a13.26,13.26,0,0,0,13.23-13.23V215.4A13.27,13.27,0,0,0,505.49,202.16Zm-35.07,41.29V266.2A4.76,4.76,0,0,1,466,271a4.64,4.64,0,0,1-4.86-4.42V243.44a10.56,10.56,0,1,1,9.26,0Zm17.86-41.29h-45V186.28a22.5,22.5,0,0,1,45,0Z" transform="translate(-9.98 -9.53)"/><rect class="cls-8" x="641.02" y="162.34" width="47.02" height="11.1"/><path class="cls-11" d="M629.4,499.14s-2.52,3.13-5.87,3.37a3.45,3.45,0,0,0-3.43,3.3s.58,1.9-7.53,4.54c-4.9,1.58-8,1.08-9.78,0,4.62-.48,14.82-3.4,15.85-4.41,1.22-1.23,2.75-4.6,3.79-4.65.73-.05,4.39-2.26,6.6-3.63Z" transform="translate(-9.98 -9.53)"/><path class="cls-9" d="M626,299.13h0a13.3,13.3,0,0,1-.33,2.35c0-.22,0-.34-.05-.36S625.69,300.18,626,299.13Z" transform="translate(-9.98 -9.53)"/><rect class="cls-12" x="177.63" y="292.02" width="3.33" height="75.07"/><path class="cls-13" d="M211.9,376.4l-.21,3.38-.3,4.77-.12,2-.29,4.78-.13,2-.3,4.77-3.36,54.28A9.19,9.19,0,0,1,198,461H180.54a9.19,9.19,0,0,1-9.17-8.63L168,398.08l-.3-4.77-.12-2-.29-4.79-.12-2-.29-4.77-.21-3.38a4.75,4.75,0,0,1,4.45-5.05h36a4.76,4.76,0,0,1,4.76,4.75C211.91,376.19,211.9,376.29,211.9,376.4Z" transform="translate(-9.98 -9.53)"/><polygon class="cls-14" points="201.71 370.25 201.41 375.02 157.17 375.02 156.88 370.25 201.71 370.25"/><polygon class="cls-14" points="201.29 377.01 200.99 381.79 157.59 381.79 157.29 377.01 201.29 377.01"/><polygon class="cls-14" points="200.87 383.78 200.57 388.55 158.02 388.55 157.72 383.78 200.87 383.78"/><path class="cls-10" d="M161.77,329.69c19.42,14.05,27.51,36,27.51,36s-23.41-.81-42.85-14.85-27.51-36-27.51-36S142.35,315.65,161.77,329.69Z" transform="translate(-9.98 -9.53)"/><path class="cls-15" d="M119,314.84s24.29,13.5,32.08,24.66,38.25,26.22,38.25,26.22" transform="translate(-9.98 -9.53)"/><path class="cls-10" d="M174.3,301.42c10.57,7.63,15,19.61,15,19.61s-12.74-.44-23.31-8.09-15-19.6-15-19.6S163.74,293.74,174.3,301.42Z" transform="translate(-9.98 -9.53)"/><path class="cls-15" d="M151,293.31s13.22,7.34,17.46,13.41S189.28,321,189.28,321" transform="translate(-9.98 -9.53)"/><path class="cls-10" d="M204.64,320.39c-12.15,13.34-14.71,30.78-14.71,30.78S207,347,219.18,333.63s14.71-30.78,14.71-30.78S216.78,307,204.64,320.39Z" transform="translate(-9.98 -9.53)"/><path class="cls-15" d="M233.89,302.85s-15.81,13.67-19.83,23.1-24.13,25.24-24.13,25.24" transform="translate(-9.98 -9.53)"/><polygon class="cls-16" points="670.22 462.67 672.03 475.32 681.07 474.42 680.17 461.31 670.22 462.67"/><polygon class="cls-16" points="627.27 462.67 625.46 475.32 616.42 474.42 617.33 461.31 627.27 462.67"/><path class="cls-17" d="M624.14,341.09a33.42,33.42,0,0,0-6.33,24.42c1.81,14.91,5,48.82,5,48.82l2.26,60.13,14.47-.9,2.26-51.09L649,381.33l19.44,47.92S677.94,474,678.39,474,692,472.65,692,472.65l-6.33-52.89s-10-76.86-15.82-78.22S624.14,341.09,624.14,341.09Z" transform="translate(-9.98 -9.53)"/><path class="cls-17" d="M692,482.14s-8.14-5.42-11.3.91-.46,10.85-.46,10.85,2.72,1.81,1.36,3.62-1.81,13.56,10,11.75,5.87-14,5.87-14Z" transform="translate(-9.98 -9.53)"/><path class="cls-17" d="M625.5,482.14s8.14-5.42,11.3.91.45,10.85.45,10.85-2.71,1.81-1.35,3.62,1.81,13.56-9.95,11.75-5.87-14-5.87-14Z" transform="translate(-9.98 -9.53)"/><path class="cls-16" d="M635.22,253.16s4.07,11.3.9,17.63,5,13.57,5,13.57,21.25-10.85,18.53-16.28-7.23-12.66-6.33-17.18Z" transform="translate(-9.98 -9.53)"/><circle class="cls-16" cx="633.15" cy="233.46" r="14.47"/><path class="cls-10" d="M632.73,270.11s14.52,12.08,25.35-5l11.27,6.39,5.88,68.72s-33,19-48.83,2.71l2.26-63.74Z" transform="translate(-9.98 -9.53)"/><polygon class="cls-18" points="627.31 253.81 606.93 267.36 614.16 300.82 604.67 352.81 620.04 329.75 627.31 253.81"/><path class="cls-18" d="M655.31,259.58l5,3.3,20.35,7.23-3.17,56.06,8.59,36.17-12.21,6.33s-2.26-17.18-16.27-25.77S652.11,262.15,655.31,259.58Z" transform="translate(-9.98 -9.53)"/><path class="cls-16" d="M621.43,347.42l5.88,4.07s-7.46,7.91-8.82,6.56a3.73,3.73,0,0,1-1.13-2.94L616,351.94Z" transform="translate(-9.98 -9.53)"/><path class="cls-16" d="M660.5,346.54l-2,3.14s-5.87,2.72-4.52,4.52,12.66,5.88,14.92,1.81l2.26-4.07Z" transform="translate(-9.98 -9.53)"/><path class="cls-18" d="M619.62,276.44l-3.16.46-5.2,33.68s-2,6.1.23,20.57S616,355,616,355l10-7.16-4.52-11.75,5.88-42.95Z" transform="translate(-9.98 -9.53)"/><path class="cls-18" d="M673.42,269.21l7.24.9s8.13,8.59,9.49,17.64.9,34.81.9,34.81l-20.79,33L659,347.42l15.83-28-7.69-33.45Z" transform="translate(-9.98 -9.53)"/><path class="cls-17" d="M656.93,229.9a16.85,16.85,0,0,0-9.62-7.34l-2.94,2.35,1.15-2.75a15.74,15.74,0,0,0-2.91-.16L640,225.4l1.09-3.29A16.78,16.78,0,0,0,629.51,229c-3.36,4.85-3.93,11.6-.62,16.5.91-2.8,2-5.42,2.92-8.21a8.15,8.15,0,0,0,2.15,0l1.11-2.58.31,2.47c3.43-.3,8.51-.95,11.76-1.55l-.32-1.9,1.89,1.58c1-.23,1.59-.44,1.54-.6,2.42,3.9,4.81,6.38,7.23,10.28C658.39,239.48,660,234.92,656.93,229.9Z" transform="translate(-9.98 -9.53)"/><ellipse class="cls-16" cx="646.14" cy="233" rx="0.98" ry="1.96"/></svg>