<svg id="aaafdec0-95c8-49a3-a8f8-64216c6da511" xmlns="http://www.w3.org/2000/svg" xmlns:xlink="http://www.w3.org/1999/xlink" viewBox="0 0 607.6 399.44"><defs><style>.cls-1,.cls-11,.cls-2{opacity:0.1;}.cls-1,.cls-17,.cls-2{isolation:isolate;}.cls-2{fill:url(#linear-gradient);}.cls-3{fill:url(#linear-gradient-2);}.cls-4{fill:#65617d;}.cls-5{fill:#a5636d;}.cls-6{fill:#e7effd;}.cls-7{fill:#3f3d56;}.cls-8{fill:#5f5d7e;}.cls-9{fill:#42a5f5;}.cls-10{fill:#4c3e42;}.cls-12{fill:#e6e8ec;}.cls-13{fill:#444053;}.cls-14{opacity:0.7;}.cls-15{fill:url(#linear-gradient-3);}.cls-16{fill:#fbbebe;}.cls-17{opacity:0.05;}.cls-18{fill:#5c5c8e;}.cls-19{fill:none;}.cls-20{fill:#f7cddd;}.cls-21{fill:#7c5c5c;}.cls-22{opacity:0.5;}</style><linearGradient id="linear-gradient" x1="9.4" y1="224.22" x2="617" y2="224.22" gradientUnits="userSpaceOnUse"><stop offset="0" stop-color="#ff8a65"/><stop offset="1" stop-color="#55abe5"/></linearGradient><linearGradient id="linear-gradient-2" x1="536.47" y1="-33.67" x2="536.47" y2="276.83" gradientTransform="matrix(1, 0, 0, -1, -25.44, 371.76)" gradientUnits="userSpaceOnUse"><stop offset="0" stop-color="gray" stop-opacity="0.25"/><stop offset="0.54" stop-color="gray" stop-opacity="0.12"/><stop offset="1" stop-color="gray" stop-opacity="0.1"/></linearGradient><linearGradient id="linear-gradient-3" x1="135.38" y1="13.29" x2="135.38" y2="221.57" xlink:href="#linear-gradient-2"/></defs><path class="cls-1" d="M601.63,203.48s13.89-4.44,15.37,0Z" transform="translate(-9.4 -24.5)"/><path class="cls-2" d="M572.85,352.27q-2.85,2.5-5.82,4.86c-.33.27-.68.53-1,.8a202.74,202.74,0,0,1-22.2,15l-1.45.84c-.34.22-.69.41-1.05.61-8.07,4.66-16.44,8.94-24.91,13l-.09.05-.64.3q-10.25,4.92-20.8,9.4l-.17.07q-4.76,2-9.52,3.9c-1.29.53-2.59,1-3.89,1.52-2.45.94-4.9,1.86-7.38,2.74l-.31.12-.52.18-.67.24q-9.68,3.47-19.62,6.39l-.11,0q-6.93,2-14,3.74l-.64.16c-6.87,1.66-13.85,3.09-20.88,4.23l-1.62.26q-7.71,1.21-15.52,2c-29.29,2.83-58.92.53-88-3.42-58.77-8-116.77-22.92-169.66-46.35q-15.23-6.74-29.86-14.43a2.53,2.53,0,0,0-.23-.12q-8.76-4.61-17.28-9.6-2.5-1.44-5-2.93c-2-1.22-4-2.46-6-3.7q-4-2.47-7.93-5.08l-1.24-.82-.48-.32-2-1.36c-24.85-16.92-47-37.42-57.47-63.08-12.1-29.61-4.36-67.15,25.6-84.65,10.3-6,22.27-9.3,34.37-12l1.24-.27c2-.45,4.09-.89,6.13-1.32,7.13-1.51,14.3-3,21.4-4.69h0c3.7-.87,7.36-1.79,11-2.78l1.49-.41a178.92,178.92,0,0,0,25.7-9.05h.05c.89-.4,1.78-.81,2.64-1.23.57-.27,1.13-.53,1.69-.82,9-4.47,18.5-10.68,25.82-18.07.59-.59,1.16-1.19,1.72-1.8s.85-.94,1.26-1.42c5.13-6,8.68-12.63,9.36-19.68h0a25.23,25.23,0,0,0-.32-7.1c-.83-4.44-1.63-8.78-2.22-13-1.11-8-1.48-15.56.05-22.89h0c1.56-7.48,5.1-14.68,11.85-21.66,1-1,2.11-2.11,3.29-3.17a69.58,69.58,0,0,1,18.31-11.57l2.49-1.05c18.55-7.51,40.84-9.08,61.66-8a335.75,335.75,0,0,1,57.76,8c1.51.33,3,.69,4.51,1.05A400.9,400.9,0,0,1,389.32,48.6c40.38,15.19,78.5,36.28,114.11,59.55l1.06.69q2.22,1.45,4.43,2.92,4.27,2.83,8.46,5.69l1.89,1.29,2.78,1.91,2.83,2h0a3.28,3.28,0,0,1,.38.27l2.41,1.67c1.4,1,2.78,2,4.17,2.93h0l3,2.12,1.86,1.33,3.17,2.32.71.53.44.32.09.06c8.59,6.31,17,12.85,24.85,19.78l1,.9.11.1c.85.76,1.71,1.53,2.55,2.31a171.93,171.93,0,0,1,27,30.49C631.14,239,620.89,310,572.85,352.27Z" transform="translate(-9.4 -24.5)"/><path class="cls-3" d="M595.48,204.63c.34-.92-2.19-6-2.19-6.28s-2.64-3.09-2.64-4.69-3.45-5-3.45-5-4.65-1.93-5.15-6.12-5.38-4.27-5.57-4.27c0,0,0-.38,0-1a13.87,13.87,0,0,0-.63-4.89A5,5,0,0,0,573,170s-.53-3.26-1.53-4.27a4.78,4.78,0,0,1-1.17-4.52,6,6,0,0,0-.66-3.91A4,4,0,0,0,567.2,155h-.09c-2.42-.59-5.13-1.48-5.13-1.48l-.68.11-.34-.11a17.11,17.11,0,0,1-1.77.22,2.2,2.2,0,0,1-1.43-.47c-.84-.93-7.68-2.68-8.94-2.68s-4.9-1.68-4.9-1.68l-3.62-2.76c-1-.78-2.89-3.92-3.17-4.38l0-.06h0a13.62,13.62,0,0,1-.67-1.85c0-.11-.06-.23-.1-.36h0a20,20,0,0,0,2-2.47v0c.16-.22.31-.47.47-.71s.43-.72.63-1.09c.09-.17.16-.34.25-.5a1.6,1.6,0,0,0,.53-.09l.23-.08a3,3,0,0,0,.58-.37l.17-.15a4.17,4.17,0,0,0,1-1.62c.06-.18.11-.37.16-.53a1.29,1.29,0,0,1,0-.19,3.22,3.22,0,0,0,.08-.39l0-.21a2.2,2.2,0,0,1,.06-.37.78.78,0,0,0,0-.22,4.19,4.19,0,0,1,.06-.48,17.36,17.36,0,0,1,.26-1.76v0A13.62,13.62,0,0,1,544.2,125c.53-1,1.11-2,1.59-3.08h0c.13-.3.27-.61.38-.92s.23-.67.34-1a2,2,0,0,1,.07-.31,6.74,6.74,0,0,0,.17-.75,3.4,3.4,0,0,0,.07-.34c.06-.35.1-.69.13-1.05a13,13,0,0,0-.86-5.89c-.63-1.59-1.59-3-2.22-4.56-1-2.38-1.22-5.08-2.4-7.35A8.77,8.77,0,0,0,531,95.41c-1.83.68-3.42,2-5.29,2.6-2.48.8-5.15.2-7.73-.16s-5.44-.39-7.51,1.29c-2.38,1.94-3,5.59-5.29,7.72a12.06,12.06,0,0,1-1.76,1.32c-.45.31-.91.62-1.34,1a5,5,0,0,0-1.56,2.12l-.06.18-.06.21a2.13,2.13,0,0,1,0,.25,1.07,1.07,0,0,0,0,.18,2.41,2.41,0,0,0,0,.38h0v.06a3,3,0,0,0,.06.42v.12a2.55,2.55,0,0,0,.11.35v.07c0,.13.1.26.15.38a.52.52,0,0,0,.08.19.77.77,0,0,1,.07.16,9.84,9.84,0,0,1,.78,1.94,2.11,2.11,0,0,1-.08,1.29,2,2,0,0,1-.33.56,6.27,6.27,0,0,1-.6.66,17.69,17.69,0,0,0-3.81,6.1l-.27.78h0l.11,0,.11,0a3.53,3.53,0,0,0,.63.13,3,3,0,0,0,.43.05,6.25,6.25,0,0,0,1.72-.14,1.4,1.4,0,0,0,.28-.06h0a.16.16,0,0,0,.09,0h.05a8.35,8.35,0,0,0,1.38-.48l.33-.14v2a19.89,19.89,0,0,0,10.13,16.17c.3.18.59.34.9.49,0,.18.05.37.07.53a3.87,3.87,0,0,1,.06.46l-.23-.22a1.51,1.51,0,0,0-.63-.13,2,2,0,0,0-1,.26,3.63,3.63,0,0,0-1.32,1.29,9.41,9.41,0,0,1-4.14,3.17s-15.33,2.43-15.93,4.43l-7.17.43s-2.53.33-2.78,5.61v.12c0,.63-.09,1.19-.14,1.69v.08c-.45,3.51-1.45,3.89-1.45,3.89s-3,5.19-2.7,7.87v.06h0a3.62,3.62,0,0,1-.07,1.09h0a4.82,4.82,0,0,1-2.21,2.85l-.34,4.75s-2.78-.41-3.54,2.85a11.29,11.29,0,0,1-2.11,4.76s-4.64,3.86-4.89,7.12l-2.88,1.76s-6.65-1.51-8.17-4.19c0,0-.18-.18-.47-.44l0-.06v0a24.11,24.11,0,0,0-2.79-2.46,2.06,2.06,0,0,1,.14,1.36l-.5-.53-1.33-1.48s-1.89-1.78-4.56-3.9h0l-1.93-1.49c-3.42-2.53-7.53-5.1-10.58-5.49-.06-.12-.32-1.08-.91-1.08a1,1,0,0,0-.66.32,8.79,8.79,0,0,0-.52,12.43c.15.16.3.32.46.47l.7.65,2.14,2,7.25,6.76a2.14,2.14,0,0,0,.26.19l.43.53.33.43.58.74.83,1-.13.33c-.31.76-.58,1.5-.8,2.17v.08l-.16.48a.48.48,0,0,1-.05.17c0,.16-.09.32-.14.46s-.05.18-.08.27a1.22,1.22,0,0,1-.05.17c-.24.84-.38,1.48-.46,1.84l-.56-.17.53.24v.09l0,.17.53.22.12.06,2.08.91h0l1.36.6c.48.23.86.39,1.33.59h0c5.41,2.41,13,5.87,13.54,6.57.84,1.09,6.41,4.27,11.47,1.58s6.15-6.79,6.15-6.79,4.9-6.77,5.07-7.78c.12-.77,2.39-1.64,3.43-2l.1,0,.43-.14v1.28a65.09,65.09,0,0,1-.78,11.22v0a12,12,0,0,1-.84,2.8c-1.94,4.1-5.56,22.28-5.56,22.28h.09a2.21,2.21,0,0,1,.63,0c-.07.34-.12.6-.16.78s0,.27,0,.27H477a2.56,2.56,0,0,1,.62,0l.2,0a3.33,3.33,0,0,1-.05.38v.13s0,.17,0,.26c-.44,3-1.71,10.89-1.71,10.89s-.53,4.36-1.35,5.86a14,14,0,0,0-.71,4.23c0,.27,0,.53-.06.81-.14,2.24-.16,4.34-.16,4.34l0,.13-1.24,5.64a1,1,0,0,0,.07.15h0c.09.17.23.46.44.82h0l.06.14a16,16,0,0,0,2.93,4.13,8,8,0,0,0,.89.75h0a1.29,1.29,0,0,1,0,.19c0,.05,0,.2,0,.29a8.25,8.25,0,0,1-.59,2.12,7.13,7.13,0,0,0-.61,2.3h0a9.86,9.86,0,0,0,0,1.72l-.07.31h0c-.19.86-.72,3.39-1,5.44-.07.47-.13.93-.17,1.35a5.82,5.82,0,0,0,0,1.18,9.4,9.4,0,0,1-.11,2,4,4,0,0,1-.07.58c-.28,1.86-.75,3.81-.75,3.81l-1.52,14.57v.86a1.76,1.76,0,0,1,0,.38c0,.34-.05.75-.09,1.23a5,5,0,0,1,0,.53,3,3,0,0,1,0,.5v.27a2.18,2.18,0,0,1,0,.42,1.78,1.78,0,0,0,0,.4v.38c-.05.78-.1,1.62-.14,2.47v.81a5.77,5.77,0,0,1,0,.82v5.38c0,.56.06,1.12.13,1.68.06.41.1.85.12,1.29v.61a1.6,1.6,0,0,1,0,.31v2.37c-.13,1.82-.38,3.29-.41,3.52h0v.5c0,.13,0,.3,0,.49v.26h0a1.12,1.12,0,0,0,0,.31c0,.11,0,.1,0,.16s0,.38.06.59.05.43.06.65l0,.42c0,.2.05.41.06.62v.21c0,.14,0,.28,0,.43l.05.65c0,.14,0,.29,0,.43a1.52,1.52,0,0,1,0,.22l.07.86a2,2,0,0,0,0,.42c0,.22,0,.45.05.66s0,.49,0,.71a4.86,4.86,0,0,1,0,.65,8.92,8.92,0,0,1,0,1.79c-.14.6-.58,2.29-.84,4.12a4.1,4.1,0,0,1-.06.49,2.91,2.91,0,0,0,0,.3l0,.4c0,.31,0,.64,0,.95a7.52,7.52,0,0,0,.24,2.11,9.58,9.58,0,0,1,.26,1.4.63.63,0,0,0,0,.23c0,.17,0,.35.05.53s0,.36,0,.53c0,.37,0,.75.05,1.14v.76c0,2.23-.07,4.42-.1,5v.14s.53,9.38,1.09,12.39a12.15,12.15,0,0,1,.17,1.21,3.54,3.54,0,0,0,0,.46,22.65,22.65,0,0,1-.36,5.2s-.59,6.45-.84,6.45a4.1,4.1,0,0,0-.75,2.49v.05a8.14,8.14,0,0,0,2.77,6.26l.26.24.3-.11c2.48-.89,4.93-1.81,7.38-2.74l3.9-1.52q4.8-1.9,9.51-3.91h0a.55.55,0,0,1-.3-.38c-.49-1.29.24-5.28.39-5.9s1.51-13.65,1.51-13.65-.52-4.1.17-5.86-.84-8.55-.84-8.55a1.51,1.51,0,0,1,.42-1.84c1-1,.59-10,.59-10s-.08-4.53-.08-5.7a20.9,20.9,0,0,1,1.93-6.88c.92-1.42.35-5.86.35-5.86h0l.05-.34a3.35,3.35,0,0,1,.07-.47l.08-.45A62.12,62.12,0,0,1,500.9,324c1.1-3.52,2.37-9.72,2.37-9.72l7.37-19.78h0l.24-.61.09-.24s3.63,6.7,3.63,12.9c0,0,.93,7.45.68,9.46s.75,11.48.75,11.48,1.09,13.57,1.09,14.15,1.36,11,2.2,12.61-.84,6.45-1.35,6.95.17,12.82.17,12.82-1.27,9.71-1.52,11.72c0,.37-.12.92-.2,1.59,8.46-4.06,16.84-8.35,24.91-13l1.06-.6.05-12s.6-5.61-.08-7.88-1.35-6.61-.42-7.78.09-6.61.09-6.61,0-11.48,1.26-14.33.85-20.85.85-20.85l.33-11.81s2.69-2.55,2.11-15.75v-.45c2.94-.19,6.26-.29,6.76.12.8.64,5.33,3.57,8.84,2.84h0a4.24,4.24,0,0,0,1.61-.67A46.6,46.6,0,0,0,568,275.3l-1.34-22.59h0l-.14-2.51c.25.39.47.73.66,1.06.53.8.82,1.29.82,1.29,0-3.51,10-14.9,10-14.9s9.28-12,11.3-13.4,6-9,6-9a36.53,36.53,0,0,1,2-4.18C598.19,209.57,595.14,205.55,595.48,204.63Zm-29.69,16.08a5.23,5.23,0,0,1-1.12,2.26c0-.53-.08-1-.13-1.55v-.14c-.59-7.37-1.22-16.29-.93-17.16a20.53,20.53,0,0,0,.35-4.32h0c0-2,0-4,0-4h0l.09-.13c1.71,5.29,7,11.45,7,11.45s.93,2.68,2,2.77.67,3.51.67,3.51a4.05,4.05,0,0,0-1.43.53,13.57,13.57,0,0,0-1.5,1h0C568.38,216.82,565.85,219.85,565.79,220.71Z" transform="translate(-9.4 -24.5)"/><path class="cls-4" d="M438.52,211.54s3.08-16.13,13-16.22l7.24,14.88-4.87,3.31S443.4,213.84,438.52,211.54Z" transform="translate(-9.4 -24.5)"/><path class="cls-1" d="M458.69,210.18l-4.84,3.33a57.28,57.28,0,0,1-12.64-1.06,15,15,0,0,1-2.69-.91,1,1,0,0,1,.05-.26v-.07a37.33,37.33,0,0,1,1.87-5.92c.3-.72.65-1.47,1-2.21,1.45-2.79,3.49-5.52,6.27-6.88a8.59,8.59,0,0,1,3.3-.86h.44l.16.33,2.44,5Z" transform="translate(-9.4 -24.5)"/><path class="cls-4" d="M540.82,277.18s10.39-1,11.3-.25,6.81,4.57,10.31,2.16,1.16-10.81,1.16-11.14-.33-12.22-.33-12.22L557,247.34l-7.82-14.71-16-1.59.42,23.36-.08,12Z" transform="translate(-9.4 -24.5)"/><path class="cls-1" d="M540.82,277.18s10.39-1,11.3-.25,6.81,4.57,10.31,2.16,1.16-10.81,1.16-11.14-.33-12.22-.33-12.22L557,247.34l-7.82-14.71-16-1.59.42,23.36-.08,12Z" transform="translate(-9.4 -24.5)"/><path class="cls-5" d="M449.38,194.89s-.82,10.14-7.16,10.3a50.29,50.29,0,0,1-4.2-2.88c-5.55-4.15-14.35-12.14-11.92-19.56,3.49-10.64,20.44,9,20.44,9l1.31,1.46Z" transform="translate(-9.4 -24.5)"/><path class="cls-1" d="M449.38,194.89s-.82,10.14-7.16,10.3a50.29,50.29,0,0,1-4.2-2.88l-.53-.69a8.23,8.23,0,0,0,3.47.93,4.65,4.65,0,0,0,4.52-2.85,38.75,38.75,0,0,0,1.75-4,11.9,11.9,0,0,0,.63-2.5Z" transform="translate(-9.4 -24.5)"/><path class="cls-6" d="M446.64,213.26l-1.42-1.83-4.76-6.16L438,202.12a8.19,8.19,0,0,0,3.46.93A4.62,4.62,0,0,0,446,200.2a35.9,35.9,0,0,0,1.75-4c.79-2.24.77-3.39.49-3.78a23.38,23.38,0,0,1,2.75,2.44l0,0,.45.43.18.34,2.4,4.82v.2C454.25,202.19,455.06,211.88,446.64,213.26Z" transform="translate(-9.4 -24.5)"/><path class="cls-7" d="M494.89,397.12a2.41,2.41,0,0,0-.5-.33h0c-1-.42-.08-5.57.09-6.24S495.93,377,495.93,377s-.49-4.07.17-5.82-.83-8.46-.83-8.46a1.55,1.55,0,0,1,.41-1.83c.92-1,.59-9.89.59-9.89s-.08-4.49-.08-5.65a20.74,20.74,0,0,1,1.9-6.82c.92-1.42.34-5.81.34-5.81h0l.05-.34c0-.12,0-.28.07-.47l.08-.44a2.21,2.21,0,0,1,.06-.34c0-.27.1-.53.16-.87s.06-.39.11-.59c.12-.63.26-1.33.41-2.05.05-.22.1-.45.16-.67s.12-.53.19-.8.08-.32.13-.49c.12-.48.25-1,.4-1.4,1.05-3.5,2.33-9.65,2.33-9.65l7.72-20.29.09-.24.25.47h0c.8,1.62,3.32,7.14,3.32,12.32,0,0,.92,7.4.67,9.39s.75,11.39.75,11.39,1.06,13.46,1.06,14,1.33,11,2.16,12.55-.83,6.41-1.33,6.88.17,12.72.17,12.72-1.25,9.64-1.51,11.63c0,.48-.15,1.28-.27,2.25l.64-.3.09-.05c8.46-4.06,16.84-8.34,24.91-13l.07-12.75s.58-5.57-.08-7.81-1.33-6.57-.42-7.74.09-6.56.09-6.56,0-11.39,1.24-14.21.84-20.7.84-20.7l.32-11.72s2.72-2.58,2.08-16.08c-.07-1.44-.18-3-.33-4.7-.46-5.09-.92-9.7-1.34-13.69,0-.35-.08-.68-.12-1s-.09-.88-.13-1.31c-.1-.91-.2-1.77-.29-2.6,0-.24-.06-.48-.09-.72-.14-1.18-.26-2.28-.38-3.28,0-.39-.1-.77-.14-1.14-.07-.53-.13-1.06-.19-1.55a2.27,2.27,0,0,0,0-.35,5.48,5.48,0,0,0-.07-.6c-.28-2.16-.44-3.34-.44-3.34h-.08l-8.36.07-18.24.18h-.54l-9.51.09h-.58l-4.57.05h-.78l-9.52.09h-.57l-3.91,16.1-8,18.29s-.12,2-.4,4v.12a.42.42,0,0,1,0,.19,1.72,1.72,0,0,0-.05.29,10.51,10.51,0,0,1-.67,2.59,6.45,6.45,0,0,0-.53,1.82h0a10.6,10.6,0,0,0-.12,2h0v.11s-.64,2.88-1,5.33c-.07.47-.13.93-.17,1.35a8.9,8.9,0,0,0-.07,1.55,8.46,8.46,0,0,1-.06,1.59,4,4,0,0,1-.07.58c-.26,1.94-.78,4.12-.78,4.12l-1.5,14.47v.65a1.76,1.76,0,0,1,0,.38c0,.34-.06.75-.09,1.22a4.84,4.84,0,0,1,0,.53,2.28,2.28,0,0,1,0,.51v.27a3.25,3.25,0,0,1,0,.42,1.78,1.78,0,0,0,0,.4v.38c0,.77-.1,1.61-.13,2.46v.82a5.56,5.56,0,0,1,0,.81v5.43a12.91,12.91,0,0,0,.13,1.76c.05.4.09.8.12,1.21v3.29c-.13,1.82-.38,3.29-.42,3.52h0v.5c0,.13,0,.3,0,.49v.26h0a1.12,1.12,0,0,0,0,.31c0,.11,0,.1,0,.16s0,.38.05.59,0,.43.07.65l0,.42c0,.2,0,.41.06.62v.21c0,.14,0,.28,0,.43l0,.65c0,.14,0,.29.05.43v.22l.07.86a3,3,0,0,0,0,.42,4.76,4.76,0,0,0,.06.66c0,.21,0,.49,0,.71a3.62,3.62,0,0,1,0,.65,8.34,8.34,0,0,1,0,1.73,42.28,42.28,0,0,0-.82,4.18c0,.16,0,.33-.06.49a1.46,1.46,0,0,0,0,.3l0,.4c0,.31,0,.64,0,.95a7,7,0,0,0,.23,2,10.62,10.62,0,0,1,.3,1.76c0,.34.06.7.09,1.05s0,.76,0,1.14v.77c0,2.51-.1,4.91-.1,4.91v.11c.05,1.05.53,9.39,1.05,12.19a10.93,10.93,0,0,1,.19,1.51,2.42,2.42,0,0,0,0,.46,24.67,24.67,0,0,1-.38,4.85s-.78,6.46-1,6.46a4.44,4.44,0,0,0-.75,2.89v0a8.21,8.21,0,0,0,2.74,5.82l.6.59c2.47-.88,4.92-1.8,7.37-2.74,1.3-.5,2.6-1,3.9-1.52,3.2-1.26,6.37-2.57,9.52-3.9Z" transform="translate(-9.4 -24.5)"/><path class="cls-5" d="M538.49,147.34l-12.3,13.14s-15.79-6.34-14.13-8.46c.64-.83.53-3.47.17-6.39-.58-4.6-1.83-9.9-1.83-9.9s27.59-4.49,25.26.17a7.61,7.61,0,0,0-.17,5.52A20.91,20.91,0,0,0,538.49,147.34Z" transform="translate(-9.4 -24.5)"/><path class="cls-1" d="M535.66,135.87c-.85,1.7-1.25,1.87-.72,3.71-3.61,3.87-8.2,8.1-13.9,8.1a19.63,19.63,0,0,1-8.81-2.06c-.58-4.61-1.83-9.91-1.83-9.91S538,131.22,535.66,135.87Z" transform="translate(-9.4 -24.5)"/><path class="cls-5" d="M540.82,127.39a19.79,19.79,0,1,1-39.57,0v-.32a19.79,19.79,0,0,1,39.57.28Z" transform="translate(-9.4 -24.5)"/><path class="cls-1" d="M543.68,257.9c-2.64,0-11.35.1-21.09.25h-.13l-3.22.06h-.1c-11.56.18-22.95-2.08-27.53-1.65-9.73.92,3.49-9,3.49-9a81,81,0,0,0,22.16,2.24l2.79-.14c8.84-.5,17.72-1.33,22.36-2.73C542.73,249.52,543.21,253.26,543.68,257.9Z" transform="translate(-9.4 -24.5)"/><path class="cls-8" d="M543.68,257.41c-2.64,0-11.35.09-21.09.25h-.13l-3.22,0h-.1c-11.56.18-22.95-2.07-27.53-1.65-9.73.91,3.49-9,3.49-9a81.4,81.4,0,0,0,22.16,2.23l2.79-.14c8.84-.5,17.72-1.33,22.36-2.72C542.73,249,543.21,252.78,543.68,257.41Z" transform="translate(-9.4 -24.5)"/><path class="cls-1" d="M515.71,152.85,500.42,160l-11.8,91.24s7-3.17,11-1.16,16.29.17,16.29.17,9-.53,10.31.5,17-4.16,17-4.16,2.82-6.32.66-7.31.66-10.83.66-10.83l-1.32-65.83-2.65-8.46-7.14-4.32L526,155.66l-3.49.5Z" transform="translate(-9.4 -24.5)"/><path class="cls-6" d="M515.71,151.83,500.42,159l-11.8,91.27s7-3.17,11-1.16,16.29.16,16.29.16,9-.5,10.31.5,17-4.16,17-4.16,2.82-6.31.66-7.31.66-10.81.66-10.81l-1.32-65.83-2.65-8.46-7.14-4.33L526,154.67l-3.49.5Z" transform="translate(-9.4 -24.5)"/><path class="cls-1" d="M515.46,156.07s4.41,5.24,4.33,6.32-.25,3.65-.25,3.65l-3.3,6.74s-1.83,8.4-1.83,10.14-2.91,16.87-2.91,16.87L508,223.06l-4.41,30.5,4.49,7.73,5.32-4.49,7.06-54.35,1.5-10.72s1.58-19.28,1.58-21.28a68.34,68.34,0,0,0-.91-7.23s1.08-5,5.57-6.15-.33-.25-.33-.25l-2.58-2.08-2.24.91S516.8,153.75,515.46,156.07Z" transform="translate(-9.4 -24.5)"/><path class="cls-9" d="M515,155.57s4.4,5.24,4.32,6.32-.25,3.66-.25,3.66l-3.33,6.73s-1.83,8.39-1.83,10.14S511,199.3,511,199.3l-3.49,23.26-4.4,30.5,4.48,7.73,5.32-4.49L519.94,202l1.5-10.72S523,172,523,170a68,68,0,0,0-.91-7.23s1.06-5,5.57-6.15-.33-.25-.33-.25l-2.58-2.08-2.24.92S516.3,153.24,515,155.57Z" transform="translate(-9.4 -24.5)"/><path class="cls-1" d="M512.06,146.85s-.67.49-.83,3.82-2.5,10.81-2.5,10.81,8.65-6,13-5.32Z" transform="translate(-9.4 -24.5)"/><path class="cls-6" d="M512.06,145.85s-.67.5-.83,3.82-2.5,10.81-2.5,10.81,8.65-6,13-5.32Z" transform="translate(-9.4 -24.5)"/><path class="cls-1" d="M535.67,144.19l-13.61,12s11.47,6.81,13,8.46,3-16.29,3-16.29Z" transform="translate(-9.4 -24.5)"/><path class="cls-6" d="M536.16,143.19l-13.63,12s11.47,6.81,13,8.46,3-16.3,3-16.3Z" transform="translate(-9.4 -24.5)"/><path class="cls-1" d="M512.54,146.85s-1.5-.76-2.91,1.41a9.46,9.46,0,0,1-4.07,3.17s-15.13,2.41-15.71,4.4l-7.07.42s-2.49.3-2.73,5.58-1.58,5.74-1.58,5.74-2.91,5.15-2.65,7.81a4.32,4.32,0,0,1-2.24,4l10.41,27s.33,11.14-1.59,15.21-5.49,22.11-5.49,22.11,1.5-.33,1.42.67-1.83,11.88-1.83,11.88-.5,4.32-1.33,5.82-.92,9.31-.92,9.31L472.89,277s3.17,7.07,8,6.07,13.54-19.87,13.54-19.87L500,242.85l4.33-20.12,1.24-13.63,2-30.17,2.91-20S513.72,148.26,512.54,146.85Z" transform="translate(-9.4 -24.5)"/><path class="cls-4" d="M512.06,145.85s-1.5-.75-2.91,1.41a9.43,9.43,0,0,1-4.08,3.18s-15.12,2.41-15.7,4.4l-7.07.42s-2.49.33-2.74,5.57-1.59,5.73-1.59,5.73-2.91,5.16-2.64,7.82a4.32,4.32,0,0,1-2.24,4l10.37,27s.33,11.14-1.59,15.21-5.48,22.11-5.48,22.11,1.5-.33,1.41.67S476,255.23,476,255.23s-.49,4.32-1.32,5.82-.92,9.31-.92,9.31L472.41,276s3.17,7.06,8,6.07,13.55-19.87,13.55-19.87l5.57-20.36,4.32-20.09,1.24-13.63,2-30.17L510,158S513.22,147.26,512.06,145.85Z" transform="translate(-9.4 -24.5)"/><path class="cls-1" d="M458.69,210.18l-4.84,3.33a57.28,57.28,0,0,1-12.64-1.06l-2.68-1.19L438,211l.55.18a11,11,0,0,0,6.66.23c6.82-2.29,6.07-13.56,5.81-16.11a2.51,2.51,0,0,0,0-.48v0l0,.06a2.88,2.88,0,0,0,.31.44,3.26,3.26,0,0,0,.31.33h0l2.41,4.81v.2Z" transform="translate(-9.4 -24.5)"/><path class="cls-4" d="M475.4,177.7l-2.32.66-.34,4.76s-2.74-.41-3.49,2.83a11.48,11.48,0,0,1-2.08,4.76s-4.57,3.82-4.82,7.06l-2.83,1.75s-6.56-1.5-8.06-4.16c0,0,3,21.45-13,16.21,0,0,17.87,7.82,18.7,8.9s6.32,4.23,11.3,1.58a12,12,0,0,0,6.07-6.81s4.82-6.73,5-7.73,3.9-2.17,3.9-2.17l7.15-17.28Z" transform="translate(-9.4 -24.5)"/><path class="cls-1" d="M533.75,154.16l2.41-11s1.06,3.57,2.17,4.4,3.57,2.75,3.57,2.75,3.57,1.66,4.82,1.66,8,1.75,8.81,2.64,4.16.25,4.16.25,2.74.92,5.15,1.5,3.58,4.57,3.07,6.15a4.82,4.82,0,0,0,1.17,4.49c1,1,1.49,4.23,1.49,4.23a4.86,4.86,0,0,1,2.83,2.41c.83,1.83.58,5.81.58,5.81L561.6,196.93s.16,6.73-.33,8.23S563,232.09,563,232.09l2.58,43.72a45.67,45.67,0,0,1-4.16,3.24c-.75.34-1.5-15.46-1.5-16s-19.19-28.76-19.19-28.76-2.58-4.16-2.58-5.07-2.41-9.31-2.41-9.31L532.1,203.7Z" transform="translate(-9.4 -24.5)"/><path class="cls-4" d="M575,178.56c0,.57,0,.95,0,.95L562.6,197h0s.17,6.73-.32,8.23c-.29.87.34,9.81.93,17.16.41,5.28.81,9.77.81,9.77l1.09,18.55,1.48,25.17a45.32,45.32,0,0,1-4.15,3.24c-.75.34-1.5-15.45-1.5-16s-19.21-28.77-19.21-28.77-2.57-4.16-2.57-5.08-2.42-9.31-2.42-9.31l-3.65-16.2,1.66-49.54,1.41-11s2.08,3.58,3.18,4.4,3.56,2.74,3.56,2.74,3.58,1.67,4.83,1.67,8,1.74,8.81,2.64,4.16.25,4.16.25,2.73.92,5.15,1.5,3.57,4.57,3.07,6.15a4.79,4.79,0,0,0,1.17,4.49c1,1,1.49,4.23,1.49,4.23a4.86,4.86,0,0,1,2.83,2.41A14.06,14.06,0,0,1,575,178.56Z" transform="translate(-9.4 -24.5)"/><path class="cls-1" d="M485.19,401.1c-1.3.53-2.6,1-3.9,1.52-4.07-1.19-7.88-2.59-7.88-2.59A108.3,108.3,0,0,1,485.19,401.1Z" transform="translate(-9.4 -24.5)"/><path class="cls-1" d="M524.53,356.72s9.89,2.33,10.47,3.91Z" transform="translate(-9.4 -24.5)"/><path class="cls-1" d="M486.37,363.87s-5.15,1.5-.16,4.49S486.37,363.87,486.37,363.87Z" transform="translate(-9.4 -24.5)"/><path class="cls-1" d="M509.23,284c.58,0,9.64-3,12.8-1.66a21.12,21.12,0,0,0,7.07,1.33Z" transform="translate(-9.4 -24.5)"/><path class="cls-1" d="M510.42,293.49l-.09.82-7.75,20.27s-1.24,6.15-2.33,9.64a63.31,63.31,0,0,0-1.62,7.22l6.88-42.54Z" transform="translate(-9.4 -24.5)"/><path class="cls-7" d="M522.46,257.66l-3.22,0h-.1l-1.88-8.38,2.79-.15Z" transform="translate(-9.4 -24.5)"/><path class="cls-5" d="M561.68,247.49l-2.07,1.71-6.89,5.69s-18.7,10-23.85.5c-4.54-8.35,16.66-14.31,21.77-15.61l1.09-.26Z" transform="translate(-9.4 -24.5)"/><path class="cls-1" d="M481.8,165.8s3.66,1.66,4.49,4S481.8,165.8,481.8,165.8Z" transform="translate(-9.4 -24.5)"/><path class="cls-1" d="M470.5,190.74s-5.32,6.48-3.18,9S470.5,190.74,470.5,190.74Z" transform="translate(-9.4 -24.5)"/><path class="cls-1" d="M565.59,169.45s-5,.5-5.16,4.83Z" transform="translate(-9.4 -24.5)"/><path class="cls-1" d="M519.37,237.61c.53-.5,12-17.45,14.63-16Z" transform="translate(-9.4 -24.5)"/><path class="cls-1" d="M540.82,127.39a19.75,19.75,0,0,1-2.34,9.34h-.15c-1.25-.26-1.9-1.72-2.86-2.64a3.9,3.9,0,0,0-4.49-.63,4.54,4.54,0,0,0-2.2,4.27c-.64-2.65-.44-5.5-1.06-8.16s-2.48-5.37-5-5.42c-1.1,0-2.38.41-3.17-.41-.48-.5-.58-1.28-.94-1.89-1.82-2.94-7.36-1.45-9.63.06s-4.89,3.92-7.7,5.22a19.79,19.79,0,0,1,39.57.29Z" transform="translate(-9.4 -24.5)"/><path class="cls-10" d="M518.59,121.33c.36.61.45,1.39.93,1.89.8.82,2.08.39,3.18.41,2.54.05,4.41,2.75,5,5.41s.42,5.5,1.06,8.16a4.56,4.56,0,0,1,2.21-4.26,3.88,3.88,0,0,1,4.48.63c1,.91,1.59,2.37,2.87,2.64s2.46-.94,2.91-2.26a35.45,35.45,0,0,0,.72-4.14c.56-2.6,2.26-4.72,3.17-7.19a13,13,0,0,0-.08-9.28c-.63-1.59-1.55-3-2.19-4.53-1-2.36-1.2-5-2.37-7.29a8.57,8.57,0,0,0-10.35-4.23c-1.81.68-3.38,2-5.21,2.58-2.46.79-5.08.2-7.63-.15s-5.35-.39-7.4,1.28c-2.35,1.92-3,5.54-5.21,7.66-.93.88-2.08,1.45-3.06,2.27a4.18,4.18,0,0,0-1.71,3.37c.15,1.73,1.83,3.29,1.21,4.88a3.71,3.71,0,0,1-.93,1.22,17.52,17.52,0,0,0-4,6.85c4.45,1.39,9.26-3.52,12.75-5.82C511.23,119.88,516.77,118.38,518.59,121.33Z" transform="translate(-9.4 -24.5)"/><path class="cls-1" d="M561.68,247.49l-2.07,1.71c-1.82-3-9.31-9.11-9.31-9.11l.32-.32,1.09-.26Z" transform="translate(-9.4 -24.5)"/><path class="cls-6" d="M563.68,244.43s-.75,1.85-1.51,3.45-1.59,3.05-1.65,1.87c-.09-2.33-9.73-10.14-9.73-10.14l1.31-1.27,1.52-1.48Z" transform="translate(-9.4 -24.5)"/><path class="cls-1" d="M564,232.12l1.09,18.55c-2.58-4-9.67-14.31-14.23-14L561.93,224a15.47,15.47,0,0,0,1.27-1.63C563.61,227.66,564,232.12,564,232.12Z" transform="translate(-9.4 -24.5)"/><path class="cls-1" d="M563.68,244.43s-.75,1.85-1.51,3.45c-2.9-4-6.88-8.67-10-9.54l1.52-1.48Z" transform="translate(-9.4 -24.5)"/><path class="cls-4" d="M572,177.17l3,2.32s5,.09,5.48,4.23,5.08,6.07,5.08,6.07,3.41,3.41,3.41,5,2.57,4.4,2.57,4.65,2.5,5.32,2.16,6.24,2.65,4.9,1.75,6.4a37.69,37.69,0,0,0-2,4.15s-3.9,7.49-5.9,8.9-11.14,13.3-11.14,13.3-9.8,11.3-9.8,14.8c0,0-9.56-16-15.22-15.54L562.43,225s1.91-2.08,2-3.33,5.32-7,7.82-7.23c0,0,.41-3.41-.67-3.49s-2-2.74-2-2.74-7.32-8.65-7.4-14.14S572,177.17,572,177.17Z" transform="translate(-9.4 -24.5)"/><path class="cls-1" d="M576.39,185.1s-7,5.15-5.48,6.81S576.39,185.1,576.39,185.1Z" transform="translate(-9.4 -24.5)"/><path class="cls-1" d="M576.73,206.36s13-4.16,14.27,0Z" transform="translate(-9.4 -24.5)"/><path class="cls-1" d="M485.25,184.08s0,18.95-1.62,20.82S485.25,184.08,485.25,184.08Z" transform="translate(-9.4 -24.5)"/><path class="cls-1" d="M560.18,190.19l2.41,6.77S563.55,190.32,560.18,190.19Z" transform="translate(-9.4 -24.5)"/><g class="cls-11"><path d="M501.44,117.54c.6-1.56-1-3.09-1.2-4.76a3.1,3.1,0,0,0-.26,1.5c.1,1.27,1,2.44,1.28,3.61A2.31,2.31,0,0,0,501.44,117.54Z" transform="translate(-9.4 -24.5)"/><path d="M529,135.44c-.6-2.64-.42-5.4-1-8s-2.48-5.38-5-5.42c-1.1,0-2.37.4-3.17-.42-.48-.49-.57-1.28-.93-1.88-1.82-2.94-7.36-1.45-9.63.06-3.4,2.26-8.07,7-12.43,5.92q-.31.75-.57,1.53c4.45,1.39,9.27-3.52,12.75-5.82,2.27-1.5,7.8-3,9.63-.05.36.6.45,1.39.93,1.88.8.82,2.08.4,3.18.42,2.54,0,4.41,2.74,5,5.41s.42,5.5,1.06,8.16A4.48,4.48,0,0,1,529,135.44Z" transform="translate(-9.4 -24.5)"/><path d="M541.5,132.32c-.46,1.32-1.64,2.53-2.92,2.26s-1.9-1.72-2.86-2.64a3.91,3.91,0,0,0-4.49-.62,4.5,4.5,0,0,0-2.2,4,4.39,4.39,0,0,1,2-2.41,3.9,3.9,0,0,1,4.48.63c1,.91,1.59,2.37,2.87,2.65s2.46-.94,2.92-2.27a11.21,11.21,0,0,0,.45-2.39A6.69,6.69,0,0,1,541.5,132.32Z" transform="translate(-9.4 -24.5)"/><path d="M545.4,121c-.93,2.47-2.64,4.59-3.17,7.18-.11.53-.18,1.06-.24,1.59.57-2.58,2.25-4.7,3.17-7.16a12.41,12.41,0,0,0,.77-3.45A11.73,11.73,0,0,1,545.4,121Z" transform="translate(-9.4 -24.5)"/></g><circle class="cls-12" cx="415.88" cy="156.48" r="0.21"/><path class="cls-9" d="M259.12,297s5.82-4.17,11.86-1.58c0,0-1.69,3.58-9.2,3.53Z" transform="translate(-9.4 -24.5)"/><path class="cls-9" d="M258.4,297.24s-1.56,7,3.17,11.53c0,0,2.64-3-.35-9.85Z" transform="translate(-9.4 -24.5)"/><path class="cls-9" d="M250.69,290.87s.22-5.91,13.59-4.46c0,0,.21,3.8-4.39,5.78S253.09,292.73,250.69,290.87Z" transform="translate(-9.4 -24.5)"/><path class="cls-9" d="M249.87,290.84s-5.55,2-.06,14.31c0,0,3.7-1,4.14-6S252.38,292.58,249.87,290.84Z" transform="translate(-9.4 -24.5)"/><path class="cls-9" d="M242,282.8s-1.13-9.66,12.5-9.19c0,0,1.3,8.73-10,11.42Z" transform="translate(-9.4 -24.5)"/><path class="cls-9" d="M232.62,272.2s1.45-11.05,15.16-8.3c0,0,.41,9.52-12.84,10.83Z" transform="translate(-9.4 -24.5)"/><path class="cls-9" d="M225.63,261.14s2.7-10.84,16.29-8.13c0,0-2.84,9.74-15.34,10.05Z" transform="translate(-9.4 -24.5)"/><path class="cls-9" d="M219,250.33s2.64-11.22,15.74-8.38c0,0-3.93,10.71-14.8,10.24Z" transform="translate(-9.4 -24.5)"/><path class="cls-9" d="M214.55,240s1.82-13.66,14.06-11.13c0,0-3,12.49-13.09,13.07Z" transform="translate(-9.4 -24.5)"/><path class="cls-9" d="M210.29,227.46s2.29-13.79,14.69-10.28c0,0-4.31,13.11-13.74,12.16Z" transform="translate(-9.4 -24.5)"/><path class="cls-9" d="M207.51,215.76s3.94-13.85,13.44-13.85c0,0-4,14.63-12.54,16.57Z" transform="translate(-9.4 -24.5)"/><path class="cls-9" d="M205.59,204.3s4.23-16.66,12-15.69c0,0-2.88,12.72-11.63,18.24Z" transform="translate(-9.4 -24.5)"/><path class="cls-9" d="M204.22,190.58s4-13.91,11.63-14.74c0,0-2.58,13.62-11.32,18.29Z" transform="translate(-9.4 -24.5)"/><path class="cls-9" d="M202.81,177.81s5.15-14,10.18-14.46c0,0-2,13.62-9.6,16.69Z" transform="translate(-9.4 -24.5)"/><path class="cls-9" d="M201.72,165.91s2.92-15.06,7.9-16.49c0,0-.22,12.24-7.35,17.59Z" transform="translate(-9.4 -24.5)"/><path class="cls-9" d="M199.23,150.38s3.22-12,7.22-14c0,0-.27,14.05-6.16,16.87Z" transform="translate(-9.4 -24.5)"/><path class="cls-9" d="M197.27,140.19l-1.55-21s8.2,15.55,2.23,24.62Z" transform="translate(-9.4 -24.5)"/><path class="cls-9" d="M190.59,119.57s-6.06-15.11-7.4-15.91c0,0,11.1,9.52,10.57,22.35Z" transform="translate(-9.4 -24.5)"/><path class="cls-9" d="M241.65,282.74s-9.69-.89-8.88,12.72c0,0,8.77,1.06,11.18-10.29Z" transform="translate(-9.4 -24.5)"/><path class="cls-9" d="M232.15,271.85s-11.14.39-9.7,14.28c0,0,9.42,1.31,12-11.75Z" transform="translate(-9.4 -24.5)"/><path class="cls-9" d="M225.55,262.05s-10.29-4.36-16.29,8.13c0,0,9.49,3.59,17.26-6.19Z" transform="translate(-9.4 -24.5)"/><path class="cls-9" d="M218.75,250.44S208.2,245.8,202.58,258c0,0,10.93,3.3,17.09-5.67Z" transform="translate(-9.4 -24.5)"/><path class="cls-9" d="M214.69,240.29s-10.33-9.14-17.91.79c0,0,10.48,7.44,18.45,1.31Z" transform="translate(-9.4 -24.5)"/><path class="cls-9" d="M210.85,227.12s-10.4-9.36-17.9,1.13c0,0,11.56,7.55,18.33.89Z" transform="translate(-9.4 -24.5)"/><path class="cls-9" d="M208.52,215.33s-8.19-11.86-17.17-8.8c0,0,8.5,12.56,17.19,11.63Z" transform="translate(-9.4 -24.5)"/><path class="cls-9" d="M205.81,204.21s-8.37-15-15.62-12.07c0,0,6.06,11.55,15.92,14.64Z" transform="translate(-9.4 -24.5)"/><path class="cls-9" d="M204.72,189.77s-8.46-11.74-15.89-10c0,0,7,12,16.8,13.44Z" transform="translate(-9.4 -24.5)"/><path class="cls-9" d="M203.64,177.51s-6.71-13.29-11.76-13.22c0,0,3.49,13.31,11.43,15.5Z" transform="translate(-9.4 -24.5)"/><path class="cls-9" d="M202,165.6s-7.41-13.42-12.6-13.25c0,0,4,11.57,12.41,14.47Z" transform="translate(-9.4 -24.5)"/><path class="cls-9" d="M200.36,151.18s-5.58-11.14-9.9-12.25c0,0,3.11,13.71,9.46,15.28Z" transform="translate(-9.4 -24.5)"/><path class="cls-9" d="M196.64,139.82l-12.2-17.11s3.62,17.19,14,20.38Z" transform="translate(-9.4 -24.5)"/><path class="cls-9" d="M188,121.08s-13.74-8.73-14.27-10.2c0,0,7.33,12.69,20,14.48Z" transform="translate(-9.4 -24.5)"/><path class="cls-9" d="M187,117s-15.93-14.19-19.86-14c0,0,12.69.09,20.2,13.21Z" transform="translate(-9.4 -24.5)"/><path class="cls-13" d="M200.3,153.38l-.56.09c-3.75-22.5-8.46-35.7-13.3-37.17l.17-.53C191.72,117.32,196.45,130.33,200.3,153.38Z" transform="translate(-9.4 -24.5)"/><path class="cls-13" d="M206.61,207.27l-.84.11c-.26-2.12-.47-4.26-.65-6.41-1.52-18.68-3.43-35.82-5.57-48.64l.47-.63c2.11,12.85,4.42,30.49,5.95,49.18C206.14,203,206.36,205.19,206.61,207.27Z" transform="translate(-9.4 -24.5)"/><path class="cls-13" d="M275.32,307.15c-.15-.06-15.3-6.13-31.37-21.41A123,123,0,0,1,220.45,255c-7.7-14.27-12.75-32-14.87-49.32l.9.38C211.24,245,230,270.93,244.7,284.89c15.91,15.13,30.89,21.14,31,21.21Z" transform="translate(-9.4 -24.5)"/><g class="cls-14"><path class="cls-9" d="M285.85,289.91s6.8-2.25,11.79,2c0,0-2.68,2.93-9.83.64Z" transform="translate(-9.4 -24.5)"/><path class="cls-9" d="M285.08,289.92s-3.56,6.22-.39,12c0,0,3.4-2.05,2.59-9.52Z" transform="translate(-9.4 -24.5)"/><path class="cls-9" d="M279.62,281.55s2-5.57,14.27-.21c0,0-.93,3.7-5.91,4.23S281.36,284,279.62,281.55Z" transform="translate(-9.4 -24.5)"/><path class="cls-9" d="M278.84,281.33s-5.9.28-4.31,13.63c0,0,3.8.17,5.72-4.45S280.72,283.68,278.84,281.33Z" transform="translate(-9.4 -24.5)"/><path class="cls-9" d="M273.74,271.28s1.8-9.56,14.67-5c0,0-1.36,8.72-13,7.93Z" transform="translate(-9.4 -24.5)"/><path class="cls-9" d="M267.92,258.35s4.67-10.12,16.92-3.41c0,0-2.43,9.18-15.48,6.52Z" transform="translate(-9.4 -24.5)"/><path class="cls-9" d="M264.53,245.71s5.82-9.54,18-2.91c0,0-5.61,8.46-17.63,5Z" transform="translate(-9.4 -24.5)"/><path class="cls-9" d="M261.4,233.41s5.84-9.93,17.52-3.32c0,0-6.94,9.06-17.19,5.38Z" transform="translate(-9.4 -24.5)"/><path class="cls-9" d="M260.25,222.23s5.81-12.51,16.73-6.44c0,0-6.63,11-16.39,8.58Z" transform="translate(-9.4 -24.5)"/><path class="cls-9" d="M259.91,209s6.3-12.49,17.09-5.45c0,0-8,11.24-16.75,7.49Z" transform="translate(-9.4 -24.5)"/><path class="cls-9" d="M260.74,197s7.89-12.06,16.95-9.23c0,0-8.19,12.78-16.92,12.09Z" transform="translate(-9.4 -24.5)"/><path class="cls-9" d="M262.32,185.48s9-14.65,16.11-11.41c0,0-6.54,11.29-16.52,14Z" transform="translate(-9.4 -24.5)"/><path class="cls-9" d="M265.1,172s8-12.07,15.48-10.61c0,0-6.52,12.24-16.26,14.11Z" transform="translate(-9.4 -24.5)"/><path class="cls-9" d="M267.54,159.37s9.08-11.8,14-10.78c0,0-5.92,12.42-14.12,13.09Z" transform="translate(-9.4 -24.5)"/><path class="cls-9" d="M270,147.68s7.27-13.51,12.45-13.39c0,0-3.85,11.63-12.25,14.6Z" transform="translate(-9.4 -24.5)"/><path class="cls-9" d="M272.29,132.12s6.65-10.54,11.06-11.23c0,0-4.44,13.34-10.91,14.28Z" transform="translate(-9.4 -24.5)"/><path class="cls-9" d="M273.44,121.8l4.76-20.46s3.21,17.28-5.18,24.18Z" transform="translate(-9.4 -24.5)"/><path class="cls-9" d="M273.2,100.13s-1.29-16.23-2.34-17.4c0,0,7.79,12.41,3.44,24.48Z" transform="translate(-9.4 -24.5)"/><path class="cls-9" d="M273.4,271.1s-9-3.74-12.25,9.52c0,0,8,3.64,13.74-6.5Z" transform="translate(-9.4 -24.5)"/><path class="cls-9" d="M267.58,257.88s-10.75-2.94-13.51,10.76c0,0,8.59,4.06,14.95-7.64Z" transform="translate(-9.4 -24.5)"/><path class="cls-9" d="M264.19,246.56s-8.53-7.22-18,2.91c0,0,8,6.26,18.32-.77Z" transform="translate(-9.4 -24.5)"/><path class="cls-9" d="M261.15,233.46s-8.68-7.58-17.68,2.4c0,0,9.45,6.39,18-.35Z" transform="translate(-9.4 -24.5)"/><path class="cls-9" d="M260.3,222.55S253.15,210.75,243,218c0,0,7.79,10.23,17.22,6.74Z" transform="translate(-9.4 -24.5)"/><path class="cls-9" d="M260.55,208.83s-7.15-12-17.45-4.23c0,0,8.79,10.65,17.24,6.31Z" transform="translate(-9.4 -24.5)"/><path class="cls-9" d="M261.83,196.88s-4.29-13.75-13.78-13.51c0,0,4.38,14.53,12.95,16.25Z" transform="translate(-9.4 -24.5)"/><path class="cls-9" d="M262.55,185.46s-3.52-16.82-11.32-16.17c0,0,2.35,12.83,10.85,18.71Z" transform="translate(-9.4 -24.5)"/><path class="cls-9" d="M265.81,171.35s-4.58-13.74-12.21-14.27c0,0,3.13,13.51,12,17.83Z" transform="translate(-9.4 -24.5)"/><path class="cls-9" d="M268.43,159.32s-2.46-14.67-7.3-16.11c0,0-.63,13.75,6.3,18.2Z" transform="translate(-9.4 -24.5)"/><path class="cls-9" d="M270.38,147.46s-3.08-15-8.08-16.39c0,0,.35,12.23,7.55,17.5Z" transform="translate(-9.4 -24.5)"/><path class="cls-9" d="M273.13,133.22s-2-12.3-5.81-14.66c0,0-1.12,14,4.48,17.41Z" transform="translate(-9.4 -24.5)"/><path class="cls-9" d="M273,121.26l-6.55-20s-1.66,17.5,7.3,23.63Z" transform="translate(-9.4 -24.5)"/><path class="cls-9" d="M270.28,100.8s-10.52-12.42-10.57-14c0,0,3.22,14.28,14.8,19.79Z" transform="translate(-9.4 -24.5)"/><path class="cls-9" d="M270.59,96.58s-11-18.29-14.8-19.3c0,0,12.09,3.87,15.33,18.63Z" transform="translate(-9.4 -24.5)"/><path class="cls-13" d="M272.41,135.29l-.56-.08c3.11-22.59,2.53-36.6-1.64-39.44l.33-.46C275,98.31,275.6,112.13,272.41,135.29Z" transform="translate(-9.4 -24.5)"/><path class="cls-13" d="M262.41,188.63l-.83-.15c.38-2.09.8-4.23,1.28-6.32,4.1-18.28,7.4-35.21,9.15-48.11l.63-.45c-1.78,12.89-4.84,30.42-9,48.73C263.22,184.44,262.79,186.55,262.41,188.63Z" transform="translate(-9.4 -24.5)"/><path class="cls-13" d="M298.29,304.43c-.13-.1-12.78-10.42-23.58-29.78a122.75,122.75,0,0,1-13.31-36.33c-3.11-15.92-2.65-34.37.47-51.51l.74.63c-7,38.53,3.17,68.93,13.05,86.62,10.68,19.18,23.19,29.38,23.32,29.48Z" transform="translate(-9.4 -24.5)"/></g><path class="cls-15" d="M171.94,255.72a20.14,20.14,0,0,1-3.86,1.15,38.21,38.21,0,0,1-7,.66c.06.62.12,1.2.17,1.72.13,1.44.2,2.43.2,2.43l-2.48-.17-20.45-1.4-12-1.77a22,22,0,0,0,1.88,2.21,9.57,9.57,0,0,0,2.39,1.85s10.79,8.74,12.66,8.82c.26,0,.34.27.3.68,4.54,0,18.67.67,14.75,8.53a6.26,6.26,0,0,1-3.21,3.12c-4.53,1.92-11.37-1.53-14.89-3.65-.34.67-.67,1.29-1,1.83-.6,1.12-1,1.87-1,1.87l-.35-.25L120,270.42l-4-3.37a13.5,13.5,0,0,1-3.45-.6h0l-.52-.17a.47.47,0,0,0-.06.15,6.77,6.77,0,0,0-.33,1.27v.19a14.53,14.53,0,0,0-.14,1.48c0,.34,0,.7,0,1.06,0,7.2,2.86,18.77,2.86,18.77s7.48,19.09,4.82,23.49h0a1.8,1.8,0,0,1-.53.57,5.27,5.27,0,0,0-1.78,3.32c-1,4.67.74,11.8.74,11.8s-.16.27-.43.68a20.28,20.28,0,0,1-2,2.64c-.11.13-.23.26-.35.38a8.75,8.75,0,0,1-1.06,1l.22.64c.07.23.17.58.24.9a12.88,12.88,0,0,1-.66,7.78,21.4,21.4,0,0,0-1.33,5.59h0a42.11,42.11,0,0,0,.27,10.52,2.53,2.53,0,0,0-.23-.12q-8.78-4.59-17.29-9.58-2.5-1.44-5-2.93c-2-1.22-4-2.46-6-3.7q-4-2.47-7.93-5.08l-1.24-.82-.48-.32-2-1.36a101.12,101.12,0,0,1-7.47-11.1c-.38-.67-.72-1.31-1-1.9v0l-.18-.39-.74-.26h0c-1.4-.49-2.29-.83-2.29-.83h0a25.72,25.72,0,0,0,.92-7.25,21.94,21.94,0,0,0-6.78-16.19c-8-7.57-9.12-15.06-9.24-17.93v-.53q0-.36,0-.72l.61-.59c-1.55-.31-3-.45-3-.45s5.32-19.25,14.28-25.67c4.44-3.17,8.13-8.46,10.75-13a195.84,195.84,0,0,1,16-23.47l1.61-2,.47-.6.1-.12.13-.17-.67-1-.15-.22a5.45,5.45,0,0,1-1.21-3.38v-.31a3.24,3.24,0,0,1,.12-.62.28.28,0,0,0,.06.09c.76-2.19,3.67-3.17,5.82-4.38,5.06-2.85,7.21-9.07,8.3-14.86.84-4.51,1.54-9.55,5-12.45,2.25-1.86,5.28-2.47,7.56-4.32a14.09,14.09,0,0,0,3.22-4.13c.52-.89,1-1.83,1.47-2.72a27.45,27.45,0,0,1,9.13-10.3c3.92-2.44,8.89-3.38,13.18-1.74,1.66.63,3.18,1.58,4.76,2.29a18.66,18.66,0,0,0,3,.94c3.23.75,6.63.95,9.66,2.3,4.93,2.19,8.14,7,11.07,11.63a55.75,55.75,0,0,1,5.26,9.36v-.37a13.56,13.56,0,0,1,1.06,4.87,7.51,7.51,0,0,1-.23,2.11,6.05,6.05,0,0,1-3.29,3.77l-.25.12a9.35,9.35,0,0,1-1,.46l-.18.88-.09.37c-.07.29-.15.58-.23.87a20.36,20.36,0,0,1-6.35,9.7,21.32,21.32,0,0,1-7.09,4l-.57.17a4.43,4.43,0,0,1-.66,1.23,3.62,3.62,0,0,1-.72.69,4.07,4.07,0,0,1-.53.31l-.14.07c-1.91.85-4.51.18-6.35-1.1l-.27-.2a6.26,6.26,0,0,1-.1.94c-.06.33-.09.53-.15.81s-.08.4-.12.6-.06.33-.09.48l-.07.27a41.36,41.36,0,0,1-5.89,14.33,21.43,21.43,0,0,1-1.33,1.8l-1.32,2V227a22.72,22.72,0,0,1-3.4,12.58,37.44,37.44,0,0,1-2.35,3.54l.3.17c3,1.69,8.8,4.68,12.49,4.43,0,0,13.95,1.8,15.57.9.22-.13.44,0,.64.42,2.26-1.37,7.45-4.29,11.55-4.67,2.86-.28,5.2.68,5.63,4.23S174.93,254.44,171.94,255.72Z" transform="translate(-9.4 -24.5)"/><path class="cls-16" d="M95.53,328.43a11.58,11.58,0,0,1,.76,10.16A25.78,25.78,0,0,0,95,348.77q-2.5-1.44-5-2.93c-2-1.22-4-2.46-6-3.7q-4-2.47-7.93-5.08l-1.24-.82-.48-.32a.8.8,0,0,0-.15-.21,95.84,95.84,0,0,1-7.29-11.17q-.68-1.25-1.14-2.28v0a4.44,4.44,0,0,1-.62-2.54,5.23,5.23,0,0,1,2.57-3.18c3-1.58,7.93-.12,12.76,2.21A88.39,88.39,0,0,1,92.39,326l.43.31,0,0c1.59,1.12,2.51,1.87,2.51,1.87S95.43,328.27,95.53,328.43Z" transform="translate(-9.4 -24.5)"/><path class="cls-17" d="M94.73,327.72a11.62,11.62,0,0,1,.76,10.18,25.78,25.78,0,0,0-1.3,10.18c-1.66-1-3.32-1.95-5-2.94-2-1.22-4-2.45-6-3.7q-4-2.47-7.9-5.07L74,335.54l-.47-.32a1.16,1.16,0,0,0-.16-.21,94.93,94.93,0,0,1-7.29-11.17c-.44-.82-.83-1.58-1.14-2.28v0a4.51,4.51,0,0,1-.61-2.55,5.25,5.25,0,0,1,2.56-3.18c3-1.58,7.93-.12,12.76,2.21a88.79,88.79,0,0,1,11.92,7.26l.43.32,0,0c1.59,1.12,2.51,1.87,2.51,1.87A2.44,2.44,0,0,0,94.73,327.72Z" transform="translate(-9.4 -24.5)"/><path class="cls-16" d="M114.19,340.54a12.71,12.71,0,0,1-.74,2.65,20.52,20.52,0,0,0-1.2,4.76h0a42.09,42.09,0,0,0,0,10.4q-8.78-4.59-17.29-9.58-2.5-1.44-5-2.93c-.37-2.82-.9-5.29-1.5-5.9a104.47,104.47,0,0,1-8-12.25c-.36-.63-.67-1.25-1-1.83v0c-.12-.23-.22-.45-.32-.67-.72-1.54-1.1-2.73-.91-3.31a6.21,6.21,0,0,1,2.18-3.14c4.69-3.42,14.44,1.21,21.93,5.82l.18.11c1.42.88,2.76,1.76,4,2.57l.7.48c3.1,2.11,5.16,3.75,5.16,3.75a11.35,11.35,0,0,1,1.22,2.53,13.54,13.54,0,0,1,.44,1.54A12.71,12.71,0,0,1,114.19,340.54Z" transform="translate(-9.4 -24.5)"/><path class="cls-1" d="M66.93,324.54c3.84,1.34,9.51,3.12,12.6,3.17a5.15,5.15,0,0,0,1,0h0c2.17-.29,8.87.18,15,.74,2.46.22,4.84.44,6.8.64l4.93.53v-1.9c-1.37-.94-3-2-4.67-3.05-7.51-4.64-17.38-9.38-22.11-5.93-6.66-3.21-13.41-4.76-15.33,1C64.91,320.4,65.71,322.29,66.93,324.54Z" transform="translate(-9.4 -24.5)"/><path class="cls-18" d="M48.46,280.23c.1,2.85,1.17,10.24,8.82,17.71,9.76,9.52,5.6,23.2,5.6,23.2s11.63,4.57,16.65,4.69a6.17,6.17,0,0,0,1,0c3-.42,15,.68,21.84,1.38l4.93.53V287.24l-53.9-13.09L48.48,279A9.94,9.94,0,0,0,48.46,280.23Z" transform="translate(-9.4 -24.5)"/><path class="cls-19" d="M67.6,319.88" transform="translate(-9.4 -24.5)"/><g class="cls-11"><path d="M106.37,327.19l.89.09v.44l-4.93-.53c-4.93-.5-12.47-1.21-17.45-1.41C88.32,325.47,99.72,326.52,106.37,327.19Z" transform="translate(-9.4 -24.5)"/><path d="M48.48,279l4.88-4.87,3.26.79L52.55,279a8.15,8.15,0,0,0,0,1.21c.1,2.85,1.17,10.24,8.82,17.72,9.76,9.52,5.6,23.2,5.6,23.2s9.63,3.78,15.14,4.55a14.12,14.12,0,0,0-1.59.09,5,5,0,0,1-1,.05c-5-.13-16.65-4.69-16.65-4.69s4.16-13.68-5.6-23.2c-7.69-7.48-8.76-14.87-8.86-17.7A8.42,8.42,0,0,1,48.48,279Z" transform="translate(-9.4 -24.5)"/></g><path class="cls-16" d="M156.18,251.65s16.3-11.3,17.49-1.13-17.49,8.75-17.49,8.75Z" transform="translate(-9.4 -24.5)"/><path class="cls-20" d="M128.07,244.16s8.82,5.81,13.7,5.47c0,0,13.32,1.79,14.87.89s2.5,12.91,2.5,12.91l-21.89-1.54-14-2.15s-7-4.28-7-8S128.07,244.16,128.07,244.16Z" transform="translate(-9.4 -24.5)"/><path class="cls-9" d="M128.07,244.16s8.82,5.81,13.7,5.47c0,0,13.32,1.79,14.87.89s2.5,12.91,2.5,12.91l-21.89-1.54-14-2.15s-7-4.28-7-8S128.07,244.16,128.07,244.16Z" transform="translate(-9.4 -24.5)"/><path class="cls-16" d="M141,273.58s19.83-.82,15.38,8.41-19.45-2-19.45-2Z" transform="translate(-9.4 -24.5)"/><path class="cls-18" d="M121.06,253.91s16.06-12,13.81-26.65-13.81,11.19-13.81,11.19Z" transform="translate(-9.4 -24.5)"/><path class="cls-16" d="M125.51,187.56a20.32,20.32,0,0,0,12.69,18.82,20,20,0,0,0,2.61.87,21.62,21.62,0,0,0,2.89.53c.69.06,1.4.1,2.11.1a19.71,19.71,0,0,0,6.67-1.16,20.3,20.3,0,1,0-27-19.16Z" transform="translate(-9.4 -24.5)"/><path class="cls-1" d="M48.46,280.23c1.82.33,4.06.94,4.06,1.88,0,1.59,25.38,10.16,25.38,10.16s-1,2.22,1.59,6S102.66,324,102.66,324l-.07.65-.26,2.52-1.26,12.06s7.93-2.86,10.47-2.54a3.45,3.45,0,0,0,2.53-1.18,12.11,12.11,0,0,0-1.65-4.06s-2.06-1.62-5.16-3.76V287.24l-53.9-13.09L48.48,279A9.94,9.94,0,0,0,48.46,280.23Z" transform="translate(-9.4 -24.5)"/><path class="cls-9" d="M46.17,278s6.35.63,6.35,2.22S77.9,290.37,77.9,290.37s-1,2.21,1.58,6,23.18,25.7,23.18,25.7l-1.59,15.22s7.93-2.85,10.47-2.53c1.14.14,2.39-.91,3.43-2.12a23,23,0,0,0,2.28-3.26s-2.86-12.07,1-14.92-4.13-23.79-4.13-23.79-3.59-14.89-2.53-21.28a7.61,7.61,0,0,1,.31-1.25.42.42,0,0,1,0-.15c2.27-6.1,26.61-57.28,26.61-57.28a36.94,36.94,0,0,0-.31-4.34c0-.41-.11-.82-.19-1.24a19.35,19.35,0,0,0-.49-2.26c-.14-.49-.29-1-.46-1.39-.75-1.94-1.9-3.43-3.63-3.46,0,0-1.9-2.12-6.34-2.68-3.28-.43-7.93,0-14.28,2.68-14.91,6.34-18.4,6.66-18.4,6.66l-7.49,9.82-1.55,2a193.88,193.88,0,0,0-15.28,23.2c-2.5,4.49-6,9.72-10.27,12.86C51.25,259,46.17,278,46.17,278Z" transform="translate(-9.4 -24.5)"/><path class="cls-1" d="M101.78,241.3s-21.18,5.24-29.39,18.44Z" transform="translate(-9.4 -24.5)"/><path class="cls-1" d="M95.24,264.5s-4,26.89-2.89,28.92S95.24,264.5,95.24,264.5Z" transform="translate(-9.4 -24.5)"/><path class="cls-1" d="M96.67,278.31c1.55,2,7.8,17.61,7.8,17.61l-1.81,26.18-1.58,15.22s7.93-2.85,10.47-2.53c1.13.14,2.39-.91,3.43-2.12-1.65-8.92-5.18-27.58-5.82-27.94-.84-.47-5.12-15.47-5.35-19.63s-6.19-13.56-6.19-13.56S95.12,276.29,96.67,278.31Z" transform="translate(-9.4 -24.5)"/><path class="cls-1" d="M102.66,252.61c.39,1.19,1,8.09,1,8.09.43,6.08,5,8.07,7.89,8.7a7.87,7.87,0,0,1,.31-1.25c1.9-5.39,26.65-57.43,26.65-57.43a34.42,34.42,0,0,0-1-7.83c-5.39-1.59-13.92.85-13.92.85-2.46-.32-10.51,15.67-10.51,15.67s-5.36,12.25-5.94,13.92,0,4.41-.24,5.36-2.75,1.78-3.1,3.09-.12,3.92-.36,4.4S102.25,251.42,102.66,252.61Z" transform="translate(-9.4 -24.5)"/><path class="cls-9" d="M104.57,251.65c.39,1.19,1,8.09,1,8.09a9,9,0,0,0,6.35,8.27,13.36,13.36,0,0,0,3.81.76l3.82,3.32,17.67,13S143.8,273,142,272.88s-12.09-8.72-12.09-8.72c-3.17-1.68-6.32-7.31-7.78-10.19a7.86,7.86,0,0,0,.19-1.06c.64-5.39,14-26,14-26s5.15-6.06,7.16-17.3c.06-.25.1-.52.15-.78a9.5,9.5,0,0,0,.1-1.06c.24-4.32-2.9-5.89-6.63-6.27h0a27,27,0,0,0-5.82.18,42.37,42.37,0,0,0-5.71,1.12c-1.59-.2-5.53,6.43-8.11,11.13h0c-1.39,2.55-2.39,4.55-2.39,4.55s-5.39,12.25-6,13.92,0,4.4-.24,5.36-2.74,1.78-3.09,3.09-.13,3.92-.37,4.4S104.16,250.47,104.57,251.65Z" transform="translate(-9.4 -24.5)"/><path class="cls-1" d="M84.07,224.22c3.35,3.45,8.82,3.46,13.18,1.71s8.08-4.94,12.13-7.4c2.65-1.59,5.42-2.92,8-4.58h0l1.11-.75c3-2.11,5.57-4.83,8.67-6.77a13.5,13.5,0,0,1,7-2.23,7.92,7.92,0,0,1,3.32.7,5.28,5.28,0,0,1,.53.27,14.13,14.13,0,0,1,2.8,2.12c.88.79,1.72,1.63,2.65,2.36.06-.26.09-.53.14-.79a9.28,9.28,0,0,0,.11-1.06,21,21,0,0,0,2.11.11,19.76,19.76,0,0,0,6.68-1.19,1.32,1.32,0,0,1,.05-.26c.76-4,2.11-8.23,5.35-10.47,1.86-1.31,4.84-1.84,7.42-2.83a20.3,20.3,0,1,0-38.25,2.2c-3.28-.43-7.93,0-14.28,2.67-14.91,6.35-18.4,6.66-18.4,6.66l-7.45,9.84a8.33,8.33,0,0,1,1.8,3.9C88.89,221.1,86.31,223,84.07,224.22Z" transform="translate(-9.4 -24.5)"/><path class="cls-21" d="M157.9,194.09c-3.22,2.25-4.59,6.48-5.35,10.47a8.21,8.21,0,0,1-1.22,3.55c-1.71,2.22-5.15,1.59-7.38,0s-4-4-6.48-5.12c-3.31-1.49-7.19-.4-10.29,1.54s-5.68,4.65-8.67,6.76-6.12,3.5-9.13,5.33c-4,2.47-7.75,5.66-12.13,7.4s-9.83,1.75-13.18-1.7c2.25-1.25,4.83-3.09,4.65-5.76s-3.28-4.68-3.07-7.4,3.43-3.82,5.74-5.16c4.84-2.82,6.87-9,7.93-14.7.8-4.46,1.46-9.45,4.8-12.31,2.15-1.84,5.06-2.44,7.22-4.27s3.18-4.36,4.49-6.78a27,27,0,0,1,8.71-10.19c3.74-2.41,8.49-3.34,12.59-1.71,1.59.61,3,1.58,4.56,2.25,3.86,1.67,8.29,1.45,12.12,3.21,4.71,2.17,7.77,7,10.57,11.5,2.39,3.89,7.08,10.77,5.77,15.79S161.4,191.64,157.9,194.09Z" transform="translate(-9.4 -24.5)"/><g class="cls-11"><path d="M85.65,208.82a2.69,2.69,0,0,1,.11-.62c.85,1.35,1.91,2.65,2,4.23a3.33,3.33,0,0,1-.09,1.09C86.74,212,85.52,210.57,85.65,208.82Z" transform="translate(-9.4 -24.5)"/><path d="M96.3,219.89c4.37-1.75,8.07-4.94,12.12-7.4,3-1.83,6.24-3.29,9.14-5.33s5.58-4.82,8.67-6.76,7-3,10.29-1.54C139,200,140.75,202.37,143,204s5.67,2.25,7.37,0a8.14,8.14,0,0,0,1.23-3.55c.76-4,2.12-8.22,5.35-10.48,3.5-2.44,10.91-2.16,12.25-7.32a8,8,0,0,0,.18-2.8,11.26,11.26,0,0,1,.78,6.61c-1.35,5.15-8.76,4.88-12.26,7.32-3.21,2.25-4.59,6.48-5.35,10.48a8.26,8.26,0,0,1-1.22,3.55c-1.71,2.21-5.15,1.58-7.4,0s-4-4-6.48-5.12c-3.31-1.49-7.19-.4-10.29,1.54s-5.68,4.65-8.67,6.76-6.12,3.49-9.13,5.33c-4,2.47-7.76,5.66-12.13,7.4S87.4,225.44,84.05,222a15.57,15.57,0,0,0,2.45-1.63A14.06,14.06,0,0,0,96.3,219.89Z" transform="translate(-9.4 -24.5)"/></g><path class="cls-9" d="M440.63,168,419,146.19a11.51,11.51,0,0,0-16.28-.18l-.07.07-136.13,135-57.56-58a11.47,11.47,0,0,0-16.23-.12l-21.91,21.68a11.63,11.63,0,0,0-.11,16.34l87.41,88.1a11.63,11.63,0,0,0,16.35.12L440.51,184.33a11.5,11.5,0,0,0,.19-16.27Z" transform="translate(-9.4 -24.5)"/><g class="cls-22"><path class="cls-9" d="M408,342.79s-16.17-1-14.28,10.36a2.77,2.77,0,0,0,1.44,2.91s0-.84,1.66-.56a7.4,7.4,0,0,0,1.76.09,3.69,3.69,0,0,0,2.14-.89h0s4.54-1.87,6.32-9.31c0,0,1.3-1.62,1.25-2l-2.73,1.17a4.84,4.84,0,0,1,.2,3.6s-.09-3.54-.61-3.45c-.11,0-1.42.68-1.42.68s1.59,3.43.39,5.92c0,0,.46-4.23-.89-5.67l-1.92,1.12s1.87,3.54.6,6.43c0,0,.33-4.43-1-6.16l-1.74,1.36s1.76,3.49.69,5.89c0,0-.14-5.16-1.06-5.55a10.55,10.55,0,0,0-1.75,1.89s1.2,2.54.46,3.88c0,0-.46-3.45-.84-3.46a11.52,11.52,0,0,0-1.67,3.84,8.22,8.22,0,0,1,1.3-4.06,4.61,4.61,0,0,0-2.32,1.21s.23-1.59,2.7-1.76a10.89,10.89,0,0,1,1.58-1.83,10,10,0,0,0-3.93.46s1.31-1.53,4.38-.83l1.72-1.41s-3.22-.44-4.59.05c0,0,1.58-1.35,5.05-.37l1.87-1.11a16.67,16.67,0,0,0-4.39-.38s1.73-.93,4.94.08l1.34-.61s-2-.39-2.61-.45-.61-.23-.61-.23a7.08,7.08,0,0,1,3.78.42A17,17,0,0,0,408,342.79Z" transform="translate(-9.4 -24.5)"/></g><g class="cls-22"><path class="cls-9" d="M379,263.66s-8.21,14,2.75,17.41a2.78,2.78,0,0,0,3.25.05s-.74-.41.25-1.73a7.78,7.78,0,0,0,.88-1.53,3.69,3.69,0,0,0,.18-2.32h0s.39-4.9-5.43-9.85c0,0-.85-1.9-1.24-2l-.2,3a4.88,4.88,0,0,1,3.3,1.46s-3.17-1.53-3.35-1c0,.1,0,1.58,0,1.58s3.79.13,5.46,2.34c0,0-3.56-2.33-5.46-1.78l.12,2.22s4-.06,6,2.38c0,0-3.8-2.3-5.94-1.9l.41,2.17s3.92,0,5.56,2.06c0,0-4.66-2.22-5.42-1.59a12,12,0,0,0,.88,2.43s2.81.07,3.66,1.35c0,0-3.27-1.15-3.45-.83a11.59,11.59,0,0,0,2.64,3.24,8.3,8.3,0,0,1-3-3,4.57,4.57,0,0,0,0,2.64s-1.33-.94-.33-3.17a10.42,10.42,0,0,1-.92-2.25,10,10,0,0,0-1.38,3.71s-.76-1.86,1.25-4.29l-.47-2.16s-1.85,2.67-2,4.11c0,0-.48-2,2-4.67l-.15-2.17a17,17,0,0,0-2.32,3.73s-.05-2,2.3-4.36l.08-1.47s-1.27,1.62-1.59,2.12-.48.45-.48.45a6.93,6.93,0,0,1,2.09-3.17A17.69,17.69,0,0,0,379,263.66Z" transform="translate(-9.4 -24.5)"/></g><g class="cls-22"><path class="cls-9" d="M327.6,152.25s-8.2,14,2.76,17.42a2.76,2.76,0,0,0,3.24,0s-.73-.41.26-1.73a7.46,7.46,0,0,0,.87-1.53,3.62,3.62,0,0,0,.19-2.32h0s.39-4.9-5.43-9.85c0,0-.85-1.89-1.24-2l-.2,3a4.88,4.88,0,0,1,3.3,1.46s-3.18-1.52-3.35-1c0,.1,0,1.58,0,1.58s3.78.13,5.45,2.34c0,0-3.55-2.32-5.46-1.78l.13,2.23s4-.07,6,2.37c0,0-3.8-2.3-5.94-1.89l.42,2.16s3.91,0,5.56,2.07c0,0-4.66-2.22-5.43-1.59a12.09,12.09,0,0,0,.89,2.42s2.81.08,3.66,1.35c0,0-3.27-1.15-3.45-.82a11.27,11.27,0,0,0,2.64,3.23,8.2,8.2,0,0,1-3-3,4.46,4.46,0,0,0,0,2.61s-1.33-.94-.34-3.2a10.45,10.45,0,0,1-.91-2.25,10,10,0,0,0-1.38,3.71s-.76-1.86,1.25-4.29l-.47-2.17s-1.86,2.68-2,4.12c0,0-.49-2,2-4.67l-.15-2.17a16.63,16.63,0,0,0-2.33,3.73s-.05-2,2.31-4.36l.07-1.47s-1.27,1.62-1.59,2.12-.48.45-.48.45a7,7,0,0,1,2.12-3.18A16.87,16.87,0,0,0,327.6,152.25Z" transform="translate(-9.4 -24.5)"/></g><g class="cls-22"><path class="cls-9" d="M150.82,46.46s-30.56,22.21-10.33,39.8c0,0,2.29,4.17,6.9,3.11,0,0-1.19-1.55,2.16-3.45a17.21,17.21,0,0,0,3.29-2.46,8.53,8.53,0,0,0,2.56-4.76h0s5.4-10.12-2.43-26.12c0,0-.05-4.85-.76-5.53L149,53.2s4.59,2.16,5.7,6.19c0,0-5.4-6.23-6.22-5.28-.17.18-1.55,3.33-1.55,3.33s8,3.79,9.49,10.08c0,0-5.43-8.29-10-8.9l-1.79,4.87s8.62,3.6,10.62,10.69c0,0-6-8.46-10.95-9.6l-1.12,5s8.35,3.67,10,9.58c0,0-7.93-9.08-10.15-8.41,0,0-.75,4.67-.35,6,0,0,5.93,2.78,6.57,6.29,0,0-5.93-5.51-6.63-5,0,0,.65,6.35,2.68,9.4a19.35,19.35,0,0,1-3.67-9.25,10.68,10.68,0,0,0-2.39,5.61s-2-3.25,2.25-7.15c0,0-.3-5,.15-5.66,0,0-4.71,3.27-6.41,6.65,0,0,.1-4.67,6.66-8l1-5.07s-6.46,4-8.2,6.87c0,0,.84-4.76,8.56-8.15L145,58.58s-5.82,3-8.46,5.81c0,0,1.73-4.23,9-7.17L147,54.15s-4.23,2.27-5.37,3-1.46.53-1.46.53a16.4,16.4,0,0,1,7.44-4.85S151.17,46.71,150.82,46.46Z" transform="translate(-9.4 -24.5)"/></g><g class="cls-22"><path class="cls-9" d="M121.13,119.74S81.6,103.11,76.42,133.09c0,0-2.71,4.67,1,8.53,0,0,.81-2.07,4.63.07a20.52,20.52,0,0,0,4.32,1.76,9.71,9.71,0,0,0,6.14-.33h0s13-.71,23.94-17.71c0,0,4.68-2.9,4.92-4l-7.84.53s.6,5.73-2.64,9.18c0,0,2.88-8.91,1.49-9.16-.28,0-4.14.46-4.14.46s1,10-4.23,15.14c0,0,4.86-10.15,2.74-15L101,123.72s1.59,10.5-4.13,16.6c0,0,4.7-10.78,2.88-16.26l-5.54,1.86s1.34,10.26-3.44,15.33c0,0,4.17-13,2.21-14.8,0,0-5,2-6,3.17,0,0,.79,7.4-2.25,10.07,0,0,1.87-9,.94-9.36,0,0-5.79,4.36-7.55,8.12,0,0,2.2-5.74,6.82-9a12.11,12.11,0,0,0-6.87,1s2-3.81,8.27-2c0,0,4.65-3.22,5.58-3.17,0,0-5.93-2.64-10.22-2.31,0,0,4.6-2.65,11.67,1.77l5.51-2s-7.66-3.93-11.5-3.91c0,0,5.11-2,12.94,3.52l5.66-1.17s-6.34-3.89-10.63-4.79c0,0,5.14-.81,12.26,4.53l3.87-.33s-4.69-2.76-6.1-3.43S104,116,104,116a18.36,18.36,0,0,1,9.08,4.36S121.09,120.23,121.13,119.74Z" transform="translate(-9.4 -24.5)"/></g><g class="cls-22"><path class="cls-9" d="M97.46,77.77s-14-32.4-34.17-17.54c0,0-4.26,1.24-4.23,5.66,0,0,1.66-.77,2.71,2.68a16.16,16.16,0,0,0,1.59,3.49,8,8,0,0,0,3.83,3.31h0s8.13,7,24.33,3.11c0,0,4.43,1,5.19.44l-4.95-4.16S88.85,78.51,85,78.69c0,0,6.78-3.65,6.1-4.58-.14-.19-2.72-2.08-2.72-2.08s-5.09,6.49-11.1,6.59c0,0,8.67-3.27,10.15-7.32l-4.07-2.65s-5.12,7.16-12,7.53c0,0,8.94-3.73,11-8l-4.36-2s-5,6.87-10.77,7.13c0,0,9.9-5.35,9.74-7.54,0,0-4.1-1.64-5.41-1.54,0,0-3.73,4.84-7.07,4.7,0,0,6.23-4.28,5.89-5,0,0-5.92-.71-9.11.53A18,18,0,0,1,70.39,63a9.88,9.88,0,0,0-4.62-3.33s3.37-1.13,6.06,3.51c0,0,4.59.74,5.13,1.29,0,0-2-5-4.76-7.2,0,0,4.23,1.06,5.92,7.71l4.42,2S80.23,60.18,77.93,58c0,0,4.16,1.73,5.69,9.46l4,2.54s-1.55-5.93-3.58-8.9c0,0,3.51,2.44,4.71,9.67l2.48,2S90,68.48,89.57,67.28s-.17-1.43-.17-1.43a15.29,15.29,0,0,1,2.9,7.76S97.16,78.05,97.46,77.77Z" transform="translate(-9.4 -24.5)"/></g><g class="cls-22"><path class="cls-9" d="M370.64,94.62s-3.3-15.86-13.75-11a2.75,2.75,0,0,0-2.43,2.15s.82-.2,1,1.45a7.65,7.65,0,0,0,.38,1.72,3.65,3.65,0,0,0,1.42,1.84h0s3,3.89,10.63,3.65c0,0,1.91.84,2.3.68l-1.84-2.33a4.89,4.89,0,0,1-3.42,1.14s3.38-1,3.17-1.5c-.05-.1-1-1.19-1-1.19s-2.89,2.45-5.61,1.94c0,0,4.19-.67,5.24-2.36l-1.59-1.56S362.15,92,359,91.48c0,0,4.37-.84,5.68-2.58L363,87.58s-2.91,2.61-5.51,2.2c0,0,4.95-1.49,5.08-2.48a10.48,10.48,0,0,0-2.29-1.2s-2.12,1.83-3.61,1.46c0,0,3.17-1.34,3.11-1.71a11.32,11.32,0,0,0-4.14-.61,8.28,8.28,0,0,1,4.25.19,4.44,4.44,0,0,0-1.77-1.92s1.62-.2,2.4,2.11a10.48,10.48,0,0,1,2.19,1.06,10.32,10.32,0,0,0-1.47-3.7s1.8.86,1.95,4l1.8,1.29s-.42-3.22-1.25-4.42c0,0,1.71,1.17,1.68,4.76L367,90.13a16.88,16.88,0,0,0-.79-4.33s1.35,1.43,1.22,4.76l.93,1.14s-.14-2-.24-2.64.05-.66.05-.66a6.93,6.93,0,0,1,.59,3.76A17.33,17.33,0,0,0,370.64,94.62Z" transform="translate(-9.4 -24.5)"/></g><g class="cls-22"><path class="cls-9" d="M313.74,388.66s-3.3-15.86-13.75-11.05a2.79,2.79,0,0,0-2.44,2.15s.82-.19,1,1.46a6.89,6.89,0,0,0,.38,1.72,3.7,3.7,0,0,0,1.42,1.84h0s3,3.89,10.63,3.65c0,0,1.91.83,2.3.67l-1.84-2.32a4.91,4.91,0,0,1-3.43,1.13s3.39-1,3.17-1.49c0-.1-1-1.19-1-1.19s-2.88,2.44-5.61,1.93c0,0,4.2-.66,5.24-2.35l-1.58-1.59s-2.9,2.75-6,2.27c0,0,4.36-.85,5.68-2.59l-1.77-1.32s-2.9,2.61-5.5,2.2c0,0,4.95-1.48,5.08-2.48a10.73,10.73,0,0,0-2.29-1.2s-2.12,1.83-3.62,1.46c0,0,3.18-1.34,3.12-1.71a11.39,11.39,0,0,0-4.15-.61,8.21,8.21,0,0,1,4.26.2,4.58,4.58,0,0,0-1.77-1.93s1.61-.19,2.4,2.12a10.38,10.38,0,0,1,2.19,1.05,10.32,10.32,0,0,0-1.47-3.7s1.8.87,1.94,4l1.81,1.29s-.42-3.23-1.25-4.42c0,0,1.71,1.16,1.68,4.76l1.58,1.51a16.64,16.64,0,0,0-.78-4.33s1.35,1.42,1.22,4.76l.93,1.13s-.15-2-.24-2.64.05-.66.05-.66a7.06,7.06,0,0,1,.59,3.76A19.61,19.61,0,0,0,313.74,388.66Z" transform="translate(-9.4 -24.5)"/></g></svg>